<?xml version="1.0" encoding="UTF-8" standalone="no"?>
<svg
   xmlns:dc="http://purl.org/dc/elements/1.1/"
   xmlns:cc="http://creativecommons.org/ns#"
   xmlns:rdf="http://www.w3.org/1999/02/22-rdf-syntax-ns#"
   xmlns:svg="http://www.w3.org/2000/svg"
   xmlns="http://www.w3.org/2000/svg"
   xmlns:xlink="http://www.w3.org/1999/xlink"
   width="40mm"
   height="40mm"
   viewBox="0 0 40 40"
   version="1.1"
   id="svg3150">
  <defs
     id="defs3144">
    <linearGradient
       gradientUnits="userSpaceOnUse"
       gradientTransform="scale(0.77777778,1.2857143)"
       x1="184.5"
       y1="35.965008"
       x2="184.5"
       y2="166.87286"
       id="linearGradient-1">
      <stop
         stop-color="#F7E2A8"
         offset="0%"
         id="stop994" />
      <stop
         stop-color="#F1DDAF"
         offset="100%"
         id="stop996" />
    </linearGradient>
    <linearGradient
       gradientUnits="userSpaceOnUse"
       gradientTransform="scale(0.8359397,1.1962585)"
       x1="90.915649"
       y1="40.125107"
       x2="90.915649"
       y2="178.8911"
       id="linearGradient-2">
      <stop
         stop-color="#F7E2A8"
         offset="0%"
         id="stop999" />
      <stop
         stop-color="#F1DDAF"
         offset="100%"
         id="stop1001" />
    </linearGradient>
    <linearGradient
       gradientUnits="userSpaceOnUse"
       gradientTransform="scale(0.83405766,1.1989579)"
       x1="91.120796"
       y1="55.047806"
       x2="91.120796"
       y2="170.14777"
       id="linearGradient-3">
      <stop
         stop-color="#F3B011"
         offset="0%"
         id="stop1004" />
      <stop
         stop-color="#F5A711"
         offset="100%"
         id="stop1006" />
    </linearGradient>
    <linearGradient
       xlink:href="#linearGradient-1"
       id="linearGradient466"
       gradientUnits="userSpaceOnUse"
       gradientTransform="scale(0.77777778,1.2857143)"
       x1="184.5"
       y1="35.965008"
       x2="184.5"
       y2="166.87286" />
    <linearGradient
       xlink:href="#linearGradient-2"
       id="linearGradient468"
       gradientUnits="userSpaceOnUse"
       gradientTransform="scale(0.8359397,1.1962585)"
       x1="90.915649"
       y1="40.125107"
       x2="90.915649"
       y2="178.8911" />
    <linearGradient
       xlink:href="#linearGradient-3"
       id="linearGradient470"
       gradientUnits="userSpaceOnUse"
       gradientTransform="scale(0.83405766,1.1989579)"
       x1="91.120796"
       y1="55.047806"
       x2="91.120796"
       y2="170.14777" />
  </defs>
  <g
     id="layer1"
     transform="translate(0,-257)">
    <g
       transform="matrix(0.3783058,0,0,0.3783058,-312.8271,255.76587)"
       id="beerGuru"
       class="holy-upgrade-item">
      <g
         transform="translate(-215.58701,-95.679285)"
         id="beerDefeater"
         class="holy-upgrade-item">
        <g
           id="g4595-1-1-3-5-87"
           transform="matrix(-1,0,0,1,1385.6046,-249.75368)">
          <circle
             id="path3771-7-6-1-3-7"
             style="fill:none;stroke:#000000;stroke-width:5;stroke-miterlimit:4;stroke-dasharray:none;stroke-opacity:1"
             r="48.061165"
             cy="401.30939"
             cx="290.28085" />
          <circle
             id="path3771-4-2-4-2-5-2"
             class="holy-upgrade-identifier"
             style="fill:none;stroke-width:5.5;stroke-miterlimit:4;stroke-dasharray:none;stroke-opacity:1"
             cy="401.5625"
             cx="290.23438"
             r="52.867283" />
        </g>
        <path
           style="fill:#0059ff;fill-opacity:1;stroke-width:0.01485484"
           d="M 1094.6085,121.30495 V 120.60834 H 1096.8146 L 1098.9438,120.51964 V 121.22095 121.92226 L 1096.8146,122.00166 H 1094.6085 Z"
           id="path92-9-4" />
        <path
           style="fill:#002bff;fill-opacity:1;stroke-width:0.01485484"
           d="M 1091.6813,121.22091 V 120.69493 L 1093.1833,120.60833 1094.9968,120.69963 V 121.39625 122.09287 L 1093.1833,122.00157 1091.6813,121.92217 Z"
           id="path98-5-9" />
        <path
           style="fill:#0082ff;fill-opacity:1;stroke-width:0.08403165"
           d="M 1089.1475,179.25737 C 1088.9739,179.14771 1088.7227,178.88565 1088.5893,178.6749 L 1088.3467,178.29175 1088.2837,164.33004 C 1088.2487,156.65108 1088.2367,149.81041 1088.2567,149.12855 1088.3147,147.14628 1088.6527,145.73008 1089.5194,143.83523 1090.0879,142.59242 1090.7521,141.47305 1092.2637,139.21059 1093.5574,137.27433 1093.8754,136.74024 1094.2463,135.88071 1094.7048,134.8183 1094.715,134.62362 1094.6605,127.94219 L 1094.6115,121.89843 H 1096.8021 L 1098.9442,121.92213 1098.9942,128.3406 1098.9952,134.78285 1099.182,135.37027 C 1099.4515,136.21808 1099.9715,137.1408 1101.2769,139.08683 1103.431,142.29831 1104.361,144.04581 1104.8772,145.852 1105.4232,147.76237 1105.3977,146.79702 1105.3392,163.29188 L 1105.2862,178.16371 1105.1092,178.51514 C 1105.0122,178.70841 1104.7944,178.98965 1104.6259,179.14012 L 1104.3195,179.4137 1096.891,179.4351 1089.4626,179.4565 Z"
           id="path88-6-6" />
        <path
           style="fill:#0059ff;fill-opacity:1;stroke-width:0.08403165"
           d="M 1086.2703,179.33518 C 1085.9661,179.18776 1085.4554,178.56332 1085.3768,178.24268 1085.3438,178.10749 1085.3158,171.16283 1085.3148,162.81005 1085.3148,150.49089 1085.3328,147.53118 1085.419,147.13612 1085.9142,144.85618 1086.7446,143.03403 1088.4957,140.38416 1090.2891,137.67038 1090.7657,136.90878 1091.0788,136.2561 1091.6708,135.02235 1091.6798,135.30481 1091.6805,128.23851 L 1091.6811,121.92222 1093.21,121.89852 H 1094.7674 L 1094.7444,128.34078 1094.7224,134.78303 1094.5329,135.31435 C 1094.2275,136.17042 1093.7014,137.0874 1092.3895,139.04973 1091.7117,140.06364 1090.932,141.27177 1090.6567,141.73446 1089.3232,143.97644 1088.5796,146.06898 1088.3889,148.11662 1088.3389,148.6495 1088.3319,154.25343 1088.3669,163.60712 L 1088.4229,178.2627 1088.5988,178.6279 C 1088.6808,178.72812 1089.018,179.12621 1089.1548,179.25409 L 1089.5882,179.45816 1087.8907,179.45516 C 1086.9331,179.45216 1086.4357,179.41616 1086.2699,179.33579 Z"
           id="path90-9-0" />
        <path
           style="fill:#0059ff;fill-opacity:1;stroke-width:0.01485484"
           d="M 1090.8222,120.24022 V 119.70928 L 1091.1288,119.59643 C 1091.2974,119.53433 1091.4407,119.47817 1091.4472,119.47165 1091.4572,119.46465 1091.3173,119.40725 1091.1441,119.34311 L 1090.8292,119.22652 V 118.69166 118.15681 H 1092.9237 1095.0181 L 1094.9691,118.22371 C 1094.9061,118.30891 1094.8389,118.46679 1094.8182,118.5774 1094.7982,118.6865 1094.8082,118.93843 1094.8382,119.04156 1094.8742,119.16857 1094.9627,119.31634 1095.0472,119.39207 L 1095.1624,119.46757 1095.0234,119.57209 C 1094.9154,119.69104 1094.8632,119.79087 1094.8267,119.94858 1094.8017,120.05796 1094.7987,120.24974 1094.8267,120.36717 1094.8477,120.47946 1094.9167,120.63623 1094.9764,120.71021 L 1095.0264,120.77101 H 1092.9315 1090.8365 Z"
           id="path94-8-9" />
        <path
           style="fill:#0082ff;fill-opacity:1;stroke-width:0.01485484"
           d="M 1094.9779,120.74149 C 1094.6963,120.6335 1094.5653,120.20968 1094.7087,119.87092 1094.7787,119.70547 1094.9987,119.48553 1095.1547,119.46765 V 119.46765 119.46765 C 1095.1547,119.36975 1095.1547,119.36975 1095.1547,119.46765 1094.9307,119.42875 1094.7422,119.20234 1094.679,118.97518 1094.59,118.65573 1094.715,118.31001 1094.9578,118.20094 L 1095.0388,118.16474 1097.4247,118.16074 1099.8107,118.15674 V 118.69182 119.22689 L 1099.4865,119.34765 C 1099.2051,119.45245 1099.1669,119.47049 1099.1975,119.48382 1099.2165,119.49182 1099.3644,119.54752 1099.5253,119.60666 L 1099.8178,119.71423 V 120.24284 120.77146 L 1097.439,120.77095 C 1095.1717,120.77046 1095.0568,120.76995 1094.9856,120.74175 Z"
           id="path96-1-7" />
        <ellipse
           style="fill:#00c7ff;fill-opacity:1;stroke:#000000;stroke-width:0.15552066;stroke-opacity:1"
           id="path911-5-9"
           cx="1095.6012"
           cy="160.77922"
           rx="7.2292714"
           ry="12.128015" />
        <g
           id="g4781-5-0"
           transform="matrix(0.08950616,0,0,0.09939774,1093.5168,132.87655)">
          <g
             id="Symbols-0-9"
             style="fill:none;fill-rule:evenodd;stroke:none;stroke-width:1"
             transform="matrix(0.61818536,0,0,0.61818536,-26.792154,211.0104)">
            <g
               id="Bier-2-2">
              <path
                 id="Schaum-0-5"
                 d="M 90.802375,51 C 95.647498,54.760268 101.73906,57 108.35548,57 112.19668,57 115.86098,56.24511 119.20719,54.876057 121.78505,60.822885 127.86002,65 134.94352,65 144.36355,65 152,57.612698 152,48.5 152,39.969485 145.30813,32.950949 136.72561,32.088979 136.87381,30.913431 136.95017,29.715603 136.95017,28.5 136.95017,12.759885 124.14789,0 108.35548,0 99.83824,0 92.190743,3.711487 86.952263,9.6002847 84.65374,8.5783055 82.036298,8 79.259136,8 75.078031,8 71.258949,9.3108024 68.345159,11.472979 64.288066,4.5909983 56.988447,0 48.657807,0 38.310547,0 29.553888,7.0827388 26.625519,16.840923 24.209942,15.664564 21.466627,15 18.558139,15 8.8610468,15 1,22.387302 1,31.5 1,40.612698 8.8610468,48 18.558139,48 V 51 Z"
                 style="fill:#ffffff" />
              <path
                 id="Henkel-4-1"
                 d="M 127,82 H 160 C 164.41828,82 168,85.581722 168,90 V 155 C 168,159.41828 164.41828,163 160,163 H 127 V 163 C 122.58172,163 119,159.41828 119,155 V 90 90 C 119,85.581722 122.58172,82 127,82 Z M 119,95 V 151 H 151 C 154.31371,151 157,148.31371 157,145 V 101 C 157,97.686291 154.31371,95 151,95 Z"
                 style="fill:url(#linearGradient466)" />
              <path
                 id="Glass-7-1"
                 d="M 18,48 H 134 V 198 198 C 134,206.83656 126.83656,214 118,214 H 34 V 214 C 25.163444,214 18,206.83656 18,198 Z"
                 style="fill:url(#linearGradient468)" />
              <path
                 id="path1014-5-7"
                 d="M 28,66 H 124 V 196 196 C 124,200.41828 120.41828,204 116,204 H 36 V 204 C 31.581722,204 28,200.41828 28,196 Z"
                 style="fill:url(#linearGradient470)" />
              <path
                 id="Schaum-2-6-4"
                 d="M 51.5,37 V 37 C 56.19442,37 60,40.80558 60,45.5 V 106.5 106.5 C 60,111.19442 56.19442,115 51.5,115 V 115 C 46.80558,115 43,111.19442 43,106.5 V 45.5 45.5 C 43,40.80558 46.80558,37 51.5,37 Z M 51.5,136 C 46.80558,136 43,132.19442 43,127.5 43,122.80558 46.80558,119 51.5,119 56.19442,119 60,122.80558 60,127.5 60,132.19442 56.19442,136 51.5,136 Z M 81.5,40 C 86.19442,40 90,43.80558 90,48.5 V 82.5 C 90,87.19442 86.19442,91 81.5,91 V 91 91 C 76.80558,91 73,87.19442 73,82.5 V 48.5 48.5 C 73,43.80558 76.80558,40 81.5,40 Z"
                 style="fill:#ffffff" />
            </g>
          </g>
        </g>
      </g>
      <path
         style="stroke-width:0.25253814;fill:#e6e6e6"
         d="M 72.050478,140.18298 C 59.945491,139.35598 49.028273,135.70892 39.538756,129.32199 35.413927,126.54576 33.105424,124.64744 29.60774,121.15553 24.306347,115.86288 20.539512,110.59244 17.235849,103.84515 13.964852,97.164577 12.261994,91.736568 11.163658,84.489514 10.443121,79.735249 10.380121,71.548535 11.027905,66.848503 14.737175,39.93568 34.116677,18.379708 60.307454,12.034475 65.088223,10.876239 68.005615,10.507446 73.589172,10.355509 79.405004,10.197251 82.963585,10.46687 88.066635,11.452405 113.50879,16.365965 134.066,36.714587 139.19353,62.060521 140.1946,67.008907 140.36208,68.912275 140.35924,75.308343 140.35624,82.052554 140.08244,84.694954 138.82841,90.081824 136.7139,99.165086 131.92586,108.89691 125.96872,116.21952 123.61799,119.10908 119.05131,123.63463 116.11838,125.98115 106.8198,133.42057 95.672693,138.16425 83.91977,139.68337 80.889835,140.075 74.442345,140.3464 72.050478,140.18298 Z M 89.01059,114.65266 C 89.992729,113.7999 90.001335,113.57406 89.923415,90.70179 L 89.847744,68.489814 89.265901,66.848316 C 88.390778,64.379405 87.019021,61.808518 84.446021,57.815103 83.168997,55.8331 81.847427,53.617078 81.509202,52.890609 L 80.894247,51.569759 80.89178,41.405099 80.889312,31.240439 H 81.520658 C 82.055245,31.240439 82.152003,31.123116 82.152003,30.474899 82.152003,30.004243 81.995439,29.649279 81.745553,29.553389 81.371978,29.410035 81.371978,29.379021 81.745553,29.169959 81.975885,29.041059 82.152003,28.619657 82.152003,28.197433 V 27.452367 H 75.586011 69.02002 V 28.33625 C 69.02002,28.864365 69.147079,29.228159 69.335693,29.240071 69.588231,29.256021 69.588231,29.285484 69.335693,29.387385 69.162073,29.457442 69.02002,29.903039 69.02002,30.3776 69.02002,31.138022 69.097807,31.240439 69.675344,31.240439 H 70.330668 L 70.238312,41.405099 C 70.130867,53.230732 70.435701,51.803612 66.81665,57.424002 63.695276,62.271499 62.853872,63.846372 61.964021,66.506758 L 61.191338,68.816853 V 91.172986 113.52912 L 61.833353,114.29211 C 62.321406,114.87213 62.730194,115.07712 63.537985,115.14691 64.122424,115.19741 69.998605,115.18869 76.596164,115.12754 86.559182,115.03519 88.662699,114.95473 89.01059,114.65266 Z"
         id="path39"
         transform="matrix(0.69939011,0,0,0.69939011,826.91595,3.262255)" />
      <path
         style="fill:#e6e6e6;stroke-width:0.25253814"
         d="M 72.218655,140.17767 C 72.195606,140.15953 71.210788,140.06778 70.030172,139.97378 66.572506,139.69849 63.642026,139.18807 59.54984,138.14837 58.16088,137.79548 56.910816,137.47885 56.77192,137.44475 56.633024,137.41064 56.348919,137.31739 56.140575,137.23751 55.932231,137.15763 55.307199,136.96137 54.751615,136.80138 54.196031,136.64138 53.571,136.44369 53.362656,136.36207 53.154312,136.28044 52.927027,136.19981 52.857579,136.1829 52.788131,136.16598 52.447205,135.99491 52.099965,135.80274 51.752725,135.61057 51.441401,135.46943 51.408137,135.48911 51.309776,135.54727 50.528087,135.26479 49.448315,134.78087 45.820374,133.15498 44.776359,132.64307 44.776359,132.49008 44.776359,132.39487 44.407022,132.16511 43.95561,131.97952 43.504198,131.79392 42.663812,131.32556 42.088086,130.93873 41.512357,130.55189 40.915735,130.23539 40.76226,130.23539 40.608783,130.23539 40.483211,130.12175 40.483211,129.98285 40.483211,129.84395 40.312747,129.73031 40.104404,129.73031 39.89606,129.73031 39.725596,129.61667 39.725596,129.47777 39.725596,129.33888 39.555133,129.22524 39.346789,129.22524 39.138445,129.22524 38.967982,129.11159 38.967982,128.9727 38.967982,128.8338 38.84938,128.72016 38.704423,128.72016 38.559464,128.72016 38.134467,128.43605 37.759983,128.08881 37.385502,127.74157 36.992715,127.45747 36.887123,127.45747 36.781532,127.45747 36.481348,127.25859 36.220046,127.01553 35.958745,126.77246 35.475766,126.37075 35.146758,126.12284 33.702631,125.03469 32.511846,123.93162 29.67658,121.05563 26.210422,117.53967 25.493232,116.75392 24.46173,115.34223 24.053122,114.78302 23.626964,114.32549 23.514712,114.32549 23.40246,114.32549 23.310618,114.18227 23.310618,114.00723 23.310618,113.83219 23.054923,113.40603 22.742407,113.06021 22.429891,112.71439 22.01294,112.11893 21.815849,111.73697 21.618759,111.35501 21.363064,111.04249 21.247639,111.04249 21.132213,111.04249 21.037774,110.87203 21.037774,110.66368 21.037774,110.45534 20.936452,110.28488 20.812613,110.28488 20.688775,110.28488 20.522709,110.02692 20.443579,109.71164 20.364449,109.39636 20.090065,108.91338 19.833838,108.63835 19.57761,108.36332 19.357638,108.08148 19.345009,108.01203 19.260183,107.54553 18.378164,105.99173 18.198178,105.99173 18.07681,105.99173 18.047743,105.87808 18.133586,105.73919 18.219428,105.60029 18.150374,105.48665 17.980131,105.48665 17.809889,105.48665 17.741492,105.41576 17.828138,105.32911 18.004367,105.15288 17.063661,103.17396 16.689132,102.93304 16.557032,102.84806 16.455738,102.67759 16.464035,102.55423 16.488989,102.1832 15.897583,100.68843 15.725831,100.68843 15.637987,100.68843 15.563565,100.54637 15.560449,100.37275 15.557332,100.19913 15.349791,99.602512 15.099245,99.046928 14.8487,98.491344 14.62888,97.979954 14.610756,97.910506 14.592633,97.841058 14.261444,96.849488 13.87478,95.707015 13.488117,94.564543 13.188145,93.598584 13.208177,93.560441 13.228209,93.522298 13.112876,93.150163 12.951882,92.733475 12.65759,91.971784 12.529933,91.50027 12.302346,90.334362 12.234565,89.987122 12.121972,89.513222 12.052139,89.281251 11.63503,87.895675 11.051402,84.134973 10.804672,81.24299 10.508178,77.767716 10.668638,68.705777 11.064031,66.595778 11.103072,66.387434 11.313057,65.251012 11.530664,64.070396 12.103197,60.964145 12.139683,60.793585 12.543605,59.335306 12.745583,58.606103 12.870102,58.009481 12.820313,58.009481 12.770525,58.009481 12.895978,57.611734 13.099098,57.125598 13.302219,56.639462 13.396147,56.241714 13.307828,56.241714 13.219509,56.241714 13.28872,56.071251 13.46163,55.862907 13.63454,55.654563 13.691362,55.4841 13.587899,55.4841 13.484437,55.4841 13.525082,55.333127 13.678221,55.148608 13.83136,54.964086 14.007293,54.537928 14.069184,54.20159 14.131075,53.86525 14.204362,53.561653 14.232046,53.526929 14.259729,53.492205 14.306107,53.378563 14.335108,53.274391 14.390613,53.075015 14.636373,52.478088 15.348836,50.812144 15.586438,50.25656 15.806894,49.68835 15.838736,49.549454 15.955136,49.041718 18.900593,43.230275 19.206494,42.904802 19.379905,42.720297 19.591099,42.293177 19.675813,41.95565 19.760527,41.618122 19.93116,41.341964 20.054999,41.341964 20.178838,41.341964 20.28016,41.180971 20.28016,40.984201 20.28016,40.787433 20.367445,40.58856 20.474128,40.542259 20.58081,40.495962 21.06186,39.833049 21.543129,39.069121 22.024397,38.305193 22.675785,37.397218 22.990659,37.051397 23.305532,36.705576 23.563156,36.336239 23.563156,36.230648 23.563156,36.125057 23.76203,35.824877 24.005097,35.563581 24.248165,35.302285 24.674324,34.789901 24.952115,34.42495 26.589264,32.274132 30.804956,27.9086 33.026661,26.063407 33.695612,25.507823 34.500534,24.82597 34.815376,24.548178 35.130218,24.270386 35.635744,23.872639 35.938764,23.664295 36.457672,23.307516 37.19276,22.736704 37.884035,22.153747 38.051794,22.012277 38.307489,21.896528 38.452246,21.896528 38.597006,21.896528 38.715444,21.782886 38.715444,21.64399 38.715444,21.505094 38.885907,21.391452 39.094251,21.391452 39.302595,21.391452 39.473058,21.297013 39.473058,21.181587 39.473058,21.066162 39.785574,20.814562 40.167538,20.622477 40.549502,20.430392 41.202944,20.042085 41.619632,19.759574 42.59194,19.100357 43.197309,18.775813 46.488484,17.149341 47.977495,16.413484 49.517502,15.646399 49.910722,15.444708 50.303941,15.243018 50.716223,15.077998 50.8269,15.077998 50.937577,15.077998 51.468168,14.894139 52.00599,14.669423 52.543811,14.444706 52.994793,14.302653 53.00817,14.35375 53.021545,14.404847 53.192008,14.322234 53.386978,14.170167 53.581945,14.0181 54.309674,13.744771 55.004153,13.56277 55.698633,13.380768 56.408897,13.121935 56.582517,12.987585 56.756137,12.853234 56.898189,12.811234 56.898189,12.894252 56.898189,12.977269 57.210705,12.924271 57.592669,12.776479 57.974633,12.628687 58.486023,12.461037 58.729091,12.403923 58.972159,12.346809 59.398317,12.243258 59.676109,12.17381 59.953901,12.104362 60.43688,11.992637 60.749396,11.925531 61.061912,11.858426 61.658533,11.72279 62.075221,11.624116 63.063767,11.390025 62.908451,11.419841 64.307772,11.195535 64.980092,11.087765 65.755078,10.956276 66.029968,10.903338 67.571388,10.606487 70.529231,10.463039 75.586011,10.439894 80.569048,10.417086 82.22259,10.50126 84.929922,10.915551 85.277162,10.968687 85.92737,11.065975 86.374827,11.131745 86.822287,11.197515 87.390497,11.310211 87.637518,11.382179 87.88454,11.454148 88.484397,11.574417 88.970533,11.649444 90.206626,11.840214 90.587565,11.934511 92.948008,12.634015 94.0939,12.973593 95.031448,13.193925 95.031448,13.12364 95.031448,13.053355 95.201911,13.137321 95.410255,13.310231 95.618599,13.483141 95.789062,13.539963 95.789062,13.4365 95.789062,13.333038 95.976991,13.404355 96.206682,13.594982 96.436376,13.785609 96.635249,13.905177 96.648624,13.860689 96.662001,13.816201 96.992858,13.901432 97.383866,14.050093 97.774871,14.198753 98.202572,14.320384 98.334311,14.320384 98.46605,14.320384 98.771166,14.420767 99.01235,14.543458 99.253534,14.666149 99.791792,14.909408 100.20848,15.084035 100.62517,15.258661 101.47748,15.65521 102.10252,15.965253 102.72755,16.275297 103.55145,16.602413 103.93342,16.692179 104.31538,16.781944 104.6279,16.973572 104.6279,17.118019 104.6279,17.262466 104.72687,17.319481 104.84784,17.244718 104.96881,17.169956 105.31259,17.321108 105.6118,17.580612 105.91101,17.840115 106.5223,18.202295 106.97022,18.385454 107.41814,18.568614 107.93479,18.865324 108.11834,19.044809 108.30187,19.224295 108.61439,19.371147 108.81281,19.371147 109.01124,19.371147 109.17358,19.482624 109.17358,19.618873 109.17358,19.755123 109.45769,19.937906 109.80493,20.025058 110.15217,20.112209 110.43627,20.284838 110.43627,20.408676 110.43627,20.532515 110.60674,20.633837 110.81508,20.633837 111.02343,20.633837 111.19389,20.747479 111.19389,20.886375 111.19389,21.025271 111.36435,21.138914 111.5727,21.138914 111.78104,21.138914 111.9515,21.252556 111.9515,21.391452 111.9515,21.530348 112.0701,21.64399 112.21506,21.64399 112.36002,21.64399 112.78502,21.928095 113.1595,22.275335 113.53398,22.622575 113.92045,22.90668 114.01831,22.90668 114.11617,22.90668 114.62872,23.303885 115.15731,23.789357 115.6859,24.27483 116.18933,24.672577 116.27604,24.673241 116.54098,24.675268 117.87994,25.914325 121.36722,29.384553 124.97324,32.972941 125.61274,33.676078 126.70865,35.257488 127.10266,35.826031 127.52321,36.291202 127.64321,36.291202 127.76322,36.291202 127.86141,36.434416 127.86141,36.609455 127.86141,36.784494 128.14551,37.234103 128.49275,37.608584 128.83999,37.983068 129.1241,38.408065 129.1241,38.553024 129.1241,38.697981 129.23774,38.816583 129.37663,38.816583 129.51553,38.816583 129.62917,38.987046 129.62917,39.19539 129.62917,39.403734 129.74281,39.574197 129.88171,39.574197 130.02061,39.574197 130.13425,39.744661 130.13425,39.953005 130.13425,40.161349 130.23464,40.331812 130.35733,40.331812 130.48003,40.331812 130.65332,40.530686 130.74242,40.773754 130.97986,41.421473 131.69959,42.711125 131.90514,42.857193 132.00287,42.926641 132.32778,43.494852 132.62716,44.119884 132.92654,44.744916 133.33591,45.540411 133.53688,45.887651 133.91046,46.533158 135.34376,49.649883 135.68538,50.559606 135.7897,50.837398 135.99312,51.348788 136.13744,51.696028 137.24535,54.361861 138.86011,59.993779 139.35951,62.933975 139.43029,63.350663 139.59511,64.2598 139.72579,64.95428 140.16367,67.281444 140.24917,68.960138 140.24672,75.182074 140.24368,82.886109 139.92932,86.185305 138.84472,89.896136 138.65129,90.557934 138.48943,91.155066 138.48504,91.223097 138.45804,91.64154 138.11813,92.877606 137.79192,93.743627 137.58265,94.299211 137.42187,94.78219 137.43464,94.816914 137.44741,94.851638 137.44365,94.93687 137.42629,95.006318 L 137.33159,95.385125 C 137.29686,95.524021 137.24004,95.694484 137.20532,95.763932 137.17059,95.83338 137.11377,96.003844 137.07905,96.142739 137.04432,96.281635 136.9875,96.452099 136.95278,96.521547 136.91805,96.590995 136.86592,96.733047 136.83692,96.837219 136.80791,96.941391 136.64037,97.367549 136.4646,97.784237 136.28883,98.200925 136.12242,98.655494 136.09481,98.79439 136.0672,98.933286 135.91202,99.28768 135.74996,99.581935 135.58791,99.876188 135.52708,100.1887 135.61479,100.27642 135.7025,100.36412 135.66451,100.43589 135.53037,100.43589 135.28394,100.43589 134.53386,102.16901 134.62867,102.51933 134.65687,102.6235 134.55959,102.70873 134.41249,102.70873 134.2654,102.70873 134.21528,102.82237 134.30113,102.96127 134.38697,103.10017 134.35064,103.21381 134.2204,103.21381 133.96856,103.21381 133.25594,104.7253 133.3572,105.04471 133.39022,105.14888 133.29689,105.23411 133.1498,105.23411 133.00271,105.23411 132.95259,105.34775 133.03844,105.48665 133.12428,105.62555 133.06746,105.73919 132.91217,105.73919 132.75688,105.73919 132.70006,105.85283 132.7859,105.99173 132.87174,106.13062 132.83987,106.24426 132.71507,106.24426 132.52772,106.24426 131.91234,107.30206 131.83357,107.75949 131.82161,107.82894 131.66165,108.03593 131.47811,108.21947 131.29457,108.40301 131.1444,108.71553 131.1444,108.91395 131.1444,109.11238 131.04904,109.27472 130.93249,109.27472 130.81594,109.27472 130.50343,109.72799 130.23801,110.28198 129.9726,110.83597 129.67021,111.29054 129.56604,111.29213 129.46187,111.29372 129.37663,111.41363 129.37663,111.55859 129.37663,111.70355 129.09253,112.12854 128.74529,112.50303 128.39805,112.87751 128.11394,113.32712 128.11394,113.50216 128.11394,113.67719 128.00796,113.82041 127.87842,113.82041 127.74889,113.82041 127.57646,114.01928 127.49526,114.26235 127.41406,114.50542 126.98024,115.11441 126.53123,115.61566 126.08221,116.11691 125.14662,117.18745 124.45214,117.99464 122.2032,120.60857 117.6602,124.90125 115.35626,126.58933 114.68807,127.07891 113.8614,127.72684 113.28799,128.2104 113.12023,128.35187 112.86453,128.46762 112.71978,128.46762 112.57502,128.46762 112.45658,128.58126 112.45658,128.72016 112.45658,128.85905 112.33818,128.9727 112.19348,128.9727 112.04878,128.9727 111.68642,129.19998 111.38825,129.47777 111.09007,129.75557 110.69708,129.98285 110.51492,129.98285 110.33277,129.98285 110.18374,130.08324 110.18374,130.20593 110.18374,130.32863 109.98486,130.49878 109.74179,130.58405 109.49873,130.66932 108.84528,131.00638 108.2897,131.33307 107.28339,131.92479 102.26842,134.44054 100.58729,135.19698 100.10115,135.41572 99.506073,135.69573 99.264888,135.81923 99.023704,135.94272 98.718588,136.04376 98.586849,136.04376 98.45511,136.04376 98.027409,136.17629 97.636404,136.33828 97.245397,136.50026 96.840252,136.65652 96.73608,136.68552 96.631908,136.71452 96.489856,136.76666 96.420408,136.80138 96.35096,136.8361 96.180496,136.89292 96.0416,136.92765 95.902704,136.96237 95.760652,137.01368 95.725928,137.04167 95.691204,137.06966 95.49233,137.12781 95.283986,137.17091 95.075642,137.214 94.223326,137.45385 93.38995,137.70391 92.556574,137.95398 91.761079,138.18749 91.622183,138.22283 90.270412,138.56676 89.345971,138.77911 88.465456,138.94795 88.118216,139.01454 87.550006,139.12608 87.202766,139.19583 86.855526,139.26559 86.116852,139.38121 85.561268,139.45278 85.005684,139.52435 84.153368,139.63757 83.667232,139.70438 81.64182,139.98273 72.45364,140.36258 72.218655,140.17767 Z M 89.202751,114.35258 C 89.907247,113.41837 89.99284,110.56253 89.974627,88.599246 L 89.95804,68.59769 89.180902,66.649715 C 88.165658,64.104908 87.408466,62.621562 85.866854,60.157485 85.171177,59.045529 84.474399,57.908466 84.318457,57.630674 84.162515,57.352882 83.355572,55.989176 82.525252,54.600216 L 81.015581,52.074835 80.944449,41.676249 80.873319,31.277663 81.449525,31.195917 C 81.919961,31.129176 82.014688,30.975097 81.965557,30.356555 81.875575,29.223691 81.878148,29.160298 82.05018,28.273116 L 82.209329,27.452367 H 75.642734 69.076139 V 29.346403 C 69.076139,31.198387 69.090157,31.240439 69.707532,31.240439 H 70.338926 L 70.25578,40.394946 C 70.173233,49.483423 70.000219,51.668304 69.219512,53.481341 69.006022,53.977129 67.808789,55.965867 66.55899,57.900758 63.98623,61.883818 62.651806,64.415853 61.786893,66.955682 L 61.191338,68.704547 V 91.116834 113.52912 L 61.850632,114.31264 62.509925,115.09617 75.628504,115.0265 88.747084,114.95683 Z"
         id="path41"
         transform="matrix(0.69939011,0,0,0.69939011,826.91595,3.262255)" />
    </g>
  </g>
</svg>
