<?xml version="1.0" encoding="UTF-8" standalone="no"?>
<svg
   xmlns:dc="http://purl.org/dc/elements/1.1/"
   xmlns:cc="http://creativecommons.org/ns#"
   xmlns:rdf="http://www.w3.org/1999/02/22-rdf-syntax-ns#"
   xmlns:svg="http://www.w3.org/2000/svg"
   xmlns="http://www.w3.org/2000/svg"
   id="svg3150"
   version="1.1"
   viewBox="0 0 40 40"
   height="40mm"
   width="40mm">
  <defs
     id="defs14" />
  <g
     class="holy-upgrade-item"
     id="autoTrainReduction">
    <g
       transform="matrix(0.37827167,0.00508149,-0.00508149,0.37827167,-87.746903,-133.37455)"
       id="g4595-1-1-9-1-3">
      <circle
         cx="290.28085"
         cy="401.30939"
         r="48.061165"
         style="fill:#e6e6e6;fill-opacity:1;stroke:#000000;stroke-width:5;stroke-miterlimit:4;stroke-dasharray:none;stroke-opacity:1"
         id="path3771-7-6-7-8-5" />
      <circle
         r="52.867283"
         cx="290.23438"
         cy="401.5625"
         style="fill:none;stroke-width:5.5;stroke-miterlimit:4;stroke-dasharray:none;stroke-opacity:1"
         class="holy-upgrade-identifier"
         id="path3771-4-2-4-03-1-2" />
    </g>
    <path
       style="fill:#088cff;fill-opacity:1;stroke:none;stroke-width:0.15283972px;stroke-linecap:butt;stroke-linejoin:miter;stroke-opacity:1"
       d="m 25.265035,29.403447 v 0.754064 c 0,0.754064 -0.774469,0.754064 -0.774469,1.508127 0,0.754064 0.774469,1.508129 1.548939,1.508129 0.774469,0 1.548938,-0.754065 1.548938,-1.508129 0,-0.754063 -0.774469,-0.754063 -0.774469,-1.508127 v -0.754064 h 3.872348 v -3.77032 h 0.774469 c 0.77447,0 0.77447,0.754063 1.548939,0.754063 0.774469,0 1.548939,-0.754063 1.548939,-1.508128 0,-0.754063 -0.77447,-1.508127 -1.548939,-1.508127 -0.774469,0 -0.774469,0.754064 -1.548939,0.754064 h -0.774469 v -3.77032 c -1.290783,6e-6 -2.581566,-4e-6 -3.872348,10e-7 v 0.754064 c 0,0.754064 0.774469,0.754064 0.774469,1.508127 0,0.754065 -0.774469,1.508129 -1.548938,1.508129 -0.77447,0 -1.548939,-0.754064 -1.548939,-1.508129 0,-0.754063 0.774469,-0.754063 0.774469,-1.508127 V 20.35468 c -1.807095,0 -3.614191,1e-6 -5.421286,-10e-7 v 3.770319 h 0.77447 c 0.774469,0 0.774469,-0.754063 1.548939,-0.754063 0.77447,0 1.548939,0.754063 1.548939,1.508127 0,0.754065 -0.774469,1.508128 -1.548939,1.508128 -0.77447,0 -0.77447,-0.754063 -1.548939,-0.754063 h -0.77447 v 3.77032 z"
       id="path903-9" />
    <path
       style="fill:#79ee19;fill-opacity:1;stroke:none;stroke-width:0.15283972px;stroke-linecap:butt;stroke-linejoin:miter;stroke-opacity:1"
       d="m 25.265035,20.35468 v 0.754064 c 0,0.754064 -0.774469,0.754064 -0.774469,1.508127 0,0.754065 0.774469,1.508129 1.548939,1.508129 0.774469,0 1.548938,-0.754064 1.548938,-1.508129 0,-0.754063 -0.774469,-0.754063 -0.774469,-1.508127 V 20.35468 h 3.872348 v -3.77032 h 0.774469 c 0.77447,0 0.77447,0.754063 1.548939,0.754063 0.774469,0 1.548939,-0.754063 1.548939,-1.508127 0,-0.754063 -0.77447,-1.508128 -1.548939,-1.508128 -0.774469,0 -0.774469,0.754065 -1.548939,0.754065 h -0.774469 v -3.770321 c -1.290783,7e-6 -2.581565,-3e-6 -3.872348,1e-6 v 0.754064 c 0,0.754064 0.774469,0.754064 0.774469,1.508128 0,0.754064 -0.774469,1.508128 -1.548938,1.508128 -0.77447,0 -1.548939,-0.754064 -1.548939,-1.508128 0,-0.754064 0.774469,-0.754064 0.774469,-1.508128 v -0.754064 c -1.807095,0 -3.61419,10e-7 -5.421285,-1e-6 v 3.77032 h 0.774469 c 0.77447,0 0.77447,-0.754064 1.548939,-0.754064 0.77447,0 1.548939,0.754064 1.548939,1.508128 0,0.754064 -0.774469,1.508127 -1.548939,1.508127 -0.774469,0 -0.774469,-0.754063 -1.548939,-0.754063 H 19.84375 v 3.77032 z"
       id="path903-9-0" />
    <path
       style="fill:#eeca19;fill-opacity:1;stroke:none;stroke-width:0.15283972px;stroke-linecap:butt;stroke-linejoin:miter;stroke-opacity:1"
       d="m 14.422464,29.403447 v 0.754064 c 0,0.754064 -0.77447,0.754064 -0.77447,1.508127 0,0.754064 0.77447,1.508129 1.548939,1.508129 0.774469,0 1.548939,-0.754065 1.548939,-1.508129 0,-0.754063 -0.77447,-0.754063 -0.77447,-1.508127 v -0.754064 h 3.872348 l -1e-6,-3.77032 h 0.77447 c 0.77447,0 0.77447,0.754063 1.548939,0.754063 0.77447,0 1.548939,-0.754063 1.548939,-1.508128 0,-0.754063 -0.774469,-1.508127 -1.548939,-1.508127 -0.774469,0 -0.774469,0.754064 -1.548939,0.754064 h -0.77447 v -3.77032 c -1.290782,6e-6 -2.581564,-4e-6 -3.872347,10e-7 v 0.754064 c 0,0.754064 0.77447,0.754064 0.77447,1.508127 0,0.754065 -0.77447,1.508129 -1.548939,1.508129 -0.774469,0 -1.548939,-0.754064 -1.548939,-1.508129 0,-0.754063 0.77447,-0.754063 0.77447,-1.508127 V 20.35468 c -1.807096,0 -3.61419,1e-6 -5.4212856,-10e-7 v 3.770319 h 0.77447 c 0.7744686,0 0.7744686,-0.754063 1.5489376,-0.754063 0.77447,0 1.548939,0.754063 1.548939,1.508127 0,0.754065 -0.774469,1.508128 -1.548939,1.508128 -0.774469,0 -0.774469,-0.754063 -1.5489376,-0.754063 h -0.77447 v 3.77032 z"
       id="path903-9-0-3" />
    <path
       style="fill:#ee2e19;fill-opacity:1;stroke:none;stroke-width:0.15283972px;stroke-linecap:butt;stroke-linejoin:miter;stroke-opacity:1"
       d="m 15.650607,16.142641 0.547632,0.533202 c 0.547633,0.533203 10e-7,1.066407 0.547634,1.599611 0.547631,0.533204 1.642897,0.533204 2.19053,1e-6 0.547631,-0.533204 0.547631,-1.599612 -10e-7,-2.132815 -0.547632,-0.533204 -1.095265,1e-6 -1.642898,-0.533204 l -0.547633,-0.533203 2.738163,-2.66602 -2.738163,-2.6660177 0.547633,-0.533203 c 0.547633,-0.533206 1.095265,-2e-6 1.642897,-0.533205 0.547633,-0.533204 0.547633,-1.5996114 0,-2.1328152 -0.547632,-0.5332025 -1.642897,-0.5332036 -2.19053,9e-7 -0.547631,0.533203 2e-6,1.0664063 -0.547632,1.5996113 L 15.650607,8.6777873 12.912443,6.0117686 C 11.999726,6.9004457 11.086998,7.7891123 10.17428,8.6777873 l 0.547633,0.533205 c 0.547633,0.533203 1.095266,-10e-7 1.642898,0.533203 0.547632,0.5332037 0.547633,1.5996107 0,2.1328147 -0.547632,0.533203 -1.642898,0.533203 -2.19053,0 -0.5476316,-0.533204 0,-1.066408 -0.5476316,-1.599612 L 9.0790164,9.7441953 C 7.8012064,10.988336 6.5233981,12.232479 5.2455871,13.47662 l 2.7381633,2.666018 0.547634,-0.533204 c 0.547632,-0.533204 0,-1.066407 0.547632,-1.59961 0.547632,-0.533204 1.6428966,-0.533204 2.1905296,0 0.547633,0.533203 0.547632,1.59961 0,2.132814 -0.547631,0.533204 -1.095264,0 -1.6428966,0.533204 l -0.547633,0.533204 2.7381626,2.666019 z"
       id="path903-9-0-3-9" />
  </g>
</svg>
