<?xml version="1.0" encoding="UTF-8" standalone="no"?>
<svg
   xmlns:dc="http://purl.org/dc/elements/1.1/"
   xmlns:cc="http://creativecommons.org/ns#"
   xmlns:rdf="http://www.w3.org/1999/02/22-rdf-syntax-ns#"
   xmlns:svg="http://www.w3.org/2000/svg"
   xmlns="http://www.w3.org/2000/svg"
   width="40mm"
   height="40mm"
   viewBox="0 0 40 40"
   version="1.1"
   id="svg3150">
  <defs
     id="defs3144">
    <linearGradient
       gradientUnits="userSpaceOnUse"
       gradientTransform="scale(0.77777778,1.2857143)"
       x1="184.5"
       y1="35.965008"
       x2="184.5"
       y2="166.87286"
       id="linearGradient-1">
      <stop
         stop-color="#F7E2A8"
         offset="0%"
         id="stop994" />
      <stop
         stop-color="#F1DDAF"
         offset="100%"
         id="stop996" />
    </linearGradient>
    <linearGradient
       gradientUnits="userSpaceOnUse"
       gradientTransform="scale(0.8359397,1.1962585)"
       x1="90.915649"
       y1="40.125107"
       x2="90.915649"
       y2="178.8911"
       id="linearGradient-2">
      <stop
         stop-color="#F7E2A8"
         offset="0%"
         id="stop999" />
      <stop
         stop-color="#F1DDAF"
         offset="100%"
         id="stop1001" />
    </linearGradient>
    <linearGradient
       gradientUnits="userSpaceOnUse"
       gradientTransform="scale(0.83405766,1.1989579)"
       x1="91.120796"
       y1="55.047806"
       x2="91.120796"
       y2="170.14777"
       id="linearGradient-3">
      <stop
         stop-color="#F3B011"
         offset="0%"
         id="stop1004" />
      <stop
         stop-color="#F5A711"
         offset="100%"
         id="stop1006" />
    </linearGradient>
  </defs>
  <g
     id="layer1"
     transform="translate(0,-257)">
    <g
       id="beerOceans"
       class="holy-upgrade-item">
      <g
         id="g4595-1-1-9-1-3"
         transform="matrix(0.37827167,0.00508149,-0.00508149,0.37827167,-87.746903,123.62545)">
        <circle
           id="path3771-7-6-7-8-5"
           style="fill:#e6e6e6;fill-opacity:1;stroke:#000000;stroke-width:5;stroke-miterlimit:4;stroke-dasharray:none;stroke-opacity:1"
           r="48.061165"
           cy="401.30939"
           cx="290.28085" />
        <circle
           id="path3771-4-2-4-03-1-2"
           class="holy-upgrade-identifier"
           style="fill:none;stroke-width:5.5;stroke-miterlimit:4;stroke-dasharray:none;stroke-opacity:1"
           cy="401.5625"
           cx="290.23438"
           r="52.867283" />
      </g>
      <ellipse
         ry="13"
         rx="12.919442"
         cy="276.88297"
         cx="20.213186"
         id="path884"
         style="fill:#f4a911;fill-opacity:1;stroke-width:0.4056856" />
      <path
         id="path886"
         d="m 10.976068,277.45107 5.265785,-1.21608 3.798269,3.30079 -2.762378,4.34312 1.640162,5.03803 -8.287135,-6.34096 0.345297,-5.1249 -1.3246141,-6.66182 -0.4578043,-0.67563 1.8617364,-2.39542 4.364397,-1.32056 3.296188,1.53554 1.648095,3.19388 -1.892257,2.94822 -4.700121,-1.87333 -2.79562,5.24912"
         style="fill:#008000;stroke:#000000;stroke-width:0.34289095px;stroke-linecap:butt;stroke-linejoin:miter;stroke-opacity:1" />
      <path
         id="path892"
         d="m 18.685451,266.05982 2.044856,3.31674 1.434453,-3.71597 -2.746824,-1.25914 z"
         style="fill:#008000;fill-opacity:1;stroke:#000000;stroke-width:0.34289095px;stroke-linecap:butt;stroke-linejoin:miter;stroke-opacity:1" />
      <path
         id="path894"
         d="m 27.048,266.39764 -0.33572,3.22461 1.587054,0.18426 -0.122089,-2.45684 1.678616,1.53553 -0.457805,2.08833 -1.37341,-0.76777 -1.464974,2.14972 -0.640927,1.90407 1.648095,-0.39923 2.35006,-1.81193 1.709136,0.85989 -5.218965,2.73325 -0.579886,3.74668 2.716304,1.28984 2.502661,-0.79848 1.037687,2.02691 0.671448,-1.7505 0.366243,-2.94822 -0.183123,-2.54897 -0.701965,-2.51827 -1.19029,-2.30329 -1.373412,-1.78122 -1.526012,-1.35126 z"
         style="fill:#008000;fill-opacity:1;stroke:#000000;stroke-width:0.34289095px;stroke-linecap:butt;stroke-linejoin:miter;stroke-opacity:1" />
    </g>
  </g>
</svg>
