<?xml version="1.0" encoding="UTF-8" standalone="no"?>
<svg
   xmlns:dc="http://purl.org/dc/elements/1.1/"
   xmlns:cc="http://creativecommons.org/ns#"
   xmlns:rdf="http://www.w3.org/1999/02/22-rdf-syntax-ns#"
   xmlns:svg="http://www.w3.org/2000/svg"
   xmlns="http://www.w3.org/2000/svg"
   id="svg3150"
   version="1.1"
   viewBox="0 0 40 40"
   height="40mm"
   width="40mm">
  <defs
     id="defs3144">
    <linearGradient
       id="linearGradient-1"
       y2="166.87286"
       x2="184.5"
       y1="35.965008"
       x1="184.5"
       gradientTransform="scale(0.77777778,1.2857143)"
       gradientUnits="userSpaceOnUse">
      <stop
         id="stop994"
         offset="0%"
         stop-color="#F7E2A8" />
      <stop
         id="stop996"
         offset="100%"
         stop-color="#F1DDAF" />
    </linearGradient>
    <linearGradient
       id="linearGradient-2"
       y2="178.8911"
       x2="90.915649"
       y1="40.125107"
       x1="90.915649"
       gradientTransform="scale(0.8359397,1.1962585)"
       gradientUnits="userSpaceOnUse">
      <stop
         id="stop999"
         offset="0%"
         stop-color="#F7E2A8" />
      <stop
         id="stop1001"
         offset="100%"
         stop-color="#F1DDAF" />
    </linearGradient>
    <linearGradient
       id="linearGradient-3"
       y2="170.14777"
       x2="91.120796"
       y1="55.047806"
       x1="91.120796"
       gradientTransform="scale(0.83405766,1.1989579)"
       gradientUnits="userSpaceOnUse">
      <stop
         id="stop1004"
         offset="0%"
         stop-color="#F3B011" />
      <stop
         id="stop1006"
         offset="100%"
         stop-color="#F5A711" />
    </linearGradient>
  </defs>
  <g
     transform="translate(0,-257)"
     id="layer1">
    <g
       id="trainingBoost"
       class="holy-upgrade-item">
      <g
         id="g4595-1-1-9-1-3"
         transform="matrix(0.3783058,0,0,0.3783058,-89.797344,125.08657)">
        <circle
           id="path3771-7-6-7-8-5"
           style="fill:#e6e6e6;fill-opacity:1;stroke:#000000;stroke-width:5;stroke-miterlimit:4;stroke-dasharray:none;stroke-opacity:1"
           r="48.061165"
           cy="401.30939"
           cx="290.28085" />
        <circle
           id="path3771-4-2-4-03-1-2"
           class="holy-upgrade-identifier"
           style="fill:none;stroke-width:5.5;stroke-miterlimit:4;stroke-dasharray:none;stroke-opacity:1"
           cy="401.5625"
           cx="290.23438"
           r="52.867283" />
      </g>
      <path
         style="fill:#803300;stroke-width:0.00758617"
         d="m 19.211066,262.67238 v -0.34273 h 1.169441 l 1.128689,-0.0437 v 0.34503 0.34503 l -1.128689,0.039 h -1.169441 z"
         id="path92" />
      <path
         style="fill:#552200;stroke-width:0.00758617"
         d="m 17.659384,262.63103 v -0.25878 l 0.796215,-0.0426 0.961307,0.0449 v 0.34272 0.34273 l -0.961307,-0.0449 -0.796215,-0.039 z"
         id="path98" />
      <path
         style="fill:#aa4400;stroke-width:0.04291385"
         d="m 16.316185,291.18406 c -0.09203,-0.0539 -0.22518,-0.18288 -0.295895,-0.28656 l -0.128569,-0.1885 -0.03355,-6.86896 c -0.01845,-3.77791 -0.02487,-7.14341 -0.01426,-7.47888 0.03083,-0.97525 0.209915,-1.672 0.669343,-2.60423 0.301335,-0.61144 0.653455,-1.16217 1.454767,-2.27526 0.685779,-0.95261 0.854348,-1.21537 1.050978,-1.63825 0.243039,-0.52269 0.248423,-0.61847 0.219547,-3.90563 l -0.02612,-2.97343 h 1.161214 l 1.135561,0.0117 0.02655,3.15779 8.95e-4,3.16949 0.09898,0.28899 c 0.142858,0.41712 0.418561,0.87108 1.110503,1.8285 1.141891,1.57999 1.634884,2.43974 1.908546,3.32835 0.289447,0.93988 0.275892,0.46495 0.244889,8.58016 l -0.02795,7.31671 -0.09379,0.17289 c -0.05159,0.0951 -0.166886,0.23345 -0.256222,0.30748 l -0.162427,0.1346 -3.937825,0.0106 -3.937825,0.0105 z"
         id="path88" />
      <path
         style="fill:#803300;stroke-width:0.04291385"
         d="m 14.790984,291.22234 c -0.161236,-0.0725 -0.43196,-0.37973 -0.473648,-0.53748 -0.01757,-0.0665 -0.03232,-3.48318 -0.03278,-7.59262 -6.7e-4,-6.06084 0.0098,-7.51696 0.05526,-7.71133 0.26254,-1.1217 0.702694,-2.01816 1.630984,-3.32187 0.950673,-1.33513 1.203304,-1.70983 1.369305,-2.03092 0.313795,-0.607 0.318563,-0.46803 0.318937,-3.94454 l 3.47e-4,-3.10752 0.810466,-0.0117 h 0.825597 l -0.01189,3.16949 -0.01189,3.16949 -0.100464,0.26139 c -0.161869,0.42119 -0.440788,0.87231 -1.136208,1.83776 -0.359313,0.49882 -0.772662,1.0932 -0.918552,1.32084 -0.706913,1.10303 -1.101081,2.13252 -1.202196,3.13992 -0.02631,0.26218 -0.03051,3.01922 -0.0116,7.62108 l 0.02964,7.21032 0.09325,0.17968 c 0.04368,0.0493 0.222211,0.24516 0.294761,0.30808 l 0.229696,0.10039 -0.899795,-0.002 c -0.507622,-10e-4 -0.771332,-0.0192 -0.859224,-0.0587 z"
         id="path90" />
      <path
         style="fill:#803300;stroke-width:0.00758617"
         d="m 17.203961,262.14854 v -0.26122 l 0.162526,-0.0555 c 0.08939,-0.0305 0.165343,-0.0582 0.168786,-0.0614 0.0034,-0.003 -0.06886,-0.0317 -0.160659,-0.0632 l -0.166916,-0.0573 -0.002,-0.26314 -0.002,-0.26314 h 1.110259 1.11026 l -0.02617,0.0329 c -0.03335,0.0419 -0.06905,0.11959 -0.08001,0.174 -0.01081,0.0537 -0.0051,0.17764 0.01061,0.22837 0.01929,0.0625 0.066,0.13518 0.11079,0.17244 l 0.06109,0.0371 -0.07371,0.0514 c -0.05725,0.0585 -0.08491,0.10763 -0.104244,0.18521 -0.01341,0.0538 -0.01487,0.14818 -0.0032,0.20595 0.01118,0.0553 0.04743,0.13237 0.07933,0.16878 l 0.02623,0.0299 h -1.110531 -1.11053 z"
         id="path94" />
      <path
         style="fill:#aa4400;stroke-width:0.00758617"
         d="m 19.406881,262.39516 c -0.149243,-0.0531 -0.21871,-0.26164 -0.142696,-0.42831 0.03712,-0.0814 0.153741,-0.18961 0.236414,-0.1984 v 0 0 c 0.0021,-0.0481 0.0021,-0.0481 0,0 -0.118721,-0.0191 -0.218666,-0.13053 -0.252158,-0.24229 -0.0471,-0.15717 0.01889,-0.32725 0.147784,-0.38092 l 0.04275,-0.0178 1.264814,-0.002 1.264813,-0.002 -0.002,0.26325 -0.002,0.26325 -0.171867,0.0594 c -0.14919,0.0516 -0.169402,0.0604 -0.153185,0.067 0.01027,0.004 0.08845,0.0314 0.173733,0.0605 l 0.155056,0.0529 v 0.26008 0.26007 l -1.260979,-2.6e-4 c -1.201901,-2.3e-4 -1.26283,-9.7e-4 -1.300545,-0.0143 z"
         id="path96" />
      <ellipse
         style="fill:#d38d5f;stroke:#000000;stroke-width:0.07942234;stroke-opacity:1"
         id="path911"
         cx="19.737312"
         cy="282.09314"
         rx="3.8322363"
         ry="5.9667954" />
      <g
         id="g994"
         transform="matrix(0.02629432,0,0,0.02829961,15.772961,276.51973)">
        <path
           id="path2043"
           d="M 58.954538,347.23395 C -9.0375362,242.85087 73.060087,233.52847 52.118826,90.624027 103.47625,158.04097 117.81456,240.73539 139.37527,265.19403 c 14.88035,19.20859 22.21919,42.39489 20.21849,66.21726 -0.20173,18.85366 23.6251,41.69831 17.1098,59.3005 -34.64389,-27.74877 -94.232504,-9.66226 -117.749022,-43.47784 z"
           style="fill:#e73900;fill-opacity:1;fill-rule:evenodd;stroke:none;stroke-width:1.00000039pt;stroke-linecap:butt;stroke-linejoin:miter;stroke-opacity:1" />
        <path
           id="path2041"
           d="m 161.7809,377.71368 c 0.39304,-19.99024 -23.79616,-28.66237 -33.52622,-44.27447 -16.1147,-11.92496 -21.21929,-30.48684 -21.57498,-48.76583 -1.3098,-29.23369 24.74827,-203.542593 62.71113,-250.356153 -14.5484,71.885963 21.56903,167.642523 43.88285,199.320793 15.09957,24.61357 20.77625,52.95275 15.3373,80.83768 -2.67223,22.24724 -21.10113,35.61534 -31.07052,55.56907 -9.97252,12.01678 -23.54409,13.15533 -35.75956,7.66891 z"
           style="fill:#e73900;fill-opacity:1;fill-rule:evenodd;stroke:none;stroke-width:1.00000021pt;stroke-linecap:butt;stroke-linejoin:miter;stroke-opacity:1" />
        <path
           id="path2063"
           d="m 175.5607,387.49258 c 5.78662,-17.36703 -5.66486,-44.89494 -9.27092,-61.00222 -9.78333,-14.50379 -8.83797,-32.01615 -4.1256,-48.07773 6.93672,-25.87513 8.08193,-147.98087 120.02513,-205.321883 -86.81755,85.182623 -29.17042,154.410883 -19.77233,187.745483 5.49049,25.33327 2.68381,51.73715 -9.69747,74.51982 -17.09362,31.45379 -62.73308,48.78925 -77.15881,52.13653 z"
           style="fill:#e73900;fill-opacity:1;fill-rule:evenodd;stroke:none;stroke-width:1.00000021pt;stroke-linecap:butt;stroke-linejoin:miter;stroke-opacity:1" />
        <path
           id="path1305"
           d="m 157.11595,377.31308 c 0.29729,-16.31975 -17.99897,-23.39955 -25.35861,-36.14505 -12.18886,-9.73537 -16.04987,-24.88902 -16.31891,-39.81173 -0.99071,-23.86597 23.32574,-150.04614 42.82692,-204.387226 -13.30745,123.179276 20.92102,136.860986 37.79878,162.722676 11.42103,20.09417 15.71477,43.22988 11.60085,65.99474 -2.02123,18.16233 -10.73397,34.71702 -18.27463,51.00696 -7.54302,9.81033 -23.03485,5.09867 -32.2744,0.61963 z"
           style="fill:#e78c00;fill-opacity:1;fill-rule:evenodd;stroke:none;stroke-width:1.00000003pt;stroke-linecap:butt;stroke-linejoin:miter;stroke-opacity:1" />
        <path
           id="path2061"
           d="m 86.962916,353.92652 c -69.840645,-71.70464 6.256738,-76.69827 -13.112495,-175.17471 23.002985,46.4166 42.077879,81.28576 50.453849,114.24383 12.39538,11.63807 55.22529,82.68294 52.65834,95.56353 -26.99224,-15.36667 -69.88969,-13.98593 -89.999694,-34.63265 z"
           style="fill:#e78c00;fill-opacity:1;fill-rule:evenodd;stroke:none;stroke-width:1.00000039pt;stroke-linecap:butt;stroke-linejoin:miter;stroke-opacity:1" />
        <path
           id="path2051"
           d="M 100.90993,349.60902 C 59.13153,309.94963 90.331519,286.66405 89.958257,237.12916 c 11.549273,43.35274 48.079753,54.03502 47.610733,80.07767 6.03491,7.79028 37.6343,63.34456 34.99194,70.48334 -14.05024,-11.25385 -55.82176,-23.05478 -71.651,-38.08115 z"
           style="fill:#e7e100;fill-opacity:1;fill-rule:evenodd;stroke:none;stroke-width:1.00000039pt;stroke-linecap:butt;stroke-linejoin:miter;stroke-opacity:1" />
        <path
           id="path2045"
           d="m 168.06466,344.26386 c -7.34039,-10.88214 -6.63109,-24.0216 -3.09542,-36.07254 5.2046,-19.41401 28.07134,-127.32404 60.73809,-150.79486 -23.59103,44.36027 7.42986,112.59653 14.48121,137.60735 4.11949,19.00746 5.27165,41.48988 -7.27598,55.91194 -18.9554,21.78707 -42.88182,34.47506 -56.28999,37.51705 -8.52364,5.98155 -5.85229,-32.08371 -8.55791,-44.16894 z"
           style="fill:#e78c00;fill-opacity:1;fill-rule:evenodd;stroke:none;stroke-width:1.00000021pt;stroke-linecap:butt;stroke-linejoin:miter;stroke-opacity:1" />
        <path
           id="path1310"
           d="m 156.26263,378.50754 c 0.58986,-9.98438 -10.43516,-14.77626 -14.6226,-22.76365 -7.21937,-6.26512 -9.20458,-15.63948 -8.99637,-24.78268 -0.0101,-14.63677 -0.50958,-105.87648 18.02599,-128.55794 -8.20394,35.6561 22.69143,88.8079 32.37859,105.06359 6.49038,12.58815 8.54105,26.86036 5.45339,40.69541 -1.69139,11.06943 -7.43952,20.98736 -12.46341,30.77248 -4.86341,5.81789 -14.23058,2.54602 -19.77559,-0.42721 z"
           style="fill:#e7e100;fill-opacity:1;fill-rule:evenodd;stroke:none;stroke-width:0.99999985pt;stroke-linecap:butt;stroke-linejoin:miter;stroke-opacity:1" />
        <path
           id="path2047"
           d="m 165.07971,379.78285 c 4.74577,-6.95045 -1.13754,-15.17906 -0.70358,-22.75532 -2.49934,-7.6452 0.12406,-15.26957 4.23044,-21.77806 6.32576,-10.56763 17.44222,-89.10138 40.63311,-97.45039 -21.34853,22.18304 15.72363,81.49477 15.68122,97.41785 -0.76263,11.89305 -15.23012,27.96655 -23.44465,36.61523 -6.01023,7.25688 -17.90489,14.23077 -25.76444,19.11887 -6.02721,-3.66386 -7.91678,-6.6232 -10.6321,-11.16818 z"
           style="fill:#e7e100;fill-opacity:1;fill-rule:evenodd;stroke:none;stroke-width:0.99999985pt;stroke-linecap:butt;stroke-linejoin:miter;stroke-opacity:1" />
        <path
           id="path2049"
           d="m 157.0795,371.83477 c -14.75607,-23.24143 -9.28153,-49.17026 -3.00634,-77.45115 2.85864,19.18916 14.76662,42.47567 21.49823,50.11206 4.64589,5.99724 6.9372,13.23638 6.31255,20.67411 -0.063,5.88643 -3.05125,13.0189 -5.08543,18.5146 -10.8164,-8.66363 -12.37677,-1.29185 -19.71901,-11.84962 z"
           style="fill:#ffff9e;fill-opacity:1;fill-rule:evenodd;stroke:none;stroke-width:1.0000011pt;stroke-linecap:butt;stroke-linejoin:miter;stroke-opacity:1" />
        <path
           id="path2065"
           d="m 173.66742,360.30753 c 11.43123,-25.04462 0.11491,-44.76145 26.31412,-64.40898 -7.82358,18.2147 10.06971,46.97556 8.12273,56.94846 -3.27428,16.7716 -25.8851,29.25442 -31.60084,30.54705 1.36171,-13.79126 -7.68024,-11.174 -2.83601,-23.08653 z"
           style="fill:#ffff9e;fill-opacity:1;fill-rule:evenodd;stroke:none;stroke-width:1.0000011pt;stroke-linecap:butt;stroke-linejoin:miter;stroke-opacity:1" />
        <path
           id="path2067"
           d="M 92.049535,278.33689 C 153.50277,356.0529 152.14455,316.81741 176.51446,383.37417 60.355771,331.65699 112.48851,336.32499 92.049535,278.33689 Z"
           style="fill:#ffff9e;fill-opacity:1;fill-rule:evenodd;stroke:none;stroke-width:1.0000011pt;stroke-linecap:butt;stroke-linejoin:miter;stroke-opacity:1" />
      </g>
    </g>
  </g>
</svg>
