<?xml version="1.0" encoding="UTF-8" standalone="no"?>
<svg
   xmlns:dc="http://purl.org/dc/elements/1.1/"
   xmlns:cc="http://creativecommons.org/ns#"
   xmlns:rdf="http://www.w3.org/1999/02/22-rdf-syntax-ns#"
   xmlns:svg="http://www.w3.org/2000/svg"
   xmlns="http://www.w3.org/2000/svg"
   width="40mm"
   height="40mm"
   viewBox="0 0 40 40"
   version="1.1"
   id="svg3150">
  <defs
     id="defs3144" />
  <metadata
     id="metadata3147">
    <rdf:RDF>
      <cc:Work
         rdf:about="">
        <dc:format>image/svg+xml</dc:format>
        <dc:type
           rdf:resource="http://purl.org/dc/dcmitype/StillImage" />
        <dc:title />
      </cc:Work>
    </rdf:RDF>
  </metadata>
  <g
     class="holy-upgrade-item"
     id="clonedike">
    <g
       transform="matrix(0.3783058,0,0,0.3783058,-89.797344,-131.91342)"
       id="g4595-1-1-9-1-3">
      <circle
         cx="290.28085"
         cy="401.30939"
         r="48.061165"
         style="fill:#e6e6e6;fill-opacity:1;stroke:#000000;stroke-width:5;stroke-miterlimit:4;stroke-dasharray:none;stroke-opacity:1"
         id="path3771-7-6-7-8-5" />
      <circle
         r="52.867283"
         cx="290.23438"
         cy="401.5625"
         style="fill:none;stroke-width:5.5;stroke-miterlimit:4;stroke-dasharray:none;stroke-opacity:1"
         class="holy-upgrade-identifier"
         id="path3771-4-2-4-03-1-2" />
    </g>
    <g
       transform="matrix(0.61977047,0,0,0.50798951,2.6248246,5.73107)"
       id="g841" />
    <g
       transform="matrix(0.61977047,0,0,0.50798951,2.6248246,5.73107)"
       id="g843" />
    <g
       transform="matrix(0.61977047,0,0,0.50798951,2.6248246,5.73107)"
       id="g845" />
    <g
       transform="matrix(0.61977047,0,0,0.50798951,2.6248246,5.73107)"
       id="g847" />
    <g
       transform="matrix(0.61977047,0,0,0.50798951,2.6248246,5.73107)"
       id="g849" />
    <g
       transform="matrix(0.61977047,0,0,0.50798951,2.6248246,5.73107)"
       id="g851" />
    <g
       transform="matrix(0.61977047,0,0,0.50798951,2.6248246,5.73107)"
       id="g853" />
    <g
       transform="matrix(0.61977047,0,0,0.50798951,2.6248246,5.73107)"
       id="g855" />
    <g
       transform="matrix(0.61977047,0,0,0.50798951,2.6248246,5.73107)"
       id="g857" />
    <g
       transform="matrix(0.61977047,0,0,0.50798951,2.6248246,5.73107)"
       id="g859" />
    <g
       transform="matrix(0.61977047,0,0,0.50798951,2.6248246,5.73107)"
       id="g861" />
    <g
       transform="matrix(0.61977047,0,0,0.50798951,2.6248246,5.73107)"
       id="g863" />
    <g
       transform="matrix(0.61977047,0,0,0.50798951,2.6248246,5.73107)"
       id="g865" />
    <g
       transform="matrix(0.61977047,0,0,0.50798951,2.6248246,5.73107)"
       id="g867" />
    <g
       transform="matrix(0.61977047,0,0,0.50798951,2.6248246,5.73107)"
       id="g869" />
    <rect
       style="fill:#faa000;fill-opacity:1;stroke:#ffd830;stroke-width:0.81975621;stroke-linecap:square;stroke-linejoin:round;stroke-miterlimit:4;stroke-dasharray:none;stroke-dashoffset:0;stroke-opacity:1;paint-order:fill markers stroke"
       id="rect4660"
       width="20.902082"
       height="12.05622"
       x="9.5038319"
       y="19.704384" />
    <rect
       style="fill:#784421;fill-opacity:1;stroke:none;stroke-width:0.81975621;stroke-linecap:square;stroke-linejoin:round;stroke-miterlimit:4;stroke-dasharray:none;stroke-dashoffset:0;stroke-opacity:1;paint-order:fill markers stroke"
       id="rect4678"
       width="18.393833"
       height="9.6449766"
       x="10.757958"
       y="20.910007" />
    <rect
       style="fill:#502d16;fill-opacity:1;stroke:none;stroke-width:0.81975621;stroke-linecap:square;stroke-linejoin:round;stroke-miterlimit:4;stroke-dasharray:none;stroke-dashoffset:0;stroke-opacity:1;paint-order:fill markers stroke"
       id="rect4680"
       width="18.393833"
       height="0.80374801"
       x="10.757958"
       y="22.919376" />
    <rect
       style="fill:#502d16;fill-opacity:1;stroke:none;stroke-width:0.81975621;stroke-linecap:square;stroke-linejoin:round;stroke-miterlimit:4;stroke-dasharray:none;stroke-dashoffset:0;stroke-opacity:1;paint-order:fill markers stroke"
       id="rect4680-0"
       width="18.393833"
       height="0.80374801"
       x="10.757958"
       y="25.732494" />
    <rect
       style="fill:#502d16;fill-opacity:1;stroke:none;stroke-width:0.81975621;stroke-linecap:square;stroke-linejoin:round;stroke-miterlimit:4;stroke-dasharray:none;stroke-dashoffset:0;stroke-opacity:1;paint-order:fill markers stroke"
       id="rect4680-3"
       width="18.393833"
       height="0.80374801"
       x="10.757958"
       y="28.14374" />
    <rect
       style="fill:#784421;fill-opacity:1;stroke:none;stroke-width:0.66817623;stroke-linecap:square;stroke-linejoin:round;stroke-miterlimit:4;stroke-dasharray:none;stroke-dashoffset:0;stroke-opacity:1;paint-order:fill markers stroke"
       id="rect4678-2-9"
       width="20.902082"
       height="5.638927"
       x="9.5038319"
       y="13.676275" />
    <path
       style="fill:#faa000;fill-opacity:1;stroke:#ffd830;stroke-width:0.52450836;stroke-linecap:square;stroke-linejoin:round;stroke-miterlimit:4;stroke-dasharray:none;stroke-dashoffset:0;stroke-opacity:1;paint-order:fill markers stroke"
       d="M 30.405916,8.7406006 V 13.676275 H 9.503834 V 8.7406006"
       id="rect4660-0" />
    <rect
       style="fill:#784421;fill-opacity:1;stroke:none;stroke-width:0.52424109;stroke-linecap:square;stroke-linejoin:round;stroke-miterlimit:4;stroke-dasharray:none;stroke-dashoffset:0;stroke-opacity:1;paint-order:fill markers stroke"
       id="rect4678-2"
       width="18.393833"
       height="3.9445167"
       x="10.757958"
       y="8.5261393" />
    <rect
       style="fill:#502d16;fill-opacity:1;stroke:none;stroke-width:0.81975621;stroke-linecap:square;stroke-linejoin:round;stroke-miterlimit:4;stroke-dasharray:none;stroke-dashoffset:0;stroke-opacity:1;paint-order:fill markers stroke"
       id="rect4680-6"
       width="18.393833"
       height="0.80374801"
       x="10.757958"
       y="9.6575356" />
    <path
       style="fill:#faa000;fill-opacity:1;stroke:none;stroke-width:0.4098781px;stroke-linecap:butt;stroke-linejoin:miter;stroke-opacity:1"
       d="m 17.864666,20.910008 c 0,0 0,0 0,1.607495 0,1.607496 0.836084,2.009371 2.090209,2.009371 1.254125,0 2.090207,-0.401875 2.090207,-2.009371 0,-1.607495 0,-1.607495 0,-1.607495"
       id="path4736" />
    <ellipse
       style="fill:#080500;fill-opacity:1;stroke:none;stroke-width:0.81975621;stroke-linecap:square;stroke-linejoin:round;stroke-miterlimit:4;stroke-dasharray:none;stroke-dashoffset:0;stroke-opacity:1;paint-order:fill markers stroke"
       id="path4738"
       cx="19.954876"
       cy="21.713755"
       rx="0.83608323"
       ry="0.80374801" />
    <rect
       style="fill:#080500;fill-opacity:1;stroke:none;stroke-width:0.81975621;stroke-linecap:square;stroke-linejoin:round;stroke-miterlimit:4;stroke-dasharray:none;stroke-dashoffset:0;stroke-opacity:1;paint-order:fill markers stroke"
       id="rect4740"
       width="0.83608323"
       height="2.0093701"
       x="19.536835"
       y="22.115629" />
    <path
       style="fill:#fffe0a;fill-opacity:1;stroke:none;stroke-width:0.4098781px;stroke-linecap:butt;stroke-linejoin:miter;stroke-opacity:1"
       d="m 11.594041,19.30251 c -0.836082,0 -0.836082,-0.803747 -0.836082,-0.803747 0,0 0,-0.803748 0.836082,-0.803748 h 1.672168 c -0.836084,0 -0.836084,-0.616044 -0.836084,-0.616044 0,0 0,-0.589578 0.836084,-0.589578 h -1.254125 c -0.836084,0 -0.836084,-0.803749 -0.836084,-0.803749 0,0 0,-0.803747 0.836084,-0.803747 h 5.852582 c 0.836084,0 0.836084,0.803747 0.836084,0.803747 0,0 0,0.803749 -0.836084,0.803749 h 4.180416 c -0.836082,0 -0.836082,-0.803749 -0.836082,-0.803749 0,0 -0.230283,-0.803747 0.836082,-0.803747 H 26.2255 c 0.836082,0 0.836082,0.803747 0.836082,0.803747 0,0 0,0.803749 -0.836082,0.803749 h 1.672166 c 0.836084,0 0.836084,0.803748 0.836084,0.803748 0,0 0,0.803747 -0.836084,0.803747 h 1.254125 c 0.836084,0 0.836084,0.803749 0.836084,0.803749 0,0 0,0.401873 -0.418043,0.401873 z"
       id="path4744" />
    <path
       style="fill:#ffb700;fill-opacity:1;stroke:none;stroke-width:0.4098781px;stroke-linecap:butt;stroke-linejoin:miter;stroke-opacity:1"
       d="m 15.774459,16.489393 c -0.836084,0 -0.836084,0.803748 -0.836084,0.803748 0,0 0,0.803747 0.836084,0.803747 0.836082,0 3.344332,0 4.180416,0 0.836082,0 0.836082,-0.803747 0.836082,-0.803747 0,0 0,-0.803748 -0.836082,-0.803748 -0.836084,0 -4.180416,0 -4.180416,0 z"
       id="path4754" />
    <path
       style="fill:#ffb700;fill-opacity:1;stroke:none;stroke-width:0.4098781px;stroke-linecap:butt;stroke-linejoin:miter;stroke-opacity:1"
       d="m 14.102291,17.695015 c -0.836083,0 -0.836083,0.803748 -0.836083,0.803748 0,0 0,0.803747 0.836083,0.803747 0.836083,0 3.344333,0 4.180416,0 0.836083,0 0.836083,-0.803747 0.836083,-0.803747 0,0 0,-0.803748 -0.836083,-0.803748 -0.836083,0 -4.180416,0 -4.180416,0 z"
       id="path4754-7" />
    <path
       style="fill:#fffaef;fill-opacity:1;stroke:none;stroke-width:0.4098781px;stroke-linecap:butt;stroke-linejoin:miter;stroke-opacity:1"
       d="m 22.463125,17.695015 c -0.836084,0 -0.836084,0.803748 -0.836084,0.803748 0,0 0,0.803747 0.836084,0.803747 0.836082,0 3.344332,0 4.180416,0 0.836082,0 0.836082,-0.803747 0.836082,-0.803747 0,0 0,-0.803748 -0.836082,-0.803748 -0.836084,0 -4.180416,0 -4.180416,0 z"
       id="path4754-0" />
  </g>
</svg>
