<?xml version="1.0" encoding="UTF-8" standalone="no"?>
<svg
   xmlns:dc="http://purl.org/dc/elements/1.1/"
   xmlns:cc="http://creativecommons.org/ns#"
   xmlns:rdf="http://www.w3.org/1999/02/22-rdf-syntax-ns#"
   xmlns:svg="http://www.w3.org/2000/svg"
   xmlns="http://www.w3.org/2000/svg"
   width="40mm"
   height="40mm"
   viewBox="0 0 40 40"
   version="1.1"
   id="svg3150">
  <defs
     id="defs36" />
  <metadata
     id="metadata3147">
    <rdf:RDF>
      <cc:Work
         rdf:about="">
        <dc:format>image/svg+xml</dc:format>
        <dc:type
           rdf:resource="http://purl.org/dc/dcmitype/StillImage" />
        <dc:title />
      </cc:Work>
    </rdf:RDF>
  </metadata>
  <g
     id="layer1"
     transform="translate(0,-257)">
    <g
       id="inspiration"
       class="holy-upgrade-item">
      <g
         transform="matrix(0.3783058,0,0,0.3783058,-89.797344,125.08658)"
         id="g4595-1-1-9-1-3">
        <g
           id="g874">
          <circle
             id="path3771-7-6-7-8-5"
             style="fill:#e6e6e6;fill-opacity:1;stroke:#000000;stroke-width:5;stroke-miterlimit:4;stroke-dasharray:none;stroke-opacity:1"
             r="48.061165"
             cy="401.30939"
             cx="290.28085" />
          <circle
             id="path3771-4-2-4-03-1-2"
             class="holy-upgrade-identifier"
             style="fill:none;stroke-width:5.5;stroke-miterlimit:4;stroke-dasharray:none;stroke-opacity:1"
             cy="401.5625"
             cx="290.23438"
             r="52.867283" />
        </g>
      </g>
      <g
         style="fill:#d40000;fill-opacity:1"
         transform="matrix(0.61977047,0,0,0.50798951,2.6248246,262.73107)"
         id="g825">
        <path
           style="fill:#d40000;fill-opacity:1"
           d="m 45.158,28.463 c -0.002,10e-4 -0.005,10e-4 -0.008,0.002 -0.727,1.315 -1.637,2.541 -2.722,3.639 C 42.794,33.185 43,34.321 43,35.5 43,40.638 39.275,44.613 33.956,46.442 32.798,46.84 31.571,47 30.348,47 H 25.653 C 24.429,47 23.202,46.84 22.045,46.442 16.725,44.613 13,40.638 13,35.5 13,29.753 17.661,24.924 24,23.463 V 0 H 20 V 20.538 C 13.39,23.196 9,29.001 9,35.5 9,40.708 11.819,45.816 16.342,49.008 18.257,50.36 20.586,51 22.93,51 h 10.11 c 2.577,0 5.1,-0.82 7.15,-2.382 C 44.4,45.41 47,40.501 47,35.5 47,33.002 46.334,30.615 45.158,28.463 Z"
           id="path821" />
        <path
           style="fill:#d40000;fill-opacity:1"
           d="m 40.418,28.507 c 10e-4,-0.001 0.003,-0.001 0.004,-0.001 0.909,-1.118 1.593,-2.369 2.032,-3.705 C 40.702,23.016 38.513,21.548 36,20.538 V 0 h -4 v 23.463 c 3.477,0.801 6.443,2.62 8.418,5.044 z"
           id="path823" />
      </g>
      <g
         style="fill:#540000;fill-opacity:1"
         transform="matrix(0.61977047,0,0,0.50798951,2.6248246,262.73107)"
         id="g839">
        <path
           style="fill:#540000;fill-opacity:1"
           d="m 13,21.5 c 0,-4.448 2.799,-8.339 7,-10.551 V 6.538 C 13.39,9.196 9,15.001 9,21.5 c 0,2.481 0.643,4.858 1.802,7 0.721,-1.334 1.643,-2.576 2.738,-3.693 C 13.193,23.753 13,22.646 13,21.5 Z"
           id="path827" />
        <path
           style="fill:#540000;fill-opacity:1"
           d="m 15.588,28.5 c -0.228,0.279 -0.442,0.566 -0.642,0.86 v 0 c -0.2,0.293 -0.385,0.594 -0.557,0.901 -10e-4,0.001 -0.002,0.003 -0.002,0.004 -0.171,0.307 -0.327,0.621 -0.468,0.942 -0.001,10e-4 -0.001,0.003 -0.002,0.004 -0.141,0.321 -0.267,0.648 -0.377,0.981 0,0 0,10e-4 0,10e-4 1.753,1.788 3.944,3.258 6.46,4.27 v 9.128 c 0.65,0.32 1.332,0.606 2.044,0.851 0.635,0.218 1.291,0.359 1.956,0.447 V 33.537 C 20.526,32.736 17.563,30.92 15.588,28.5 Z"
           id="path829" />
        <path
           style="fill:#540000;fill-opacity:1"
           d="m 36,6.538 v 4.412 c 4.201,2.212 7,6.102 7,10.551 0,1.146 -0.193,2.253 -0.54,3.307 0.013,0.013 0.024,0.027 0.037,0.04 -0.015,-0.015 -0.028,-0.032 -0.043,-0.047 -0.439,1.337 -1.626,3.121 -2.042,3.699 -1.975,2.42 -4.938,4.236 -8.412,5.037 v 13.352 c 0.665,-0.088 1.321,-0.229 1.956,-0.447 0.713,-0.245 1.394,-0.531 2.044,-0.851 v -9.128 c 5.812,-1.994 9.188,-7.982 9.198,-7.962 C 46.356,26.359 47,23.982 47,21.501 47,15.001 42.61,9.196 36,6.538 Z"
           id="path831" />
        <path
           style="fill:#540000;fill-opacity:1"
           d="m 32,51 v 5 h 4 V 50.628 C 35.038,50.872 34.044,51 33.04,51 Z"
           id="path833" />
        <path
           style="fill:#540000;fill-opacity:1"
           d="M 20,50.645 V 56 h 4 V 51 H 22.93 C 21.94,51 20.955,50.878 20,50.645 Z"
           id="path835" />
        <rect
           style="fill:#540000;fill-opacity:1"
           x="24"
           y="6"
           width="8"
           height="4"
           id="rect837" />
      </g>
      <g
         transform="matrix(0.61977047,0,0,0.50798951,2.6248246,262.73107)"
         id="g841" />
      <g
         transform="matrix(0.61977047,0,0,0.50798951,2.6248246,262.73107)"
         id="g843" />
      <g
         transform="matrix(0.61977047,0,0,0.50798951,2.6248246,262.73107)"
         id="g845" />
      <g
         transform="matrix(0.61977047,0,0,0.50798951,2.6248246,262.73107)"
         id="g847" />
      <g
         transform="matrix(0.61977047,0,0,0.50798951,2.6248246,262.73107)"
         id="g849" />
      <g
         transform="matrix(0.61977047,0,0,0.50798951,2.6248246,262.73107)"
         id="g851" />
      <g
         transform="matrix(0.61977047,0,0,0.50798951,2.6248246,262.73107)"
         id="g853" />
      <g
         transform="matrix(0.61977047,0,0,0.50798951,2.6248246,262.73107)"
         id="g855" />
      <g
         transform="matrix(0.61977047,0,0,0.50798951,2.6248246,262.73107)"
         id="g857" />
      <g
         transform="matrix(0.61977047,0,0,0.50798951,2.6248246,262.73107)"
         id="g859" />
      <g
         transform="matrix(0.61977047,0,0,0.50798951,2.6248246,262.73107)"
         id="g861" />
      <g
         transform="matrix(0.61977047,0,0,0.50798951,2.6248246,262.73107)"
         id="g863" />
      <g
         transform="matrix(0.61977047,0,0,0.50798951,2.6248246,262.73107)"
         id="g865" />
      <g
         transform="matrix(0.61977047,0,0,0.50798951,2.6248246,262.73107)"
         id="g867" />
      <g
         transform="matrix(0.61977047,0,0,0.50798951,2.6248246,262.73107)"
         id="g869" />
    </g>
  </g>
</svg>
