<?xml version="1.0" encoding="UTF-8" standalone="no"?>
<svg
   xmlns:dc="http://purl.org/dc/elements/1.1/"
   xmlns:cc="http://creativecommons.org/ns#"
   xmlns:rdf="http://www.w3.org/1999/02/22-rdf-syntax-ns#"
   xmlns:svg="http://www.w3.org/2000/svg"
   xmlns="http://www.w3.org/2000/svg"
   width="40mm"
   height="40mm"
   viewBox="0 0 40 40"
   version="1.1"
   id="svg3150">
  <defs
     id="defs3144">
    <linearGradient
       gradientUnits="userSpaceOnUse"
       gradientTransform="scale(0.77777778,1.2857143)"
       x1="184.5"
       y1="35.965008"
       x2="184.5"
       y2="166.87286"
       id="linearGradient-1">
      <stop
         stop-color="#F7E2A8"
         offset="0%"
         id="stop994" />
      <stop
         stop-color="#F1DDAF"
         offset="100%"
         id="stop996" />
    </linearGradient>
    <linearGradient
       gradientUnits="userSpaceOnUse"
       gradientTransform="scale(0.8359397,1.1962585)"
       x1="90.915649"
       y1="40.125107"
       x2="90.915649"
       y2="178.8911"
       id="linearGradient-2">
      <stop
         stop-color="#F7E2A8"
         offset="0%"
         id="stop999" />
      <stop
         stop-color="#F1DDAF"
         offset="100%"
         id="stop1001" />
    </linearGradient>
    <linearGradient
       gradientUnits="userSpaceOnUse"
       gradientTransform="scale(0.83405766,1.1989579)"
       x1="91.120796"
       y1="55.047806"
       x2="91.120796"
       y2="170.14777"
       id="linearGradient-3">
      <stop
         stop-color="#F3B011"
         offset="0%"
         id="stop1004" />
      <stop
         stop-color="#F5A711"
         offset="100%"
         id="stop1006" />
    </linearGradient>
  </defs>
  <metadata
     id="metadata3147">
    <rdf:RDF>
      <cc:Work
         rdf:about="">
        <dc:format>image/svg+xml</dc:format>
        <dc:type
           rdf:resource="http://purl.org/dc/dcmitype/StillImage" />
        <dc:title />
      </cc:Work>
    </rdf:RDF>
  </metadata>
  <g
     id="layer1"
     transform="translate(0,-257)">
    <g
       id="researchBuff"
       class="holy-upgrade-item">
      <g
         transform="matrix(0.3783058,0,0,0.3783058,-89.797344,125.08657)"
         id="g4595-1-1-9-1-3">
        <circle
           cx="290.28085"
           cy="401.30939"
           r="48.061165"
           style="fill:#e6e6e6;fill-opacity:1;stroke:#000000;stroke-width:5;stroke-miterlimit:4;stroke-dasharray:none;stroke-opacity:1"
           id="path3771-7-6-7-8-5" />
        <circle
           r="52.867283"
           cx="290.23438"
           cy="401.5625"
           style="fill:none;stroke-width:5.5;stroke-miterlimit:4;stroke-dasharray:none;stroke-opacity:1"
           class="holy-upgrade-identifier"
           id="path3771-4-2-4-03-1-2" />
      </g>
      <path
         id="path92"
         d="M 19.211066,262.67238 V 262.32965 H 20.380507 L 21.509196,262.286 V 262.63103 262.97606 L 20.380507,263.01509 H 19.211066 Z"
         style="fill:#803300;stroke-width:0.00758617" />
      <path
         id="path98"
         d="M 17.659384,262.63103 V 262.37225 L 18.455599,262.32965 19.416906,262.37456 V 262.71728 263.06001 L 18.455599,263.01509 17.659384,262.97606 Z"
         style="fill:#552200;stroke-width:0.00758617" />
      <path
         id="path88"
         d="M 16.316185,291.18406 C 16.224156,291.13013 16.091005,291.00118 16.02029,290.8975 L 15.891721,290.709 15.858171,283.84004 C 15.83972,280.06213 15.833301,276.69663 15.843908,276.36116 15.874743,275.38591 16.053823,274.68916 16.513251,273.75693 16.814586,273.14549 17.166706,272.59476 17.968018,271.48167 18.653797,270.52906 18.822366,270.2663 19.018996,269.84342 19.262035,269.32073 19.267419,269.22495 19.238543,265.93779 L 19.212421,262.96436 H 20.373635 L 21.509196,262.97606 21.535746,266.13385 21.536641,269.30334 21.635624,269.59233 C 21.778482,270.00945 22.054185,270.46341 22.746127,271.42083 23.888018,273.00082 24.381011,273.86057 24.654673,274.74918 24.94412,275.68906 24.930565,275.21413 24.899562,283.32934 L 24.871609,290.64605 24.777815,290.81894 C 24.726228,290.91403 24.610929,291.05239 24.521593,291.12642 L 24.359166,291.26102 20.421341,291.27157 16.483516,291.28211 Z"
         style="fill:#aa4400;stroke-width:0.04291385" />
      <path
         id="path90"
         d="M 14.790984,291.22234 C 14.629748,291.14981 14.359024,290.84261 14.317336,290.68486 14.299761,290.61836 14.285012,287.20168 14.284559,283.09224 14.283889,277.0314 14.294327,275.57528 14.339822,275.38091 14.602362,274.25921 15.042516,273.36275 15.970806,272.05904 16.921479,270.72391 17.17411,270.34921 17.340111,270.02812 17.653906,269.42112 17.658674,269.56009 17.659048,266.08358 L 17.659395,262.97606 18.469861,262.96436 H 19.295458 L 19.28357,266.13385 19.271684,269.30334 19.17122,269.56473 C 19.009351,269.98592 18.730432,270.43704 18.035012,271.40249 17.675699,271.90131 17.26235,272.49569 17.11646,272.72333 16.409547,273.82636 16.015379,274.85585 15.914264,275.86325 15.88795,276.12543 15.883755,278.88247 15.902667,283.48433 L 15.932303,290.69465 16.025557,290.87433 C 16.069242,290.92364 16.247768,291.11949 16.320318,291.18241 L 16.550014,291.2828 15.650219,291.28117 C 15.142597,291.27987 14.878887,291.26197 14.790995,291.22242 Z"
         style="fill:#803300;stroke-width:0.04291385" />
      <path
         id="path94"
         d="M 17.203961,262.14854 V 261.88732 L 17.366487,261.83181 C 17.455877,261.80129 17.53183,261.77365 17.535273,261.77042 17.538713,261.76717 17.466417,261.73874 17.374614,261.7072 L 17.207698,261.64986 17.205737,261.38672 17.203775,261.12358 H 18.314034 19.424294 L 19.398119,261.15651 C 19.36477,261.19845 19.329069,261.2761 19.318108,261.33051 19.307296,261.38418 19.313056,261.50815 19.32872,261.55888 19.348007,261.62135 19.39472,261.69406 19.43951,261.73132 L 19.500599,261.76845 19.426888,261.81989 C 19.369636,261.87838 19.341975,261.92752 19.322644,262.0051 19.309233,262.05894 19.307774,262.15328 19.319465,262.21105 19.330644,262.26631 19.366897,262.34342 19.398798,262.37983 L 19.425033,262.40975 H 18.314502 17.203972 Z"
         style="fill:#803300;stroke-width:0.00758617" />
      <path
         id="path96"
         d="M 19.406881,262.39516 C 19.257638,262.34204 19.188171,262.13352 19.264185,261.96685 19.301305,261.88546 19.417926,261.77724 19.500599,261.76845 V 261.76845 261.76845 C 19.502685,261.72031 19.502685,261.72031 19.500599,261.76845 19.381878,261.74934 19.281933,261.63792 19.248441,261.52616 19.201341,261.36899 19.267331,261.19891 19.396225,261.14524 L 19.438974,261.12745 20.703788,261.12549 21.968601,261.12353 21.96664,261.38678 21.964678,261.65003 21.792811,261.70943 C 21.643621,261.76102 21.623409,261.76985 21.639626,261.77639 21.649899,261.78053 21.728081,261.80776 21.813359,261.83686 L 21.968415,261.88977 V 262.14985 262.40992 L 20.707436,262.40966 C 19.505535,262.40943 19.444606,262.40869 19.406891,262.39532 Z"
         style="fill:#aa4400;stroke-width:0.00758617" />
      <ellipse
         ry="5.9667954"
         rx="3.8322363"
         cy="282.09314"
         cx="19.737312"
         id="path911"
         style="fill:#d38d5f;stroke:#000000;stroke-width:0.07942234;stroke-opacity:1" />
      <ellipse
         style="fill:#f4a911;fill-opacity:1;stroke-width:0.10874173"
         id="path884"
         cx="19.796186"
         cy="282.27557"
         rx="3.4750566"
         ry="3.4724703" />
      <path
         style="fill:#008000;stroke:#000000;stroke-width:0.09190997px;stroke-linecap:butt;stroke-linejoin:miter;stroke-opacity:1"
         d="M 17.311601,282.42732 18.727985,282.10249 19.74964,282.98418 19.006617,284.14428 19.447787,285.49 17.218723,283.79625 17.311601,282.42732 16.955307,280.64786 16.832168,280.46739 17.332936,279.82754 18.506866,279.4748 19.393471,279.88496 19.836773,280.73809 19.327796,281.5256 18.063563,281.0252 17.311601,282.42732"
         id="path886" />
      <path
         style="fill:#008000;fill-opacity:1;stroke:#000000;stroke-width:0.09190997px;stroke-linecap:butt;stroke-linejoin:miter;stroke-opacity:1"
         d="M 19.385261,279.38457 19.935284,280.27051 20.321121,279.27793 19.582283,278.9416 Z"
         id="path892" />
      <path
         style="fill:#008000;fill-opacity:1;stroke:#000000;stroke-width:0.09190997px;stroke-linecap:butt;stroke-linejoin:miter;stroke-opacity:1"
         d="M 21.63461,279.4748 21.544309,280.33614 21.971192,280.38536 21.938353,279.72911 22.389866,280.13926 22.266726,280.69708 21.897307,280.49201 21.50326,281.06623 21.330864,281.57483 21.774166,281.46818 22.406283,280.98419 22.866005,281.21388 21.462215,281.94396 21.306236,282.94475 22.036866,283.28929 22.710028,283.076 22.989144,283.61742 23.169749,283.14984 23.268262,282.36233 23.219005,281.68147 23.03019,281.0088 22.710028,280.39356 22.34061,279.91778 21.930145,279.55684 Z"
         id="path894" />
    </g>
  </g>
</svg>
