<?xml version="1.0" encoding="UTF-8" standalone="no"?>
<svg
   xmlns:dc="http://purl.org/dc/elements/1.1/"
   xmlns:cc="http://creativecommons.org/ns#"
   xmlns:rdf="http://www.w3.org/1999/02/22-rdf-syntax-ns#"
   xmlns:svg="http://www.w3.org/2000/svg"
   xmlns="http://www.w3.org/2000/svg"
   id="svg3150"
   version="1.1"
   viewBox="0 0 40 40"
   height="40mm"
   width="40mm">
  <defs
     id="defs13" />
  <g
     transform="translate(0,-257)"
     id="layer1">
    <g
       id="beerFactory"
       class="holy-upgrade-item">
      <g
         transform="matrix(0.3783058,0,0,0.3783058,-89.797344,125.08657)"
         id="g4595-1-1-9-1-3">
        <circle
           cx="290.28085"
           cy="401.30939"
           r="48.061165"
           style="fill:#e6e6e6;fill-opacity:1;stroke:#000000;stroke-width:5;stroke-miterlimit:4;stroke-dasharray:none;stroke-opacity:1"
           id="path3771-7-6-7-8-5" />
        <circle
           r="52.867283"
           cx="290.23438"
           cy="401.5625"
           style="fill:none;stroke-width:5.5;stroke-miterlimit:4;stroke-dasharray:none;stroke-opacity:1"
           class="holy-upgrade-identifier"
           id="path3771-4-2-4-03-1-2" />
      </g>
      <path
         d="m 26.019884,271.26746 v 2.4323 l -2.207384,0.81066 c -0.192251,0.74253 -0.450174,1.44376 -0.831342,2.08834 l 0.02211,0.003 1.05061,2.18812 -1.714949,1.71964 -2.185743,-1.04115 -0.0021,-0.003 c -0.644603,0.38117 -1.344602,0.62311 -2.087271,0.81515 l -0.810177,2.22923 h -2.432166 l -0.810722,-2.22936 c -0.742693,-0.19197 -1.443647,-0.46099 -2.088249,-0.84243 l -0.0033,0.0169 -2.1878536,1.04796 -1.7196451,-1.71625 1.0411514,-2.18614 0.00344,-0.003 C 8.6749441,275.95305 8.2969748,275.25258 8.1049956,274.51005 L 5.739981,273.69939 v -2.4323 l 2.3650645,-0.81071 c 0.1919792,-0.74281 0.5290486,-1.44348 0.9105567,-2.08822 l 0.016943,-0.003 -1.0308067,-2.18771 1.7246799,-1.71999 2.1905086,1.04108 0.0044,0.003 c 0.644739,-0.3809 1.346234,-0.73675 2.088903,-0.92907 l 0.811266,-2.34329 h 2.432165 l 0.810859,2.34322 c 0.742667,0.19232 1.443347,0.51816 2.08795,0.89933 l 0.0034,0.0119 2.18799,-1.03387 1.719507,1.72352 -1.04115,2.19011 -0.0031,0.004 c 0.381168,0.64467 0.601253,1.34583 0.793504,2.08843 z m -9.982229,-2.83756 c -2.238757,0 -4.053677,1.81445 -4.053677,4.05361 0,2.23869 1.81492,4.05381 4.053677,4.05381 2.239029,0 4.053677,-1.81512 4.053677,-4.05381 0,-2.23916 -1.814648,-4.05361 -4.053677,-4.05361 z"
         id="path2"
         style="stroke-width:0.06805354" />
      <path
         d="m 33.08265,285.43762 -0.531836,1.28389 -1.376726,-0.0689 c -0.263571,0.3502 -0.570627,0.6563 -0.913073,0.91327 l 0.0025,0.003 0.07214,1.38271 -1.283421,0.53231 -0.927569,-1.02808 -5.41e-4,-0.003 c -0.423906,0.0601 -0.858767,0.0636 -1.2922,0.003 l -0.927506,1.02894 -1.283964,-0.53184 0.0718,-1.38284 c -0.350611,-0.26358 -0.655152,-0.57315 -0.912122,-0.916 l -0.0025,0.002 -1.382644,0.0711 -0.53075,-1.28302 1.027814,-0.92661 0.0025,-0.002 c -0.04975,-0.39709 -0.07043,-0.86142 -0.009,-1.2956 l -1.034959,-0.92975 0.531634,-1.28417 1.389245,0.0739 c 0.263232,-0.35007 0.57655,-0.6542 0.918383,-0.91089 l 8.79e-4,-0.003 -0.07009,-1.3823 1.40653,-0.53184 1.050542,1.02836 v 0.003 c 0.272215,-0.0497 0.736204,-0.0637 1.170045,-0.003 l 0.866253,-1.02857 1.253547,0.53171 -0.08752,1.38312 c 0.350067,0.2637 0.647938,0.57328 0.904909,0.91573 l -0.0015,-7e-4 1.380601,-0.0713 0.530954,1.28377 -1.029037,0.92716 -0.0023,0.002 c 0.05968,0.42342 0.05798,0.85611 -0.0034,1.2898 z m -4.717878,-3.70899 c -1.181342,-0.48931 -2.536355,0.0717 -3.025796,1.25362 -0.489715,1.18167 0.07125,2.53649 1.253204,3.02599 1.182159,0.48944 2.536628,-0.0717 3.02641,-1.25334 0.489101,-1.18215 -0.07213,-2.53669 -1.253818,-3.02627 z"
         id="path4"
         style="stroke-width:0.06805354" />
    </g>
  </g>
</svg>
