<?xml version="1.0" encoding="UTF-8" standalone="no"?>
<svg
   xmlns:dc="http://purl.org/dc/elements/1.1/"
   xmlns:cc="http://creativecommons.org/ns#"
   xmlns:rdf="http://www.w3.org/1999/02/22-rdf-syntax-ns#"
   xmlns:svg="http://www.w3.org/2000/svg"
   xmlns="http://www.w3.org/2000/svg"
   id="svg3150"
   version="1.1"
   viewBox="0 0 40 40"
   height="40mm"
   width="40mm">
  <defs
     id="defs3144" />
  <metadata
     id="metadata3147">
    <rdf:RDF>
      <cc:Work
         rdf:about="">
        <dc:format>image/svg+xml</dc:format>
        <dc:type
           rdf:resource="http://purl.org/dc/dcmitype/StillImage" />
        <dc:title></dc:title>
      </cc:Work>
    </rdf:RDF>
  </metadata>
  <g
     transform="translate(0,-257)"
     id="layer1">
    <g
       id="bb_preset1"
       class="holy-upgrade-item">
      <g
         transform="matrix(0.3783058,0,0,0.3783058,-89.797344,125.08657)"
         id="g4595-1-1-9-1-3">
        <circle
           cx="290.28085"
           cy="401.30939"
           r="48.061165"
           style="fill:#e6e6e6;fill-opacity:1;stroke:#000000;stroke-width:5;stroke-miterlimit:4;stroke-dasharray:none;stroke-opacity:1"
           id="path3771-7-6-7-8-5" />
        <circle
           r="52.867283"
           cx="290.23438"
           cy="401.5625"
           style="fill:none;stroke-width:5.5;stroke-miterlimit:4;stroke-dasharray:none;stroke-opacity:1"
           class="holy-upgrade-identifier"
           id="path3771-4-2-4-03-1-2" />
      </g>
      <path
         style="fill:#f0c049;fill-opacity:1;stroke:#ff6f05;stroke-width:0.30000001;stroke-linecap:butt;stroke-linejoin:miter;stroke-miterlimit:4;stroke-dasharray:none;stroke-opacity:1"
         d="m 22.940288,288.26875 c 1.322917,1.32291 2.645834,1.32291 3.96875,0 1.322917,-1.32292 1.322917,-2.64584 0,-3.96875"
         id="path891-1" />
      <path
         style="fill:#f0c049;fill-opacity:1;stroke:#ff6f05;stroke-width:0.30000001;stroke-linecap:butt;stroke-linejoin:miter;stroke-miterlimit:4;stroke-dasharray:none;stroke-opacity:1"
         d="m 16.325705,267.10208 c -1.322917,-1.32291 -2.645834,-1.32291 -3.96875,0 -1.322917,1.32292 -1.322917,2.64584 0,3.96875"
         id="path891" />
      <circle
         style="fill:#ff0d0d;fill-opacity:1;stroke:none;stroke-width:0.5;stroke-linecap:round;stroke-linejoin:miter;stroke-miterlimit:4;stroke-dasharray:none;stroke-dashoffset:0;stroke-opacity:1;paint-order:markers fill stroke"
         id="path1541"
         cx="19.182291"
         cy="283.10938"
         r="0.66145831" />
      <path
         style="fill:#ababab;fill-opacity:0.54838711;stroke:none;stroke-width:0.26458332px;stroke-linecap:butt;stroke-linejoin:miter;stroke-opacity:1"
         d="m 12.356955,268.425 h 10.318749 c 0,0 -1.322917,2.64583 -1.322917,5.29167 0,2.64583 1.322917,3.96875 1.322917,6.61458 0,2.64583 -4.068976,6.72824 -4.068976,6.72824 -0.142981,0.68929 1.687727,1.20926 3.054054,2.52657 -2.689244,0.006 -5.335077,0.006 -7.939237,-0.0198 1.281243,-1.29756 2.787474,-1.44904 2.503933,-2.50682 0,0 -3.868523,-2.75949 -3.868523,-6.72824 0,-3.96875 1.322916,-3.96875 1.322916,-6.61458 0,-2.64584 -1.322916,-5.29167 -1.322916,-5.29167"
         id="path919" />
      <circle
         style="fill:#ff0d0d;fill-opacity:1;stroke:none;stroke-width:0.5;stroke-linecap:round;stroke-linejoin:miter;stroke-miterlimit:4;stroke-dasharray:none;stroke-dashoffset:0;stroke-opacity:1;paint-order:markers fill stroke"
         id="path1541-1"
         cx="17.103422"
         cy="284.81027"
         r="0.66145831" />
      <path
         style="fill:none;stroke:#7278f8;stroke-width:0.5;stroke-linecap:butt;stroke-linejoin:miter;stroke-opacity:1;stroke-miterlimit:4;stroke-dasharray:none"
         d="m 15.875,283.77083 c 0,0 3.96875,-17.19791 5.291666,-18.52083 1.322917,-1.32292 5.291667,0 5.291667,0"
         id="path1531" />
      <circle
         style="fill:#ff0d0d;fill-opacity:1;stroke:none;stroke-width:0.5;stroke-linecap:round;stroke-linejoin:miter;stroke-miterlimit:4;stroke-dasharray:none;stroke-dashoffset:0;stroke-opacity:1;paint-order:markers fill stroke"
         id="path1541-4"
         cx="14.741072"
         cy="281.17224"
         r="0.66145831" />
      <path
         style="fill:#fb9f5b;fill-opacity:0.74516129;stroke:none;stroke-width:0.24319836px;stroke-linecap:butt;stroke-linejoin:miter;stroke-opacity:1"
         d="m 12.886122,268.95417 h 9.303244 c 0,0 -1.192724,2.47942 -1.192724,4.95885 0,2.47942 1.192724,3.71914 1.192724,6.19857 0,2.47942 -3.668533,6.30508 -3.668533,6.30508 -0.872212,0 -0.872212,0 -2.146904,2e-5 0,0 -3.487807,-2.58594 -3.487807,-6.30509 0,-3.71914 1.192723,-3.71914 1.192723,-6.19856 0,-2.47944 -1.192723,-4.95886 -1.192723,-4.95886"
         id="path919-5" />
    </g>
  </g>
</svg>
