<?xml version="1.0" encoding="UTF-8" standalone="no"?>
<svg
   xmlns:dc="http://purl.org/dc/elements/1.1/"
   xmlns:cc="http://creativecommons.org/ns#"
   xmlns:rdf="http://www.w3.org/1999/02/22-rdf-syntax-ns#"
   xmlns:svg="http://www.w3.org/2000/svg"
   xmlns="http://www.w3.org/2000/svg"
   width="40mm"
   height="40mm"
   viewBox="0 0 40 40"
   version="1.1"
   id="svg3150">
  <defs
     id="defs3144" />
  <g
     id="layer1"
     transform="translate(0,-257)">
    <g
       id="bb_chili"
       class="holy-upgrade-item">
      <g
         id="g4595-1-1-9-1-3"
         transform="matrix(0.3783058,0,0,0.3783058,-89.797344,125.08657)">
        <circle
           id="path3771-7-6-7-8-5"
           style="fill:#e6e6e6;fill-opacity:1;stroke:#000000;stroke-width:5;stroke-miterlimit:4;stroke-dasharray:none;stroke-opacity:1"
           r="48.061165"
           cy="401.30939"
           cx="290.28085" />
        <circle
           id="path3771-4-2-4-03-1-2"
           class="holy-upgrade-identifier"
           style="fill:none;stroke-width:5.5;stroke-miterlimit:4;stroke-dasharray:none;stroke-opacity:1"
           cy="401.5625"
           cx="290.23438"
           r="52.867283" />
      </g>
      <g
         id="chili"
         transform="matrix(0.72856393,0,0,0.7313751,6.3313489,74.707882)">
        <path
           style="fill:#ff0000;stroke:none;stroke-width:0.30066156px;stroke-linecap:butt;stroke-linejoin:miter;stroke-opacity:1"
           d="m 3.7498242,285.0193 c 7.2581918,-1.55681 17.4196598,-9.02953 24.6778498,-19.92725 1.451639,4.67045 2.61295,1.24545 5.516226,7.47272 -5.806552,15.56817 -27.2907996,17.12498 -30.1940758,15.56817 -2.90327653,-1.55682 -1.4516382,-2.80227 0,-3.11364 z"
           id="path5202" />
        <path
           style="fill:#aa0000;stroke:none;stroke-width:0.30066156px;stroke-linecap:butt;stroke-linejoin:miter;stroke-opacity:1"
           d="m 4.33048,286.57611 c 7.258193,-1.55681 19.74228,-2.17953 27.2908,-16.81361 0.290328,1.55682 1.161311,0.62273 1.451637,3.425 -6.096881,14.32271 -24.9681779,15.87953 -29.3230927,14.32271 -0.2903273,-0.31137 -0.5806546,-0.62273 0.5806557,-0.9341 z"
           id="path5202-4" />
        <path
           style="fill:#008000;stroke:none;stroke-width:0.30066156px;stroke-linecap:butt;stroke-linejoin:miter;stroke-opacity:1"
           d="m 31.911607,265.71478 c -1.455476,0.24072 -1.947185,-1.65372 -3.398824,-0.71963 1.451639,4.67045 2.61295,1.24545 5.516226,7.47272 1.161311,-0.93409 0.296019,-2.04922 0.397359,-3.39585 0.05067,-0.67332 1.885223,-3.99615 1.091273,-4.27377 -0.327321,-0.11451 -0.327321,-0.42583 -0.438197,-0.50995 -0.741522,-0.56257 -2.458874,1.30922 -3.167837,1.42648 z"
           id="path5202-1" />
      </g>
    </g>
  </g>
</svg>
