<?xml version="1.0" encoding="UTF-8" standalone="no"?>
<svg
   xmlns:dc="http://purl.org/dc/elements/1.1/"
   xmlns:cc="http://creativecommons.org/ns#"
   xmlns:rdf="http://www.w3.org/1999/02/22-rdf-syntax-ns#"
   xmlns:svg="http://www.w3.org/2000/svg"
   xmlns="http://www.w3.org/2000/svg"
   width="40mm"
   height="40mm"
   viewBox="0 0 40 40"
   version="1.1"
   id="svg3150">
  <defs
     id="defs19" />
  <g
     id="layer1"
     transform="translate(0,-257)">
    <g
       id="bb_cherry"
       class="holy-upgrade-item">
      <g
         id="g4595-1-1-9-1-3"
         transform="matrix(0.3783058,0,0,0.3783058,-89.797344,125.08657)">
        <circle
           id="path3771-7-6-7-8-5"
           style="fill:#e6e6e6;fill-opacity:1;stroke:#000000;stroke-width:5;stroke-miterlimit:4;stroke-dasharray:none;stroke-opacity:1"
           r="48.061165"
           cy="401.30939"
           cx="290.28085" />
        <circle
           id="path3771-4-2-4-03-1-2"
           class="holy-upgrade-identifier"
           style="fill:none;stroke-width:5.5;stroke-miterlimit:4;stroke-dasharray:none;stroke-opacity:1"
           cy="401.5625"
           cx="290.23438"
           r="52.867283" />
      </g>
      <g
         id="beer-blender-cherry"
         transform="matrix(0.69905253,0,0,0.72805643,4.9060725,75.730616)">
        <path
           style="fill:#803300;stroke:none;stroke-width:0.26458332px;stroke-linecap:butt;stroke-linejoin:miter;stroke-opacity:1"
           d="m 10.583333,278.47917 c 3.96875,-10.58334 10.583334,-13.22917 17.197917,-15.875 6.614583,-1.32292 4.289405,-2.84629 5.612322,-1.52337 1.322917,1.32292 2.625856,2.39854 2.625856,2.39854 -2.679242,0.84865 -11.365164,9.57453 -10.042247,18.83495 1.322916,9.26041 -2.208922,5.75107 -1.877434,-0.8552 C 24.654264,270.40803 31.75,263.92708 31.75,263.92708 c 0,0 -14.552084,0 -19.84375,14.55209"
           id="path869" />
        <ellipse
           style="fill:#ff0000;fill-opacity:1;stroke:none;stroke-width:0.22894467"
           id="path828"
           cx="11.15128"
           cy="284.67252"
           rx="6.9018307"
           ry="6.8350134" />
        <ellipse
           style="fill:#ff0000;fill-opacity:1;stroke:none;stroke-width:0.22782287"
           id="path828-4"
           cx="25.463631"
           cy="287.54565"
           rx="6.9018307"
           ry="6.7681956" />
        <ellipse
           transform="matrix(-0.60284566,-0.79785783,0.91492268,-0.40362915,0,0)"
           ry="2.3770022"
           rx="3.7490375"
           cy="-161.07568"
           cx="-281.89139"
           id="path838"
           style="fill:#ff2a2a;fill-opacity:1;stroke-width:0.17800342" />
        <ellipse
           cx="-282.25134"
           cy="-161.99934"
           rx="1.8506964"
           ry="0.89346242"
           transform="matrix(-0.60284566,-0.79785783,0.91492268,-0.40362915,0,0)"
           id="path838-9"
           style="fill:#ffaaaa;fill-opacity:1;stroke-width:0.17800342" />
        <ellipse
           transform="matrix(-0.60284567,-0.79785782,0.91492268,-0.40362915,0,0)"
           ry="2.3770022"
           rx="3.7490375"
           cy="-170.9133"
           cx="-273.2803"
           id="path838-1"
           style="fill:#ff2a2a;fill-opacity:1;stroke-width:0.17800342" />
        <ellipse
           cx="-273.64026"
           cy="-171.83696"
           rx="1.8506964"
           ry="0.89346242"
           transform="matrix(-0.60284567,-0.79785782,0.91492268,-0.40362915,0,0)"
           id="path838-9-3"
           style="fill:#ffaaaa;fill-opacity:1;stroke-width:0.17800342" />
      </g>
    </g>
  </g>
</svg>
