<?xml version="1.0" encoding="UTF-8" standalone="no"?>
<svg
   xmlns:dc="http://purl.org/dc/elements/1.1/"
   xmlns:cc="http://creativecommons.org/ns#"
   xmlns:rdf="http://www.w3.org/1999/02/22-rdf-syntax-ns#"
   xmlns:svg="http://www.w3.org/2000/svg"
   xmlns="http://www.w3.org/2000/svg"
   width="40mm"
   height="40mm"
   viewBox="0 0 40 40"
   version="1.1"
   id="svg3150">
  <defs
     id="defs3144" />
  <metadata
     id="metadata3147">
    <rdf:RDF>
      <cc:Work
         rdf:about="">
        <dc:format>image/svg+xml</dc:format>
        <dc:type
           rdf:resource="http://purl.org/dc/dcmitype/StillImage" />
        <dc:title />
      </cc:Work>
    </rdf:RDF>
  </metadata>
  <g
     id="layer1"
     transform="translate(0,-257)">
    <g
       id="bottleCapsForEveryone"
       class="holy-upgrade-item">
      <g
         id="g4595-1-1-9"
         transform="matrix(0.3783058,0,0,0.3783058,-89.797347,125.08657)">
        <circle
           id="path3771-7-6-7"
           style="fill:none;stroke:#000000;stroke-width:5;stroke-miterlimit:4;stroke-dasharray:none;stroke-opacity:1"
           r="48.061165"
           cy="401.30939"
           cx="290.28085" />
        <circle
           id="path3771-4-2-4-03"
           class="holy-upgrade-identifier"
           style="fill:none;stroke-width:5.5;stroke-miterlimit:4;stroke-dasharray:none;stroke-opacity:1"
           cy="401.5625"
           cx="290.23438"
           r="52.867283" />
      </g>
      <path
         id="path6112"
         d="m 9.473057,284.85425 v -13.2407 l 5.674587,5.67458 v -5.67458 l 5.674587,5.67458 v -5.67458 l 5.674587,5.67458 0.756612,-11.34917 h 1.891529 l 1.134917,18.91529 z"
         style="fill:#008000;stroke:#000000;stroke-width:0.37830579px;stroke-linecap:butt;stroke-linejoin:miter;stroke-opacity:1" />
      <path
         transform="matrix(0.26458333,0,0,0.26458333,0,257)"
         id="path817"
         d="M 71.154491,140.14853 C 66.322412,139.66718 63.610539,139.24057 60.403368,138.45725 48.652671,135.58726 38.139296,129.67523 29.634552,121.1549 8.5139769,99.995602 4.5341283,67.325845 19.953415,41.684434 22.779253,36.985224 25.734066,33.232082 29.800241,29.1772 40.429146,18.577817 54.045943,12.09833 68.989895,10.528993 73.761027,10.027953 80.380879,10.178072 85.35092,10.900013 105.5092,13.828178 123.69494,26.767605 133.20803,44.951066 137.93843,53.992831 140.35474,63.249584 140.65242,73.470149 141.09869,88.792391 136.0984,103.68381 126.40096,115.9125 124.20705,118.67907 119.20556,123.70882 116.51163,125.8577 106.94321,133.49021 96.027841,138.11552 83.565205,139.81851 81.609518,140.08574 72.859884,140.31841 71.154491,140.14853 Z M 115.22253,106.01479 C 115.26172,105.94113 114.30677,89.568363 113.10042,69.630863 111.89407,49.693363 110.90246,33.280416 110.89685,33.157649 110.88897,32.985574 109.90662,32.934434 106.60901,32.934434 H 102.33139 L 102.24069,33.514791 C 102.1908,33.833988 101.58438,42.77372 100.89307,53.380863 100.20177,63.988006 99.586952,73.139338 99.526814,73.717156 L 99.417473,74.767732 88.767571,64.118941 C 82.910125,58.262106 78.057652,53.470149 77.984295,53.470149 77.910939,53.470149 77.85092,58.231056 77.85092,64.049943 V 74.629738 L 67.270004,64.049943 C 61.450502,58.231056 56.629073,53.470149 56.555718,53.470149 56.482364,53.470149 56.422348,58.231056 56.422348,64.049943 V 74.629738 L 45.841432,64.049943 C 40.02193,58.231056 35.200502,53.470149 35.127146,53.470149 35.053793,53.470149 34.993777,65.322827 34.993777,79.809434 V 106.14872 H 75.072523 C 97.115834,106.14872 115.18334,106.08845 115.22253,106.01479 Z"
         style="fill:#e6e6e6;fill-opacity:1;stroke-width:0.17857143" />
    </g>
  </g>
</svg>
