<?xml version="1.0" encoding="UTF-8" standalone="no"?>
<svg
   xmlns:dc="http://purl.org/dc/elements/1.1/"
   xmlns:cc="http://creativecommons.org/ns#"
   xmlns:rdf="http://www.w3.org/1999/02/22-rdf-syntax-ns#"
   xmlns:svg="http://www.w3.org/2000/svg"
   xmlns="http://www.w3.org/2000/svg"
   id="svg3150"
   version="1.1"
   viewBox="0 0 40 40"
   height="40mm"
   width="40mm">
  <defs
     id="defs3144">
    <filter
       id="filter999"
       style="color-interpolation-filters:sRGB;">
      <feGaussianBlur
         id="feGaussianBlur967"
         stdDeviation="0.5"
         in="SourceGraphic"
         result="result0" />
      <feTurbulence
         id="feTurbulence969"
         result="result1"
         numOctaves="7"
         seed="488"
         baseFrequency="0.042" />
      <feDisplacementMap
         id="feDisplacementMap971"
         yChannelSelector="G"
         in="result1"
         in2="result1"
         scale="0"
         xChannelSelector="R"
         result="result5" />
      <feComposite
         id="feComposite973"
         in="result0"
         in2="result5"
         operator="in"
         result="result2" />
      <feSpecularLighting
         id="feSpecularLighting977"
         in="result2"
         specularExponent="65"
         specularConstant="2"
         result="result4"
         surfaceScale="2"
         lighting-color="rgb(255,230,136)">
        <feDistantLight
           id="feDistantLight975"
           azimuth="225"
           elevation="62" />
      </feSpecularLighting>
      <feComposite
         id="feComposite979"
         result="result91"
         operator="arithmetic"
         in="result4"
         in2="result2"
         k2="-0.5"
         k3="1"
         k1="2.5" />
      <feBlend
         id="feBlend981"
         in2="result91"
         mode="multiply"
         result="fbSourceGraphic" />
      <feColorMatrix
         id="feColorMatrix983"
         result="fbSourceGraphicAlpha"
         in="fbSourceGraphic"
         values="1 0 0 -1 0 1 0 1 -1 0 1 0 0 -1 0 -2 -0.5 0 5 -2" />
      <feGaussianBlur
         id="feGaussianBlur985"
         result="result0"
         in="fbSourceGraphicAlpha"
         stdDeviation="8" />
      <feOffset
         id="feOffset987"
         result="result3"
         in="result0"
         dy="2"
         dx="2" />
      <feSpecularLighting
         id="feSpecularLighting991"
         specularExponent="15"
         specularConstant="0.8"
         surfaceScale="4"
         lighting-color="rgb(255,255,255)"
         result="result1"
         in="result0">
        <fePointLight
           id="fePointLight989"
           z="20000"
           y="-10000"
           x="-5000" />
      </feSpecularLighting>
      <feComposite
         id="feComposite993"
         operator="in"
         result="result2"
         in="result1"
         in2="fbSourceGraphicAlpha" />
      <feComposite
         id="feComposite995"
         in2="result2"
         k3="2"
         k2="2"
         operator="arithmetic"
         result="result4"
         in="fbSourceGraphic" />
      <feBlend
         id="feBlend997"
         in2="result4"
         mode="darken" />
    </filter>
  </defs>
  <metadata
     id="metadata3147">
    <rdf:RDF>
      <cc:Work
         rdf:about="">
        <dc:format>image/svg+xml</dc:format>
        <dc:type
           rdf:resource="http://purl.org/dc/dcmitype/StillImage" />
        <dc:title />
      </cc:Work>
    </rdf:RDF>
  </metadata>
  <g
     transform="translate(0,-257)"
     id="layer1">
    <g
       class="holy-upgrade-item"
       id="mb_2">
      <g
         transform="matrix(0.3783058,0,0,0.3783058,-89.797344,125.08657)"
         id="g4595-1-1-9-1-3">
        <circle
           cx="290.28085"
           cy="401.30939"
           r="48.061165"
           style="fill:#e6e6e6;fill-opacity:1;stroke:#000000;stroke-width:5;stroke-miterlimit:4;stroke-dasharray:none;stroke-opacity:1"
           id="path3771-7-6-7-8-5" />
        <circle
           r="52.867283"
           cx="290.23438"
           cy="401.5625"
           style="fill:none;stroke-width:5.5;stroke-miterlimit:4;stroke-dasharray:none;stroke-opacity:1"
           class="holy-upgrade-identifier"
           id="path3771-4-2-4-03-1-2" />
      </g>
      <rect
         style="fill:#008000;fill-opacity:1;stroke-width:0.29231411"
         id="rect4527"
         width="6.4590268"
         height="1.8520935"
         x="7.7508335"
         y="285.83353"
         transform="matrix(0.81926683,-0.57341247,0,1,0,0)" />
      <rect
         style="fill:#008000;fill-opacity:1;stroke-width:0.29231411"
         id="rect4527-7"
         width="6.4590268"
         height="1.8520935"
         x="-20.668886"
         y="269.53735"
         transform="matrix(-0.81926684,-0.57341246,0,1,0,0)" />
      <path
         id="path849"
         d="m 26.458333,287.73958 c 4.959714,0 6.61295,-1.65363 6.61295,-6.61457 0,-4.96094 -4.959712,-1.65365 -4.959712,-13.22918 h -3.306474 c 0,11.57553 -4.967894,8.39353 -4.967894,13.35446 0,4.96094 1.66142,6.48929 6.62113,6.48929 z"
         style="fill:#00c4ed;fill-opacity:0.29032258;stroke:none;stroke-width:0.33068833px;stroke-linecap:butt;stroke-linejoin:miter;stroke-opacity:1" />
      <path
         transform="matrix(0.33064747,0,0,0.33072922,-4.9531757,254.27604)"
         id="path853"
         d="m 91.147793,100.52793 c -10.774721,-0.7951 -14.81896,-4.872974 -15.53354,-15.662722 -0.208261,-3.144622 -0.06867,-5.696832 0.400032,-7.31424 0.637626,-2.200314 1.525544,-3.418348 4.356833,-5.976644 1.944655,-1.757152 3.450416,-3.286062 4.168613,-4.2327 l 0.490154,-0.646059 h 10.013183 10.013182 l 0.51784,0.647321 c 0.82055,1.025716 1.91644,2.115626 3.74335,3.722931 3.13552,2.758623 3.99477,3.893068 4.64303,6.130087 0.40977,1.414004 0.51775,2.659929 0.45964,5.303232 -0.15458,7.031208 -1.44363,11.222124 -4.31609,14.032341 -2.23154,2.183186 -5.29419,3.334036 -10.429442,3.919073 -1.092062,0.12441 -7.145064,0.17935 -8.526785,0.0774 z"
         style="fill:#00b9e0;fill-opacity:1;stroke:none;stroke-width:0.08942632;stroke-linecap:butt;stroke-linejoin:round;stroke-miterlimit:4;stroke-dasharray:none;stroke-dashoffset:0;stroke-opacity:1;paint-order:markers stroke fill;filter:url(#filter999)" />
      <path
         id="path1001"
         d="m 26.458333,264.98542 c -2.645833,0 -3.175,0 -3.175,0.83155 0,0.83154 1.5875,2.07886 1.5875,2.07886 h 3.175 c 0,0 1.5875,-1.24732 1.5875,-2.07886 0,-0.83155 -0.529167,-0.83155 -3.175,-0.83155 z"
         style="fill:#502d16;stroke:none;stroke-width:0.33167285px;stroke-linecap:butt;stroke-linejoin:miter;stroke-opacity:1" />
      <path
         id="path1003"
         d="M 24.870833,267.89583 25.4,270.54167 h 2.116666 l 0.529167,-2.64584"
         style="fill:#1e272f;fill-opacity:1;stroke:none;stroke-width:0.31623718px;stroke-linecap:butt;stroke-linejoin:miter;stroke-opacity:1" />
      <rect
         style="fill:#008000;fill-opacity:1;stroke-width:0.29231411"
         id="rect4527-3"
         width="6.4590268"
         height="1.8520935"
         x="7.750833"
         y="282.1293"
         transform="matrix(0.81926684,-0.57341246,0,1,0,0)" />
      <rect
         style="fill:#008000;fill-opacity:1;stroke-width:0.29231411"
         id="rect4527-7-7"
         width="6.4590268"
         height="1.8520935"
         x="-20.668886"
         y="265.83313"
         transform="matrix(-0.81926684,-0.57341246,0,1,0,0)" />
    </g>
  </g>
</svg>
