<?xml version="1.0" encoding="UTF-8" standalone="no"?>
<svg
   xmlns:dc="http://purl.org/dc/elements/1.1/"
   xmlns:cc="http://creativecommons.org/ns#"
   xmlns:rdf="http://www.w3.org/1999/02/22-rdf-syntax-ns#"
   xmlns:svg="http://www.w3.org/2000/svg"
   xmlns="http://www.w3.org/2000/svg"
   id="svg3150"
   version="1.1"
   viewBox="0 0 40 40"
   height="40mm"
   width="40mm">
  <defs
     id="defs3144" />
  <g
     transform="translate(0,-257)"
     id="layer1">
    <g
       id="embryonic"
       class="holy-upgrade-item">
      <g
         id="g4595-1-1-9-1-3"
         transform="matrix(0.3783058,0,0,0.3783058,-89.797344,125.08658)">
        <circle
           id="path3771-7-6-7-8-5"
           style="fill:#e6e6e6;fill-opacity:1;stroke:#000000;stroke-width:5;stroke-miterlimit:4;stroke-dasharray:none;stroke-opacity:1"
           r="48.061165"
           cy="401.30939"
           cx="290.28085" />
        <circle
           id="path3771-4-2-4-03-1-2"
           class="holy-upgrade-identifier"
           style="fill:none;stroke-width:5.5;stroke-miterlimit:4;stroke-dasharray:none;stroke-opacity:1"
           cy="401.5625"
           cx="290.23438"
           r="52.867283" />
      </g>
      <g
         id="g841"
         transform="matrix(0.61977047,0,0,0.50798951,2.6248246,262.73107)" />
      <g
         id="g843"
         transform="matrix(0.61977047,0,0,0.50798951,2.6248246,262.73107)" />
      <g
         id="g845"
         transform="matrix(0.61977047,0,0,0.50798951,2.6248246,262.73107)" />
      <g
         id="g847"
         transform="matrix(0.61977047,0,0,0.50798951,2.6248246,262.73107)" />
      <g
         id="g849"
         transform="matrix(0.61977047,0,0,0.50798951,2.6248246,262.73107)" />
      <g
         id="g851"
         transform="matrix(0.61977047,0,0,0.50798951,2.6248246,262.73107)" />
      <g
         id="g853"
         transform="matrix(0.61977047,0,0,0.50798951,2.6248246,262.73107)" />
      <g
         id="g855"
         transform="matrix(0.61977047,0,0,0.50798951,2.6248246,262.73107)" />
      <g
         id="g857"
         transform="matrix(0.61977047,0,0,0.50798951,2.6248246,262.73107)" />
      <g
         id="g859"
         transform="matrix(0.61977047,0,0,0.50798951,2.6248246,262.73107)" />
      <g
         id="g861"
         transform="matrix(0.61977047,0,0,0.50798951,2.6248246,262.73107)" />
      <g
         id="g863"
         transform="matrix(0.61977047,0,0,0.50798951,2.6248246,262.73107)" />
      <g
         id="g865"
         transform="matrix(0.61977047,0,0,0.50798951,2.6248246,262.73107)" />
      <g
         id="g867"
         transform="matrix(0.61977047,0,0,0.50798951,2.6248246,262.73107)" />
      <g
         id="g869"
         transform="matrix(0.61977047,0,0,0.50798951,2.6248246,262.73107)" />
      <path
         style="fill:#efa475;fill-opacity:1;stroke:none;stroke-width:0.30814812px;stroke-linecap:butt;stroke-linejoin:miter;stroke-opacity:1"
         d="m 18.454224,289.99478 c -2.710727,-5.81318 -2.710727,-5.81318 1.31438,-7.69012 2.710731,5.81318 3.908677,5.25457 10.76095,2.0593 6.852267,-3.19527 1.967462,-12.59485 1.967462,-12.59485 l -8.050218,3.75388 -6.060887,-3.18939 -1.601846,2.87011 3.366556,1.61489 -4.025111,1.87695 c -4.293448,2.00206 -6.028479,3.94854 -1.696393,13.17617 z"
         id="path6409" />
      <ellipse
         style="fill:#e28b56;fill-opacity:1;stroke:none;stroke-width:1.01871061;stroke-linecap:round;stroke-linejoin:miter;stroke-miterlimit:4;stroke-dasharray:12.22452793, 1.01871066;stroke-dashoffset:0;stroke-opacity:1;paint-order:fill markers stroke"
         id="path6411"
         cx="-88.893173"
         cy="259.09122"
         rx="5.1702409"
         ry="5.620512"
         transform="rotate(-25)" />
      <path
         style="fill:none;stroke:#e3765c;stroke-width:1.16465437;stroke-linecap:butt;stroke-linejoin:miter;stroke-miterlimit:4;stroke-dasharray:none;stroke-opacity:1"
         d="m 25.135417,279.80208 c 0,0 -4.716462,-3.10861 -8.755229,-4.76391 -4.038775,-1.6553 -3.640364,-2.90267 -3.374754,-3.73424 0.398409,-1.24736 -1.35537,-2.90661 -5.3941403,-4.56189"
         id="path6415" />
    </g>
  </g>
</svg>
