<?xml version="1.0" encoding="UTF-8" standalone="no"?>
<svg
   xmlns:dc="http://purl.org/dc/elements/1.1/"
   xmlns:cc="http://creativecommons.org/ns#"
   xmlns:rdf="http://www.w3.org/1999/02/22-rdf-syntax-ns#"
   xmlns:svg="http://www.w3.org/2000/svg"
   xmlns="http://www.w3.org/2000/svg"
   width="40mm"
   height="40mm"
   viewBox="0 0 40 40"
   version="1.1"
   id="svg3150">
  <defs
     id="defs3144">
    <linearGradient
       gradientUnits="userSpaceOnUse"
       gradientTransform="scale(0.77777778,1.2857143)"
       x1="184.5"
       y1="35.965008"
       x2="184.5"
       y2="166.87286"
       id="linearGradient-1">
      <stop
         stop-color="#F7E2A8"
         offset="0%"
         id="stop994" />
      <stop
         stop-color="#F1DDAF"
         offset="100%"
         id="stop996" />
    </linearGradient>
    <linearGradient
       gradientUnits="userSpaceOnUse"
       gradientTransform="scale(0.8359397,1.1962585)"
       x1="90.915649"
       y1="40.125107"
       x2="90.915649"
       y2="178.8911"
       id="linearGradient-2">
      <stop
         stop-color="#F7E2A8"
         offset="0%"
         id="stop999" />
      <stop
         stop-color="#F1DDAF"
         offset="100%"
         id="stop1001" />
    </linearGradient>
    <linearGradient
       gradientUnits="userSpaceOnUse"
       gradientTransform="scale(0.83405766,1.1989579)"
       x1="91.120796"
       y1="55.047806"
       x2="91.120796"
       y2="170.14777"
       id="linearGradient-3">
      <stop
         stop-color="#F3B011"
         offset="0%"
         id="stop1004" />
      <stop
         stop-color="#F5A711"
         offset="100%"
         id="stop1006" />
    </linearGradient>
  </defs>
  <g
     id="layer1"
     transform="translate(0,-257)">
    <g
       id="beerCollector"
       class="holy-upgrade-item">
      <g
         id="g4595-1-5"
         transform="matrix(-0.3783058,0,0,0.3783058,129.79735,125.08657)">
        <circle
           id="path3771-7-64"
           style="fill:none;stroke:#000000;stroke-width:5;stroke-miterlimit:4;stroke-dasharray:none;stroke-opacity:1"
           r="48.061165"
           cy="401.30939"
           cx="290.28085" />
        <circle
           id="path3771-4-2-2"
           class="holy-upgrade-identifier"
           style="fill:none;stroke-width:5.5;stroke-miterlimit:4;stroke-dasharray:none;stroke-opacity:1"
           cy="401.5625"
           cx="290.23438"
           r="52.867283" />
      </g>
      <path
         id="path92"
         d="m 18.743805,266.14609 v -0.26354 h 0.834573 l 0.805489,-0.0335 v 0.26531 0.26531 l -0.805489,0.03 h -0.834573 z"
         style="fill:#005800;fill-opacity:1;stroke-width:0.00561967" />
      <path
         id="path98"
         d="m 17.636448,266.11429 v -0.19898 l 0.568219,-0.0328 0.686035,0.0345 v 0.26353 0.26354 l -0.686035,-0.0345 -0.568219,-0.03 z"
         style="fill:#003600;fill-opacity:1;stroke-width:0.00561967" />
      <path
         id="path88"
         d="m 16.677877,288.06982 c -0.06568,-0.0415 -0.160704,-0.14062 -0.21117,-0.22035 l -0.09175,-0.14495 -0.02395,-5.28179 c -0.01316,-2.905 -0.01778,-5.49286 -0.01018,-5.75082 0.02202,-0.7499 0.149806,-1.28566 0.47768,-2.00249 0.215048,-0.47016 0.466333,-0.89363 1.038192,-1.74953 0.489406,-0.7325 0.609708,-0.93455 0.750029,-1.25971 0.173446,-0.40192 0.177289,-0.47556 0.156679,-3.00319 L 18.7448,266.3706 h 0.828702 l 0.810395,0.009 0.01895,2.42814 3.79e-4,2.43714 0.07064,0.22223 c 0.101953,0.32073 0.298706,0.6698 0.792513,1.40599 0.814908,1.21492 1.166736,1.87601 1.362029,2.55931 0.206567,0.7227 0.196893,0.3575 0.174766,6.5976 l -0.01994,5.6261 -0.06694,0.13295 c -0.03681,0.0731 -0.119102,0.17951 -0.182854,0.23644 l -0.115917,0.10349 -2.810229,0.008 -2.810226,0.008 z"
         style="fill:#008000;stroke-width:0.03178966" />
      <path
         id="path90"
         d="m 15.589412,288.09926 c -0.115062,-0.0558 -0.308262,-0.292 -0.33802,-0.4133 -0.01256,-0.0511 -0.02304,-2.67835 -0.02342,-5.83825 -3.78e-4,-4.66041 0.007,-5.78009 0.03942,-5.92954 0.187359,-0.86252 0.501482,-1.55185 1.163952,-2.55431 0.67845,-1.02664 0.858739,-1.31476 0.977202,-1.56167 0.223945,-0.46673 0.227342,-0.35988 0.227607,-3.0331 l 2.42e-4,-2.38949 0.578392,-0.009 h 0.589185 l -0.0085,2.43714 -0.0085,2.43714 -0.0717,0.201 c -0.115519,0.32386 -0.314565,0.67076 -0.810853,1.41312 -0.256423,0.38357 -0.551407,0.84061 -0.655524,1.01565 -0.50449,0.84815 -0.785787,1.63977 -0.857945,2.41441 -0.0188,0.20159 -0.02175,2.32159 -0.0083,5.86014 l 0.02111,5.54429 0.06655,0.13816 c 0.03117,0.0379 0.158582,0.18851 0.210354,0.23689 l 0.163927,0.0772 -0.642144,-10e-4 c -0.362262,-0.001 -0.550457,-0.0148 -0.613188,-0.0452 z"
         style="fill:#005800;fill-opacity:1;stroke-width:0.03178966" />
      <path
         id="path94"
         d="m 17.311434,265.74329 v -0.20086 l 0.115988,-0.0427 c 0.06379,-0.0235 0.117998,-0.0447 0.120453,-0.0472 0.003,-0.003 -0.04913,-0.0244 -0.114653,-0.0486 l -0.119121,-0.0441 -0.0011,-0.20234 -0.0011,-0.20233 h 0.792339 0.792331 l -0.01869,0.0253 c -0.0238,0.0322 -0.04927,0.092 -0.05709,0.13381 -0.0077,0.0413 -0.0038,0.13658 0.0075,0.17559 0.01373,0.048 0.0471,0.10395 0.07907,0.1326 l 0.0436,0.0286 -0.0526,0.0395 c -0.04086,0.045 -0.0606,0.0828 -0.07439,0.14243 -0.0096,0.0414 -0.01063,0.11393 -0.0019,0.15836 0.0079,0.0425 0.03386,0.10178 0.05661,0.12977 l 0.01873,0.023 h -0.792525 -0.792531 z"
         style="fill:#005800;fill-opacity:1;stroke-width:0.00561967" />
      <path
         id="path96"
         d="m 18.883548,265.93292 c -0.106505,-0.0409 -0.156082,-0.20118 -0.101833,-0.32934 0.02644,-0.0626 0.109717,-0.14579 0.168717,-0.15256 v 0 0 c 0.0011,-0.037 0.0011,-0.037 0,0 -0.08472,-0.0147 -0.156051,-0.10036 -0.179952,-0.1863 -0.03359,-0.12085 0.01351,-0.25164 0.105464,-0.2929 l 0.03053,-0.0137 0.902626,-0.002 0.902634,-0.002 -0.0011,0.20242 -0.0011,0.20242 -0.122654,0.0457 c -0.106466,0.0396 -0.120891,0.0465 -0.109319,0.0515 0.0073,0.003 0.06313,0.0241 0.123986,0.0465 l 0.110654,0.0407 v 0.19997 0.19998 l -0.899898,-1.9e-4 c -0.857741,-1.9e-4 -0.901219,-3.8e-4 -0.928132,-0.0111 z"
         style="fill:#008000;stroke-width:0.00561967" />
      <ellipse
         ry="4.588098"
         rx="2.7348752"
         cy="281.07944"
         cx="19.119381"
         id="path911"
         style="fill:#888000;fill-opacity:1;stroke:#000000;stroke-width:0.05883437;stroke-opacity:1" />
      <g
         transform="matrix(0.0338607,0,0,0.03760274,18.330835,270.52369)"
         id="g4781">
        <g
           transform="matrix(0.61818536,0,0,0.61818536,-26.792154,211.0104)"
           style="fill:none;fill-rule:evenodd;stroke:none;stroke-width:1"
           id="Symbols">
          <g
             id="Bier">
            <path
               style="fill:#ffffff"
               d="m 90.802375,51 c 4.845123,3.760268 10.936685,6 17.553105,6 3.8412,0 7.5055,-0.75489 10.85171,-2.123943 C 121.78505,60.822885 127.86002,65 134.94352,65 144.36355,65 152,57.612698 152,48.5 152,39.969485 145.30813,32.950949 136.72561,32.088979 136.87381,30.913431 136.95017,29.715603 136.95017,28.5 136.95017,12.759885 124.14789,0 108.35548,0 99.83824,0 92.190743,3.711487 86.952263,9.6002847 84.65374,8.5783055 82.036298,8 79.259136,8 75.078031,8 71.258949,9.3108024 68.345159,11.472979 64.288066,4.5909983 56.988447,0 48.657807,0 38.310547,0 29.553888,7.0827388 26.625519,16.840923 24.209942,15.664564 21.466627,15 18.558139,15 8.8610468,15 1,22.387302 1,31.5 1,40.612698 8.8610468,48 18.558139,48 v 3 z"
               id="Schaum" />
            <path
               style="fill:url(#linearGradient-1)"
               d="m 127,82 h 33 c 4.41828,0 8,3.581722 8,8 v 65 c 0,4.41828 -3.58172,8 -8,8 h -33 v 0 c -4.41828,0 -8,-3.58172 -8,-8 v -65 0 c 0,-4.418278 3.58172,-8 8,-8 z m -8,13 v 56 h 32 c 3.31371,0 6,-2.68629 6,-6 v -44 c 0,-3.313709 -2.68629,-6 -6,-6 z"
               id="Henkel" />
            <path
               style="fill:url(#linearGradient-2)"
               d="m 18,48 h 116 v 150 0 c 0,8.83656 -7.16344,16 -16,16 H 34 v 0 c -8.836556,0 -16,-7.16344 -16,-16 z"
               id="Glass" />
            <path
               style="fill:url(#linearGradient-3)"
               d="m 28,66 h 96 v 130 0 c 0,4.41828 -3.58172,8 -8,8 H 36 v 0 c -4.418278,0 -8,-3.58172 -8,-8 z"
               id="path1014" />
            <path
               style="fill:#ffffff"
               d="m 51.5,37 v 0 c 4.69442,0 8.5,3.80558 8.5,8.5 v 61 0 c 0,4.69442 -3.80558,8.5 -8.5,8.5 v 0 c -4.69442,0 -8.5,-3.80558 -8.5,-8.5 v -61 0 C 43,40.80558 46.80558,37 51.5,37 Z m 0,99 c -4.69442,0 -8.5,-3.80558 -8.5,-8.5 0,-4.69442 3.80558,-8.5 8.5,-8.5 4.69442,0 8.5,3.80558 8.5,8.5 0,4.69442 -3.80558,8.5 -8.5,8.5 z m 30,-96 c 4.69442,0 8.5,3.80558 8.5,8.5 v 34 c 0,4.69442 -3.80558,8.5 -8.5,8.5 v 0 0 C 76.80558,91 73,87.19442 73,82.5 v -34 0 C 73,43.80558 76.80558,40 81.5,40 Z"
               id="Schaum-2" />
          </g>
        </g>
      </g>
      <path
         transform="matrix(0.26458333,0,0,0.26458333,0,257)"
         id="path35"
         d="M 70.886634,140.14493 C 55.502448,138.77791 42.164345,132.96918 31.315105,122.9116 19.54325,111.99872 12.140548,96.927493 10.714262,80.970149 10.477218,78.318097 10.478582,72.170429 10.716797,69.541577 12.104142,54.231347 18.704412,40.113156 29.544068,29.269432 40.1349,18.674627 53.927614,12.092004 68.811323,10.528993 72.21522,10.171533 78.843762,10.171533 82.247659,10.528993 110.56897,13.503152 133.67299,34.514657 139.28304,62.39872 140.2532,67.22079 140.42495,69.127849 140.43291,75.166577 140.44072,81.09584 140.271,83.065354 139.34804,87.755863 135.54212,107.0977 123.07802,123.7792 105.65829,132.84499 98.590687,136.5232 91.425382,138.76441 83.349955,139.82273 81.253846,140.09743 72.80897,140.31575 70.886634,140.14493 Z M 85.414895,117.04608 C 85.76758,116.6557 86.101237,116.15347 86.156354,115.93001 86.21147,115.70655 86.2336,105.55943 86.205529,93.380863 L 86.154491,71.238006 85.554802,69.452291 C 84.72203,66.972527 83.400829,64.473706 80.881202,60.613006 79.695387,58.796041 78.387845,56.632582 77.975548,55.80532 L 77.22592,54.301207 77.175686,44.064249 77.125452,33.827291 H 77.756043 C 78.382943,33.827291 78.386634,33.822657 78.386634,33.035754 78.386634,32.371784 78.32188,32.223634 77.984848,32.116515 L 77.583062,31.988813 77.993362,31.805536 C 78.347814,31.647206 78.396427,31.511686 78.350505,30.809913 L 78.297348,29.997566 71.868777,29.992786 65.440205,29.988006 65.386389,30.821275 C 65.338952,31.55577 65.380939,31.669895 65.740598,31.784047 L 66.148625,31.913549 65.749773,32.061095 C 65.417389,32.184052 65.35092,32.343515 65.35092,33.017966 65.35092,33.827263 65.350943,33.827291 65.990018,33.827291 H 66.629116 L 66.56895,43.96122 66.508784,54.095149 66.055996,55.166577 C 65.616566,56.206402 65.161632,56.957354 61.891043,62.041577 60.02538,64.941802 58.760693,67.463236 58.08445,69.630863 L 57.583062,71.238006 V 93.745124 116.25224 L 58.029491,116.80933 C 58.275027,117.11572 58.636634,117.4486 58.833062,117.54905 59.06597,117.66816 63.639945,117.73589 71.981927,117.74378 L 84.773648,117.75586 Z"
         style="fill:#e6e6e6;stroke-width:0.17857143" />
      <path
         transform="matrix(0.26458333,0,0,0.26458333,0,257)"
         id="path37"
         d="M 71.211629,140.17254 C 71.180204,140.1457 70.471455,140.06447 69.636634,139.99203 68.801812,139.91958 67.998241,139.84097 67.85092,139.81734 66.790468,139.64721 65.892125,139.51537 65.400646,139.45775 65.084245,139.42065 64.682459,139.34613 64.507789,139.29216 64.333118,139.23818 63.868777,139.14682 63.47592,139.08914 63.083062,139.03146 62.60092,138.94917 62.404491,138.90627 62.208062,138.86336 61.846455,138.79046 61.60092,138.74425 60.994455,138.63012 60.750209,138.56873 59.815205,138.29541 59.373241,138.16621 58.891098,138.0433 58.743777,138.02227 58.596455,138.00123 58.355384,137.93362 58.208062,137.87202 58.060741,137.81042 57.779491,137.73098 57.583062,137.69548 57.386634,137.65999 57.105384,137.58502 56.958062,137.5289 56.810741,137.47277 55.886634,137.17312 54.904491,136.86301 53.922348,136.55289 52.998241,136.25216 52.85092,136.19472 52.703598,136.13728 52.542884,136.08049 52.493777,136.06853 52.44467,136.05657 52.203598,135.9356 51.958062,135.79972 51.712527,135.66383 51.492387,135.56404 51.468866,135.57794 51.338879,135.65481 49.856768,135.02245 46.779491,133.57717 45.460471,132.95768 43.898259,132.11371 42.672348,131.35833 42.328598,131.14652 41.926812,130.91772 41.779491,130.84988 41.478886,130.71146 39.842741,129.63985 39.510243,129.36362 39.39162,129.26507 39.210816,129.18443 39.108457,129.18443 39.006096,129.18443 38.922348,129.11887 38.922348,129.03874 38.922348,128.95862 38.619009,128.72257 38.248262,128.5142 37.877514,128.30583 37.402866,127.98969 37.193489,127.81167 36.984111,127.63366 36.637493,127.36747 36.423225,127.22015 36.208957,127.07283 35.847623,126.79158 35.620262,126.59515 35.392902,126.39872 34.994529,126.07729 34.734989,125.88086 34.47545,125.68443 34.033914,125.32283 33.753802,125.07729 33.473689,124.83176 32.780204,124.22908 32.212725,123.73801 30.839975,122.55009 28.156521,119.85992 27.047348,118.5597 26.556277,117.98404 25.953598,117.28538 25.708062,117.0071 25.462527,116.72882 25.10092,116.29354 24.904491,116.03981 24.708062,115.78608 24.386634,115.39245 24.190205,115.16509 23.993777,114.93773 23.712527,114.57405 23.565205,114.35691 23.417884,114.13976 23.196902,113.85715 23.074134,113.72888 22.951366,113.60061 22.85092,113.42883 22.85092,113.34715 22.85092,113.26547 22.650027,112.98199 22.404491,112.71719 22.158955,112.45239 21.958062,112.15187 21.958062,112.04937 21.958062,111.94687 21.877705,111.86301 21.779491,111.86301 21.681277,111.86301 21.60092,111.74247 21.60092,111.59515 21.60092,111.44783 21.520562,111.32729 21.422348,111.32729 21.324134,111.32729 21.243777,111.20676 21.243777,111.05943 21.243777,110.91211 21.16342,110.79158 21.065205,110.79158 20.966991,110.79158 20.886634,110.67104 20.886634,110.52372 20.886634,110.3764 20.806277,110.25586 20.708062,110.25586 20.609848,110.25586 20.529491,110.14107 20.529491,110.00076 20.529491,109.86045 20.419557,109.63573 20.285193,109.50136 20.150829,109.367 19.9847,109.08001 19.916017,108.86361 19.847334,108.6472 19.716196,108.47015 19.6246,108.47015 19.533005,108.47015 19.458062,108.35535 19.458062,108.21505 19.458062,108.07474 19.354222,107.85376 19.227307,107.72398 19.100392,107.59419 18.886915,107.22 18.752914,106.89244 18.618914,106.56488 18.415292,106.20289 18.30042,106.08802 18.04174,105.82934 16.388751,102.57729 16.515946,102.57729 16.566674,102.57729 16.454446,102.27595 16.266552,101.90765 16.078657,101.53934 15.912611,101.17937 15.897561,101.10771 15.874289,100.99691 15.426785,99.933334 14.825358,98.559434 14.690068,98.250377 14.467725,97.685141 14.368777,97.39872 14.351812,97.349613 14.285203,97.188899 14.220757,97.041577 13.954809,96.433629 13.235121,94.184434 13.30654,94.184434 13.349001,94.184434 13.270706,93.883095 13.13255,93.514791 12.994394,93.146488 12.821764,92.604077 12.748928,92.309434 12.676091,92.014791 12.593583,91.693363 12.565577,91.595149 12.467884,91.252561 12.296253,90.520422 12.209753,90.077291 12.161825,89.831756 12.08039,89.490927 12.028789,89.319895 11.977187,89.148861 11.900651,88.827432 11.858709,88.605609 11.816767,88.383784 11.740151,88.001399 11.688452,87.755863 11.636752,87.510327 11.549154,87.038091 11.493789,86.706449 11.438425,86.374806 11.359656,85.932841 11.318747,85.724306 11.277839,85.51577 11.198331,84.983541 11.142063,84.541577 11.085794,84.099613 11.008505,83.545506 10.970308,83.310231 10.715727,81.742127 10.620451,79.552606 10.619828,75.255863 10.619056,69.930418 10.712013,68.57055 11.347673,64.608234 11.488525,63.730252 11.569882,63.318374 11.672293,62.964811 11.719805,62.800782 11.802085,62.385327 11.855137,62.041577 11.908189,61.697827 11.997349,61.215684 12.053269,60.970149 12.109189,60.724613 12.194157,60.322827 12.242086,60.077291 12.290015,59.831756 12.381433,59.470149 12.445237,59.27372 12.576104,58.870832 12.613938,58.728013 12.741071,58.156977 12.790351,57.935625 12.871213,57.688924 12.920763,57.60875 12.970313,57.528577 13.048415,57.267718 13.094324,57.029065 13.185012,56.557622 14.370405,52.917252 14.645687,52.264791 14.738922,52.043809 14.884811,51.682202 14.969885,51.46122 15.118103,51.076216 15.308643,50.620131 15.80916,49.452291 16.179123,48.589066 18.579669,43.803045 19.033565,43.02372 19.262375,42.630863 19.531655,42.14872 19.631967,41.952291 19.856845,41.511941 20.230246,40.911338 20.353595,40.791577 20.404173,40.74247 20.886316,40.019256 21.425023,39.184434 21.963731,38.349613 22.464759,37.639791 22.53842,37.607054 22.61208,37.574315 22.672348,37.468129 22.672348,37.371084 22.672348,37.27404 22.772795,37.089688 22.895562,36.961416 23.01833,36.833145 23.239312,36.550534 23.386634,36.333391 23.533955,36.11625 23.815205,35.752566 24.011634,35.525206 24.208062,35.297845 24.529491,34.903961 24.72592,34.649907 25.130518,34.126616 25.489349,33.697207 26.511634,32.512968 27.438061,31.439772 31.718139,27.160168 32.787291,26.238006 33.242768,25.845149 33.865291,25.30411 34.170675,25.035697 35.260848,24.077509 35.35262,24.005863 35.489805,24.005863 35.566193,24.005863 35.754577,23.865238 35.908439,23.693363 36.0623,23.521488 36.371255,23.260327 36.595005,23.113006 36.818755,22.965684 37.106773,22.744702 37.235045,22.621934 37.363316,22.499166 37.519546,22.39872 37.582221,22.39872 37.733948,22.39872 38.995359,21.453195 39.071157,21.282649 39.103896,21.208988 39.244521,21.14872 39.383657,21.14872 39.522795,21.14872 39.637555,21.088452 39.638682,21.014791 39.639809,20.941131 39.961237,20.72731 40.352968,20.539634 40.744698,20.351958 41.065205,20.130976 41.065205,20.048563 41.065205,19.966149 41.147159,19.89872 41.247325,19.89872 41.347491,19.89872 41.769366,19.680771 42.184825,19.414389 43.827696,18.361022 48.974996,15.800871 51.243777,14.908671 51.783955,14.696245 52.386634,14.452128 52.583062,14.366189 52.779491,14.28025 53.38217,14.07303 53.922348,13.9057 54.462527,13.73837 55.004937,13.5219 55.127705,13.424655 55.250473,13.327411 55.35092,13.2943 55.35092,13.351076 55.35092,13.407853 55.692437,13.330976 56.109848,13.180238 56.527259,13.029501 57.064039,12.868158 57.302693,12.821698 57.541346,12.775238 57.805707,12.69452 57.890162,12.642323 58.044298,12.547063 60.58667,11.906735 61.422348,11.752698 61.667884,11.70744 62.008712,11.628191 62.179745,11.576589 62.350779,11.524988 62.712386,11.446949 62.983316,11.403171 63.254248,11.359393 63.644845,11.285682 63.851309,11.23937 64.057771,11.193058 64.499736,11.116933 64.833452,11.070204 69.00107,10.486625 69.005037,10.486187 71.690205,10.313373 75.480962,10.069405 81.127502,10.25363 83.565205,10.700808 83.810741,10.74585 84.41342,10.826913 84.904491,10.880948 85.395562,10.934984 85.917884,11.004205 86.065205,11.034772 86.212527,11.065339 86.734848,11.159818 87.22592,11.244725 87.716991,11.329632 88.158955,11.409585 88.208062,11.422399 88.25717,11.435212 88.498241,11.498576 88.743777,11.563206 88.989312,11.627837 89.391098,11.715427 89.636634,11.757852 89.88217,11.800275 90.766098,12.006551 91.60092,12.216241 92.435741,12.425932 93.239312,12.626981 93.386634,12.663017 93.533955,12.699053 93.67458,12.74473 93.699134,12.764522 93.723687,12.784313 93.804045,12.813749 93.877705,12.829934 94.269614,12.916049 98.197129,14.251019 98.654491,14.453573 98.949134,14.584063 99.551812,14.825917 99.993777,14.991028 101.85462,15.686207 107.25455,18.375941 108.87416,19.414389 109.28962,19.680771 109.71149,19.89872 109.81166,19.89872 109.91182,19.89872 109.99378,19.966149 109.99378,20.048563 109.99378,20.130976 110.31428,20.351958 110.70601,20.539634 111.09774,20.72731 111.41917,20.941131 111.4203,21.014791 111.42143,21.088452 111.54288,21.14872 111.69021,21.14872 111.83753,21.14872 111.95806,21.216423 111.95806,21.299172 111.95806,21.38192 112.23931,21.601086 112.58306,21.786208 112.92681,21.97133 113.20806,22.184876 113.20806,22.260756 113.20806,22.336636 113.29416,22.39872 113.39939,22.39872 113.50462,22.39872 113.69567,22.499166 113.82394,22.621934 113.95221,22.744702 114.23521,22.965684 114.45284,23.113006 114.67046,23.260327 114.99409,23.501399 115.17201,23.64872 115.34992,23.796041 115.74393,24.11747 116.04757,24.363006 116.35122,24.608541 116.78858,24.970149 117.01949,25.166577 117.2504,25.363006 117.81897,25.845149 118.28298,26.238006 119.36717,27.155944 123.41329,31.19215 124.45806,32.397961 124.90003,32.908047 125.42955,33.516506 125.63479,33.750093 125.84002,33.983681 126.16145,34.387959 126.34907,34.64849 126.78488,35.253643 127.54582,36.211381 127.68292,36.327291 127.74101,36.376399 127.94043,36.677738 128.12608,36.996934 128.31174,37.316131 128.52667,37.577291 128.60371,37.577291 128.68074,37.577291 128.74378,37.691131 128.74378,37.830268 128.74378,37.969404 128.80404,38.110029 128.87771,38.142768 129.06686,38.226836 130.52949,40.425777 130.52949,40.626086 130.52949,40.717106 130.60048,40.791577 130.68724,40.791577 130.77399,40.791577 130.89581,40.932202 130.95795,41.104077 131.07895,41.438815 131.46878,42.140359 131.77657,42.577291 132.01667,42.918122 132.31971,43.499484 133.71361,46.293391 134.89166,48.654641 135.12871,49.158302 135.62061,50.345149 135.78344,50.738006 135.99026,51.198968 136.08022,51.369511 136.17017,51.540054 136.24378,51.755804 136.24378,51.848957 136.24378,51.942111 136.33749,52.244541 136.45203,52.521024 136.56657,52.797507 136.67395,53.063899 136.69066,53.113006 136.70738,53.162113 136.76572,53.322827 136.82031,53.470149 137.24102,54.605486 137.71459,56.072699 137.78417,56.456382 137.83023,56.710413 137.94728,57.06654 138.04427,57.247774 138.14127,57.429009 138.18549,57.577291 138.14254,57.577291 138.09959,57.577291 138.18254,57.958988 138.32687,58.425506 138.61782,59.3659 138.72252,59.772574 138.84407,60.434434 138.88917,60.67997 138.97797,61.081756 139.04142,61.327291 139.10486,61.572827 139.177,61.854077 139.20172,61.952291 139.22644,62.050506 139.29562,62.412113 139.35544,62.755863 139.41527,63.099613 139.50436,63.581756 139.55344,63.827291 139.60251,64.072827 139.68293,64.474613 139.73215,64.720149 139.85952,65.355575 140.13724,67.47912 140.25761,68.738006 140.39138,70.137125 140.38908,80.165963 140.25461,81.77624 140.13162,83.249125 139.72303,85.866941 139.27949,88.02372 139.1785,88.514791 139.06289,89.077291 139.02257,89.27372 138.96342,89.561904 138.57304,91.152434 138.1241,92.934434 138.08698,93.081756 137.93354,93.543809 137.78312,93.96122 137.63269,94.378631 137.55607,94.720149 137.61285,94.720149 137.66962,94.720149 137.61604,94.840684 137.49378,94.988006 137.37151,95.135327 137.33133,95.255863 137.40449,95.255863 137.47765,95.255863 137.43747,95.376399 137.31521,95.52372 137.19294,95.671041 137.15276,95.791577 137.22592,95.791577 137.29908,95.791577 137.2589,95.912113 137.13663,96.059434 137.01437,96.206756 136.97419,96.327291 137.04735,96.327291 137.12051,96.327291 137.07008,96.460177 136.93528,96.622593 136.80049,96.785011 136.70067,96.965815 136.71346,97.024379 136.72624,97.082945 136.66597,97.316897 136.57953,97.544274 136.49308,97.771649 136.42235,98.0339 136.42235,98.127054 136.42235,98.220207 136.35137,98.435957 136.26461,98.6065 136.17786,98.777043 136.00587,99.157649 135.88243,99.452291 135.41447,100.56925 135.09801,101.26502 134.68441,102.08622 134.44944,102.55274 134.30341,102.93443 134.35988,102.93443 134.49286,102.93443 133.20975,105.49344 133.01368,105.61925 132.9318,105.6718 132.69555,106.07358 132.48869,106.51211 131.99597,107.5566 131.5648,108.3104 131.28842,108.61046 131.16565,108.74375 131.06521,108.9676 131.06521,109.1079 131.06521,109.24821 130.99778,109.36301 130.91536,109.36301 130.83295,109.36301 130.61197,109.68351 130.42429,110.07524 130.23662,110.46697 130.02279,110.7884 129.94913,110.78953 129.87547,110.79066 129.81521,110.91211 129.81521,111.05943 129.81521,111.20676 129.73485,111.32729 129.63663,111.32729 129.53842,111.32729 129.45806,111.44783 129.45806,111.59515 129.45806,111.74247 129.39036,111.86301 129.30761,111.86301 129.22486,111.86301 129.0057,112.14426 128.82057,112.48801 128.63545,112.83176 128.42191,113.11301 128.34603,113.11301 128.27015,113.11301 128.20806,113.22494 128.20806,113.36176 128.20806,113.49857 128.08753,113.65676 127.94021,113.7133 127.79288,113.76983 127.67235,113.93914 127.67235,114.08954 127.67235,114.23995 127.58947,114.36301 127.48817,114.36301 127.38687,114.36301 127.25239,114.49749 127.18931,114.66186 127.12624,114.82624 126.94796,115.09592 126.79313,115.26115 126.63831,115.42639 126.31074,115.82002 126.06521,116.13588 125.59816,116.7367 125.46475,116.89514 124.01163,118.57452 122.86972,119.89425 120.3781,122.38525 118.93617,123.64872 118.31969,124.1889 117.58593,124.83176 117.30559,125.07729 117.02525,125.32283 116.58724,125.68443 116.33224,125.88086 115.79881,126.29177 115.34705,126.65325 114.86168,127.05755 114.67428,127.21366 114.26572,127.49214 113.95379,127.67641 113.64185,127.86068 113.38663,128.05619 113.38663,128.1109 113.38663,128.1656 113.10538,128.36183 112.76163,128.54695 112.41788,128.73207 112.13663,128.95123 112.13663,129.03398 112.13663,129.11673 112.0161,129.18443 111.86878,129.18443 111.72146,129.18443 111.60092,129.26479 111.60092,129.36301 111.60092,129.46122 111.50806,129.54158 111.39456,129.54158 111.28106,129.54158 110.92482,129.74247 110.6029,129.98801 110.28099,130.23354 109.93189,130.43443 109.82712,130.43443 109.72235,130.43443 109.63663,130.51479 109.63663,130.61301 109.63663,130.71122 109.52184,130.79158 109.38153,130.79158 109.24122,130.79158 109.02024,130.89542 108.89046,131.02233 108.76068,131.14925 108.39333,131.35989 108.07413,131.49043 107.75494,131.62096 107.49347,131.77828 107.49311,131.84003 107.49274,131.90177 107.12735,132.10244 106.68112,132.28596 106.2349,132.46948 105.76744,132.722 105.64232,132.84711 105.34946,133.13998 103.56521,134.04659 103.56521,133.90254 103.56521,133.8424 103.12324,134.04263 102.58306,134.34749 102.04288,134.65234 101.60092,134.85884 101.60092,134.80638 101.60092,134.75391 101.33976,134.84928 101.02056,135.01832 100.70137,135.18736 100.32926,135.34457 100.19365,135.36767 100.05805,135.39078 99.861173,135.49561 99.756152,135.60063 99.651132,135.70565 99.440652,135.79207 99.28842,135.79268 99.136187,135.79328 98.805386,135.90141 98.553304,136.03296 98.301221,136.16451 97.882891,136.32537 97.623679,136.39043 97.364468,136.45548 96.968037,136.5788 96.742723,136.66447 96.517411,136.75013 96.252705,136.84109 96.154491,136.86659 96.056277,136.89209 95.533955,137.06834 94.993777,137.25824 94.453598,137.44814 93.818398,137.64162 93.582223,137.68819 93.346046,137.73476 92.984439,137.86298 92.778652,137.97311 92.572862,138.08324 92.404491,138.15127 92.404491,138.12428 92.404491,138.09728 92.083062,138.16027 91.690205,138.26425 91.297348,138.36823 90.775027,138.49315 90.529491,138.54186 90.283955,138.59056 89.88217,138.67554 89.636634,138.73069 89.391098,138.78585 88.989312,138.86949 88.743777,138.91658 88.498241,138.96366 88.096455,139.04402 87.85092,139.09515 87.605384,139.14628 87.183509,139.22747 86.91342,139.27556 85.941857,139.44857 85.541632,139.50851 83.297348,139.81719 81.86438,140.01428 71.387055,140.32234 71.211629,140.17254 Z M 85.344384,117.11103 C 85.655779,116.75636 85.986391,116.26673 86.079077,116.02295 86.335746,115.34786 86.29188,71.466286 86.033907,70.837316 85.922882,70.566624 85.807343,70.224613 85.777152,70.077291 85.483025,68.642031 83.179254,64.109609 81.420407,61.505863 81.055512,60.965684 80.210525,59.599613 79.542655,58.470149 78.874786,57.340684 78.260604,56.389625 78.177807,56.356682 78.095009,56.32374 78.072687,56.223293 78.128204,56.133468 78.183718,56.043643 78.130648,55.970149 78.010268,55.970149 77.889887,55.970149 77.83953,55.922015 77.898362,55.863182 77.957193,55.804352 77.837384,55.434009 77.63212,55.0402 77.269348,54.344209 77.256529,54.037559 77.173711,44.075738 L 77.088511,33.827291 H 77.737571 78.386634 V 33.027122 C 78.386634,32.317056 78.335039,32.214004 77.928441,32.111954 L 77.470248,31.996956 77.883798,31.791875 C 78.197386,31.636368 78.310293,31.411077 78.3509,30.859838 L 78.404452,30.132879 76.298486,30.020018 C 75.140204,29.957945 72.203159,29.958307 69.77172,30.020825 L 65.35092,30.134493 V 30.845134 C 65.35092,31.315213 65.456705,31.633684 65.66342,31.785924 65.961039,32.005111 65.961039,32.021838 65.66342,32.137215 65.431609,32.227079 65.35092,32.460913 65.35092,33.042825 65.35092,33.824275 65.353389,33.827291 65.992954,33.827291 H 66.634989 L 66.59442,43.157649 C 66.572107,48.289345 66.485302,53.010327 66.401518,53.64872 66.300014,54.422136 66.039132,55.196732 65.619668,55.970149 65.273432,56.608541 64.941414,57.271488 64.88185,57.443363 64.822286,57.615238 64.715495,57.755863 64.644536,57.755863 64.573577,57.755863 64.361968,58.07637 64.174291,58.4681 63.986616,58.859831 63.772795,59.181259 63.699134,59.182386 63.625473,59.183513 63.565205,59.260768 63.565205,59.354063 63.565205,59.447359 62.946379,60.471913 62.190032,61.630849 60.342334,64.46205 59.247298,66.581824 58.295539,69.169822 L 57.501771,71.328209 57.500054,93.748707 57.498336,116.16921 58.140621,116.86339 C 58.493879,117.24519 58.954907,117.59125 59.165129,117.6324 59.375348,117.67356 65.224291,117.71817 72.162779,117.73154 L 84.778209,117.75586 Z"
         style="fill:#e6e6e6;stroke-width:0.17857143" />
    </g>
  </g>
</svg>
