<?xml version="1.0" encoding="UTF-8" standalone="no"?>
<svg
   xmlns:dc="http://purl.org/dc/elements/1.1/"
   xmlns:cc="http://creativecommons.org/ns#"
   xmlns:rdf="http://www.w3.org/1999/02/22-rdf-syntax-ns#"
   xmlns:svg="http://www.w3.org/2000/svg"
   xmlns="http://www.w3.org/2000/svg"
   width="40mm"
   height="40mm"
   viewBox="0 0 40 40"
   version="1.1"
   id="svg3150">
  <defs
     id="defs22" />
  <metadata
     id="metadata3147">
    <rdf:RDF>
      <cc:Work
         rdf:about="">
        <dc:format>image/svg+xml</dc:format>
        <dc:type
           rdf:resource="http://purl.org/dc/dcmitype/StillImage" />
        <dc:title />
      </cc:Work>
    </rdf:RDF>
  </metadata>
  <g
     id="layer1"
     transform="translate(0,-257)">
    <g
       id="industrialRevolution"
       class="holy-upgrade-item">
      <path
         transform="matrix(-0.99998917,-0.00465483,0.00409169,-0.99999163,0,0)"
         d="m -8.0963573,-271.04803 a 7.36304,7.8533759 0 0 1 -3.6815197,6.80122 7.36304,7.8533759 0 0 1 -7.36304,0 7.36304,7.8533759 0 0 1 -3.68152,-6.80123"
         id="path5331-4"
         style="fill:#000000;fill-opacity:1;stroke:#c8c4b7;stroke-width:1.74515009;stroke-linecap:butt;stroke-linejoin:round;stroke-miterlimit:4;stroke-dasharray:none;stroke-opacity:1;paint-order:normal" />
      <rect
         y="270.56445"
         x="2.1386869"
         height="1.891529"
         width="35.939053"
         id="rect6324"
         style="fill:#000000;fill-opacity:1;stroke-width:0.37830579" />
      <g
         id="g4595-1-53"
         transform="matrix(0.3783058,0,0,0.3783058,-89.797348,125.08658)">
        <circle
           id="path3771-7-4"
           style="fill:none;stroke:#000000;stroke-width:5;stroke-miterlimit:4;stroke-dasharray:none;stroke-opacity:1"
           r="48.061165"
           cy="401.30939"
           cx="290.28085" />
        <circle
           id="path3771-4-2-6"
           class="holy-upgrade-identifier"
           style="fill:none;stroke-width:5.5;stroke-miterlimit:4;stroke-dasharray:none;stroke-opacity:1"
           cy="401.5625"
           cx="290.23438"
           r="52.867283" />
      </g>
      <rect
         transform="matrix(0.80637263,-0.5914078,0.48832762,0.87266038,0,0)"
         ry="1.996276"
         y="238.54175"
         x="-127.4414"
         height="4.3508286"
         width="19.203827"
         id="rect4743-0"
         style="fill:#4f4c4d;fill-opacity:1;stroke:#000000;stroke-width:0.31658718;stroke-linecap:butt;stroke-linejoin:round;stroke-miterlimit:4;stroke-dasharray:none;stroke-opacity:1;paint-order:normal" />
      <path
         id="path5431"
         d="m 14.401571,284.06156 v 3.08698 l -1.969914,1.78579 0.0082,1.64219 2.651402,0.01 v -0.85715 l -0.686973,-0.55531 v -1.01825 h 3.943868 v 1.01825 l -0.684386,0.55533 v 0.85714 l 2.482716,-0.01 -0.01653,-1.64219 -1.772098,-1.78579 v -3.08698 c -0.223541,-1.29101 -0.910215,-1.90131 -1.969873,-1.96339 -1.238263,0.14784 -1.834594,0.86019 -1.986446,1.96339 z"
         style="fill:#c8c4b7;fill-opacity:1;stroke:#000000;stroke-width:0.13622141px;stroke-linecap:butt;stroke-linejoin:miter;stroke-opacity:1" />
      <ellipse
         ry="1.7270551"
         rx="1.5862831"
         cy="284.24829"
         cx="16.399723"
         id="path5331-7-6-8"
         style="fill:#000000;fill-opacity:1;stroke:#c8c4b7;stroke-width:0.37985635;stroke-linecap:butt;stroke-linejoin:round;stroke-miterlimit:4;stroke-dasharray:none;stroke-opacity:1;paint-order:normal" />
      <rect
         transform="matrix(0.88967196,0.45660027,-0.41355401,0.91047959,0,0)"
         ry="2.1745131"
         y="229.76913"
         x="121.96609"
         height="4.7392912"
         width="20.190336"
         id="rect4743-0-6"
         style="fill:#4f4c4d;fill-opacity:1;stroke:#000000;stroke-width:0.33879888;stroke-linecap:butt;stroke-linejoin:round;stroke-miterlimit:4;stroke-dasharray:none;stroke-opacity:1;paint-order:normal" />
      <ellipse
         ry="1.7270551"
         rx="1.5862831"
         cy="275.29056"
         cx="28.619146"
         id="path5331-7-6"
         style="fill:#000000;fill-opacity:1;stroke:#c8c4b7;stroke-width:0.37985635;stroke-linecap:butt;stroke-linejoin:round;stroke-miterlimit:4;stroke-dasharray:none;stroke-opacity:1;paint-order:normal" />
      <ellipse
         ry="1.7270551"
         rx="1.5862831"
         cy="268.07126"
         cx="14.403805"
         id="path5331-7"
         style="fill:#000000;fill-opacity:1;stroke:#c8c4b7;stroke-width:0.37985635;stroke-linecap:butt;stroke-linejoin:round;stroke-miterlimit:4;stroke-dasharray:none;stroke-opacity:1;paint-order:normal" />
      <path
         id="path6392"
         d="m 18.437407,284.39802 c 0,-1.27601 -0.654022,-2.16616 -1.73096,-2.3559 -0.456138,-0.0804 -0.3181,-0.19877 3.500256,-3.00224 2.186317,-1.60521 4.042221,-2.91857 4.124231,-2.91857 0.136465,0 3.698401,1.71056 3.824486,1.83665 0.03011,0.0301 -2.061008,1.60068 -4.646919,3.49017 -2.58591,1.88949 -4.784779,3.5003 -4.886375,3.57957 -0.142607,0.11126 -0.184719,-0.0323 -0.184719,-0.62968 z"
         style="fill:#008000;fill-opacity:1;stroke-width:0.14777571" />
      <path
         id="path6394"
         d="m 26.099952,276.43494 c -1.08525,-0.559 -4.333898,-2.22882 -7.219218,-3.71072 -2.885321,-1.4819 -5.276791,-2.72331 -5.314378,-2.75869 -0.03759,-0.0354 0.201753,-0.0211 0.531868,0.0317 0.749106,0.11978 1.427571,-0.20055 1.832978,-0.86544 0.848554,-1.39168 -0.278872,-3.21075 -1.853178,-2.99007 -0.421088,0.059 -0.527347,0.0404 -0.36944,-0.0647 0.664245,-0.44234 1.166797,-0.23333 8.520724,3.5438 3.957726,2.03277 7.215269,3.71535 7.238986,3.73907 0.02372,0.0237 -0.319153,0.0396 -0.761932,0.0354 -0.709365,-0.007 -0.859865,0.0471 -1.266203,0.45313 -0.772857,0.77238 -0.827125,2.05476 -0.118859,2.80868 0.185671,0.19763 0.640094,0.45257 1.009827,0.56652 0.624063,0.19234 0.638907,0.20793 0.207124,0.21748 -0.300042,0.007 -1.165422,-0.35042 -2.438299,-1.00606 z"
         style="fill:#008000;fill-opacity:1;stroke-width:0.14777571" />
      <path
         transform="matrix(0.26458333,0,0,0.26458333,0,257)"
         id="path826"
         d="M 69.163234,139.82191 C 59.926783,138.49917 53.513238,136.61021 46.68734,133.20215 28.387634,124.0654 15.74726,107.24402 11.772406,86.73854 10.608872,80.736098 10.626497,69.704586 11.809543,63.494979 L 12.699637,58.823023 H 39.491305 66.282971 L 77.698362,64.660233 C 83.976823,67.870698 89.299176,70.681259 89.525809,70.905924 89.752441,71.130589 83.161196,76.269589 74.878597,82.325923 66.595997,88.382256 58.883924,94.085033 57.740658,94.99876 54.387361,97.678798 53.870121,99.328125 53.963724,107.04231 L 54.044217,113.67607 50.23951,117.09478 46.434802,120.5135 V 124.01344 127.5134 H 51.990641 57.54648 V 125.58113 C 57.54648,124.1731 57.203908,123.32704 56.28379,122.46263 55.514697,121.74011 55.021099,120.71849 55.021099,119.84921 V 118.42202 H 61.839629 68.658158 V 119.84921 C 68.658158,120.71849 68.164562,121.74011 67.395468,122.46263 66.47535,123.32704 66.132777,124.1731 66.132777,125.58113 V 127.5134 H 71.436078 76.739378 V 124.09059 120.66777 L 73.203845,117.15933 C 69.752492,113.73443 69.668311,113.5899 69.668311,111.08945 V 108.52801 L 90.250169,93.503948 C 101.57019,85.240713 111.62752,77.968949 112.59979,77.344472 116.71406,74.701935 118.25656,67.850024 115.67451,63.686259 115.00763,62.610847 113.42457,61.073053 112.15661,60.268939 L 109.85124,58.806913 124.23123,58.941237 138.61122,59.075562 139.27002,62.106019 C 140.43845,67.480813 140.63012,79.706231 139.6389,85.634185 134.8886,114.043 112.05678,136.06352 83.659701,139.62421 79.772165,140.11167 71.933078,140.21857 69.163234,139.82191 Z"
         style="fill:#e6e6e6;fill-opacity:1;stroke-width:0.50507629" />
      <path
         transform="matrix(0.26458333,0,0,0.26458333,0,257)"
         id="path828"
         d="M 15.62515,50.695763 C 15.62515,49.492901 20.529815,40.746942 23.364324,36.895334 32.959089,23.857703 46.828343,15.025446 63.274399,11.47969 69.053199,10.233785 82.403521,10.271809 88.356133,11.551128 108.36663,15.851727 124.75333,28.479394 133.81328,46.580627 134.92429,48.800359 135.8333,50.758338 135.8333,50.931692 135.8333,51.105045 126.62416,51.246879 115.36854,51.246879 H 94.90377 L 89.935941,48.753906 84.968111,46.260933 83.826301,42.709888 C 80.493787,32.345758 71.720082,23.805742 61.766723,21.237866 57.790548,20.212049 50.736421,20.212049 46.760246,21.237866 38.995578,23.241079 30.871035,29.71017 27.139803,36.860456 25.134862,40.702595 23.201294,46.954591 23.201294,49.59523 V 51.246879 H 19.413222 C 17.013591,51.246879 15.62515,51.044879 15.62515,50.695763 Z"
         style="fill:#e6e6e6;fill-opacity:1;stroke-width:0.50507629" />
    </g>
  </g>
</svg>
