<?xml version="1.0" encoding="UTF-8" standalone="no"?>
<!-- Created with Inkscape (http://www.inkscape.org/) -->

<svg
   xmlns:dc="http://purl.org/dc/elements/1.1/"
   xmlns:cc="http://creativecommons.org/ns#"
   xmlns:rdf="http://www.w3.org/1999/02/22-rdf-syntax-ns#"
   xmlns:svg="http://www.w3.org/2000/svg"
   xmlns="http://www.w3.org/2000/svg"
   xmlns:sodipodi="http://sodipodi.sourceforge.net/DTD/sodipodi-0.dtd"
   xmlns:inkscape="http://www.inkscape.org/namespaces/inkscape"
   width="40mm"
   height="40mm"
   viewBox="0 0 40 40"
   version="1.1"
   id="svg3150"
   inkscape:version="0.92.2 (5c3e80d, 2017-08-06)"
   sodipodi:docname="holy-upgrade-keep.svg">
  <defs
     id="defs3144">
    <linearGradient
       gradientUnits="userSpaceOnUse"
       gradientTransform="scale(0.77777778,1.2857143)"
       x1="184.5"
       y1="35.965008"
       x2="184.5"
       y2="166.87286"
       id="linearGradient-1">
      <stop
         stop-color="#F7E2A8"
         offset="0%"
         id="stop994" />
      <stop
         stop-color="#F1DDAF"
         offset="100%"
         id="stop996" />
    </linearGradient>
    <linearGradient
       gradientUnits="userSpaceOnUse"
       gradientTransform="scale(0.8359397,1.1962585)"
       x1="90.915649"
       y1="40.125107"
       x2="90.915649"
       y2="178.8911"
       id="linearGradient-2">
      <stop
         stop-color="#F7E2A8"
         offset="0%"
         id="stop999" />
      <stop
         stop-color="#F1DDAF"
         offset="100%"
         id="stop1001" />
    </linearGradient>
    <linearGradient
       gradientUnits="userSpaceOnUse"
       gradientTransform="scale(0.83405766,1.1989579)"
       x1="91.120796"
       y1="55.047806"
       x2="91.120796"
       y2="170.14777"
       id="linearGradient-3">
      <stop
         stop-color="#F3B011"
         offset="0%"
         id="stop1004" />
      <stop
         stop-color="#F5A711"
         offset="100%"
         id="stop1006" />
    </linearGradient>
    <linearGradient
       gradientUnits="userSpaceOnUse"
       gradientTransform="scale(0.77777778,1.2857143)"
       x1="184.5"
       y1="35.965006"
       x2="184.5"
       y2="166.87286"
       id="linearGradient-1-9">
      <stop
         stop-color="#F7E2A8"
         offset="0%"
         id="stop4" />
      <stop
         stop-color="#F1DDAF"
         offset="100%"
         id="stop6" />
    </linearGradient>
    <linearGradient
       gradientUnits="userSpaceOnUse"
       gradientTransform="scale(0.8359397,1.1962585)"
       x1="90.915649"
       y1="40.125106"
       x2="90.915649"
       y2="178.8911"
       id="linearGradient-2-1">
      <stop
         stop-color="#F7E2A8"
         offset="0%"
         id="stop9" />
      <stop
         stop-color="#F1DDAF"
         offset="100%"
         id="stop11" />
    </linearGradient>
    <linearGradient
       gradientUnits="userSpaceOnUse"
       gradientTransform="scale(0.83405766,1.1989579)"
       x1="91.120799"
       y1="55.047805"
       x2="91.120799"
       y2="170.14776"
       id="linearGradient-3-9">
      <stop
         stop-color="#F3B011"
         offset="0%"
         id="stop14" />
      <stop
         stop-color="#F5A711"
         offset="100%"
         id="stop16" />
    </linearGradient>
  </defs>
  <sodipodi:namedview
     id="base"
     pagecolor="#ffffff"
     bordercolor="#666666"
     borderopacity="1.0"
     inkscape:pageopacity="0.0"
     inkscape:pageshadow="2"
     inkscape:zoom="2.8"
     inkscape:cx="51.100138"
     inkscape:cy="41.390238"
     inkscape:document-units="mm"
     inkscape:current-layer="abstinence"
     showgrid="false"
     inkscape:window-width="1920"
     inkscape:window-height="1017"
     inkscape:window-x="3832"
     inkscape:window-y="-8"
     inkscape:window-maximized="1"
     inkscape:snap-text-baseline="true" />
  <metadata
     id="metadata3147">
    <rdf:RDF>
      <cc:Work
         rdf:about="">
        <dc:format>image/svg+xml</dc:format>
        <dc:type
           rdf:resource="http://purl.org/dc/dcmitype/StillImage" />
        <dc:title></dc:title>
      </cc:Work>
    </rdf:RDF>
  </metadata>
  <g
     inkscape:label="Layer 1"
     inkscape:groupmode="layer"
     id="layer1"
     transform="translate(0,-257)">
    <g
       id="keep"
       class="holy-upgrade-item"
       inkscape:label="#g848">
      <g
       transform="matrix(0.37827167,0.00508149,-0.00508149,0.37827167,-87.746903,123.62545)"
       id="g4595-1-1-9-1-3"
       inkscape:label="#g4595-1-1-9">
      <circle
         cx="290.28085"
         cy="401.30939"
         r="48.061165"
         style="fill:#e6e6e6;fill-opacity:1;stroke:#000000;stroke-width:5;stroke-miterlimit:4;stroke-dasharray:none;stroke-opacity:1"
         id="path3771-7-6-7-8-5" />
      <circle
         r="52.867283"
         cx="290.23438"
         cy="401.5625"
         style="fill:none;stroke-width:5.5;stroke-miterlimit:4;stroke-dasharray:none;stroke-opacity:1"
         class="holy-upgrade-identifier"
         id="path3771-4-2-4-03-1-2" />
    </g>
      <g
       transform="matrix(0.09345794,0,0,0.09345794,12.860429,266.61939)"
       style="fill:none;fill-rule:evenodd;stroke:none;stroke-width:1"
       id="Symbols-7">
      <g
         id="Bier-3">
        <path
           style="fill:#ffffff"
           inkscape:connector-curvature="0"
           d="M 90.802375,51 C 95.647498,54.760268 101.73906,57 108.35548,57 112.19668,57 115.86098,56.24511 119.20719,54.876057 121.78505,60.822885 127.86002,65 134.94352,65 144.36355,65 152,57.612698 152,48.5 152,39.969485 145.30813,32.950949 136.72561,32.088979 136.87381,30.913431 136.95017,29.715603 136.95017,28.5 136.95017,12.759885 124.14789,0 108.35548,0 99.83824,0 92.190743,3.711487 86.952263,9.6002847 84.65374,8.5783055 82.036298,8 79.259136,8 75.078031,8 71.258949,9.3108024 68.345159,11.472979 64.288066,4.5909983 56.988447,0 48.657807,0 38.310547,0 29.553888,7.0827388 26.625519,16.840923 24.209942,15.664564 21.466627,15 18.558139,15 8.8610468,15 1,22.387302 1,31.5 1,40.612698 8.8610468,48 18.558139,48 V 51 Z"
           id="Schaum-20" />
        <path
           style="fill:url(#linearGradient-1-9)"
           inkscape:connector-curvature="0"
           d="M 127,82 H 160 C 164.41828,82 168,85.581722 168,90 V 155 C 168,159.41828 164.41828,163 160,163 H 127 V 163 C 122.58172,163 119,159.41828 119,155 V 90 90 C 119,85.581722 122.58172,82 127,82 Z M 119,95 V 151 H 151 C 154.31371,151 157,148.31371 157,145 V 101 C 157,97.686291 154.31371,95 151,95 Z"
           id="Henkel-9" />
        <path
           style="fill:url(#linearGradient-2-1)"
           inkscape:connector-curvature="0"
           d="M 18,48 H 134 V 198 198 C 134,206.83656 126.83656,214 118,214 H 34 V 214 C 25.163444,214 18,206.83656 18,198 Z"
           id="Glass-2" />
        <path
           style="fill:url(#linearGradient-3-9)"
           inkscape:connector-curvature="0"
           d="M 28,66 H 124 V 196 196 C 124,200.41828 120.41828,204 116,204 H 36 V 204 C 31.581722,204 28,200.41828 28,196 Z"
           id="path24" />
        <path
           style="fill:#ffffff"
           inkscape:connector-curvature="0"
           d="M 51.5,37 V 37 C 56.19442,37 60,40.80558 60,45.5 V 106.5 106.5 C 60,111.19442 56.19442,115 51.5,115 V 115 C 46.80558,115 43,111.19442 43,106.5 V 45.5 45.5 C 43,40.80558 46.80558,37 51.5,37 Z M 51.5,136 C 46.80558,136 43,132.19442 43,127.5 43,122.80558 46.80558,119 51.5,119 56.19442,119 60,122.80558 60,127.5 60,132.19442 56.19442,136 51.5,136 Z M 81.5,40 C 86.19442,40 90,43.80558 90,48.5 V 82.5 C 90,87.19442 86.19442,91 81.5,91 V 91 91 C 76.80558,91 73,87.19442 73,82.5 V 48.5 48.5 C 73,43.80558 76.80558,40 81.5,40 Z"
           id="Schaum-2-7" />
      </g>
    </g>
      <text
       xml:space="preserve"
       style="font-style:normal;font-weight:normal;font-size:25.39999962px;line-height:1.25;font-family:sans-serif;letter-spacing:0px;word-spacing:0px;fill:#008000;fill-opacity:1;stroke:none;stroke-width:0.26458332"
       x="11.609775"
       y="287.9017"
       id="text879"><tspan
         sodipodi:role="line"
         id="tspan877"
         x="11.609775"
         y="287.9017"
         style="font-size:25.39999962px;fill:#008000;stroke-width:0.26458332">X</tspan></text>
    </g>
  </g>
</svg>
