<?xml version="1.0" encoding="UTF-8" standalone="no"?>
<svg
   xmlns:dc="http://purl.org/dc/elements/1.1/"
   xmlns:cc="http://creativecommons.org/ns#"
   xmlns:rdf="http://www.w3.org/1999/02/22-rdf-syntax-ns#"
   xmlns:svg="http://www.w3.org/2000/svg"
   xmlns="http://www.w3.org/2000/svg"
   width="40mm"
   height="40mm"
   viewBox="0 0 40 40"
   version="1.1"
   id="svg3150">
  <defs
     id="defs3144" />
  <g
     id="layer1"
     transform="translate(0,-257)">
    <g
       transform="matrix(0.3783058,0,0,0.3783058,172.52286,111.59019)"
       id="money"
       class="holy-upgrade-item">
      <g
         id="smallHelper">
        <g
           transform="translate(-693.40783,35.675841)"
           id="g4595-1-1-9-1-3">
          <circle
             cx="290.28085"
             cy="401.30939"
             r="48.061165"
             style="fill:#e6e6e6;stroke:#000000;stroke-width:5;stroke-miterlimit:4;stroke-dasharray:none;stroke-opacity:1;fill-opacity:1"
             id="path3771-7-6-7-8-5" />
          <circle
             r="52.867283"
             cx="290.23438"
             cy="401.5625"
             style="fill:none;stroke-width:5.5;stroke-miterlimit:4;stroke-dasharray:none;stroke-opacity:1"
             class="holy-upgrade-identifier"
             id="path3771-4-2-4-03-1-2" />
        </g>
        <path
           id="path3745"
           d="M -431.98802,463.26805 C -433.95192,461.01287 -434.89383,459.20902 -434.89383,457.70316 -434.89383,456.07059 -434.33307,455.13477 -431.93885,452.77167 -428.06427,448.94749 -425.27752,446.44576 -422.44032,444.24462 -420.96022,443.09633 -419.18275,441.70463 -418.4904,441.15196 -416.71676,439.73614 -413.26614,436.42019 -411.94901,434.86588 -407.39281,429.48923 -404.47317,423.53712 -402.48551,415.57323 -401.20031,410.42384 -400.08428,407.67717 -398.40726,405.53625 -396.27083,402.80881 -393.37188,402.15289 -390.21437,403.6825 -388.43796,404.54305 -388.84102,404.17703 -379.90861,413.04142 -370.15495,422.7208 -370.11338,422.76848 -369.22268,425.2988 -368.52973,427.26732 -368.70803,429.03196 -369.76391,430.65552 -370.33419,431.53239 -370.85734,432.05177 -371.9342,432.81013 -374.24032,434.43415 -376.37142,435.25962 -381.77048,436.62022 -388.96839,438.43413 -394.35815,440.96314 -399.51782,444.94773 -400.51502,445.71782 -401.43357,446.5607 -403.23409,448.35785 -405.81371,450.93263 -406.21864,451.40523 -409.81096,456.03361 -412.32173,459.26852 -414.55313,461.76902 -418.46925,465.73608 -420.75146,468.048 -421.25216,468.4245 -422.55586,468.80918 -424.06121,469.25336 -425.77707,468.71243 -427.88456,467.12935 -428.62356,466.57423 -431.31151,464.04492 -431.98802,463.26805 Z M -426.22495,461.40871 C -425.76129,461.67077 -424.87286,461.76117 -424.36117,461.59832 -422.41679,460.97954 -422.10151,458.33707 -423.84458,457.26868 -425.40553,456.31191 -427.49787,457.48976 -427.46944,459.30923 -427.45502,460.23195 -427.02581,460.95605 -426.22495,461.40871 Z M -386.5517,431.71063 C -383.01923,431.44617 -379.52168,430.66333 -377.40842,429.66416 -376.56334,429.26459 -376.24981,429.04911 -375.61959,428.43472 -374.98566,427.81668 -374.82918,427.60173 -374.70136,427.17315 -374.52087,426.56796 -374.52607,425.73641 -374.71393,425.16735 -375.08268,424.05034 -375.28319,423.83002 -382.50352,416.60825 -387.28369,411.82713 -389.51471,409.65298 -389.88925,409.41075 -391.64342,408.2763 -393.09751,408.36028 -394.38688,409.67048 -395.93195,411.24053 -397.11271,415.09353 -397.60214,420.16238 L -397.74608,421.6532 -392.67701,426.72146 -387.60792,431.78971 Z"
           style="fill:#808080;stroke-width:0.11856698" />
      </g>
    </g>
  </g>
</svg>
