<?xml version="1.0" encoding="UTF-8" standalone="no"?>
<svg
   xmlns:dc="http://purl.org/dc/elements/1.1/"
   xmlns:cc="http://creativecommons.org/ns#"
   xmlns:rdf="http://www.w3.org/1999/02/22-rdf-syntax-ns#"
   xmlns:svg="http://www.w3.org/2000/svg"
   xmlns="http://www.w3.org/2000/svg"
   width="40mm"
   height="40mm"
   viewBox="0 0 40 40"
   version="1.1"
   id="svg3150">
  <defs
     id="defs3144" />
  <g
     id="layer1"
     transform="translate(0,-257)">
    <g
       id="kardaschow"
       class="holy-upgrade-item">
      <g
         id="g4595-1-1-9-1-9"
         transform="matrix(0.3783058,0,0,0.3783058,-89.797347,125.08657)">
        <circle
           id="path3771-7-6-7-8-8"
           style="fill:#e6e6e6;fill-opacity:1;stroke:#000000;stroke-width:5;stroke-miterlimit:4;stroke-dasharray:none;stroke-opacity:1"
           r="48.061165"
           cy="401.30939"
           cx="290.28085" />
        <circle
           id="path3771-4-2-4-03-1-1"
           class="holy-upgrade-identifier"
           style="fill:none;stroke-width:5.5;stroke-miterlimit:4;stroke-dasharray:none;stroke-opacity:1"
           cy="401.5625"
           cx="290.23438"
           r="52.867283" />
      </g>
      <path
         transform="matrix(-0.99998917,-0.00465483,0.00409169,-0.99999163,0,0)"
         d="M -7.6043663,-272.09854 A 7.36304,7.8533759 0 0 1 -11.285886,-265.29732 7.36304,7.8533759 0 0 1 -18.648926,-265.29732 7.36304,7.8533759 0 0 1 -22.330446,-272.09854"
         id="path5331-4-8"
         style="fill:#000000;fill-opacity:1;stroke:#c8c4b7;stroke-width:1.74515009;stroke-linecap:butt;stroke-linejoin:round;stroke-miterlimit:4;stroke-dasharray:none;stroke-opacity:1;paint-order:normal" />
      <rect
         y="271.61264"
         x="1.64238"
         height="1.891529"
         width="35.939053"
         id="rect6324-7"
         style="fill:#000000;fill-opacity:1;stroke-width:0.37830579" />
      <rect
         transform="matrix(0.80637263,-0.5914078,0.48832762,0.87266038,0,0)"
         ry="1.996276"
         y="239.09764"
         x="-128.39349"
         height="4.3508286"
         width="19.203827"
         id="rect4743-0-4"
         style="fill:#4f4c4d;fill-opacity:1;stroke:#000000;stroke-width:0.31658718;stroke-linecap:butt;stroke-linejoin:round;stroke-miterlimit:4;stroke-dasharray:none;stroke-opacity:1;paint-order:normal" />
      <path
         id="path5431-8"
         d="M 13.905265,285.10976 V 288.19674 L 11.935351,289.98253 11.943598,291.62472 14.594999,291.63452 V 290.77737 L 13.908026,290.22206 V 289.20381 H 17.851895 V 290.22206 L 17.167509,290.77739 V 291.63453 L 19.650224,291.62466 19.633692,289.98247 17.861594,288.19668 V 285.1097 C 17.638053,283.81869 16.951379,283.20839 15.891722,283.14631 14.653459,283.29415 14.057128,284.0065 13.905276,285.1097 Z"
         style="fill:#c8c4b7;fill-opacity:1;stroke:#000000;stroke-width:0.13622141px;stroke-linecap:butt;stroke-linejoin:miter;stroke-opacity:1" />
      <ellipse
         ry="1.7270551"
         rx="1.5862831"
         cy="285.29651"
         cx="15.903417"
         id="path5331-7-6-8-6"
         style="fill:#000000;fill-opacity:1;stroke:#c8c4b7;stroke-width:0.37985635;stroke-linecap:butt;stroke-linejoin:round;stroke-miterlimit:4;stroke-dasharray:none;stroke-opacity:1;paint-order:normal" />
      <rect
         transform="matrix(0.88967196,0.45660027,-0.41355401,0.91047959,0,0)"
         ry="2.1745131"
         y="230.92961"
         x="121.94772"
         height="4.7392912"
         width="20.190336"
         id="rect4743-0-6-2"
         style="fill:#4f4c4d;fill-opacity:1;stroke:#000000;stroke-width:0.33879888;stroke-linecap:butt;stroke-linejoin:round;stroke-miterlimit:4;stroke-dasharray:none;stroke-opacity:1;paint-order:normal" />
      <ellipse
         ry="1.7270551"
         rx="1.5862831"
         cy="276.33875"
         cx="28.122839"
         id="path5331-7-6-2"
         style="fill:#000000;fill-opacity:1;stroke:#c8c4b7;stroke-width:0.37985635;stroke-linecap:butt;stroke-linejoin:round;stroke-miterlimit:4;stroke-dasharray:none;stroke-opacity:1;paint-order:normal" />
      <ellipse
         ry="1.7270551"
         rx="1.5862831"
         cy="269.11945"
         cx="13.907497"
         id="path5331-7-7"
         style="fill:#000000;fill-opacity:1;stroke:#c8c4b7;stroke-width:0.37985635;stroke-linecap:butt;stroke-linejoin:round;stroke-miterlimit:4;stroke-dasharray:none;stroke-opacity:1;paint-order:normal" />
      <path
         id="path6384"
         d="M 18.008188,285.66948 C 18.008188,285.00028 17.781745,284.26252 17.438036,283.81189 17.112927,283.38566 16.867252,283.23992 16.221813,283.09046 L 15.741603,282.97926 19.448946,280.26243 C 21.487988,278.76818 23.310722,277.43505 23.49947,277.29991 L 23.842647,277.05422 25.590514,277.953 C 26.551838,278.44732 27.422831,278.85177 27.526051,278.85177 27.629268,278.85177 27.735005,278.88703 27.761013,278.93014 27.799336,278.99364 25.139388,280.97365 18.413822,285.88798 L 18.008188,286.18438 Z"
         style="fill:#ffcc00;fill-opacity:1;stroke-width:0.1044932" />
      <path
         id="path6386"
         d="M 27.569315,278.44102 C 27.216438,278.34843 13.112684,271.11458 12.668799,270.79851 12.093471,270.38884 11.766399,269.18472 12.06054,268.55919 12.133208,268.40466 12.1434,268.45376 12.099656,268.74766 12.065533,268.97695 12.109152,269.38121 12.202722,269.70313 12.678657,271.34029 14.758881,271.55377 15.491384,270.04062 16.040786,268.90571 15.501295,267.58534 14.346857,267.23947 13.784301,267.07092 13.255494,267.20478 12.777293,267.63682 12.352857,268.02027 12.241862,267.99859 12.5292,267.58836 12.777656,267.23364 13.442695,266.93955 13.996387,266.93955 14.434477,266.93955 15.253104,267.33222 21.759173,270.66316 25.827958,272.74627 29.180061,274.52597 29.367788,274.70274 29.838083,275.14556 30.02722,275.60192 30.011203,276.25523 L 29.997508,276.81415 29.923103,276.23944 C 29.800089,275.28923 29.478526,274.82603 28.722618,274.51019 27.780292,274.11646 26.727403,274.69597 26.411642,275.78214 26.263467,276.29185 26.263516,276.3962 26.41202,276.90755 26.602206,277.56177 27.074676,278.04205 27.717569,278.23466 28.057098,278.33639 28.219838,278.32907 28.63137,278.19359 29.209989,278.0031 29.342926,278.03526 28.907552,278.2604 28.507275,278.46739 27.954157,278.54204 27.569163,278.44102 Z"
         style="fill:#ffcc00;fill-opacity:1;stroke-width:0.1044932" />
    </g>
  </g>
</svg>
