<?xml version="1.0" encoding="UTF-8" standalone="no"?>
<svg
   xmlns:dc="http://purl.org/dc/elements/1.1/"
   xmlns:cc="http://creativecommons.org/ns#"
   xmlns:rdf="http://www.w3.org/1999/02/22-rdf-syntax-ns#"
   xmlns:svg="http://www.w3.org/2000/svg"
   xmlns="http://www.w3.org/2000/svg"
   width="40mm"
   height="40mm"
   viewBox="0 0 40 40"
   version="1.1"
   id="svg3150">
  <defs
     id="defs21" />
  <metadata
     id="metadata3147">
    <rdf:RDF>
      <cc:Work
         rdf:about="">
        <dc:format>image/svg+xml</dc:format>
        <dc:type
           rdf:resource="http://purl.org/dc/dcmitype/StillImage" />
        <dc:title />
      </cc:Work>
    </rdf:RDF>
  </metadata>
  <g
     id="layer1"
     transform="translate(0,-257)">
    <g
       id="beerBankBuff"
       class="holy-upgrade-item">
      <g
         id="g4585"
         transform="matrix(0.3783058,0,0,0.3783058,-89.797344,125.08657)">
        <circle
           id="path3771-7-6-7-8-5"
           style="fill:#e6e6e6;fill-opacity:1;stroke:#000000;stroke-width:5;stroke-miterlimit:4;stroke-dasharray:none;stroke-opacity:1"
           r="48.061165"
           cy="401.30939"
           cx="290.28085" />
        <circle
           id="path3771-4-2-4-03-1-2"
           class="holy-upgrade-identifier"
           style="fill:none;stroke-width:5.5;stroke-miterlimit:4;stroke-dasharray:none;stroke-opacity:1"
           cy="401.5625"
           cx="290.23438"
           r="52.867283" />
      </g>
      <path
         style="fill:#803300;stroke-width:0.00758617"
         d="m 19.211066,262.67238 v -0.34273 h 1.169441 l 1.128689,-0.0437 v 0.34503 0.34503 l -1.128689,0.039 h -1.169441 z"
         id="path92" />
      <path
         style="fill:#552200;stroke-width:0.00758617"
         d="m 17.659384,262.63103 v -0.25878 l 0.796215,-0.0426 0.961307,0.0449 v 0.34272 0.34273 l -0.961307,-0.0449 -0.796215,-0.039 z"
         id="path98" />
      <path
         style="fill:#aa4400;stroke-width:0.04291385"
         d="m 16.316185,291.18406 c -0.09203,-0.0539 -0.22518,-0.18288 -0.295895,-0.28656 l -0.128569,-0.1885 -0.03355,-6.86896 c -0.01845,-3.77791 -0.02487,-7.14341 -0.01426,-7.47888 0.03083,-0.97525 0.209915,-1.672 0.669343,-2.60423 0.301335,-0.61144 0.653455,-1.16217 1.454767,-2.27526 0.685779,-0.95261 0.854348,-1.21537 1.050978,-1.63825 0.243039,-0.52269 0.248423,-0.61847 0.219547,-3.90563 l -0.02612,-2.97343 h 1.161214 l 1.135561,0.0117 0.02655,3.15779 8.95e-4,3.16949 0.09898,0.28899 c 0.142858,0.41712 0.418561,0.87108 1.110503,1.8285 1.141891,1.57999 1.634884,2.43974 1.908546,3.32835 0.289447,0.93988 0.275892,0.46495 0.244889,8.58016 l -0.02795,7.31671 -0.09379,0.17289 c -0.05159,0.0951 -0.166886,0.23345 -0.256222,0.30748 l -0.162427,0.1346 -3.937825,0.0106 -3.937825,0.0105 z"
         id="path88" />
      <path
         style="fill:#803300;stroke-width:0.04291385"
         d="m 14.790984,291.22234 c -0.161236,-0.0725 -0.43196,-0.37973 -0.473648,-0.53748 -0.01757,-0.0665 -0.03232,-3.48318 -0.03278,-7.59262 -6.7e-4,-6.06084 0.0098,-7.51696 0.05526,-7.71133 0.26254,-1.1217 0.702694,-2.01816 1.630984,-3.32187 0.950673,-1.33513 1.203304,-1.70983 1.369305,-2.03092 0.313795,-0.607 0.318563,-0.46803 0.318937,-3.94454 l 3.47e-4,-3.10752 0.810466,-0.0117 h 0.825597 l -0.01189,3.16949 -0.01189,3.16949 -0.100464,0.26139 c -0.161869,0.42119 -0.440788,0.87231 -1.136208,1.83776 -0.359313,0.49882 -0.772662,1.0932 -0.918552,1.32084 -0.706913,1.10303 -1.101081,2.13252 -1.202196,3.13992 -0.02631,0.26218 -0.03051,3.01922 -0.0116,7.62108 l 0.02964,7.21032 0.09325,0.17968 c 0.04368,0.0493 0.222211,0.24516 0.294761,0.30808 l 0.229696,0.10039 -0.899795,-0.002 c -0.507622,-10e-4 -0.771332,-0.0192 -0.859224,-0.0587 z"
         id="path90" />
      <path
         style="fill:#803300;stroke-width:0.00758617"
         d="m 17.203961,262.14854 v -0.26122 l 0.162526,-0.0555 c 0.08939,-0.0305 0.165343,-0.0582 0.168786,-0.0614 0.0034,-0.003 -0.06886,-0.0317 -0.160659,-0.0632 l -0.166916,-0.0573 -0.002,-0.26314 -0.002,-0.26314 h 1.110259 1.11026 l -0.02617,0.0329 c -0.03335,0.0419 -0.06905,0.11959 -0.08001,0.174 -0.01081,0.0537 -0.0051,0.17764 0.01061,0.22837 0.01929,0.0625 0.066,0.13518 0.11079,0.17244 l 0.06109,0.0371 -0.07371,0.0514 c -0.05725,0.0585 -0.08491,0.10763 -0.104244,0.18521 -0.01341,0.0538 -0.01487,0.14818 -0.0032,0.20595 0.01118,0.0553 0.04743,0.13237 0.07933,0.16878 l 0.02623,0.0299 h -1.110531 -1.11053 z"
         id="path94" />
      <path
         style="fill:#aa4400;stroke-width:0.00758617"
         d="m 19.406881,262.39516 c -0.149243,-0.0531 -0.21871,-0.26164 -0.142696,-0.42831 0.03712,-0.0814 0.153741,-0.18961 0.236414,-0.1984 v 0 0 c 0.0021,-0.0481 0.0021,-0.0481 0,0 -0.118721,-0.0191 -0.218666,-0.13053 -0.252158,-0.24229 -0.0471,-0.15717 0.01889,-0.32725 0.147784,-0.38092 l 0.04275,-0.0178 1.264814,-0.002 1.264813,-0.002 -0.002,0.26325 -0.002,0.26325 -0.171867,0.0594 c -0.14919,0.0516 -0.169402,0.0604 -0.153185,0.067 0.01027,0.004 0.08845,0.0314 0.173733,0.0605 l 0.155056,0.0529 v 0.26008 0.26007 l -1.260979,-2.6e-4 c -1.201901,-2.3e-4 -1.26283,-9.7e-4 -1.300545,-0.0143 z"
         id="path96" />
      <ellipse
         style="fill:#d38d5f;stroke:#000000;stroke-width:0.07942234;stroke-opacity:1"
         id="path911"
         cx="19.737312"
         cy="282.09314"
         rx="3.8322363"
         ry="5.9667954" />
      <path
         id="path4612"
         d="m 18.88484,279.63026 c 1.774205,-0.91027 3.692441,-0.49823 4.097567,4.0745 0.04224,0.4768 -0.549158,-1.95057 -1.43626,-2.25398 -0.887102,-0.30342 -0.591402,1.57778 -0.594042,1.5144 0,0 -2.067265,-2.72808 -2.954366,-0.60414 -0.887103,2.12394 0,0 -0.591402,-0.91026 -0.591402,-0.91027 -0.2957,0.58795 -0.295701,3.0342 0,0.30342 -1.478504,-3.0342 0,-4.24788 1.478504,-1.21368 -0.887102,-0.60684 -0.887102,-0.60684 0,0 1.774205,-1.21368 2.661306,0 z"
         style="fill:#000000;stroke:#000000;stroke-width:0.05990716px;stroke-linecap:butt;stroke-linejoin:miter;stroke-opacity:1" />
      <ellipse
         ry="1.0619718"
         rx="1.0349525"
         cy="284.63669"
         cx="18.335682"
         id="path4614"
         style="fill:#000000;fill-opacity:0.00930236;stroke:#000000;stroke-width:0.21374112;stroke-miterlimit:4;stroke-dasharray:none;stroke-dashoffset:0;stroke-opacity:1" />
      <ellipse
         ry="1.0619718"
         rx="1.0349525"
         cy="284.63669"
         cx="21.31381"
         id="path4614-8"
         style="fill:#000000;fill-opacity:0.00930236;stroke:#000000;stroke-width:0.21374115;stroke-miterlimit:4;stroke-dasharray:none;stroke-dashoffset:0;stroke-opacity:1" />
      <path
         id="path4665"
         d="m 19.180541,283.87814 c 0.412668,-0.36793 1.031669,-0.36793 1.444337,0"
         style="fill:none;stroke:#000000;stroke-width:0.15684411;stroke-linecap:butt;stroke-linejoin:miter;stroke-miterlimit:4;stroke-dasharray:none;stroke-opacity:1" />
    </g>
  </g>
</svg>
