<?xml version="1.0" encoding="UTF-8" standalone="no"?>
<svg
   xmlns:dc="http://purl.org/dc/elements/1.1/"
   xmlns:cc="http://creativecommons.org/ns#"
   xmlns:rdf="http://www.w3.org/1999/02/22-rdf-syntax-ns#"
   xmlns:svg="http://www.w3.org/2000/svg"
   xmlns="http://www.w3.org/2000/svg"
   id="svg3150"
   version="1.1"
   viewBox="0 0 40 40"
   height="40mm"
   width="40mm">
  <defs
     id="defs3144" />
  <metadata
     id="metadata3147">
    <rdf:RDF>
      <cc:Work
         rdf:about="">
        <dc:format>image/svg+xml</dc:format>
        <dc:type
           rdf:resource="http://purl.org/dc/dcmitype/StillImage" />
        <dc:title></dc:title>
      </cc:Work>
    </rdf:RDF>
  </metadata>
  <g
     transform="translate(0,-257)"
     id="layer1">
    <g
       class="holy-upgrade-item"
       id="cloner">
      <g
         transform="matrix(0.3783058,0,0,0.3783058,-89.797344,125.08658)"
         id="g4595-1-1-9-1-3">
        <circle
           cx="290.28085"
           cy="401.30939"
           r="48.061165"
           style="fill:#e6e6e6;fill-opacity:1;stroke:#000000;stroke-width:5;stroke-miterlimit:4;stroke-dasharray:none;stroke-opacity:1"
           id="path3771-7-6-7-8-5" />
        <circle
           r="52.867283"
           cx="290.23438"
           cy="401.5625"
           style="fill:none;stroke-width:5.5;stroke-miterlimit:4;stroke-dasharray:none;stroke-opacity:1"
           class="holy-upgrade-identifier"
           id="path3771-4-2-4-03-1-2" />
      </g>
      <g
         transform="matrix(0.61977047,0,0,0.50798951,2.6248246,262.73107)"
         id="g841" />
      <g
         transform="matrix(0.61977047,0,0,0.50798951,2.6248246,262.73107)"
         id="g843" />
      <g
         transform="matrix(0.61977047,0,0,0.50798951,2.6248246,262.73107)"
         id="g845" />
      <g
         transform="matrix(0.61977047,0,0,0.50798951,2.6248246,262.73107)"
         id="g847" />
      <g
         transform="matrix(0.61977047,0,0,0.50798951,2.6248246,262.73107)"
         id="g849" />
      <g
         transform="matrix(0.61977047,0,0,0.50798951,2.6248246,262.73107)"
         id="g851" />
      <g
         transform="matrix(0.61977047,0,0,0.50798951,2.6248246,262.73107)"
         id="g853" />
      <g
         transform="matrix(0.61977047,0,0,0.50798951,2.6248246,262.73107)"
         id="g855" />
      <g
         transform="matrix(0.61977047,0,0,0.50798951,2.6248246,262.73107)"
         id="g857" />
      <g
         transform="matrix(0.61977047,0,0,0.50798951,2.6248246,262.73107)"
         id="g859" />
      <g
         transform="matrix(0.61977047,0,0,0.50798951,2.6248246,262.73107)"
         id="g861" />
      <g
         transform="matrix(0.61977047,0,0,0.50798951,2.6248246,262.73107)"
         id="g863" />
      <g
         transform="matrix(0.61977047,0,0,0.50798951,2.6248246,262.73107)"
         id="g865" />
      <g
         transform="matrix(0.61977047,0,0,0.50798951,2.6248246,262.73107)"
         id="g867" />
      <g
         transform="matrix(0.61977047,0,0,0.50798951,2.6248246,262.73107)"
         id="g869" />
      <path
         style="fill:none;stroke:#000000;stroke-width:0.80493391;stroke-linecap:butt;stroke-linejoin:miter;stroke-miterlimit:4;stroke-dasharray:9.65920692, 0.80493391;stroke-dashoffset:0;stroke-opacity:1"
         d="m 7.0823961,272.4617 9.1152529,-8.95672"
         id="path863" />
      <path
         style="fill:none;stroke:#000000;stroke-width:0.75889891;stroke-linecap:butt;stroke-linejoin:miter;stroke-miterlimit:4;stroke-dasharray:none;stroke-opacity:1"
         d="m 9.7156966,273.85497 8.1024464,-7.96153"
         id="path863-0" />
      <path
         style="fill:none;stroke:#000000;stroke-width:0.68930417;stroke-linecap:butt;stroke-linejoin:miter;stroke-miterlimit:4;stroke-dasharray:none;stroke-opacity:1"
         d="m 12.348989,275.24824 6.684519,-6.56826"
         id="path863-1" />
      <path
         style="fill:none;stroke:#000000;stroke-width:0.53662258;stroke-linecap:butt;stroke-linejoin:miter;stroke-miterlimit:4;stroke-dasharray:none;stroke-opacity:1"
         d="m 15.792527,275.84536 4.051223,-3.98078"
         id="path863-4" />
      <path
         style="fill:none;stroke:#3b66c9;stroke-width:1.60986781;stroke-linecap:round;stroke-linejoin:miter;stroke-miterlimit:4;stroke-dasharray:none;stroke-opacity:1"
         d="m 34.428154,281.41843 c -7.21624,-7.09074 -21.142318,-2.86118 -28.3585586,-9.95192"
         id="path846-0" />
      <path
         style="fill:none;stroke:#000000;stroke-width:0.80493391;stroke-linecap:round;stroke-linejoin:miter;stroke-miterlimit:4;stroke-dasharray:none;stroke-opacity:1"
         d="m 24.300101,289.37996 9.115253,-8.95672"
         id="path863-9" />
      <path
         style="fill:none;stroke:#000000;stroke-width:0.75889891;stroke-linecap:round;stroke-linejoin:miter;stroke-miterlimit:4;stroke-dasharray:none;stroke-opacity:1"
         d="m 22.882167,286.79246 8.102447,-7.96153"
         id="path863-0-1" />
      <path
         style="fill:none;stroke:#000000;stroke-width:0.68930423;stroke-linecap:round;stroke-linejoin:miter;stroke-miterlimit:4;stroke-dasharray:none;stroke-opacity:1"
         d="m 21.464242,284.20496 6.684519,-6.56826"
         id="path863-1-2" />
      <path
         style="fill:none;stroke:#000000;stroke-width:0.53662258;stroke-linecap:round;stroke-linejoin:miter;stroke-miterlimit:4;stroke-dasharray:none;stroke-opacity:1"
         d="m 20.856561,280.82132 4.051224,-3.98078"
         id="path863-4-1" />
      <path
         style="fill:none;stroke:#c93b3b;stroke-width:1.60986781;stroke-linecap:round;stroke-linejoin:miter;stroke-miterlimit:4;stroke-dasharray:none;stroke-opacity:1"
         d="M 25.312901,290.37515 C 18.09666,283.28441 22.401089,269.60053 15.184849,262.50979"
         id="path846" />
    </g>
  </g>
</svg>
