<?xml version="1.0" encoding="UTF-8" standalone="no"?>
<svg
   xmlns:dc="http://purl.org/dc/elements/1.1/"
   xmlns:cc="http://creativecommons.org/ns#"
   xmlns:rdf="http://www.w3.org/1999/02/22-rdf-syntax-ns#"
   xmlns:svg="http://www.w3.org/2000/svg"
   xmlns="http://www.w3.org/2000/svg"
   id="svg3150"
   version="1.1"
   viewBox="0 0 40 40"
   height="40mm"
   width="40mm">
  <defs
     id="defs3144">
    <linearGradient
       id="linearGradient-1"
       y2="166.87286"
       x2="184.5"
       y1="35.965008"
       x1="184.5"
       gradientTransform="scale(0.77777778,1.2857143)"
       gradientUnits="userSpaceOnUse">
      <stop
         id="stop994"
         offset="0%"
         stop-color="#F7E2A8" />
      <stop
         id="stop996"
         offset="100%"
         stop-color="#F1DDAF" />
    </linearGradient>
    <linearGradient
       id="linearGradient-2"
       y2="178.8911"
       x2="90.915649"
       y1="40.125107"
       x1="90.915649"
       gradientTransform="scale(0.8359397,1.1962585)"
       gradientUnits="userSpaceOnUse">
      <stop
         id="stop999"
         offset="0%"
         stop-color="#F7E2A8" />
      <stop
         id="stop1001"
         offset="100%"
         stop-color="#F1DDAF" />
    </linearGradient>
    <linearGradient
       id="linearGradient-3"
       y2="170.14777"
       x2="91.120796"
       y1="55.047806"
       x1="91.120796"
       gradientTransform="scale(0.83405766,1.1989579)"
       gradientUnits="userSpaceOnUse">
      <stop
         id="stop1004"
         offset="0%"
         stop-color="#F3B011" />
      <stop
         id="stop1006"
         offset="100%"
         stop-color="#F5A711" />
    </linearGradient>
  </defs>
  <g
     transform="translate(0,-257)"
     id="layer1">
    <g
       id="beerFactoryBoost"
       class="holy-upgrade-item">
      <g
         id="g4595-1-1-9-1-3"
         transform="matrix(0.3783058,0,0,0.3783058,-89.797344,125.08657)">
        <circle
           id="path3771-7-6-7-8-5"
           style="fill:#e6e6e6;fill-opacity:1;stroke:#000000;stroke-width:5;stroke-miterlimit:4;stroke-dasharray:none;stroke-opacity:1"
           r="48.061165"
           cy="401.30939"
           cx="290.28085" />
        <circle
           id="path3771-4-2-4-03-1-2"
           class="holy-upgrade-identifier"
           style="fill:none;stroke-width:5.5;stroke-miterlimit:4;stroke-dasharray:none;stroke-opacity:1"
           cy="401.5625"
           cx="290.23438"
           r="52.867283" />
      </g>
      <path
         style="fill:#803300;stroke-width:0.00758617"
         d="m 19.211066,262.67238 v -0.34273 h 1.169441 l 1.128689,-0.0437 v 0.34503 0.34503 l -1.128689,0.039 h -1.169441 z"
         id="path92" />
      <path
         style="fill:#552200;stroke-width:0.00758617"
         d="m 17.659384,262.63103 v -0.25878 l 0.796215,-0.0426 0.961307,0.0449 v 0.34272 0.34273 l -0.961307,-0.0449 -0.796215,-0.039 z"
         id="path98" />
      <path
         style="fill:#aa4400;stroke-width:0.04291385"
         d="m 16.316185,291.18406 c -0.09203,-0.0539 -0.22518,-0.18288 -0.295895,-0.28656 l -0.128569,-0.1885 -0.03355,-6.86896 c -0.01845,-3.77791 -0.02487,-7.14341 -0.01426,-7.47888 0.03083,-0.97525 0.209915,-1.672 0.669343,-2.60423 0.301335,-0.61144 0.653455,-1.16217 1.454767,-2.27526 0.685779,-0.95261 0.854348,-1.21537 1.050978,-1.63825 0.243039,-0.52269 0.248423,-0.61847 0.219547,-3.90563 l -0.02612,-2.97343 h 1.161214 l 1.135561,0.0117 0.02655,3.15779 8.95e-4,3.16949 0.09898,0.28899 c 0.142858,0.41712 0.418561,0.87108 1.110503,1.8285 1.141891,1.57999 1.634884,2.43974 1.908546,3.32835 0.289447,0.93988 0.275892,0.46495 0.244889,8.58016 l -0.02795,7.31671 -0.09379,0.17289 c -0.05159,0.0951 -0.166886,0.23345 -0.256222,0.30748 l -0.162427,0.1346 -3.937825,0.0106 -3.937825,0.0105 z"
         id="path88" />
      <path
         style="fill:#803300;stroke-width:0.04291385"
         d="m 14.790984,291.22234 c -0.161236,-0.0725 -0.43196,-0.37973 -0.473648,-0.53748 -0.01757,-0.0665 -0.03232,-3.48318 -0.03278,-7.59262 -6.7e-4,-6.06084 0.0098,-7.51696 0.05526,-7.71133 0.26254,-1.1217 0.702694,-2.01816 1.630984,-3.32187 0.950673,-1.33513 1.203304,-1.70983 1.369305,-2.03092 0.313795,-0.607 0.318563,-0.46803 0.318937,-3.94454 l 3.47e-4,-3.10752 0.810466,-0.0117 h 0.825597 l -0.01189,3.16949 -0.01189,3.16949 -0.100464,0.26139 c -0.161869,0.42119 -0.440788,0.87231 -1.136208,1.83776 -0.359313,0.49882 -0.772662,1.0932 -0.918552,1.32084 -0.706913,1.10303 -1.101081,2.13252 -1.202196,3.13992 -0.02631,0.26218 -0.03051,3.01922 -0.0116,7.62108 l 0.02964,7.21032 0.09325,0.17968 c 0.04368,0.0493 0.222211,0.24516 0.294761,0.30808 l 0.229696,0.10039 -0.899795,-0.002 c -0.507622,-10e-4 -0.771332,-0.0192 -0.859224,-0.0587 z"
         id="path90" />
      <path
         style="fill:#803300;stroke-width:0.00758617"
         d="m 17.203961,262.14854 v -0.26122 l 0.162526,-0.0555 c 0.08939,-0.0305 0.165343,-0.0582 0.168786,-0.0614 0.0034,-0.003 -0.06886,-0.0317 -0.160659,-0.0632 l -0.166916,-0.0573 -0.002,-0.26314 -0.002,-0.26314 h 1.110259 1.11026 l -0.02617,0.0329 c -0.03335,0.0419 -0.06905,0.11959 -0.08001,0.174 -0.01081,0.0537 -0.0051,0.17764 0.01061,0.22837 0.01929,0.0625 0.066,0.13518 0.11079,0.17244 l 0.06109,0.0371 -0.07371,0.0514 c -0.05725,0.0585 -0.08491,0.10763 -0.104244,0.18521 -0.01341,0.0538 -0.01487,0.14818 -0.0032,0.20595 0.01118,0.0553 0.04743,0.13237 0.07933,0.16878 l 0.02623,0.0299 h -1.110531 -1.11053 z"
         id="path94" />
      <path
         style="fill:#aa4400;stroke-width:0.00758617"
         d="m 19.406881,262.39516 c -0.149243,-0.0531 -0.21871,-0.26164 -0.142696,-0.42831 0.03712,-0.0814 0.153741,-0.18961 0.236414,-0.1984 v 0 0 c 0.0021,-0.0481 0.0021,-0.0481 0,0 -0.118721,-0.0191 -0.218666,-0.13053 -0.252158,-0.24229 -0.0471,-0.15717 0.01889,-0.32725 0.147784,-0.38092 l 0.04275,-0.0178 1.264814,-0.002 1.264813,-0.002 -0.002,0.26325 -0.002,0.26325 -0.171867,0.0594 c -0.14919,0.0516 -0.169402,0.0604 -0.153185,0.067 0.01027,0.004 0.08845,0.0314 0.173733,0.0605 l 0.155056,0.0529 v 0.26008 0.26007 l -1.260979,-2.6e-4 c -1.201901,-2.3e-4 -1.26283,-9.7e-4 -1.300545,-0.0143 z"
         id="path96" />
      <ellipse
         style="fill:#d38d5f;stroke:#000000;stroke-width:0.07942234;stroke-opacity:1"
         id="path911"
         cx="19.737312"
         cy="282.09314"
         rx="3.8322363"
         ry="5.9667954" />
      <path
         d="m 21.092263,279.95969 v 0.58559 l -0.51461,0.19517 c -0.04482,0.17877 -0.10495,0.34759 -0.193812,0.50278 l 0.0052,7.9e-4 0.244931,0.52682 -0.399808,0.41401 -0.509565,-0.25068 -4.78e-4,-4.7e-4 c -0.150279,0.0918 -0.313471,0.15001 -0.486611,0.19625 l -0.188877,0.5367 h -0.567012 l -0.189005,-0.53673 c -0.173144,-0.0462 -0.336559,-0.11099 -0.486836,-0.20282 l -7.64e-4,0.005 -0.510056,0.2523 -0.400904,-0.4132 0.242725,-0.52633 8.09e-4,-8e-4 c -0.0889,-0.15512 -0.177021,-0.32378 -0.221777,-0.50254 l -0.55136,-0.19518 v -0.58559 l 0.551371,-0.19518 c 0.04476,-0.17883 0.123337,-0.34752 0.21228,-0.50275 l 0.0039,-7.9e-4 -0.240313,-0.52671 0.402077,-0.4141 0.510676,0.25065 0.0011,4.9e-4 c 0.150308,-0.0917 0.313849,-0.17738 0.486988,-0.22368 l 0.189132,-0.56417 h 0.567014 l 0.189037,0.56415 c 0.173138,0.0463 0.336489,0.12474 0.486765,0.21651 l 8.09e-4,0.004 0.51009,-0.2489 0.400871,0.41495 -0.242726,0.52727 -7.15e-4,7.9e-4 c 0.08887,0.15522 0.140171,0.32403 0.184991,0.50282 z m -2.32717,-0.68317 c -0.521925,0 -0.945039,0.43686 -0.945039,0.97594 0,0.53897 0.423114,0.97598 0.945039,0.97598 0.521987,0 0.945039,-0.43701 0.945039,-0.97598 0,-0.53908 -0.423052,-0.97594 -0.945039,-0.97594 z"
         id="path2"
         style="stroke-width:0.01612277" />
      <path
         d="m 22.738815,283.37124 -0.123987,0.3091 -0.320958,-0.0166 c -0.06145,0.0844 -0.133032,0.158 -0.212866,0.21988 l 5.72e-4,7.8e-4 0.01683,0.33291 -0.299206,0.12815 -0.216245,-0.24752 -1.23e-4,-4.8e-4 c -0.09883,0.0144 -0.200206,0.0152 -0.301252,4.8e-4 l -0.216232,0.24772 -0.299332,-0.12805 0.01674,-0.33292 c -0.08174,-0.0634 -0.152736,-0.13798 -0.212644,-0.22053 l -5.72e-4,4.8e-4 -0.322339,0.0171 -0.123733,-0.30889 0.239615,-0.22309 5.73e-4,-4.8e-4 c -0.0116,-0.0956 -0.01641,-0.20739 -0.0021,-0.31192 l -0.241281,-0.22385 0.123941,-0.30916 0.323876,0.0179 c 0.06137,-0.0843 0.134412,-0.15752 0.214105,-0.21932 l 2.03e-4,-7.9e-4 -0.01634,-0.3328 0.327907,-0.12804 0.244913,0.24759 v 8e-4 c 0.06347,-0.012 0.171632,-0.0154 0.272775,-8e-4 l 0.201951,-0.24764 0.292241,0.12801 -0.0204,0.33301 c 0.08161,0.0634 0.151055,0.13801 0.210963,0.22045 l -3.5e-4,-1.7e-4 0.321862,-0.0171 0.123782,0.30906 -0.239902,0.22323 -5.24e-4,4.7e-4 c 0.01391,0.10195 0.01352,0.20612 -8.09e-4,0.31053 z m -1.099885,-0.89296 c -0.275408,-0.1178 -0.591304,0.0172 -0.705407,0.30182 -0.114169,0.2845 0.01661,0.61066 0.29216,0.72852 0.275599,0.11783 0.591369,-0.0172 0.705552,-0.30175 0.114024,-0.28462 -0.01682,-0.61072 -0.292305,-0.72859 z"
         id="path4"
         style="stroke-width:0.01612277" />
      <path
         d="m 20.567935,284.96645 -0.123987,0.3091 -0.320958,-0.0166 c -0.06145,0.0844 -0.133032,0.158 -0.212866,0.21988 l 5.72e-4,7.8e-4 0.01683,0.33291 -0.299206,0.12815 -0.216245,-0.24752 -1.23e-4,-4.8e-4 c -0.09883,0.0144 -0.200206,0.0152 -0.301252,4.8e-4 l -0.216231,0.24772 -0.299332,-0.12805 0.01674,-0.33292 c -0.08174,-0.0634 -0.152736,-0.13798 -0.212644,-0.22053 l -5.72e-4,4.8e-4 -0.322339,0.0171 -0.123733,-0.30889 0.239615,-0.22309 5.73e-4,-4.8e-4 c -0.0116,-0.0956 -0.01641,-0.20739 -0.0021,-0.31192 l -0.241282,-0.22385 0.123941,-0.30916 0.323876,0.0179 c 0.06137,-0.0843 0.134412,-0.15752 0.214105,-0.21932 l 2.03e-4,-7.9e-4 -0.01634,-0.3328 0.327907,-0.12804 0.244913,0.24759 v 8e-4 c 0.06347,-0.012 0.171632,-0.0154 0.272775,-8e-4 l 0.201951,-0.24764 0.292241,0.12801 -0.0204,0.33301 c 0.08161,0.0634 0.151055,0.13801 0.210963,0.22045 l -3.49e-4,-1.7e-4 0.321862,-0.0171 0.123782,0.30906 -0.239902,0.22323 -5.24e-4,4.7e-4 c 0.01391,0.10195 0.01352,0.20612 -8.09e-4,0.31053 z m -1.099885,-0.89296 c -0.275408,-0.1178 -0.591304,0.0172 -0.705407,0.30182 -0.114169,0.2845 0.01661,0.61066 0.29216,0.72852 0.275599,0.11783 0.591369,-0.0172 0.705552,-0.30175 0.114024,-0.28462 -0.01682,-0.61072 -0.292305,-0.72859 z"
         id="path4-9"
         style="stroke-width:0.01612277" />
    </g>
  </g>
</svg>
