<?xml version="1.0" encoding="UTF-8" standalone="no"?>
<svg
   xmlns:dc="http://purl.org/dc/elements/1.1/"
   xmlns:cc="http://creativecommons.org/ns#"
   xmlns:rdf="http://www.w3.org/1999/02/22-rdf-syntax-ns#"
   xmlns:svg="http://www.w3.org/2000/svg"
   xmlns="http://www.w3.org/2000/svg"
   width="40mm"
   height="40mm"
   viewBox="0 0 40 40"
   version="1.1"
   id="svg3150">
  <defs
     id="defs11" />
  <metadata
     id="metadata3147">
    <rdf:RDF>
      <cc:Work
         rdf:about="">
        <dc:format>image/svg+xml</dc:format>
        <dc:type
           rdf:resource="http://purl.org/dc/dcmitype/StillImage" />
        <dc:title />
      </cc:Work>
    </rdf:RDF>
  </metadata>
  <g
     id="layer1"
     transform="translate(0,-257)">
    <g
       id="chili">
      <path
         id="path5202"
         d="m 3.7498242,285.0193 c 7.2581918,-1.55681 17.4196598,-9.02953 24.6778498,-19.92725 1.451639,4.67045 2.61295,1.24545 5.516226,7.47272 -5.806552,15.56817 -27.2907996,17.12498 -30.1940758,15.56817 -2.90327653,-1.55682 -1.4516382,-2.80227 0,-3.11364 z"
         style="fill:#ff0000;stroke:none;stroke-width:0.30066156px;stroke-linecap:butt;stroke-linejoin:miter;stroke-opacity:1" />
      <path
         id="path5202-4"
         d="m 4.33048,286.57611 c 7.258193,-1.55681 19.74228,-2.17953 27.2908,-16.81361 0.290328,1.55682 1.161311,0.62273 1.451637,3.425 -6.096881,14.32271 -24.9681779,15.87953 -29.3230927,14.32271 -0.2903273,-0.31137 -0.5806546,-0.62273 0.5806557,-0.9341 z"
         style="fill:#aa0000;stroke:none;stroke-width:0.30066156px;stroke-linecap:butt;stroke-linejoin:miter;stroke-opacity:1" />
      <path
         id="path5202-1"
         d="m 31.911607,265.71478 c -1.455476,0.24072 -1.947185,-1.65372 -3.398824,-0.71963 1.451639,4.67045 2.61295,1.24545 5.516226,7.47272 1.161311,-0.93409 0.296019,-2.04922 0.397359,-3.39585 0.05067,-0.67332 1.885223,-3.99615 1.091273,-4.27377 -0.327321,-0.11451 -0.327321,-0.42583 -0.438197,-0.50995 -0.741522,-0.56257 -2.458874,1.30922 -3.167837,1.42648 z"
         style="fill:#008000;stroke:none;stroke-width:0.30066156px;stroke-linecap:butt;stroke-linejoin:miter;stroke-opacity:1" />
    </g>
  </g>
</svg>
