<?xml version="1.0" encoding="UTF-8" standalone="no"?>
<svg
   xmlns:dc="http://purl.org/dc/elements/1.1/"
   xmlns:cc="http://creativecommons.org/ns#"
   xmlns:rdf="http://www.w3.org/1999/02/22-rdf-syntax-ns#"
   xmlns:svg="http://www.w3.org/2000/svg"
   xmlns="http://www.w3.org/2000/svg"
   width="40mm"
   height="40mm"
   viewBox="0 0 40 40"
   version="1.1"
   id="svg3150">
  <defs
     id="defs20" />
  <g
     id="layer1"
     transform="translate(0,-257)">
    <g
       id="blueberry">
      <ellipse
         ry="8.6859217"
         rx="8.6191044"
         cy="271.94385"
         cx="19.482801"
         id="path6800-2"
         style="fill:#0044aa;fill-opacity:1;stroke:none;stroke-width:0.34609795" />
      <ellipse
         ry="8.6859217"
         rx="8.6191044"
         cy="280.8309"
         cx="26.65946"
         id="path6800-4"
         style="fill:#0055d4;fill-opacity:1;stroke:none;stroke-width:0.34609795" />
      <ellipse
         ry="8.6859217"
         rx="8.6191044"
         cy="282.30087"
         cx="12.427358"
         id="path6800"
         style="fill:#2a7fff;fill-opacity:0.97663552;stroke:none;stroke-width:0.34609795" />
      <path
         id="path6823"
         d="m 12.14765,280.69639 v -1.6178 c 0,0 1.317962,0 1.647452,0 0.32949,0 0.32949,-0.64712 0,-0.64712 -0.658981,0 -2.306432,0 -2.306432,0 0,0 0.01855,1.61789 0.0059,2.28082 -0.0059,0.30767 0.653097,0.30767 0.653097,-0.0159 z"
         style="fill:#0044aa;stroke:none;stroke-width:0.32651216px;stroke-linecap:butt;stroke-linejoin:miter;stroke-opacity:1" />
      <path
         id="path6823-5"
         d="m 13.1088,276.50892 -1.426727,0.80891 c 0,0 -0.658983,-1.12086 -0.823728,-1.40106 -0.164744,-0.28022 -0.735443,0.0433 -0.570698,0.32355 0.329491,0.56044 1.153217,1.96149 1.153217,1.96149 0,0 1.417537,-0.82472 2.00852,-1.14539 0.274261,-0.14885 -0.05522,-0.70925 -0.340569,-0.54747 z"
         style="fill:#0044aa;stroke:none;stroke-width:0.32651216px;stroke-linecap:butt;stroke-linejoin:miter;stroke-opacity:1" />
      <path
         id="path6823-5-9"
         d="m 8.8947802,277.83415 1.4267318,0.80891 c 0,0 -0.658987,1.12084 -0.8237251,1.40106 -0.1647506,0.2802 0.4058989,0.60379 0.5706921,0.32355 0.3295,-0.56042 1.153215,-1.96148 1.153215,-1.96148 0,0 -1.4360818,-0.79316 -2.0143726,-1.13543 -0.2684021,-0.15881 -0.5978747,0.40159 -0.3125275,0.56337 z"
         style="fill:#0044aa;stroke:none;stroke-width:0.32651216px;stroke-linecap:butt;stroke-linejoin:miter;stroke-opacity:1" />
      <path
         id="path6823-8"
         d="m 19.538451,268.89421 v -1.6178 c 0,0 1.317962,0 1.647452,0 0.32949,0 0.32949,-0.64712 0,-0.64712 -0.658981,0 -2.306432,0 -2.306432,0 0,0 0.01855,1.61789 0.0059,2.28082 -0.0059,0.30767 0.653097,0.30767 0.653097,-0.0159 z"
         style="fill:#003380;stroke:none;stroke-width:0.32651216px;stroke-linecap:butt;stroke-linejoin:miter;stroke-opacity:1" />
      <path
         id="path6823-5-6"
         d="m 20.499601,264.70674 -1.426727,0.80891 c 0,0 -0.658983,-1.12086 -0.823728,-1.40106 -0.164744,-0.28022 -0.735443,0.0433 -0.570698,0.32355 0.329491,0.56044 1.153217,1.96149 1.153217,1.96149 0,0 1.417537,-0.82472 2.008521,-1.14539 0.274261,-0.14885 -0.05522,-0.70925 -0.34057,-0.54747 z"
         style="fill:#003380;stroke:none;stroke-width:0.32651216px;stroke-linecap:butt;stroke-linejoin:miter;stroke-opacity:1" />
      <path
         id="path6823-5-9-1"
         d="m 16.285582,266.03197 1.426731,0.80891 c 0,0 -0.658987,1.12084 -0.823725,1.40106 -0.16475,0.2802 0.405899,0.60379 0.570692,0.32355 0.3295,-0.56042 1.153215,-1.96148 1.153215,-1.96148 0,0 -1.436081,-0.79316 -2.014372,-1.13543 -0.268402,-0.15881 -0.597875,0.40159 -0.312528,0.56337 z"
         style="fill:#003380;stroke:none;stroke-width:0.32651216px;stroke-linecap:butt;stroke-linejoin:miter;stroke-opacity:1" />
      <path
         id="path6823-2"
         d="m 32.10616,281.08395 v -1.6178 c 0,0 1.317962,0 1.647452,0 0.32949,0 0.32949,-0.64712 0,-0.64712 -0.658981,0 -2.306432,0 -2.306432,0 0,0 0.01855,1.61789 0.0059,2.28082 -0.0059,0.30767 0.653097,0.30767 0.653097,-0.0159 z"
         style="fill:#0044aa;stroke:none;stroke-width:0.32651216px;stroke-linecap:butt;stroke-linejoin:miter;stroke-opacity:1" />
      <path
         id="path6823-5-0"
         d="m 33.06731,276.89648 -1.426727,0.80891 c 0,0 -0.658983,-1.12086 -0.823728,-1.40106 -0.164744,-0.28022 -0.735443,0.0433 -0.570698,0.32355 0.329491,0.56044 1.153217,1.96149 1.153217,1.96149 0,0 1.417537,-0.82472 2.00852,-1.14539 0.274261,-0.14885 -0.05522,-0.70925 -0.340569,-0.54747 z"
         style="fill:#0044aa;stroke:none;stroke-width:0.32651216px;stroke-linecap:butt;stroke-linejoin:miter;stroke-opacity:1" />
      <path
         id="path6823-5-9-9"
         d="m 28.85329,278.22171 1.426732,0.80891 c 0,0 -0.658987,1.12084 -0.823725,1.40106 -0.164751,0.2802 0.405899,0.60379 0.570692,0.32355 0.3295,-0.56042 1.153215,-1.96148 1.153215,-1.96148 0,0 -1.436082,-0.79316 -2.014373,-1.13543 -0.268402,-0.15881 -0.597875,0.40159 -0.312527,0.56337 z"
         style="fill:#0044aa;stroke:none;stroke-width:0.32651216px;stroke-linecap:butt;stroke-linejoin:miter;stroke-opacity:1" />
    </g>
  </g>
</svg>
