<?xml version="1.0" encoding="UTF-8" standalone="no"?>
<svg
   xmlns:dc="http://purl.org/dc/elements/1.1/"
   xmlns:cc="http://creativecommons.org/ns#"
   xmlns:rdf="http://www.w3.org/1999/02/22-rdf-syntax-ns#"
   xmlns:svg="http://www.w3.org/2000/svg"
   xmlns="http://www.w3.org/2000/svg"
   id="svg3150"
   version="1.1"
   viewBox="0 0 40 40"
   height="40mm"
   width="40mm">
  <defs
     id="defs3144" />
  <metadata
     id="metadata3147">
    <rdf:RDF>
      <cc:Work
         rdf:about="">
        <dc:format>image/svg+xml</dc:format>
        <dc:type
           rdf:resource="http://purl.org/dc/dcmitype/StillImage" />
        <dc:title />
      </cc:Work>
    </rdf:RDF>
  </metadata>
  <g
     id="g4815"
     transform="matrix(1.2871288,0,0,1.4890677,-0.3798474,-18.923022)">
    <path
       id="path4730-6"
       d="m 17.236154,36.935953 c -0.581579,0.128212 -0.584395,-0.824518 -0.561705,-1.433871 -0.0091,-1.44996 -0.0041,-2.900021 -0.0057,-4.350031 3.96875,0 7.937499,0 11.90625,0 -0.0076,1.71967 0.01959,3.441438 -0.02541,5.159436 -0.02437,0.812112 -0.684065,0.593537 -1.047962,0.633786 -3.421755,0.01407 -6.843991,0.02451 -10.265506,-0.0094 z"
       style="fill:#a0e5ff;fill-opacity:0.98709681;stroke:none;stroke-width:0.03175711;stroke-linecap:round;stroke-linejoin:miter;stroke-miterlimit:4;stroke-dasharray:none;stroke-dashoffset:0;stroke-opacity:1;paint-order:fill markers stroke" />
    <rect
       y="21.479166"
       x="6.614583"
       height="3.175"
       width="3.96875"
       id="rect4752"
       style="fill:#b3b3b3;fill-opacity:1;stroke:none;stroke-width:0.40000001;stroke-linecap:round;stroke-linejoin:miter;stroke-miterlimit:4;stroke-dasharray:none;stroke-dashoffset:0;stroke-opacity:1;paint-order:fill markers stroke" />
    <path
       id="path4730"
       d="m 3.2132053,38.677082 c -0.5815783,0.08474 -0.5843948,-0.544954 -0.561705,-0.947696 -0.00911,-0.958332 -0.0041,-1.91673 -0.00567,-2.875094 3.9687499,0 7.9374997,0 11.9062497,0 -0.0076,1.136592 0.01959,2.274571 -0.02541,3.410059 -0.02437,0.536753 -0.684065,0.392289 -1.047962,0.418892 -3.421755,0.0093 -6.8439909,0.0162 -10.2655056,-0.0062 z"
       style="fill:#a0e5ff;fill-opacity:0.98709681;stroke:none;stroke-width:0.02581789;stroke-linecap:round;stroke-linejoin:miter;stroke-miterlimit:4;stroke-dasharray:none;stroke-dashoffset:0;stroke-opacity:1;paint-order:fill markers stroke" />
    <path
       id="path4723"
       d="M 4.3240455,38.146807 C 3.8304191,38.217587 3.9980066,37.629101 4.0600746,37.345024 4.3235167,36.158373 4.622553,34.979881 4.918957,33.801167 c 2.4729937,0 4.9459871,0 7.418981,0 0.300535,1.245959 0.637037,2.484013 0.891228,3.740541 0.09618,0.297037 0.06338,0.681196 -0.342481,0.606208 -2.785122,0.02784 -5.5707488,0.0203 -8.3559882,0.004 -0.068889,-0.0012 -0.1378451,-0.0016 -0.2066513,-0.0052 z"
       style="fill:#ceb000;fill-opacity:1;stroke:none;stroke-width:0.03664625;stroke-linecap:round;stroke-linejoin:miter;stroke-miterlimit:4;stroke-dasharray:none;stroke-dashoffset:0;stroke-opacity:1;paint-order:fill markers stroke" />
    <rect
       y="33.385414"
       x="9.260417"
       height="4.7625003"
       width="1.7145207"
       id="rect4750"
       style="fill:#86dc8b;fill-opacity:1;stroke:none;stroke-width:0.40000001;stroke-linecap:round;stroke-linejoin:miter;stroke-miterlimit:4;stroke-dasharray:none;stroke-dashoffset:0;stroke-opacity:1;paint-order:fill markers stroke" />
    <path
       id="path4695"
       d="m 1.3229166,30.739582 c 1.3229167,1.322917 1.3229167,1.322917 1.3229167,2.645834 0,1.322916 0,2.645833 0,3.96875 0,1.322916 0,1.322916 1.3229167,1.322916 1.3229166,0 7.9375,0 9.260417,0 1.322916,0 1.322916,0 1.322916,-1.322916 0,-1.322917 0,-2.645834 0,-3.96875 0,-1.322917 0,-1.322917 1.322917,-2.645834"
       style="fill:none;stroke:#353535;stroke-width:0.26458332px;stroke-linecap:butt;stroke-linejoin:miter;stroke-opacity:1" />
    <path
       id="path4733-4"
       d="M 10.974937,38.147916 V 32.856249"
       style="fill:none;stroke:#000000;stroke-width:0.26458332px;stroke-linecap:butt;stroke-linejoin:miter;stroke-opacity:1" />
    <path
       id="path4733"
       d="M 9.2604166,38.147916 V 32.856249"
       style="fill:none;stroke:#000000;stroke-width:0.26458332px;stroke-linecap:butt;stroke-linejoin:miter;stroke-opacity:1" />
    <path
       d="M 5.2916662,38.147916 H 11.90625 m 0,0 c 1.322916,0 1.322916,0 1.322916,-0.529167 0,-0.529167 -2.645833,-10.583334 -2.645833,-10.583334 0,0 0,-1.322916 0,-2.645832 0,-1.322917 0,-1.322917 0.79375,-2.116667 m -6.0854168,15.875 c -1.3229166,0 -1.3229166,0 -1.3229166,-0.529166 0,-0.529167 2.6458332,-10.583334 2.6458332,-10.583334 0,0 0,-1.322916 0,-2.645832 0,-1.322917 0,-1.322917 -0.7937499,-2.116667"
       style="fill:none;stroke:#373737;stroke-width:0.26458332px;stroke-linecap:butt;stroke-linejoin:miter;stroke-opacity:1"
       id="path4714" />
    <rect
       y="16.716665"
       x="7.4083333"
       height="20.637499"
       width="0.79374999"
       id="rect4754"
       style="fill:#b3b3b3;fill-opacity:1;stroke:#424242;stroke-width:0.21111944;stroke-linecap:round;stroke-linejoin:miter;stroke-miterlimit:4;stroke-dasharray:none;stroke-dashoffset:0;stroke-opacity:1;paint-order:fill markers stroke" />
    <rect
       y="15.658333"
       x="6.8791666"
       height="1.8520833"
       width="1.8520833"
       id="rect4756"
       style="fill:#ff3d3d;fill-opacity:1;stroke:#000000;stroke-width:0.2;stroke-linecap:round;stroke-linejoin:miter;stroke-miterlimit:4;stroke-dasharray:none;stroke-dashoffset:0;stroke-opacity:1;paint-order:fill markers stroke" />
    <path
       id="path4695-0"
       d="m 15.345833,29.152082 c 1.322916,1.322917 1.322916,1.322917 1.322916,2.645834 0,1.322916 0,2.645833 0,3.96875 0,1.322916 0,1.322916 1.322917,1.322916 1.322917,0 7.9375,0 9.260417,0 1.322916,0 1.322916,0 1.322916,-1.322916 0,-1.322917 0,-2.645834 0,-3.96875 0,-1.322917 0,-1.322917 1.322917,-2.645834"
       style="fill:none;stroke:#353535;stroke-width:0.26458332px;stroke-linecap:butt;stroke-linejoin:miter;stroke-opacity:1" />
    <path
       id="path4788"
       d="m 16.66875,31.268749 h 6.614583 V 14.6 h 3.96875 V 31.268749 H 28.575"
       style="fill:#a0e5ff;fill-opacity:0.98709681;stroke:#353535;stroke-width:0.27111721px;stroke-linecap:butt;stroke-linejoin:miter;stroke-opacity:1" />
    <rect
       y="14.599999"
       x="23.406107"
       height="3.175"
       width="3.7173495"
       id="rect4790"
       style="fill:#f1f1b6;fill-opacity:1;stroke:none;stroke-width:0.19356188;stroke-linecap:round;stroke-linejoin:miter;stroke-miterlimit:4;stroke-dasharray:none;stroke-dashoffset:0;stroke-opacity:1;paint-order:fill markers stroke" />
    <rect
       y="13.806249"
       x="22.489582"
       height="1.5875"
       width="5.5562501"
       id="rect4792"
       style="fill:#b3b3b3;fill-opacity:1;stroke:#353535;stroke-width:0.2;stroke-linecap:round;stroke-linejoin:miter;stroke-miterlimit:4;stroke-dasharray:none;stroke-dashoffset:0;stroke-opacity:1;paint-order:fill markers stroke" />
    <path
       id="path4794"
       d="M 23.866244,31.004166 V 15.39375"
       style="fill:none;stroke:#353535;stroke-width:0.99999994;stroke-linecap:butt;stroke-linejoin:miter;stroke-miterlimit:6;stroke-dasharray:0.49999999, 0.49999999;stroke-dashoffset:0;stroke-opacity:1" />
    <path
       id="path4796"
       d="m 9.7895832,25.447916 v -5.820833 c 0,-2.116667 0,-2.116667 2.1166668,-2.116667 2.116666,0 2.645833,1.322917 2.645833,1.322917 l 7.14375,13.229166 c 0,0 0.579226,1.301667 2.166276,1.339453 l 0.347265,0.0083 c 1.336755,0.03183 1.686897,0.0239 1.703256,-1.579232 l 0.01654,-1.620573"
       style="fill:none;stroke:#551e1e;stroke-width:0.79374999;stroke-linecap:square;stroke-linejoin:miter;stroke-miterlimit:4;stroke-dasharray:none;stroke-opacity:1" />
  </g>
</svg>
