<?xml version="1.0" encoding="UTF-8" standalone="no"?>
<svg
   xmlns="http://www.w3.org/2000/svg"
   id="svg3150"
   version="1.1"
   viewBox="0 0 40 40"
   height="40mm"
   width="40mm">
  <defs
     id="defs1039" />
  <rect
     style="fill:#ffe6d5;fill-opacity:1;stroke:none;stroke-width:23.1295433;stroke-linecap:round;stroke-linejoin:miter;stroke-miterlimit:4;stroke-dasharray:none;stroke-dashoffset:0;stroke-opacity:1;paint-order:markers fill stroke"
     id="rect979"
     width="40.001896"
     height="39.999626"
     x="-1.7763632e-015"
     y="0.00037435765" />
  <rect
     y="9.572917"
     x="10.583333"
     height="21.166666"
     width="19.84375"
     id="rect1591"
     style="fill:#502d16;fill-opacity:1;stroke:none;stroke-width:5.29166651;stroke-linecap:round;stroke-linejoin:round;stroke-miterlimit:4;stroke-dasharray:none;stroke-dashoffset:0;stroke-opacity:1;paint-order:markers fill stroke" />
  <path
     id="path1593"
     d="m 22.489582,8.2499998 h 6.614584 c 0,0 0,-1.3229166 0,-3.9687499 0,-2.6458332 -3.439584,-2.6458332 -3.439584,-2.6458332 0,0 -3.175,0 -3.175,2.6458332 0,2.6458333 0,3.9687499 0,3.9687499 z"
     style="fill:#502d16;fill-opacity:1;stroke:none;stroke-width:0.26458332px;stroke-linecap:butt;stroke-linejoin:miter;stroke-opacity:1" />
  <path
     id="path1593-8"
     d="m 31.749999,12.218749 v 6.614584 c 0,0 1.322917,0 3.96875,0 2.645834,0 2.645834,-3.439584 2.645834,-3.439584 0,0 0,-3.175 -2.645834,-3.175 -2.645833,0 -3.96875,0 -3.96875,0 z"
     style="fill:#502d16;fill-opacity:1;stroke:none;stroke-width:0.26458332px;stroke-linecap:butt;stroke-linejoin:miter;stroke-opacity:1" />
  <path
     id="path1593-4"
     d="m 31.749999,21.479166 v 6.614584 c 0,0 1.322917,0 3.96875,0 2.645832,0 2.645832,-3.439584 2.645832,-3.439584 0,0 0,-3.175 -2.645832,-3.175 -2.645833,0 -3.96875,0 -3.96875,0 z"
     style="fill:#502d16;fill-opacity:1;stroke:none;stroke-width:0.26458332px;stroke-linecap:butt;stroke-linejoin:miter;stroke-opacity:1" />
  <path
     id="path1593-88"
     d="m 11.906249,8.2499998 h 6.614584 c 0,0 0,-1.3229166 0,-3.9687499 0,-2.6458332 -3.439584,-2.6458332 -3.439584,-2.6458332 0,0 -3.175,0 -3.175,2.6458332 0,2.6458333 0,3.9687499 0,3.9687499 z"
     style="fill:#502d16;fill-opacity:1;stroke:none;stroke-width:0.26458332px;stroke-linecap:butt;stroke-linejoin:miter;stroke-opacity:1" />
  <path
     id="path1593-9"
     d="m 9.2604164,18.833333 v -6.614584 c 0,0 -1.322917,0 -3.96875,0 -2.6458335,0 -2.6458335,3.439584 -2.6458335,3.439584 0,0 0,3.175 2.6458335,3.175 2.645833,0 3.96875,0 3.96875,0 z"
     style="fill:#502d16;fill-opacity:1;stroke:none;stroke-width:0.26458332px;stroke-linecap:butt;stroke-linejoin:miter;stroke-opacity:1" />
  <path
     id="path1593-9-8"
     d="m 9.2604164,28.09375 v -6.614584 c 0,0 -1.322917,0 -3.9687504,0 -2.6458335,0 -2.6458335,3.439584 -2.6458335,3.439584 0,0 0,3.175 2.6458335,3.175 2.6458334,0 3.9687504,0 3.9687504,0 z"
     style="fill:#502d16;fill-opacity:1;stroke:none;stroke-width:0.26458332px;stroke-linecap:butt;stroke-linejoin:miter;stroke-opacity:1" />
  <path
     id="path1593-9-5"
     d="m 18.520833,32.062499 h -6.614584 c 0,0 0,1.322917 0,3.96875 0,2.645833 3.439584,2.645833 3.439584,2.645833 0,0 3.175,0 3.175,-2.645833 0,-2.645833 0,-3.96875 0,-3.96875 z"
     style="fill:#502d16;fill-opacity:1;stroke:none;stroke-width:0.26458332px;stroke-linecap:butt;stroke-linejoin:miter;stroke-opacity:1" />
  <path
     id="path1593-9-50"
     d="m 29.104166,32.062499 h -6.614584 c 0,0 0,1.322917 0,3.96875 0,2.645834 3.439584,2.645834 3.439584,2.645834 0,0 3.175,0 3.175,-2.645834 0,-2.645833 0,-3.96875 0,-3.96875 z"
     style="fill:#502d16;fill-opacity:1;stroke:none;stroke-width:0.26458332px;stroke-linecap:butt;stroke-linejoin:miter;stroke-opacity:1" />
</svg>
