<?xml version="1.0" encoding="UTF-8" standalone="no"?>
<svg
   xmlns:dc="http://purl.org/dc/elements/1.1/"
   xmlns:cc="http://creativecommons.org/ns#"
   xmlns:rdf="http://www.w3.org/1999/02/22-rdf-syntax-ns#"
   xmlns:svg="http://www.w3.org/2000/svg"
   xmlns="http://www.w3.org/2000/svg"
   id="svg3150"
   version="1.1"
   viewBox="0 0 40 40"
   height="40mm"
   width="40mm">
  <defs
     id="defs15" />
  <metadata
     id="metadata3147">
    <rdf:RDF>
      <cc:Work
         rdf:about="">
        <dc:format>image/svg+xml</dc:format>
        <dc:type
           rdf:resource="http://purl.org/dc/dcmitype/StillImage" />
        <dc:title />
      </cc:Work>
    </rdf:RDF>
  </metadata>
  <rect
     style="fill:#2b1100;fill-opacity:1;stroke:none;stroke-width:0.70651346;stroke-linejoin:round;stroke-miterlimit:4;stroke-dasharray:none;stroke-dashoffset:0;stroke-opacity:1"
     id="rect904"
     width="21.931942"
     height="1.0515566"
     x="-3.9354079"
     y="20.679115"
     transform="matrix(0.78239679,-0.62278027,0.66254374,0.74902323,0,0)" />
  <path
     style="fill:#333333;stroke:none;stroke-width:0.26458332px;stroke-linecap:butt;stroke-linejoin:miter;stroke-opacity:1"
     d="m 10.583333,37.354166 h 3.96875 c 0,0 1.322917,-2.645834 5.291667,-2.645834 3.96875,0 5.291666,2.645834 5.291666,2.645834 h 3.96875 c 0,0 0,-1.322917 -1.322916,-2.645834 -1.322917,-1.322916 -2.645834,-3.96875 -2.645834,-5.291666 3.96875,0 10.583334,-2.645834 10.583334,-5.291666 h -9.260417 c 0,0 -1.198488,-1.290667 -2.521403,-1.292955 L 6.6145832,22.802083 5.2916666,26.770832 c 0,0 -1e-7,1e-6 7.9375004,2.645834 0,1.322916 0,3.96875 -1.322917,5.291666 -1.322917,1.322917 -1.322917,2.645834 -1.322917,2.645834 z"
     id="path825" />
  <path
     style="fill:url(#linearGradient851);fill-opacity:1;stroke:none;stroke-width:0.40621448px;stroke-linecap:butt;stroke-linejoin:miter;stroke-opacity:1"
     d="M 7.9374998,22.802083 H 15.875 c 5.291666,0 14.287499,-5.291667 14.287499,-5.291667 l -0.529167,-0.982738 c 0,0 -8.506567,5.027083 -13.758332,5.027083 H 7.9374998 Z"
     id="path827" />
  <path
     style="fill:#ffa400;fill-opacity:1;stroke:none;stroke-width:0.48594117px;stroke-linecap:butt;stroke-linejoin:miter;stroke-opacity:1"
     d="M 7.3836952,20.940086 3.9687499,19.627083 0.92998262,17.352341 4.344927,18.665344 Z"
     id="path853" />
  <path
     style="fill:#ffa400;fill-opacity:1;stroke:none;stroke-width:0.27530104px;stroke-linecap:butt;stroke-linejoin:miter;stroke-opacity:1"
     d="m 8.5395616,19.91048 -1.3958118,-1.606314 -1.06767,-2.097459 1.3958117,1.606314 z"
     id="path853-7" />
  <path
     style="fill:#ffa400;fill-opacity:1;stroke:none;stroke-width:0.3136383px;stroke-linecap:butt;stroke-linejoin:miter;stroke-opacity:1"
     d="M 6.9554401,22.04188 4.7050118,22.182126 2.512072,21.619412 4.7624999,21.479166 Z"
     id="path853-7-5" />
  <path
     style="fill:#000000;stroke:none;stroke-width:0.26458332px;stroke-linecap:butt;stroke-linejoin:miter;stroke-opacity:1;fill-opacity:1"
     d="m 27.252083,17.775 1.852083,-1.058334 c 0,0 0.264584,-0.529166 0.79375,-0.79375 0.529167,-0.264583 3.96875,0.79375 5.820834,-0.264583 C 37.570833,14.6 39.158333,13.541666 39.158333,13.541666 L 38.629166,13.0125 c 0,0 -1.322916,0.79375 -3.439583,2.116666 C 33.072916,16.452083 31.485416,14.6 29.633333,15.658333 27.78125,16.716666 27.252083,17.775 27.252083,17.775 Z"
     id="path885" />
  <path
     style="fill:#000000;fill-opacity:1;stroke:none;stroke-width:0.26458332px;stroke-linecap:butt;stroke-linejoin:miter;stroke-opacity:1"
     d="m 27.681612,18.833328 1.929249,-0.9101 c 0,0 0.585224,0.08679 1.105477,-0.194921 0.520251,-0.28171 1.626174,-3.706289 3.555426,-4.616389 1.929248,-0.910103 3.706737,-1.603472 3.706737,-1.603472 l 0.129947,0.736985 c 0,0 -1.408997,0.628395 -3.706737,1.603472 -2.29774,0.975078 -1.691154,3.337794 -3.620401,4.247896 -1.929246,0.910103 -3.0997,0.736534 -3.0997,0.736534 z"
     id="path885-6" />
  <path
     style="fill:#333333;stroke:none;stroke-width:0.4096134px;stroke-linecap:butt;stroke-linejoin:miter;stroke-opacity:1"
     d="m 8.6324324,14.612379 5.7951686,6.55159 3.005659,-2.392474 -5.795171,-6.551591 z"
     id="path902" />
</svg>
