<?xml version="1.0" encoding="UTF-8" standalone="no"?>
<svg
   xmlns="http://www.w3.org/2000/svg"
   width="40mm"
   height="40mm"
   viewBox="0 0 40 40"
   version="1.1">
  <path
     style="fill:#643412;fill-opacity:1;stroke:none;stroke-width:0.103271px;stroke-linecap:butt;stroke-linejoin:miter;stroke-opacity:1"
     d="m 24.01092,29.579021 -0.507114,-1.051544 c 0,0 -0.507114,-2.103089 -0.507114,-3.154631 V 21.16667 h 2.028452 c 0,0 -0.855864,2.556118 -0.855864,3.731783 0,1.051542 1.362978,4.680568 1.362978,4.680568" />
  <path
     style="fill:#643412;fill-opacity:1;stroke:none;stroke-width:0.103271px;stroke-linecap:butt;stroke-linejoin:miter;stroke-opacity:1"
     d="M 6.464822,29.579016 5.9577095,28.527475 c 0,0 -0.5071125,-2.103091 -0.5071125,-3.154634 v -4.206175 h 2.02845 c 0,0 -0.8558619,2.556118 -0.8558619,3.731783 0,1.051542 1.3629753,4.680567 1.3629753,4.680567" />
  <path
     style="fill:#d38d5f;stroke:#000000;stroke-width:0.103271px;stroke-linecap:butt;stroke-linejoin:miter;stroke-opacity:1"
     d="m 3.4221462,29.579016 0.5071133,1.051548 h 2.02845 l -1.014225,-1.051548 z" />
  <path
     style="fill:#964d1c;fill-opacity:1;stroke:none;stroke-width:0.103271px;stroke-linecap:butt;stroke-linejoin:miter;stroke-opacity:1"
     d="M 3.4221445,29.579016 2.915032,28.527475 c 0,0 0,-2.628859 0.5071125,-4.73195 C 3.9292578,21.692436 4.248035,21.65483 4.4363703,21.166666 V 20.640892 L 2.915032,14.857401 C 2.772473,14.200805 2.8141425,13.345797 3.0547465,12.768123 1.5965398,12.228543 2.4122011,22.688584 2.1566246,22.5933 1.6758706,22.414061 1.4214569,12.698239 2.1036523,11.807923 c 0.574886,-0.691508 2.0727136,-0.991089 4.410223,-1.361056 2.3375104,-0.369968 2.7907764,0.730129 5.7349987,0.587717 4.761679,-0.230325 3.396328,-1.3305969 7.653343,-1.3311699 5.578238,-7.99e-4 11.214842,0.6312289 13.243293,0.6312289 2.028452,0 4.609802,6.730155 4.609802,6.730155 l -2.535561,1.577316 v 0 0 c 0,0 -3.042676,-2.10309 -3.549789,-2.10309 -1.217071,-0.420616 -3.501089,1.643247 -6.2882,4.837106 -1.321979,1.068434 -1.078446,1.948973 -2.995878,1.643644 -0.299138,-0.04764 -0.52633,3.09993 -0.59071,3.484487 -0.05443,0.325085 -0.522651,-0.18503 1.181132,3.050488 -0.341803,0.03497 -1.131544,0.05819 -1.496138,0.05166 -0.207645,-0.973781 -0.660981,-0.791145 -0.547041,-1.161208 0.13655,-0.4435 -0.26915,-4.859985 -0.923378,-5.763793 -0.843018,-0.03263 -1.680401,-0.344123 -2.489861,-0.358065 -1.318492,0 -1.419916,0.946389 -5.476817,0.946389 -6.0853515,0 -4.5640132,-2.103089 -5.5782382,-2.103089 -1.0142258,0 -1.0142258,4.206176 -1.5213383,4.731948 -0.5071125,0.525774 0,3.680406 0,3.680406" />
  <path
     style="fill:#d38d5f;stroke:#000000;stroke-width:0.103271px;stroke-linecap:butt;stroke-linejoin:miter;stroke-opacity:1"
     d="m 6.464822,29.579016 0.5071125,1.051548 h 2.0284509 l -1.014225,-1.051548 z" />
  <path
     style="fill:#d38d5f;stroke:#000000;stroke-width:0.103271px;stroke-linecap:butt;stroke-linejoin:miter;stroke-opacity:1"
     d="m 21.475354,29.579016 0.507114,1.051548 h 2.028452 l -1.014228,-1.051548 z" />
  <path
     style="fill:#d38d5f;stroke:#000000;stroke-width:0.103271px;stroke-linecap:butt;stroke-linejoin:miter;stroke-opacity:1"
     d="m 24.01092,29.579021 0.50711,1.051547 h 2.028451 l -1.014223,-1.051547 z" />
  <path
     style="fill:none;stroke:#000000;stroke-width:0.103271px;stroke-linecap:butt;stroke-linejoin:miter;stroke-opacity:1"
     d="m 20.055441,22.638825 c -0.304268,-1.051542 -0.608536,-1.472159 -0.608536,-1.472159 0,0 1.014225,-4.206175 0,-5.783491" />
  <path
     style="fill:none;stroke:#000000;stroke-width:0.103271px;stroke-linecap:butt;stroke-linejoin:miter;stroke-opacity:1"
     d="m 22.388157,22.954289 c 0.304267,-0.73608 0.405693,-1.261853 0.101426,-1.787623" />
  <path
     style="fill:none;stroke:#000000;stroke-width:0.103271px;stroke-linecap:butt;stroke-linejoin:miter;stroke-opacity:1"
     d="m 25.025144,17.486261 c 1.521337,-2.10309 4.564013,-2.62886 4.564013,-2.62886" />
  <path
     style="fill:none;stroke:#000000;stroke-width:0.103271px;stroke-linecap:butt;stroke-linejoin:miter;stroke-opacity:1"
     d="m 23.503806,11.70277 c 1.014224,1.051542 2.535562,1.577316 5.578238,0" />
  <path
     style="fill:#deaa87;stroke:none;stroke-width:0.110239px;stroke-linecap:butt;stroke-linejoin:miter;stroke-opacity:1"
     d="m 32.148617,10.651223 c -0.57785,-1.0515429 0,-3.1546329 3.467106,-2.1030859 3.467101,1.051543 4.622799,0 4.622799,0 0,0 -1.211174,1.048435 -2.366877,1.048435 -1.155699,0 -1.787468,-0.278716 -3.52102,-0.278708 -0.577855,4e-6 -0.468456,1.3333589 -0.468456,1.3333589 z" />
  <path
     style="fill:none;stroke:#000000;stroke-width:0.103271px;stroke-linecap:butt;stroke-linejoin:miter;stroke-opacity:1"
     d="m 32.631833,12.228539 c -1.014227,-0.525769 -0.507113,-0.525769 -1.014227,0 -0.50711,0.525773 0,1.051547 0.507114,1.051547" />
  <path
     style="fill:none;stroke:#000000;stroke-width:0.0780636;stroke-linecap:butt;stroke-linejoin:miter;stroke-miterlimit:4;stroke-dasharray:none;stroke-opacity:1"
     d="m 32.226145,12.333696 c -0.297061,-0.14339 -0.148533,-0.14339 -0.297061,0 -0.148529,0.143394 0,0.286789 0.148528,0.286789" />
  <path
     style="fill:#000000;fill-opacity:1;stroke:none;stroke-width:0.103271px;stroke-linecap:butt;stroke-linejoin:miter;stroke-opacity:1"
     d="m 33.646057,12.228543 c 0.507111,0.525773 1.014224,0.525773 0.507111,1.051543 -0.507111,0.525774 -0.507111,-1.051543 -0.507111,-1.051543" />
  <path
     style="fill:#d38d5f;fill-opacity:1;stroke:none;stroke-width:0.103271px;stroke-linecap:butt;stroke-linejoin:miter;stroke-opacity:1"
     d="m 37.702957,17.065645 c 0.405693,0.525769 0.811382,0.841232 -0.202843,1.051542 -1.014227,0.210311 -1.521337,0.210311 -1.622762,0.736079 -0.101421,0.525774 -0.304267,0.420621 -0.709956,-0.210306 -0.405689,-0.630926 -0.304268,-0.841236 0.202846,-0.736083 0.50711,0.105157 1.419913,-0.315463 1.622759,-0.73608 0.202846,-0.420616 0.709956,-0.105152 0.709956,-0.105152 z" />
  <path
     style="fill:#000000;fill-opacity:1;stroke:none;stroke-width:0.0701612px;stroke-linecap:butt;stroke-linejoin:miter;stroke-opacity:1"
     d="m 37.297268,17.381108 c 0.367429,0.334934 0.734859,0.334934 0.367429,0.669867 -0.367429,0.334937 -0.367429,-0.669867 -0.367429,-0.669867" />
  <path
     style="fill:none;stroke:#000000;stroke-width:0.103271px;stroke-linecap:butt;stroke-linejoin:miter;stroke-opacity:1"
     d="m 35.370242,18.327498 c 0.101421,0.525768 0.405689,0.736078 0.405689,0.736078" />
  <path
     style="fill:none;stroke:#000000;stroke-width:0.103271px;stroke-linecap:butt;stroke-linejoin:miter;stroke-opacity:1"
     d="m 6.2619759,21.166666 c 2.0284508,-2.10309 3.0426758,-3.680405 2.0284508,-6.309265" />
</svg>
