<?xml version="1.0" encoding="UTF-8" standalone="no"?>
<svg
   xmlns="http://www.w3.org/2000/svg"
   xmlns:xlink="http://www.w3.org/1999/xlink"
   width="40mm"
   height="40mm"
   viewBox="0 0 40 40"
   version="1.1">
  <defs>
    <linearGradient
       xlink:href="#linearGradient917"
       id="linearGradient1615"
       gradientUnits="userSpaceOnUse"
       gradientTransform="rotate(-115,99.717436,199.39172)"
       x1="100.81564"
       y1="197.22806"
       x2="103.62197"
       y2="200.03439" />
    <linearGradient
       id="linearGradient917">
      <stop
         style="stop-color:#d4aa00;stop-opacity:1;"
         offset="0"
         id="stop913" />
      <stop
         style="stop-color:#f1ff04;stop-opacity:1"
         offset="1"
         id="stop915" />
    </linearGradient>
    <linearGradient
       xlink:href="#linearGradient917"
       id="linearGradient1617"
       gradientUnits="userSpaceOnUse"
       gradientTransform="matrix(0.8144001,0.29641739,-0.34202015,0.93969262,85.596924,-20.875338)"
       x1="97.895828"
       y1="204.39062"
       x2="97.895836"
       y2="201.08333" />
    <linearGradient
       xlink:href="#linearGradient917"
       id="linearGradient1619"
       gradientUnits="userSpaceOnUse"
       gradientTransform="matrix(0.81440106,0.29641774,-0.34202015,0.93969262,85.596797,-20.875385)"
       x1="101.86458"
       y1="204.39062"
       x2="101.86459"
       y2="201.08333" />
    <linearGradient
       xlink:href="#linearGradient917"
       id="linearGradient1621"
       gradientUnits="userSpaceOnUse"
       gradientTransform="matrix(0.87746586,0.31937145,-0.34202015,0.93969262,78.086818,-20.230032)"
       x1="97.895828"
       y1="204.39062"
       x2="97.895836"
       y2="201.08333" />
    <linearGradient
       xlink:href="#linearGradient917"
       id="linearGradient1623"
       gradientUnits="userSpaceOnUse"
       gradientTransform="matrix(0.87704723,0.31921908,-0.34202015,0.93969262,78.12946,-20.214513)"
       x1="101.86458"
       y1="204.39062"
       x2="101.86459"
       y2="201.08333" />
    <linearGradient
       xlink:href="#linearGradient917"
       id="linearGradient1625"
       gradientUnits="userSpaceOnUse"
       gradientTransform="rotate(20,90.778092,190.59584)"
       x1="97.895828"
       y1="204.39062"
       x2="97.895836"
       y2="201.08333" />
    <linearGradient
       xlink:href="#linearGradient917"
       id="linearGradient1627"
       gradientUnits="userSpaceOnUse"
       gradientTransform="rotate(20,90.778092,190.59584)"
       x1="101.86458"
       y1="204.39062"
       x2="101.86459"
       y2="201.08333" />
    <linearGradient
       xlink:href="#linearGradient917"
       id="linearGradient1629"
       gradientUnits="userSpaceOnUse"
       gradientTransform="rotate(20,81.774947,189.00834)"
       x1="97.895828"
       y1="204.39062"
       x2="97.895836"
       y2="201.08333" />
    <linearGradient
       xlink:href="#linearGradient917"
       id="linearGradient1631"
       gradientUnits="userSpaceOnUse"
       gradientTransform="rotate(20,81.774947,189.00834)"
       x1="101.86458"
       y1="204.39062"
       x2="101.86459"
       y2="201.08333" />
    <linearGradient
       xlink:href="#linearGradient917"
       id="linearGradient1633"
       gradientUnits="userSpaceOnUse"
       gradientTransform="matrix(0.87704543,0.31921843,-0.34202014,0.93969263,74.871908,-11.263873)"
       x1="97.895828"
       y1="204.39062"
       x2="97.895836"
       y2="201.08333" />
    <linearGradient
       xlink:href="#linearGradient917"
       id="linearGradient1635"
       gradientUnits="userSpaceOnUse"
       gradientTransform="matrix(0.87705057,0.31922031,-0.34202014,0.93969262,74.871383,-11.264063)"
       x1="101.86458"
       y1="204.39062"
       x2="101.86459"
       y2="201.08333" />
    <linearGradient
       xlink:href="#linearGradient917"
       id="linearGradient1076"
       gradientUnits="userSpaceOnUse"
       gradientTransform="rotate(-115,99.717436,199.39172)"
       x1="100.81564"
       y1="197.22806"
       x2="103.62197"
       y2="200.03439" />
    <linearGradient
       xlink:href="#linearGradient917"
       id="linearGradient1078"
       gradientUnits="userSpaceOnUse"
       gradientTransform="matrix(0.8144001,0.29641739,-0.34202015,0.93969262,85.596924,-20.875338)"
       x1="97.895828"
       y1="204.39062"
       x2="97.895836"
       y2="201.08333" />
    <linearGradient
       xlink:href="#linearGradient917"
       id="linearGradient1080"
       gradientUnits="userSpaceOnUse"
       gradientTransform="matrix(0.81440106,0.29641774,-0.34202015,0.93969262,85.596797,-20.875385)"
       x1="101.86458"
       y1="204.39062"
       x2="101.86459"
       y2="201.08333" />
    <linearGradient
       xlink:href="#linearGradient917"
       id="linearGradient1082"
       gradientUnits="userSpaceOnUse"
       gradientTransform="matrix(0.87746586,0.31937145,-0.34202015,0.93969262,78.086818,-20.230032)"
       x1="97.895828"
       y1="204.39062"
       x2="97.895836"
       y2="201.08333" />
    <linearGradient
       xlink:href="#linearGradient917"
       id="linearGradient1084"
       gradientUnits="userSpaceOnUse"
       gradientTransform="matrix(0.87704723,0.31921908,-0.34202015,0.93969262,78.12946,-20.214513)"
       x1="101.86458"
       y1="204.39062"
       x2="101.86459"
       y2="201.08333" />
    <linearGradient
       xlink:href="#linearGradient917"
       id="linearGradient1086"
       gradientUnits="userSpaceOnUse"
       gradientTransform="rotate(20,90.778092,190.59584)"
       x1="97.895828"
       y1="204.39062"
       x2="97.895836"
       y2="201.08333" />
    <linearGradient
       xlink:href="#linearGradient917"
       id="linearGradient1088"
       gradientUnits="userSpaceOnUse"
       gradientTransform="rotate(20,90.778092,190.59584)"
       x1="101.86458"
       y1="204.39062"
       x2="101.86459"
       y2="201.08333" />
    <linearGradient
       xlink:href="#linearGradient917"
       id="linearGradient1090"
       gradientUnits="userSpaceOnUse"
       gradientTransform="rotate(20,81.774947,189.00834)"
       x1="97.895828"
       y1="204.39062"
       x2="97.895836"
       y2="201.08333" />
    <linearGradient
       xlink:href="#linearGradient917"
       id="linearGradient1092"
       gradientUnits="userSpaceOnUse"
       gradientTransform="rotate(20,81.774947,189.00834)"
       x1="101.86458"
       y1="204.39062"
       x2="101.86459"
       y2="201.08333" />
    <linearGradient
       xlink:href="#linearGradient917"
       id="linearGradient1094"
       gradientUnits="userSpaceOnUse"
       gradientTransform="matrix(0.87704543,0.31921843,-0.34202014,0.93969263,74.871908,-11.263873)"
       x1="97.895828"
       y1="204.39062"
       x2="97.895836"
       y2="201.08333" />
    <linearGradient
       xlink:href="#linearGradient917"
       id="linearGradient1096"
       gradientUnits="userSpaceOnUse"
       gradientTransform="matrix(0.87705057,0.31922031,-0.34202014,0.93969262,74.871383,-11.264063)"
       x1="101.86458"
       y1="204.39062"
       x2="101.86459"
       y2="201.08333" />
    <linearGradient
       xlink:href="#linearGradient917"
       id="linearGradient1098"
       gradientUnits="userSpaceOnUse"
       gradientTransform="rotate(-115,99.717436,199.39172)"
       x1="100.81564"
       y1="197.22806"
       x2="103.62197"
       y2="200.03439" />
    <linearGradient
       xlink:href="#linearGradient917"
       id="linearGradient1100"
       gradientUnits="userSpaceOnUse"
       gradientTransform="matrix(0.8144001,0.29641739,-0.34202015,0.93969262,85.596924,-20.875338)"
       x1="97.895828"
       y1="204.39062"
       x2="97.895836"
       y2="201.08333" />
    <linearGradient
       xlink:href="#linearGradient917"
       id="linearGradient1102"
       gradientUnits="userSpaceOnUse"
       gradientTransform="matrix(0.81440106,0.29641774,-0.34202015,0.93969262,85.596797,-20.875385)"
       x1="101.86458"
       y1="204.39062"
       x2="101.86459"
       y2="201.08333" />
    <linearGradient
       xlink:href="#linearGradient917"
       id="linearGradient1104"
       gradientUnits="userSpaceOnUse"
       gradientTransform="matrix(0.87746586,0.31937145,-0.34202015,0.93969262,78.086818,-20.230032)"
       x1="97.895828"
       y1="204.39062"
       x2="97.895836"
       y2="201.08333" />
    <linearGradient
       xlink:href="#linearGradient917"
       id="linearGradient1106"
       gradientUnits="userSpaceOnUse"
       gradientTransform="matrix(0.87704723,0.31921908,-0.34202015,0.93969262,78.12946,-20.214513)"
       x1="101.86458"
       y1="204.39062"
       x2="101.86459"
       y2="201.08333" />
    <linearGradient
       xlink:href="#linearGradient917"
       id="linearGradient1108"
       gradientUnits="userSpaceOnUse"
       gradientTransform="rotate(20,90.778092,190.59584)"
       x1="97.895828"
       y1="204.39062"
       x2="97.895836"
       y2="201.08333" />
    <linearGradient
       xlink:href="#linearGradient917"
       id="linearGradient1110"
       gradientUnits="userSpaceOnUse"
       gradientTransform="rotate(20,90.778092,190.59584)"
       x1="101.86458"
       y1="204.39062"
       x2="101.86459"
       y2="201.08333" />
    <linearGradient
       xlink:href="#linearGradient917"
       id="linearGradient1112"
       gradientUnits="userSpaceOnUse"
       gradientTransform="rotate(20,81.774947,189.00834)"
       x1="97.895828"
       y1="204.39062"
       x2="97.895836"
       y2="201.08333" />
    <linearGradient
       xlink:href="#linearGradient917"
       id="linearGradient1114"
       gradientUnits="userSpaceOnUse"
       gradientTransform="rotate(20,81.774947,189.00834)"
       x1="101.86458"
       y1="204.39062"
       x2="101.86459"
       y2="201.08333" />
    <linearGradient
       xlink:href="#linearGradient917"
       id="linearGradient1116"
       gradientUnits="userSpaceOnUse"
       gradientTransform="matrix(0.87704543,0.31921843,-0.34202014,0.93969263,74.871908,-11.263873)"
       x1="97.895828"
       y1="204.39062"
       x2="97.895836"
       y2="201.08333" />
    <linearGradient
       xlink:href="#linearGradient917"
       id="linearGradient1118"
       gradientUnits="userSpaceOnUse"
       gradientTransform="matrix(0.87705057,0.31922031,-0.34202014,0.93969262,74.871383,-11.264063)"
       x1="101.86458"
       y1="204.39062"
       x2="101.86459"
       y2="201.08333" />
  </defs>
  <path
     style="fill:#ffd42a;fill-opacity:1;stroke:none;stroke-width:0.180244px;stroke-linecap:butt;stroke-linejoin:miter;stroke-opacity:1"
     d="m 17.026228,37.479576 c 0,-12.077479 5.043661,-22.544627 5.043661,-22.544627 l 1.00873,0.805169 c 0,0 -5.043658,9.661979 -5.043659,21.739458 z"/>
  <path
     style="fill:#ffd42a;fill-opacity:1;stroke:none;stroke-width:0.180244px;stroke-linecap:butt;stroke-linejoin:miter;stroke-opacity:1"
     d="m 17.026228,37.479576 c 0,-9.661978 -3.026195,-15.298142 -3.026195,-15.298142 l -1.00873,0.483098 c 0,0 3.026194,5.153066 3.026193,14.815044 z" />
  <g
     transform="matrix(0.53917309,-0.54773796,0.53917309,0.54773796,-152.12188,-42.260379)">
    <path
       style="fill:url(#linearGradient1615);fill-opacity:1;stroke:none;stroke-width:0.264583px;stroke-linecap:butt;stroke-linejoin:miter;stroke-opacity:1"
       d="m 100.34314,196.73083 c 1.67726,3.59692 0.47828,4.15599 -0.720679,4.71509 l -1.19899,0.55909 -0.55909,-1.19897 c -0.55909,-1.19896 -1.11816,-2.39794 2.478759,-4.07521 z" />
    <path
       style="fill:url(#linearGradient1617);fill-opacity:1;stroke:none;stroke-width:0.246313px;stroke-linecap:butt;stroke-linejoin:miter;stroke-opacity:1"
       d="m 97.971011,203.24814 c -3.232146,-1.1764 -2.7797,-2.41951 -2.32721,-3.66268 0.45245,-1.24312 0.45245,-1.24312 0.45245,-1.24312 v 0 l 2.15478,0.78427 c 0,0 1.07738,0.39211 0.6249,1.63526 -0.45246,1.24314 -0.90492,2.48627 -0.90492,2.48627 z" />
    <path
       style="fill:url(#linearGradient1619);fill-opacity:1;stroke:none;stroke-width:0.246313px;stroke-linecap:butt;stroke-linejoin:miter;stroke-opacity:1"
       d="m 97.971011,203.24814 c 3.232159,1.17642 3.684619,-0.0667 4.137099,-1.30986 0.45244,-1.24314 0.45244,-1.24314 0.45244,-1.24314 v 0 l -2.15478,-0.78426 c 0,0 -1.077379,-0.39212 -1.529839,0.85099 -0.45246,1.24314 -0.90492,2.48627 -0.90492,2.48627 z" />
    <path
       style="fill:url(#linearGradient1621);fill-opacity:1;stroke:none;stroke-width:0.255673px;stroke-linecap:butt;stroke-linejoin:miter;stroke-opacity:1"
       d="m 96.885105,206.23165 c -3.482442,-1.26748 -3.029997,-2.51061 -2.577512,-3.75376 0.452463,-1.24314 0.452463,-1.24314 0.452463,-1.24314 v 0 l 2.321619,0.84501 c 0,0 1.16081,0.4225 0.70836,1.66562 -0.45247,1.24314 -0.90493,2.48627 -0.90493,2.48627 z" />
    <path
       style="fill:url(#linearGradient1623);fill-opacity:1;stroke:none;stroke-width:0.255612px;stroke-linecap:butt;stroke-linejoin:miter;stroke-opacity:1"
       d="m 96.885105,206.23165 c 3.480785,1.26691 3.933235,0.0238 4.385705,-1.21937 0.45246,-1.24311 0.45246,-1.24311 0.45246,-1.24311 v 0 l -2.320535,-0.84461 c 0,0 -1.16025,-0.4223 -1.6127,0.82082 -0.45247,1.24314 -0.90493,2.48627 -0.90493,2.48627 z" />
    <path
       style="fill:url(#linearGradient1625);fill-opacity:1;stroke:none;stroke-width:0.264583px;stroke-linecap:butt;stroke-linejoin:miter;stroke-opacity:1"
       d="m 95.799179,209.2152 c -3.7294,-1.3574 -3.276932,-2.60054 -2.824464,-3.84369 0.452458,-1.24312 0.452458,-1.24312 0.452458,-1.24312 v 0 l 2.486276,0.90493 c 0,0 1.24313,0.45246 0.79067,1.69558 -0.45249,1.24315 -0.90494,2.4863 -0.90494,2.4863 z" />
    <path
       style="fill:url(#linearGradient1627);fill-opacity:1;stroke:none;stroke-width:0.264583px;stroke-linecap:butt;stroke-linejoin:miter;stroke-opacity:1"
       d="m 95.799179,209.2152 c 3.72941,1.35739 4.181865,0.11425 4.634321,-1.12889 0.45247,-1.24314 0.45247,-1.24314 0.45247,-1.24314 v 0 l -2.486281,-0.90492 c 0,0 -1.24311,-0.45247 -1.69557,0.79065 -0.45249,1.24315 -0.90494,2.4863 -0.90494,2.4863 z" />
    <path
       style="fill:url(#linearGradient1629);fill-opacity:1;stroke:none;stroke-width:0.264583px;stroke-linecap:butt;stroke-linejoin:miter;stroke-opacity:1"
       d="m 94.713271,212.19871 c -3.729405,-1.35739 -3.276939,-2.60053 -2.824473,-3.84367 0.452463,-1.24313 0.452463,-1.24313 0.452463,-1.24313 v 0 l 2.486272,0.90492 c 0,0 1.24311,0.45247 0.79067,1.6956 -0.45247,1.24315 -0.904932,2.48628 -0.904932,2.48628 z" />
    <path
       style="fill:url(#linearGradient1631);fill-opacity:1;stroke:none;stroke-width:0.264583px;stroke-linecap:butt;stroke-linejoin:miter;stroke-opacity:1"
       d="m 94.713271,212.19871 c 3.729392,1.35739 4.181862,0.11424 4.634332,-1.12888 0.452455,-1.24313 0.452455,-1.24313 0.452455,-1.24313 v 0 l -2.486265,-0.90493 c 0,0 -1.24315,-0.45247 -1.69559,0.79066 -0.45247,1.24315 -0.904932,2.48628 -0.904932,2.48628 z" />
    <path
       style="fill:url(#linearGradient1633);fill-opacity:1;stroke:none;stroke-width:0.255611px;stroke-linecap:butt;stroke-linejoin:miter;stroke-opacity:1"
       d="m 93.627362,215.18223 c -3.480774,-1.26691 -3.028311,-2.51005 -2.57585,-3.75317 0.452466,-1.24314 0.452466,-1.24314 0.452466,-1.24314 v 0 l 2.320524,0.84459 c 0,0 1.160246,0.42232 0.707793,1.66545 -0.452467,1.24312 -0.904933,2.48627 -0.904933,2.48627 z" />
    <path
       style="fill:url(#linearGradient1635);fill-opacity:1;stroke:none;stroke-width:0.255612px;stroke-linecap:butt;stroke-linejoin:miter;stroke-opacity:1"
       d="m 93.627362,215.18223 c 3.480795,1.26689 3.933255,0.0238 4.385715,-1.21938 0.45246,-1.24314 0.45246,-1.24314 0.45246,-1.24314 v 0 l -2.320529,-0.84459 c 0,0 -1.160261,-0.42229 -1.612713,0.82084 -0.452467,1.24312 -0.904933,2.48627 -0.904933,2.48627 z" />
  </g>
  <path
     style="fill:#ffd42a;fill-opacity:1;stroke:none;stroke-width:0.147168px;stroke-linecap:butt;stroke-linejoin:miter;stroke-opacity:1"
     d="m 18.03496,37.479576 c 0,-8.051657 6.657632,-15.029752 6.657632,-15.029752 l 1.00873,0.536781 c 0,0 -6.657629,6.441314 -6.65763,14.492971 z" />
  <g
     transform="matrix(0.76250589,0,0,0.77461845,-49.275904,-150.38964)">
    <path
       style="fill:url(#linearGradient1098);fill-opacity:1;stroke:none;stroke-width:0.264583px;stroke-linecap:butt;stroke-linejoin:miter;stroke-opacity:1"
       d="m 100.34314,196.73083 c 1.67726,3.59692 0.47828,4.15599 -0.720679,4.71509 l -1.19899,0.55909 -0.55909,-1.19897 c -0.55909,-1.19896 -1.11816,-2.39794 2.478759,-4.07521 z" />
    <path
       style="fill:url(#linearGradient1100);fill-opacity:1;stroke:none;stroke-width:0.246313px;stroke-linecap:butt;stroke-linejoin:miter;stroke-opacity:1"
       d="m 97.971011,203.24814 c -3.232146,-1.1764 -2.7797,-2.41951 -2.32721,-3.66268 0.45245,-1.24312 0.45245,-1.24312 0.45245,-1.24312 v 0 l 2.15478,0.78427 c 0,0 1.07738,0.39211 0.6249,1.63526 -0.45246,1.24314 -0.90492,2.48627 -0.90492,2.48627 z" />
    <path
       style="fill:url(#linearGradient1102);fill-opacity:1;stroke:none;stroke-width:0.246313px;stroke-linecap:butt;stroke-linejoin:miter;stroke-opacity:1"
       d="m 97.971011,203.24814 c 3.232159,1.17642 3.684619,-0.0667 4.137099,-1.30986 0.45244,-1.24314 0.45244,-1.24314 0.45244,-1.24314 v 0 l -2.15478,-0.78426 c 0,0 -1.077379,-0.39212 -1.529839,0.85099 -0.45246,1.24314 -0.90492,2.48627 -0.90492,2.48627 z" />
    <path
       style="fill:url(#linearGradient1104);fill-opacity:1;stroke:none;stroke-width:0.255673px;stroke-linecap:butt;stroke-linejoin:miter;stroke-opacity:1"
       d="m 96.885105,206.23165 c -3.482442,-1.26748 -3.029997,-2.51061 -2.577512,-3.75376 0.452463,-1.24314 0.452463,-1.24314 0.452463,-1.24314 v 0 l 2.321619,0.84501 c 0,0 1.16081,0.4225 0.70836,1.66562 -0.45247,1.24314 -0.90493,2.48627 -0.90493,2.48627 z" />
    <path
       style="fill:url(#linearGradient1106);fill-opacity:1;stroke:none;stroke-width:0.255612px;stroke-linecap:butt;stroke-linejoin:miter;stroke-opacity:1"
       d="m 96.885105,206.23165 c 3.480785,1.26691 3.933235,0.0238 4.385705,-1.21937 0.45246,-1.24311 0.45246,-1.24311 0.45246,-1.24311 v 0 l -2.320535,-0.84461 c 0,0 -1.16025,-0.4223 -1.6127,0.82082 -0.45247,1.24314 -0.90493,2.48627 -0.90493,2.48627 z" />
    <path
       style="fill:url(#linearGradient1108);fill-opacity:1;stroke:none;stroke-width:0.264583px;stroke-linecap:butt;stroke-linejoin:miter;stroke-opacity:1"
       d="m 95.799179,209.2152 c -3.7294,-1.3574 -3.276932,-2.60054 -2.824464,-3.84369 0.452458,-1.24312 0.452458,-1.24312 0.452458,-1.24312 v 0 l 2.486276,0.90493 c 0,0 1.24313,0.45246 0.79067,1.69558 -0.45249,1.24315 -0.90494,2.4863 -0.90494,2.4863 z" />
    <path
       style="fill:url(#linearGradient1110);fill-opacity:1;stroke:none;stroke-width:0.264583px;stroke-linecap:butt;stroke-linejoin:miter;stroke-opacity:1"
       d="m 95.799179,209.2152 c 3.72941,1.35739 4.181865,0.11425 4.634321,-1.12889 0.45247,-1.24314 0.45247,-1.24314 0.45247,-1.24314 v 0 l -2.486281,-0.90492 c 0,0 -1.24311,-0.45247 -1.69557,0.79065 -0.45249,1.24315 -0.90494,2.4863 -0.90494,2.4863 z" />
    <path
       style="fill:url(#linearGradient1112);fill-opacity:1;stroke:none;stroke-width:0.264583px;stroke-linecap:butt;stroke-linejoin:miter;stroke-opacity:1"
       d="m 94.713271,212.19871 c -3.729405,-1.35739 -3.276939,-2.60053 -2.824473,-3.84367 0.452463,-1.24313 0.452463,-1.24313 0.452463,-1.24313 v 0 l 2.486272,0.90492 c 0,0 1.24311,0.45247 0.79067,1.6956 -0.45247,1.24315 -0.904932,2.48628 -0.904932,2.48628 z" />
    <path
       style="fill:url(#linearGradient1114);fill-opacity:1;stroke:none;stroke-width:0.264583px;stroke-linecap:butt;stroke-linejoin:miter;stroke-opacity:1"
       d="m 94.713271,212.19871 c 3.729392,1.35739 4.181862,0.11424 4.634332,-1.12888 0.452455,-1.24313 0.452455,-1.24313 0.452455,-1.24313 v 0 l -2.486265,-0.90493 c 0,0 -1.24315,-0.45247 -1.69559,0.79066 -0.45247,1.24315 -0.904932,2.48628 -0.904932,2.48628 z" />
    <path
       style="fill:url(#linearGradient1116);fill-opacity:1;stroke:none;stroke-width:0.255611px;stroke-linecap:butt;stroke-linejoin:miter;stroke-opacity:1"
       d="m 93.627362,215.18223 c -3.480774,-1.26691 -3.028311,-2.51005 -2.57585,-3.75317 0.452466,-1.24314 0.452466,-1.24314 0.452466,-1.24314 v 0 l 2.320524,0.84459 c 0,0 1.160246,0.42232 0.707793,1.66545 -0.452467,1.24312 -0.904933,2.48627 -0.904933,2.48627 z" />
    <path
       style="fill:url(#linearGradient1118);fill-opacity:1;stroke:none;stroke-width:0.255612px;stroke-linecap:butt;stroke-linejoin:miter;stroke-opacity:1"
       d="m 93.627362,215.18223 c 3.480795,1.26689 3.933255,0.0238 4.385715,-1.21938 0.45246,-1.24314 0.45246,-1.24314 0.45246,-1.24314 v 0 l -2.320529,-0.84459 c 0,0 -1.160261,-0.42229 -1.612713,0.82084 -0.452467,1.24312 -0.904933,2.48627 -0.904933,2.48627 z" />
  </g>
  <g
     transform="matrix(0.71652116,0.26493511,-0.26079237,0.72790324,13.300052,-157.53455)">
    <path
       style="fill:url(#linearGradient1076);fill-opacity:1;stroke:none;stroke-width:0.264583px;stroke-linecap:butt;stroke-linejoin:miter;stroke-opacity:1"
       d="m 100.34314,196.73083 c 1.67726,3.59692 0.47828,4.15599 -0.720679,4.71509 l -1.19899,0.55909 -0.55909,-1.19897 c -0.55909,-1.19896 -1.11816,-2.39794 2.478759,-4.07521 z" />
    <path
       style="fill:url(#linearGradient1078);fill-opacity:1;stroke:none;stroke-width:0.246313px;stroke-linecap:butt;stroke-linejoin:miter;stroke-opacity:1"
       d="m 97.971011,203.24814 c -3.232146,-1.1764 -2.7797,-2.41951 -2.32721,-3.66268 0.45245,-1.24312 0.45245,-1.24312 0.45245,-1.24312 v 0 l 2.15478,0.78427 c 0,0 1.07738,0.39211 0.6249,1.63526 -0.45246,1.24314 -0.90492,2.48627 -0.90492,2.48627 z" />
    <path
       style="fill:url(#linearGradient1080);fill-opacity:1;stroke:none;stroke-width:0.246313px;stroke-linecap:butt;stroke-linejoin:miter;stroke-opacity:1"
       d="m 97.971011,203.24814 c 3.232159,1.17642 3.684619,-0.0667 4.137099,-1.30986 0.45244,-1.24314 0.45244,-1.24314 0.45244,-1.24314 v 0 l -2.15478,-0.78426 c 0,0 -1.077379,-0.39212 -1.529839,0.85099 -0.45246,1.24314 -0.90492,2.48627 -0.90492,2.48627 z" />
    <path
       style="fill:url(#linearGradient1082);fill-opacity:1;stroke:none;stroke-width:0.255673px;stroke-linecap:butt;stroke-linejoin:miter;stroke-opacity:1"
       d="m 96.885105,206.23165 c -3.482442,-1.26748 -3.029997,-2.51061 -2.577512,-3.75376 0.452463,-1.24314 0.452463,-1.24314 0.452463,-1.24314 v 0 l 2.321619,0.84501 c 0,0 1.16081,0.4225 0.70836,1.66562 -0.45247,1.24314 -0.90493,2.48627 -0.90493,2.48627 z" />
    <path
       style="fill:url(#linearGradient1084);fill-opacity:1;stroke:none;stroke-width:0.255612px;stroke-linecap:butt;stroke-linejoin:miter;stroke-opacity:1"
       d="m 96.885105,206.23165 c 3.480785,1.26691 3.933235,0.0238 4.385705,-1.21937 0.45246,-1.24311 0.45246,-1.24311 0.45246,-1.24311 v 0 l -2.320535,-0.84461 c 0,0 -1.16025,-0.4223 -1.6127,0.82082 -0.45247,1.24314 -0.90493,2.48627 -0.90493,2.48627 z" />
    <path
       style="fill:url(#linearGradient1086);fill-opacity:1;stroke:none;stroke-width:0.264583px;stroke-linecap:butt;stroke-linejoin:miter;stroke-opacity:1"
       d="m 95.799179,209.2152 c -3.7294,-1.3574 -3.276932,-2.60054 -2.824464,-3.84369 0.452458,-1.24312 0.452458,-1.24312 0.452458,-1.24312 v 0 l 2.486276,0.90493 c 0,0 1.24313,0.45246 0.79067,1.69558 -0.45249,1.24315 -0.90494,2.4863 -0.90494,2.4863 z" />
    <path
       style="fill:url(#linearGradient1088);fill-opacity:1;stroke:none;stroke-width:0.264583px;stroke-linecap:butt;stroke-linejoin:miter;stroke-opacity:1"
       d="m 95.799179,209.2152 c 3.72941,1.35739 4.181865,0.11425 4.634321,-1.12889 0.45247,-1.24314 0.45247,-1.24314 0.45247,-1.24314 v 0 l -2.486281,-0.90492 c 0,0 -1.24311,-0.45247 -1.69557,0.79065 -0.45249,1.24315 -0.90494,2.4863 -0.90494,2.4863 z" />
    <path
       style="fill:url(#linearGradient1090);fill-opacity:1;stroke:none;stroke-width:0.264583px;stroke-linecap:butt;stroke-linejoin:miter;stroke-opacity:1"
       d="m 94.713271,212.19871 c -3.729405,-1.35739 -3.276939,-2.60053 -2.824473,-3.84367 0.452463,-1.24313 0.452463,-1.24313 0.452463,-1.24313 v 0 l 2.486272,0.90492 c 0,0 1.24311,0.45247 0.79067,1.6956 -0.45247,1.24315 -0.904932,2.48628 -0.904932,2.48628 z" />
    <path
       style="fill:url(#linearGradient1092);fill-opacity:1;stroke:none;stroke-width:0.264583px;stroke-linecap:butt;stroke-linejoin:miter;stroke-opacity:1"
       d="m 94.713271,212.19871 c 3.729392,1.35739 4.181862,0.11424 4.634332,-1.12888 0.452455,-1.24313 0.452455,-1.24313 0.452455,-1.24313 v 0 l -2.486265,-0.90493 c 0,0 -1.24315,-0.45247 -1.69559,0.79066 -0.45247,1.24315 -0.904932,2.48628 -0.904932,2.48628 z" />
    <path
       style="fill:url(#linearGradient1094);fill-opacity:1;stroke:none;stroke-width:0.255611px;stroke-linecap:butt;stroke-linejoin:miter;stroke-opacity:1"
       d="m 93.627362,215.18223 c -3.480774,-1.26691 -3.028311,-2.51005 -2.57585,-3.75317 0.452466,-1.24314 0.452466,-1.24314 0.452466,-1.24314 v 0 l 2.320524,0.84459 c 0,0 1.160246,0.42232 0.707793,1.66545 -0.452467,1.24312 -0.904933,2.48627 -0.904933,2.48627 z" />
    <path
       style="fill:url(#linearGradient1096);fill-opacity:1;stroke:none;stroke-width:0.255612px;stroke-linecap:butt;stroke-linejoin:miter;stroke-opacity:1"
       d="m 93.627362,215.18223 c 3.480795,1.26689 3.933255,0.0238 4.385715,-1.21938 0.45246,-1.24314 0.45246,-1.24314 0.45246,-1.24314 v 0 l -2.320529,-0.84459 c 0,0 -1.160261,-0.42229 -1.612713,0.82084 -0.452467,1.24312 -0.904933,2.48627 -0.904933,2.48627 z" />
  </g>
</svg>
