<?xml version="1.0" encoding="UTF-8" standalone="no"?>
<svg
   xmlns="http://www.w3.org/2000/svg"
   xmlns:xlink="http://www.w3.org/1999/xlink"
   width="40mm"
   height="40mm"
   viewBox="0 0 40 40"
   version="1.1">
  <defs>
    <linearGradient
       xlink:href="#linearGradient2325"
       id="linearGradient2327"
       x1="97.895836"
       y1="195.79167"
       x2="101.86459"
       y2="191.82292"
       gradientUnits="userSpaceOnUse"
       gradientTransform="matrix(1.1641907,0,0,1.0843672,-98.973288,-205.94008)" />
    <linearGradient
       id="linearGradient2325">
      <stop
         style="stop-color:#95d7e5;stop-opacity:1;"
         offset="0" />
      <stop
         style="stop-color:#95d7e5;stop-opacity:0;"
         offset="1" />
    </linearGradient>
    <linearGradient
       xlink:href="#linearGradient2325"
       id="linearGradient2293-4"
       x1="97.895828"
       y1="203.72917"
       x2="93.927078"
       y2="199.76042"
       gradientUnits="userSpaceOnUse"
       gradientTransform="matrix(-1.1641907,0,0,1.0843672,138.20631,-205.94008)" />
    <linearGradient
       xlink:href="#linearGradient2325"
       id="linearGradient2293"
       x1="89.958336"
       y1="203.72917"
       x2="94.98542"
       y2="198.70209"
       gradientUnits="userSpaceOnUse"
       gradientTransform="matrix(1.1641907,0,0,1.0843672,-98.973288,-205.94008)" />
    <linearGradient
       xlink:href="#linearGradient2192"
       id="linearGradient2194-1"
       x1="89.958336"
       y1="211.66667"
       x2="97.895836"
       y2="203.72917"
       gradientUnits="userSpaceOnUse"
       gradientTransform="matrix(1.1641907,0,0,1.0843672,-89.732528,-214.54723)" />
    <linearGradient
       id="linearGradient2192">
      <stop
         style="stop-color:#95d7e5;stop-opacity:0.85882354"
         offset="0" />
      <stop
         style="stop-color:#ffffff;stop-opacity:0.02688172"
         offset="1" />
    </linearGradient>
    <linearGradient
       xlink:href="#linearGradient2192"
       id="linearGradient2194-3-8"
       x1="89.958336"
       y1="211.66667"
       x2="97.895836"
       y2="203.72917"
       gradientUnits="userSpaceOnUse"
       gradientTransform="matrix(1.1641907,0,0,1.0843672,-80.491764,-197.33291)" />
    <linearGradient
       xlink:href="#linearGradient2192"
       id="linearGradient2194-30"
       x1="89.958336"
       y1="211.66667"
       x2="97.895836"
       y2="203.72917"
       gradientUnits="userSpaceOnUse"
       gradientTransform="matrix(1.1641907,0,0,1.0843672,-80.491762,-205.94008)" />
    <linearGradient
       xlink:href="#linearGradient2192"
       id="linearGradient2194-3"
       x1="89.958336"
       y1="211.66667"
       x2="97.895836"
       y2="203.72917"
       gradientUnits="userSpaceOnUse"
       gradientTransform="matrix(1.1641907,0,0,1.0843672,-98.973292,-197.3329)" />
    <linearGradient
       xlink:href="#linearGradient2192"
       id="linearGradient2194"
       x1="89.958336"
       y1="211.66667"
       x2="97.895836"
       y2="203.72917"
       gradientUnits="userSpaceOnUse"
       gradientTransform="matrix(1.1641907,0,0,1.0843672,-98.973288,-205.94008)" />
    <linearGradient
       xlink:href="#linearGradient2192"
       id="linearGradient2194-30-2"
       x1="89.958336"
       y1="211.66667"
       x2="97.895836"
       y2="203.72917"
       gradientUnits="userSpaceOnUse"
       gradientTransform="matrix(0.90249849,0,0,2.1687347,-64.898087,-420.49714)" />
  </defs>
  <rect
     style="fill:url(#linearGradient2194-30-2);fill-opacity:1;stroke:#616161;stroke-width:0.395791;stroke-linecap:round;stroke-linejoin:miter;stroke-miterlimit:4;stroke-dasharray:none;stroke-dashoffset:0;stroke-opacity:1;paint-order:markers fill stroke"
     width="7.1635818"
     height="17.214333"
     x="16.289179"
     y="21.337448"
     transform="matrix(0.92061935,-0.39046129,0,1,0,0)" />
  <rect
     style="fill:url(#linearGradient2194);fill-opacity:1;stroke:#616161;stroke-width:0.449428;stroke-linecap:round;stroke-linejoin:miter;stroke-miterlimit:4;stroke-dasharray:none;stroke-dashoffset:0;stroke-opacity:1;paint-order:markers fill stroke"
     width="9.2407637"
     height="8.6071644"
     x="5.7553692"
     y="14.977144" />
  <rect
     style="fill:url(#linearGradient2194-3);fill-opacity:1;stroke:#616161;stroke-width:0.449428;stroke-linecap:round;stroke-linejoin:miter;stroke-miterlimit:4;stroke-dasharray:none;stroke-dashoffset:0;stroke-opacity:1;paint-order:markers fill stroke"
     width="9.2407637"
     height="8.6071644"
     x="5.7553692"
     y="23.584322" />
  <ellipse
     style="fill:#aa0000;fill-opacity:1;stroke:none;stroke-width:0.799999;stroke-linecap:round;stroke-linejoin:miter;stroke-miterlimit:4;stroke-dasharray:none;stroke-dashoffset:0;stroke-opacity:1;paint-order:markers fill stroke"
     cx="11.830285"
     cy="28.803816"
     rx="0.66145831"
     ry="0.9974286" />
  <rect
     style="fill:url(#linearGradient2194-30);fill-opacity:1;stroke:#616161;stroke-width:0.44952707;stroke-linecap:round;stroke-linejoin:miter;stroke-miterlimit:4;stroke-dasharray:none;stroke-dashoffset:0;stroke-opacity:1;paint-order:markers fill stroke"
     width="9.2407637"
     height="8.6071644"
     x="24.236906"
     y="14.977144" />
  <rect
     style="fill:url(#linearGradient2194-3-8);fill-opacity:1;stroke:#616161;stroke-width:0.449428;stroke-linecap:round;stroke-linejoin:miter;stroke-miterlimit:4;stroke-dasharray:none;stroke-dashoffset:0;stroke-opacity:1;paint-order:markers fill stroke"
     width="9.2407637"
     height="8.6071644"
     x="24.236906"
     y="23.584322" />
  <rect
     style="fill:url(#linearGradient2194-1);fill-opacity:1;stroke:#616161;stroke-width:0.449428;stroke-linecap:round;stroke-linejoin:miter;stroke-miterlimit:4;stroke-dasharray:none;stroke-dashoffset:0;stroke-opacity:1;paint-order:markers fill stroke"
     width="9.2407637"
     height="8.6071644"
     x="14.996133"
     y="6.3699956" />
  <path
     style="fill:url(#linearGradient2293);fill-opacity:1;stroke:#616161;stroke-width:0.449428;stroke-linecap:butt;stroke-linejoin:miter;stroke-miterlimit:4;stroke-dasharray:none;stroke-opacity:1"
     d="M 14.996129,14.977157 H 5.7553669 L 14.996129,6.3699938 Z" />
  <path
     style="fill:url(#linearGradient2293-4);fill-opacity:1;stroke:#616161;stroke-width:0.449428;stroke-linecap:butt;stroke-linejoin:miter;stroke-miterlimit:4;stroke-dasharray:none;stroke-opacity:1"
     d="m 24.23689,14.977157 h 9.240763 L 24.23689,6.3699938 Z" />
  <path
     style="fill:url(#linearGradient2327);fill-opacity:1;stroke:#616161;stroke-width:0.449428;stroke-linecap:butt;stroke-linejoin:miter;stroke-miterlimit:4;stroke-dasharray:none;stroke-opacity:1"
     d="M 14.996128,6.3699828 H 24.23689 L 19.616508,2.0664007 Z" />
  <path
     style="fill:#088408;fill-opacity:1;stroke:none;stroke-width:0.513687px;stroke-linecap:butt;stroke-linejoin:miter;stroke-opacity:1"
     d="m 10.632925,32.808332 c 0,-5.741839 1.378696,-8.61276 1.378696,-8.61276 h 0.459564 c 0,0 -1.378695,2.870921 -1.378695,8.61276 -10e-7,-2e-6 -0.459565,0 -0.459565,0 z" />
  <ellipse
     style="fill:#aa0000;fill-opacity:1;stroke:none;stroke-width:0.799999;stroke-linecap:round;stroke-linejoin:miter;stroke-miterlimit:4;stroke-dasharray:none;stroke-dashoffset:0;stroke-opacity:1;paint-order:markers fill stroke"
     cx="8.815012"
     cy="28.575018"
     rx="0.66145831"
     ry="0.9974286" />
  <path
     style="fill:#088408;fill-opacity:1;stroke:none;stroke-width:0.513687px;stroke-linecap:butt;stroke-linejoin:miter;stroke-opacity:1"
     d="M 11.074492,32.649215 C 9.800992,27.132237 7.8395382,24.851082 7.8395382,24.851082 L 7.397971,25.010197 c 0,0 1.9614533,2.281153 3.234953,7.798133 0,-2e-6 0.441568,-0.159115 0.441568,-0.159115 z" />
  <ellipse
     style="fill:#aa0000;fill-opacity:1;stroke:none;stroke-width:0.799999;stroke-linecap:round;stroke-linejoin:miter;stroke-miterlimit:4;stroke-dasharray:none;stroke-dashoffset:0;stroke-opacity:1;paint-order:markers fill stroke"
     cx="10.210199"
     cy="24.840359"
     rx="0.66145831"
     ry="0.9974286" />
  <path
     style="fill:#088408;fill-opacity:1;stroke:none;stroke-width:0.513687px;stroke-linecap:butt;stroke-linejoin:miter;stroke-opacity:1"
     d="M 9.1185924,27.927341 C 9.2223571,22.185502 10.652935,19.314582 10.652935,19.314582 H 11.1125 c 0,0 -1.4305776,2.87092 -1.5343427,8.612759 -1e-7,-2e-6 -0.4595649,0 -0.4595649,0 z" />
  <path
     style="fill:#088408;fill-opacity:1;stroke:none;stroke-width:0.264583px;stroke-linecap:butt;stroke-linejoin:miter;stroke-opacity:1"
     d="m 11.112515,28.310414 c 0.442667,-0.255574 0.193684,-0.722856 0.814117,-1.078989 0.02182,-0.01273 0.04354,-0.02727 0.06697,-0.04074 0.687405,-0.396872 1.410263,-0.203186 1.410263,-0.203186 0,0 -0.193685,0.722856 -0.881097,1.119729 -0.687411,0.396875 -0.951995,-0.0614 -1.410268,0.203187 z" />
  <path
     style="fill:#088408;fill-opacity:1;stroke:none;stroke-width:0.264583px;stroke-linecap:butt;stroke-linejoin:miter;stroke-opacity:1"
     d="m 9.676351,24.251833 c 0.32856,-0.391563 -0.06523,-0.745503 0.395984,-1.292364 0.01615,-0.01943 0.03167,-0.04045 0.04903,-0.0612 0.510211,-0.608046 1.255718,-0.673271 1.255718,-0.673271 0,0 0.06523,0.745503 -0.444989,1.353551 -0.510214,0.608048 -0.91558,0.267903 -1.255721,0.673273 z" />
  <path
     style="fill:#088408;fill-opacity:1;stroke:none;stroke-width:0.264583px;stroke-linecap:butt;stroke-linejoin:miter;stroke-opacity:1"
     d="m 9.2604164,27.516665 c -0.5033838,0.08876 -0.4292359,0.613018 -1.13406,0.735468 -0.024912,0.0043 -0.050244,0.01073 -0.076871,0.01538 -0.7816921,0.137832 -1.394708,-0.291406 -1.394708,-0.291406 0,0 0.4292359,-0.613017 1.2109289,-0.750849 0.7816912,-0.137834 0.87358,0.383293 1.3947073,0.291405 z" />
  <path
     style="fill:#088408;fill-opacity:1;stroke:none;stroke-width:0.264583px;stroke-linecap:butt;stroke-linejoin:miter;stroke-opacity:1"
     d="M 10.167379,22.399739 C 9.8388195,22.008176 9.4218719,22.334519 8.9634146,21.785348 8.9472036,21.765958 8.9290316,21.747168 8.9116556,21.726468 8.4014434,21.11842 8.4666663,20.372913 8.4666663,20.372913 c 0,0 0.7455062,0.06522 1.2557181,0.673272 0.5102136,0.608047 0.104848,0.948189 0.4449896,1.353555 z" />
  <circle
     style="fill:#ffd42a;fill-opacity:1;stroke:none;stroke-width:0.799999;stroke-linecap:round;stroke-linejoin:miter;stroke-miterlimit:4;stroke-dasharray:none;stroke-dashoffset:0;stroke-opacity:1;paint-order:markers fill stroke"
     cx="7.5406251"
     cy="24.738541"
     r="0.92604166" />
  <circle
     style="fill:#ffd42a;fill-opacity:1;stroke:none;stroke-width:0.799999;stroke-linecap:round;stroke-linejoin:miter;stroke-miterlimit:4;stroke-dasharray:none;stroke-dashoffset:0;stroke-opacity:1;paint-order:markers fill stroke"
     cx="12.038542"
     cy="24.738539"
     r="0.92604166" />
  <circle
     style="fill:#ffd42a;fill-opacity:1;stroke:none;stroke-width:0.799999;stroke-linecap:round;stroke-linejoin:miter;stroke-miterlimit:4;stroke-dasharray:none;stroke-dashoffset:0;stroke-opacity:1;paint-order:markers fill stroke"
     cx="10.751263"
     cy="19.103613"
     r="0.92604166" />
  <ellipse
     style="fill:#aa0000;fill-opacity:1;stroke:none;stroke-width:0.940151;stroke-linecap:round;stroke-linejoin:miter;stroke-miterlimit:4;stroke-dasharray:none;stroke-dashoffset:0;stroke-opacity:1;paint-order:markers fill stroke"
     cx="-26.323978"
     cy="27.836922"
     rx="0.71559173"
     ry="1.273313"
     transform="scale(-1,1)" />
  <path
     style="fill:#088408;fill-opacity:1;stroke:none;stroke-width:0.603679px;stroke-linecap:butt;stroke-linejoin:miter;stroke-opacity:1"
     d="m 27.619331,32.949066 c 0,-7.330006 -1.491527,-10.995011 -1.491527,-10.995011 h -0.497175 c 0,0 1.491527,3.665005 1.491527,10.995011 1e-6,-3e-6 0.497175,0 0.497175,0 z" />
  <ellipse
     style="fill:#aa0000;fill-opacity:1;stroke:none;stroke-width:0.940151;stroke-linecap:round;stroke-linejoin:miter;stroke-miterlimit:4;stroke-dasharray:none;stroke-dashoffset:0;stroke-opacity:1;paint-order:markers fill stroke"
     cx="-29.586021"
     cy="27.54484"
     rx="0.71559173"
     ry="1.273313"
     transform="scale(-1,1)" />
  <path
     style="fill:#088408;fill-opacity:1;stroke:none;stroke-width:0.603679px;stroke-linecap:butt;stroke-linejoin:miter;stroke-opacity:1"
     d="m 27.141627,32.745938 c 1.377722,-7.042949 3.499701,-9.955062 3.499701,-9.955062 l 0.477704,0.203126 c 0,0 -2.121977,2.91211 -3.4997,9.955061 0,-2e-6 -0.477705,-0.203125 -0.477705,-0.203125 z" />
  <ellipse
     style="fill:#aa0000;fill-opacity:1;stroke:none;stroke-width:0.940151;stroke-linecap:round;stroke-linejoin:miter;stroke-miterlimit:4;stroke-dasharray:none;stroke-dashoffset:0;stroke-opacity:1;paint-order:markers fill stroke"
     cx="-28.076653"
     cy="22.777187"
     rx="0.71559173"
     ry="1.273313"
     transform="scale(-1,1)" />
  <path
     style="fill:#088408;fill-opacity:1;stroke:none;stroke-width:0.603679px;stroke-linecap:butt;stroke-linejoin:miter;stroke-opacity:1"
     d="M 29.257597,26.718015 C 29.14534,19.388008 27.597684,15.723004 27.597684,15.723004 h -0.497176 c 0,0 1.547656,3.665004 1.659913,10.995011 0,-2e-6 0.497176,0 0.497176,0 z" />
  <path
     style="fill:#088408;fill-opacity:1;stroke:none;stroke-width:0.310935px;stroke-linecap:butt;stroke-linejoin:miter;stroke-opacity:1"
     d="m 27.100492,27.207043 c -0.478895,-0.326263 -0.209535,-0.922793 -0.880744,-1.377431 -0.02361,-0.01625 -0.0471,-0.03481 -0.07245,-0.05201 -0.743662,-0.506645 -1.525678,-0.259386 -1.525678,-0.259386 0,0 0.209536,0.922795 0.953206,1.429441 0.743668,0.506648 1.029905,-0.07838 1.525683,0.259386 z" />
  <path
     style="fill:#088408;fill-opacity:1;stroke:none;stroke-width:0.310935px;stroke-linecap:butt;stroke-linejoin:miter;stroke-opacity:1"
     d="m 28.654191,22.025877 c -0.355449,-0.499867 0.07057,-0.951706 -0.428391,-1.649826 -0.01747,-0.0248 -0.03426,-0.05164 -0.05304,-0.07813 -0.551966,-0.776228 -1.358485,-0.859494 -1.358485,-0.859494 0,0 -0.07057,0.951705 0.481407,1.727937 0.551969,0.776231 0.99051,0.342004 1.358488,0.859497 z" />
  <path
     style="fill:#088408;fill-opacity:1;stroke:none;stroke-width:0.310935px;stroke-linecap:butt;stroke-linejoin:miter;stroke-opacity:1"
     d="m 29.104166,26.193748 c 0.54458,0.113311 0.464364,0.782576 1.226871,0.938894 0.02695,0.0055 0.05435,0.0137 0.08316,0.01963 0.845665,0.175957 1.50885,-0.372006 1.50885,-0.372006 0,0 -0.464364,-0.782575 -1.310031,-0.958531 -0.845664,-0.175958 -0.945073,0.48931 -1.50885,0.372006 z" />
  <path
     style="fill:#088408;fill-opacity:1;stroke:none;stroke-width:0.310935px;stroke-linecap:butt;stroke-linejoin:miter;stroke-opacity:1"
     d="m 28.122977,19.661502 c 0.355449,-0.499867 0.806519,-0.08326 1.302496,-0.784329 0.01754,-0.02475 0.03719,-0.04874 0.056,-0.07517 0.551969,-0.776231 0.481408,-1.727942 0.481408,-1.727942 0,0 -0.806518,0.08326 -1.358485,0.859496 -0.55197,0.77623 -0.113429,1.210454 -0.481408,1.727942 z" />
  <ellipse
     style="fill:#ffd42a;fill-opacity:1;stroke:none;stroke-width:0.940151;stroke-linecap:round;stroke-linejoin:miter;stroke-miterlimit:4;stroke-dasharray:none;stroke-dashoffset:0;stroke-opacity:1;paint-order:markers fill stroke"
     cx="-30.964705"
     cy="22.647207"
     transform="scale(-1,1)"
     rx="1.0018284"
     ry="1.1821808" />
  <ellipse
     style="fill:#ffd42a;fill-opacity:1;stroke:none;stroke-width:0.940151;stroke-linecap:round;stroke-linejoin:miter;stroke-miterlimit:4;stroke-dasharray:none;stroke-dashoffset:0;stroke-opacity:1;paint-order:markers fill stroke"
     cx="-26.09868"
     cy="22.647207"
     transform="scale(-1,1)"
     rx="1.0018284"
     ry="1.1821808" />
  <ellipse
     style="fill:#ffd42a;fill-opacity:1;stroke:none;stroke-width:0.940151;stroke-linecap:round;stroke-linejoin:miter;stroke-miterlimit:4;stroke-dasharray:none;stroke-dashoffset:0;stroke-opacity:1;paint-order:markers fill stroke"
     cx="-27.491308"
     cy="15.453684"
     transform="scale(-1,1)"
     rx="1.0018284"
     ry="1.1821808" />
  <path
     style="fill:#808080;stroke:none;stroke-width:0.264583px;stroke-linecap:butt;stroke-linejoin:miter;stroke-opacity:1"
     d="m 18.256249,32.808332 2.645834,0.529166 -1.322916,2.645834 -2.645833,-0.79375 -0.79375,-1.322917" />
  <path
     style="fill:#808080;stroke:none;stroke-width:0.264583px;stroke-linecap:butt;stroke-linejoin:miter;stroke-opacity:1"
     d="m 13.49375,34.924999 2.645833,1.058333 -0.79375,1.852083 -3.439583,-0.529166 v -1.5875" />
  <ellipse
     style="fill:#616161;fill-opacity:1;stroke:none;stroke-width:0.755529;stroke-linecap:round;stroke-linejoin:miter;stroke-miterlimit:4;stroke-dasharray:none;stroke-dashoffset:0;stroke-opacity:1;paint-order:markers fill stroke"
     cx="20.594643"
     cy="21.280716"
     rx="0.30743906"
     ry="0.64321613" />
</svg>
