<?xml version="1.0" encoding="UTF-8" standalone="no"?>
<svg
   xmlns:dc="http://purl.org/dc/elements/1.1/"
   xmlns:cc="http://creativecommons.org/ns#"
   xmlns:rdf="http://www.w3.org/1999/02/22-rdf-syntax-ns#"
   xmlns:svg="http://www.w3.org/2000/svg"
   xmlns="http://www.w3.org/2000/svg"
   width="40mm"
   height="40mm"
   viewBox="0 0 40 40"
   version="1.1"
   id="svg3150">
  <defs
     id="defs38" />
  <g
     id="layer1"
     transform="translate(0,-257)">
    <path
       style="fill:#e6e6e6;stroke:none;stroke-width:0.26458332px;stroke-linecap:butt;stroke-linejoin:miter;stroke-opacity:1"
       d="M 30.691666,288.00416 H 28.045833 L 25.4,289.32708 l 2.38125,2.38125 4.233333,0.26458 2.38125,-2.91042 z"
       id="path871" />
    <path
       style="fill:#e6e6e6;stroke:none;stroke-width:0.26458332px;stroke-linecap:butt;stroke-linejoin:miter;stroke-opacity:1"
       d="M 10.583333,287.73958 H 3.9687501 l -1.3229167,1.32292 2.6458334,2.64583 3.9687499,1.32292 h 6.6145823 l 3.96875,-3.96875 z"
       id="path843" />
    <path
       style="fill:#666666;fill-opacity:0.9766355;stroke:none;stroke-width:0.02920499"
       d="m 13.139188,285.56614 c 1.66508,-1.99611 3.146197,-3.59083 3.156553,-3.59083 0.01629,0 7.457442,4.74435 7.781342,4.97052 l 1.736979,1.15267 -3.868822,0.77304 -3.494303,0.5999 -4.094427,0.001 -4.3860413,-0.10776 z"
       id="path823" />
    <path
       style="fill:#808080;fill-opacity:0.9766355;stroke:none;stroke-width:0.02920499"
       d="m 4.8604948,283.0314 c 0,-0.081 1.132132,-8.33284 1.160484,-8.49139 l 0.015702,-0.0878 0.1246052,0.0856 c 0.2829636,0.19445 8.348876,5.77093 9.110041,6.32794 0.45419,0.33237 1.057982,1.15044 1.036579,1.15504 -0.0214,0.005 -1.750716,0.2035 -3.29848,0.37058 -1.547763,0.16709 -4.0317183,0.27332 -5.470998,0.43149 -1.4392791,0.15817 -2.6141063,0.20844 -2.6308981,0.20844 -0.016792,0 -0.047035,0.0436 -0.047035,8e-5 z"
       id="path829" />
    <path
       style="fill:#333333;fill-opacity:0.9766355;stroke:none;stroke-width:0.02920499"
       d="m 7.4890297,286.40622 c -1.3637529,-1.63537 -2.9209177,-3.75751 -2.5885111,-3.37246 0.023904,-0.0274 11.3223834,-1.02866 11.4073874,-1.01295 0.04058,0.007 -1.126536,1.09571 -3.378503,3.80142 l -2.9608223,3.55738 z"
       id="path831" />
    <path
       style="fill:#999999;fill-opacity:0.9766355;stroke:none;stroke-width:0.02920499"
       d="m 21.049737,285.24409 c -2.49679,-1.66315 -4.733924,-3.2138 -4.741831,-3.22328 -0.0079,-0.009 2.231902,-1.396 5.012379,-2.72923 2.780476,-1.33322 5.333612,-2.59523 5.338769,-2.58875 0.0091,0.0114 -0.826586,11.30583 -0.844992,11.39568 -0.0062,0.0303 -1.675878,-0.79717 -4.764325,-2.85442 z"
       id="path833" />
    <path
       style="fill:#cccccc;fill-opacity:0.9766355;stroke:none;stroke-width:0.02920499"
       d="m 11.132263,278.13774 c -2.7929283,-2.01077 -5.0881827,-3.6681 -5.1005646,-3.68294 -0.012381,-0.0148 1.3484848,-0.84861 3.0241483,-1.85282 l 3.2383493,-1.97684 3.656046,1.06309 c 1.998143,0.58102 3.580995,1.21571 3.580995,1.23508 0,0.0664 -3.196712,9.08974 -3.223331,9.0975 -0.01463,0.004 -2.382715,-1.87229 -5.175643,-3.88307 z"
       id="path835" />
    <path
       style="fill:#b3b3b3;fill-opacity:0.9766355;stroke:none;stroke-width:0.02920499"
       d="m 16.307906,282.02081 c 0.109304,-0.32505 3.154594,-9.35044 3.168719,-9.36978 0.01073,-0.0147 2.089584,1.14241 4.01374,2.13097 1.924155,0.98857 3.286797,1.9208 3.168689,1.92083 -0.0124,0.0143 -10.294491,5.29921 -10.351148,5.31798 -0.0366,0.0121 -0.01085,0.0323 0,0 z"
       id="path837" />
    <path
       style="fill:#cccccc;fill-opacity:0.9766355;stroke:none;stroke-width:0.02920499"
       d="m 23.138892,274.6854 c -1.853244,-0.95418 -3.406203,-1.75569 -3.451019,-1.78113 l -0.316023,-0.004 2.605259,-2.62317 c 2.226285,-2.24159 2.763391,-2.25035 2.780713,-2.18481 0.01046,0.0395 0.405947,2.2089 0.935279,4.43363 0.529335,2.22474 0.968716,4.07015 0.976405,4.10093 0.0085,0.0341 2.11e-4,0.0547 -0.02116,0.0528 -0.01933,-0.002 -1.656206,-1.04058 -3.509453,-1.99476 z"
       id="path839" />
    <path
       style="fill:#e6e6e6;fill-opacity:0.9766355;stroke:none;stroke-width:0.08741734;stroke-miterlimit:4;stroke-dasharray:none;stroke-opacity:1"
       d="m 15.869283,271.77535 c -1.962727,-0.67268 -3.567782,-1.14146 -3.575087,-1.15021 -0.0096,-0.0115 3.74519,-5.19844 3.786322,-5.25038 0.0092,-0.0116 8.654876,2.69381 8.677304,2.718 0.0158,0.017 -5.175619,4.80684 -5.290479,4.88548 0.0093,-0.074 -1.635333,-0.5302 -3.59806,-1.20289 z"
       id="path841" />
    <path
       style="fill:#cccccc;fill-opacity:0.9766355;stroke:none;stroke-width:0.00892857;stroke-miterlimit:4;stroke-dasharray:none;stroke-opacity:1"
       d="M 32.510773,288.5134 C 32.189865,287.55048 31.5673,286.07547 31.75,286.41667 c -0.1827,-0.3412 0.538753,-0.2146 1.191911,-0.54101 1.149014,-0.57421 1.170141,-0.56903 1.189339,-0.51732 0.0109,0.0294 0.31604,0.59917 0.431406,0.94686 l 0.09776,0.64064 -0.714573,1.64676 c -0.454613,0.91038 -0.866043,1.78833 -0.872927,1.79282 -0.0069,0.005 -0.241237,-0.9091 -0.562143,-1.87202 z"
       id="path855" />
    <path
       style="fill:#e6e6e6;fill-opacity:0.9766355;stroke:none;stroke-width:0.00892857;stroke-miterlimit:4;stroke-dasharray:none;stroke-opacity:1"
       d="m 29.930101,285.29345 c -1.000456,-0.66827 -1.616416,-1.24824 -1.619684,-1.25803 -0.0033,-0.01 0.312031,-0.25415 0.951537,-0.57383 l 1.162738,-0.58122 1.842436,1.22844 1.842434,1.22844 -1.168413,0.58592 c -0.642628,0.32225 -1.184653,0.49366 -1.191149,0.4935 -0.0065,-1.6e-4 -0.819443,-0.45495 -1.819899,-1.12322 z"
       id="path859" />
    <path
       style="fill:#999999;fill-opacity:0.9766355;stroke:none;stroke-width:0.00892857;stroke-miterlimit:4;stroke-dasharray:none;stroke-opacity:1"
       d="m 26.705492,287.77519 c 0,-0.007 0.08575,-0.27363 0.190545,-0.59209 0.104798,-0.31846 0.19418,-0.59715 0.198622,-0.61932 0.0131,-0.0654 0.87498,-2.08377 0.909566,-2.16121 0.01741,-0.039 0.06083,-0.16123 0.0965,-0.27167 0.03567,-0.11044 0.201208,-0.086 0.209693,-0.0955 0.02088,-0.0233 0.577485,0.29574 2.116667,1.32292 1.058269,0.70624 1.361373,1.04228 1.322916,1.05833 -0.04166,0.0174 -2.535367,0.75925 -2.682155,0.78922 -0.05561,0.0113 -0.100864,0.022 -0.212614,0.0499 l -0.09449,0.0236 -0.09449,0.0236 -0.09449,0.0236 -0.0945,0.0236 -0.09449,0.0236 -0.09449,0.0236 -0.0945,0.0236 -0.09449,0.0236 -0.09449,0.0236 -0.09449,0.0236 -0.0945,0.0236 -0.09449,0.0236 -0.09449,0.0236 -0.0945,0.0236 -0.09449,0.0236 -0.09449,0.0236 -0.09449,0.0236 -0.0945,0.0236 -0.09449,0.0236 -0.09449,0.0236 c -0.215397,0.0538 -0.25986,0.0619 -0.25986,0.0469 z"
       id="path861" />
    <path
       style="fill:#666666;fill-opacity:0.9766355;stroke:none;stroke-width:0.00892857;stroke-miterlimit:4;stroke-dasharray:none;stroke-opacity:1"
       d="m 27.913815,289.24371 -1.190898,-1.50412 2.38125,-0.79375 c 1.277588,-0.31941 2.641465,-0.53354 2.645833,-0.52917 0.0075,0.008 -2.321369,4.05193 -2.333879,4.05193 -0.0033,0 -0.861192,-0.58368 -1.502306,-1.22489 z"
       id="path863" />
    <path
       style="fill:#333333;fill-opacity:0.9766355;stroke:none;stroke-width:0.00892857;stroke-miterlimit:4;stroke-dasharray:none;stroke-opacity:1"
       d="m 30.427084,288.53334 c 0.638437,-0.95823 1.10577,-1.91844 1.322916,-2.11667 0.0034,-0.004 0.511855,1.13776 0.826953,2.0838 0.315097,0.94605 0.48999,1.86871 0.495964,1.88495 0.0086,0.0235 -0.556739,0.11862 -1.947381,0.11862 h -1.750748 z"
       id="path865" />
    <path
       style="fill:#999999;fill-opacity:0.9766355;stroke:none;stroke-width:0.00892857;stroke-miterlimit:4;stroke-dasharray:none;stroke-opacity:1"
       d="m 33.072917,290.38542 c 7.94e-4,-0.01 0.351806,-0.87879 0.759166,-1.69085 0.44286,-0.88282 0.81992,-1.76992 0.828334,-1.74873 0.01762,0.0444 0.880269,2.29139 0.880269,2.29986 0,0.003 -0.478375,0.24543 -1.063059,0.53782 -0.584682,0.2924 -1.218491,0.68994 -1.40471,0.6019 z"
       id="path869" />
    <g
       id="particles"
       style="fill:#ffcc00">
      <path
         id="path877"
         d="m 9.525,275.03958 0.79375,-0.52916 0.529167,0.52916 -0.529167,0.79375 H 9.2604166 L 9.525,275.03958"
         style="fill:#ffcc00;stroke:none;stroke-width:0.26458332px;stroke-linecap:butt;stroke-linejoin:miter;stroke-opacity:1" />
      <path
         id="path877-9"
         d="M 8.466666,285.09375 V 284.3 l 0.429217,-0.61302 0.873582,0.3833 0.183773,1.04225 -0.692822,0.77497"
         style="fill:#ffcc00;stroke:none;stroke-width:0.26458332px;stroke-linecap:butt;stroke-linejoin:miter;stroke-opacity:1" />
      <path
         id="path877-8"
         d="m 17.4625,279.27292 0.273002,-0.6259 0.785331,0.36131 0.529167,0.79375 -0.697999,0.42292 -0.889501,-0.15833"
         style="fill:#ffcc00;stroke:none;stroke-width:0.26458332px;stroke-linecap:butt;stroke-linejoin:miter;stroke-opacity:1" />
      <path
         id="path877-92"
         d="m 25.135417,286.41667 -1.058334,0.26458 -0.678243,-0.31625 0.467483,-1.40024 0.994501,-0.36197 L 25.4,285.8875"
         style="fill:#ffcc00;stroke:none;stroke-width:0.26458332px;stroke-linecap:butt;stroke-linejoin:miter;stroke-opacity:1" />
      <path
         id="path877-3"
         d="m 24.341667,276.3625 0.79375,-0.52916 0.529167,0.52916 -0.529167,0.79375 h -1.058334 l 0.264584,-0.79375"
         style="fill:#ffcc00;stroke:none;stroke-width:0.26458332px;stroke-linecap:butt;stroke-linejoin:miter;stroke-opacity:1" />
      <path
         id="path877-0"
         d="M 11.90625,287.73958 12.7,287.21042 13.229167,287.73958 12.7,288.53333 h -1.058334 l 0.264584,-0.79375"
         style="fill:#ffcc00;stroke:none;stroke-width:0.26458332px;stroke-linecap:butt;stroke-linejoin:miter;stroke-opacity:1" />
      <path
         id="path877-7"
         d="m 14.022917,284.82917 0.529166,0.26459 0.529167,0.52916 -0.529167,0.79375 H 13.49375 l -0.264583,-0.79375"
         style="fill:#ffcc00;stroke:none;stroke-width:0.26458332px;stroke-linecap:butt;stroke-linejoin:miter;stroke-opacity:1" />
      <path
         id="path877-5"
         d="M 15.08125,286.68125 H 15.875 l 0.264583,0.79375 -0.529166,0.79375 -0.79375,-0.52917 v -0.79375"
         style="fill:#ffcc00;stroke:none;stroke-width:0.26458332px;stroke-linecap:butt;stroke-linejoin:miter;stroke-opacity:1" />
      <path
         id="path877-38"
         d="m 11.1125,280.33125 1.322916,-0.26458 0.529167,0.52916 v 1.05834 H 11.1125 l -0.529167,-0.79375"
         style="fill:#ffcc00;stroke:none;stroke-width:0.26458332px;stroke-linecap:butt;stroke-linejoin:miter;stroke-opacity:1" />
      <path
         id="path877-6"
         d="m 9.789583,286.15208 h 0.79375 l 0.529167,0.79375 -0.529167,0.79375 H 9.525 l -0.264584,-1.05833"
         style="fill:#ffcc00;stroke:none;stroke-width:0.26458332px;stroke-linecap:butt;stroke-linejoin:miter;stroke-opacity:1" />
      <path
         id="path877-2"
         d="m 33.3375,286.15208 0.529167,-0.26457 0.529167,0.52916 -0.529167,0.79375 h -1.058333 l -0.264584,-0.79375"
         style="fill:#ffcc00;stroke:none;stroke-width:0.26458332px;stroke-linecap:butt;stroke-linejoin:miter;stroke-opacity:1" />
      <path
         id="path877-76"
         d="m 28.045833,285.35833 0.79375,-0.26457 0.529167,0.52916 -0.529167,0.79375 -1.058333,0.26458 v -0.79375"
         style="fill:#ffcc00;stroke:none;stroke-width:0.26458332px;stroke-linecap:butt;stroke-linejoin:miter;stroke-opacity:1" />
      <path
         id="path877-50"
         d="m 30.95625,289.59167 0.79375,-0.52916 0.529167,0.52916 -0.264584,0.52916 -1.322917,0.26459 0.264584,-0.79375"
         style="fill:#ffcc00;stroke:none;stroke-width:0.26458332px;stroke-linecap:butt;stroke-linejoin:miter;stroke-opacity:1" />
    </g>
    <path
       style="fill:#666666;stroke:none;stroke-width:0.26458332px;stroke-linecap:butt;stroke-linejoin:miter;stroke-opacity:1"
       d="m 6.0366806,274.45221 c 4.1051574,-3.2878 7.9734544,-5.73329 10.0627424,-9.08409 l -2.387816,5.61137 z"
       id="path1018" />
  </g>
</svg>
