<?xml version="1.0" encoding="UTF-8" standalone="no"?>
<svg
   xmlns:dc="http://purl.org/dc/elements/1.1/"
   xmlns:cc="http://creativecommons.org/ns#"
   xmlns:rdf="http://www.w3.org/1999/02/22-rdf-syntax-ns#"
   xmlns:svg="http://www.w3.org/2000/svg"
   xmlns="http://www.w3.org/2000/svg"
   width="40mm"
   height="40mm"
   viewBox="0 0 40 40"
   version="1.1"
   id="svg3150">
  <defs
     id="defs19" />
  <metadata
     id="metadata3147">
    <rdf:RDF>
      <cc:Work
         rdf:about="">
        <dc:format>image/svg+xml</dc:format>
        <dc:type
           rdf:resource="http://purl.org/dc/dcmitype/StillImage" />
        <dc:title />
      </cc:Work>
    </rdf:RDF>
  </metadata>
  <rect
     style="fill:#550000;fill-opacity:1;stroke:none;stroke-width:0.26499999;stroke-linecap:butt;stroke-linejoin:round;stroke-miterlimit:4;stroke-dasharray:none;stroke-dashoffset:0;stroke-opacity:1;paint-order:markers stroke fill"
     id="rect853"
     width="9.260417"
     height="3.96875"
     x="2.3812504"
     y="33.385414" />
  <rect
     style="fill:#550000;fill-opacity:1;stroke:none;stroke-width:0.26499999;stroke-linecap:butt;stroke-linejoin:round;stroke-miterlimit:4;stroke-dasharray:none;stroke-dashoffset:0;stroke-opacity:1;paint-order:markers stroke fill"
     id="rect853-1"
     width="9.260417"
     height="3.9687502"
     x="12.435417"
     y="33.385414" />
  <rect
     style="fill:#550000;fill-opacity:1;stroke:none;stroke-width:0.26499999;stroke-linecap:butt;stroke-linejoin:round;stroke-miterlimit:4;stroke-dasharray:none;stroke-dashoffset:0;stroke-opacity:1;paint-order:markers stroke fill"
     id="rect853-9"
     width="9.260417"
     height="3.9687502"
     x="22.489582"
     y="33.385414" />
  <rect
     style="fill:#550000;fill-opacity:1;stroke:none;stroke-width:0.17917268;stroke-linecap:butt;stroke-linejoin:round;stroke-miterlimit:4;stroke-dasharray:none;stroke-dashoffset:0;stroke-opacity:1;paint-order:markers stroke fill"
     id="rect853-7"
     width="4.2333326"
     height="3.9687502"
     x="2.3812504"
     y="28.622915" />
  <rect
     style="fill:#550000;fill-opacity:1;stroke:none;stroke-width:0.26499999;stroke-linecap:butt;stroke-linejoin:round;stroke-miterlimit:4;stroke-dasharray:none;stroke-dashoffset:0;stroke-opacity:1;paint-order:markers stroke fill"
     id="rect853-1-9"
     width="9.260417"
     height="3.9687505"
     x="7.4083333"
     y="28.622917" />
  <rect
     style="fill:#550000;fill-opacity:1;stroke:none;stroke-width:0.26499999;stroke-linecap:butt;stroke-linejoin:round;stroke-miterlimit:4;stroke-dasharray:none;stroke-dashoffset:0;stroke-opacity:1;paint-order:markers stroke fill"
     id="rect853-9-1"
     width="9.260417"
     height="3.9687505"
     x="17.4625"
     y="28.622917" />
  <rect
     style="fill:#550000;fill-opacity:1;stroke:none;stroke-width:0.26499999;stroke-linecap:butt;stroke-linejoin:round;stroke-miterlimit:4;stroke-dasharray:none;stroke-dashoffset:0;stroke-opacity:1;paint-order:markers stroke fill"
     id="rect853-1-9-9"
     width="9.260417"
     height="3.9687505"
     x="2.3812504"
     y="23.860415" />
  <rect
     style="fill:#550000;fill-opacity:1;stroke:none;stroke-width:0.26499999;stroke-linecap:butt;stroke-linejoin:round;stroke-miterlimit:4;stroke-dasharray:none;stroke-dashoffset:0;stroke-opacity:1;paint-order:markers stroke fill"
     id="rect853-9-1-2"
     width="9.260417"
     height="3.9687505"
     x="12.435417"
     y="23.860415" />
  <rect
     style="fill:#550000;fill-opacity:1;stroke:none;stroke-width:0.17917268;stroke-linecap:butt;stroke-linejoin:round;stroke-miterlimit:4;stroke-dasharray:none;stroke-dashoffset:0;stroke-opacity:1;paint-order:markers stroke fill"
     id="rect853-7-2"
     width="4.2333326"
     height="3.9687505"
     x="2.3812504"
     y="19.097916" />
  <rect
     style="fill:#550000;fill-opacity:1;stroke:none;stroke-width:0.26499999;stroke-linecap:butt;stroke-linejoin:round;stroke-miterlimit:4;stroke-dasharray:none;stroke-dashoffset:0;stroke-opacity:1;paint-order:markers stroke fill"
     id="rect853-1-9-1"
     width="9.260417"
     height="3.9687505"
     x="7.4083333"
     y="19.097918" />
  <path
     style="fill:#4d4d4d;fill-opacity:1;stroke:none;stroke-width:0.19402777px;stroke-linecap:butt;stroke-linejoin:miter;stroke-opacity:1"
     d="M 24.441023,3.2614754 C 20.820416,5.6519955 19.365208,8.1724896 18.395069,9.8528194 17.424929,11.53315 16.984885,13.07144 16.984885,13.07144 l -0.679097,1.176231 -0.672133,-0.388054 c -0.504098,-0.291043 -0.989167,0.549122 -0.485069,0.840165 l 2.352462,1.358193 c 0.504099,0.291043 0.989168,-0.549121 0.485069,-0.840164 l -0.672132,-0.388056 0.679097,-1.17623 2.14637,-1.001232 c 0.161688,-0.280055 1.271655,-2.202569 0.388056,-0.672133 l 4.271843,2.690394 0.97014,-1.68033 -4.465872,-2.354327 0.388057,-0.6721347 c 0,0 -0.982205,-1.0151601 0.473005,-3.5356568 1.455207,-2.5204943 2.276342,-3.1666301 2.276342,-3.1666301 z"
     id="path933" />
  <path
     style="fill:#1c781c;fill-opacity:1;stroke:none;stroke-width:0.2352902px;stroke-linecap:butt;stroke-linejoin:miter;stroke-opacity:1"
     d="m 25.769491,12.990224 c 0.291041,-0.504099 0.291041,-0.504099 1.032344,-0.07611 0.741303,0.427993 6.424625,3.70926 7.660128,4.422578 1.235505,0.713321 1.235505,0.713321 0.944464,1.217419 -0.291041,0.504098 -0.679096,1.17623 -0.970138,1.680329 -0.291042,0.5041 -0.291042,0.5041 -1.526547,-0.20922 -1.235505,-0.713316 -6.918825,-3.994585 -7.66013,-4.422578 -0.741302,-0.427989 -0.741302,-0.427989 -0.450258,-0.932091"
     id="path935" />
  <path
     style="fill:#104910;fill-opacity:1;stroke:none;stroke-width:0.1077597px;stroke-linecap:butt;stroke-linejoin:miter;stroke-opacity:1"
     d="m 25.359297,14.476812 c 0.06716,-0.11633 0.06716,-0.11633 0.740955,0.272665 0.673788,0.389014 5.839485,3.371431 6.962462,4.019784 1.122979,0.648349 1.122979,0.648349 1.05582,0.764677 -0.06717,0.116328 -0.15672,0.271435 -0.22388,0.387767 -0.06716,0.116336 -0.06716,0.116336 -1.190142,-0.532016 -1.122979,-0.648346 -6.288677,-3.630762 -6.962466,-4.019774 -0.673792,-0.389002 -0.673792,-0.389002 -0.60663,-0.505332"
     id="path935-5" />
</svg>
