<?xml version="1.0" encoding="UTF-8" standalone="no"?>
<svg
   xmlns:dc="http://purl.org/dc/elements/1.1/"
   xmlns:cc="http://creativecommons.org/ns#"
   xmlns:rdf="http://www.w3.org/1999/02/22-rdf-syntax-ns#"
   xmlns:svg="http://www.w3.org/2000/svg"
   xmlns="http://www.w3.org/2000/svg"
   xmlns:xlink="http://www.w3.org/1999/xlink"
   xmlns:sodipodi="http://sodipodi.sourceforge.net/DTD/sodipodi-0.dtd"
   xmlns:inkscape="http://www.inkscape.org/namespaces/inkscape"
   version="1.0"
   width="1600.000000pt"
   height="1600.000000pt"
   viewBox="0 0 1600.000000 1600.000000"
   preserveAspectRatio="xMidYMid meet"
   id="svg48"
   sodipodi:docname="serviceAssistant.svg"
   inkscape:version="0.92.2 (5c3e80d, 2017-08-06)">
  <defs
     id="defs52">
    <inkscape:path-effect
       effect="bspline"
       id="path-effect4013"
       is_visible="true"
       weight="33.333333"
       steps="2"
       helper_size="0"
       apply_no_weight="true"
       apply_with_weight="true"
       only_selected="false" />
    <inkscape:path-effect
       effect="bspline"
       id="path-effect4009"
       is_visible="true"
       weight="33.333333"
       steps="2"
       helper_size="0"
       apply_no_weight="true"
       apply_with_weight="true"
       only_selected="false" />
    <inkscape:path-effect
       effect="bspline"
       id="path-effect4005"
       is_visible="true"
       weight="33.333333"
       steps="2"
       helper_size="0"
       apply_no_weight="true"
       apply_with_weight="true"
       only_selected="false" />
    <inkscape:path-effect
       effect="bspline"
       id="path-effect4001"
       is_visible="true"
       weight="33.333333"
       steps="2"
       helper_size="0"
       apply_no_weight="true"
       apply_with_weight="true"
       only_selected="false" />
    <inkscape:path-effect
       effect="bspline"
       id="path-effect3993"
       is_visible="true"
       weight="33.333333"
       steps="2"
       helper_size="0"
       apply_no_weight="true"
       apply_with_weight="true"
       only_selected="false" />
    <inkscape:path-effect
       effect="bspline"
       id="path-effect3908"
       is_visible="true"
       weight="33.333333"
       steps="2"
       helper_size="0"
       apply_no_weight="true"
       apply_with_weight="true"
       only_selected="false" />
    <inkscape:path-effect
       effect="bspline"
       id="path-effect3904"
       is_visible="true"
       weight="33.333333"
       steps="2"
       helper_size="0"
       apply_no_weight="true"
       apply_with_weight="true"
       only_selected="false" />
    <inkscape:path-effect
       effect="bspline"
       id="path-effect3900"
       is_visible="true"
       weight="33.333333"
       steps="2"
       helper_size="0"
       apply_no_weight="true"
       apply_with_weight="true"
       only_selected="false" />
    <inkscape:path-effect
       effect="bspline"
       id="path-effect3896"
       is_visible="true"
       weight="33.333333"
       steps="2"
       helper_size="0"
       apply_no_weight="true"
       apply_with_weight="true"
       only_selected="false" />
    <inkscape:path-effect
       effect="bspline"
       id="path-effect3892"
       is_visible="true"
       weight="33.333333"
       steps="2"
       helper_size="0"
       apply_no_weight="true"
       apply_with_weight="true"
       only_selected="false" />
    <inkscape:path-effect
       effect="bspline"
       id="path-effect3886"
       is_visible="true"
       weight="33.333333"
       steps="2"
       helper_size="0"
       apply_no_weight="true"
       apply_with_weight="true"
       only_selected="false" />
    <inkscape:path-effect
       effect="bspline"
       id="path-effect3882"
       is_visible="true"
       weight="33.333333"
       steps="2"
       helper_size="0"
       apply_no_weight="true"
       apply_with_weight="true"
       only_selected="false" />
    <linearGradient
       id="linearGradient-1"
       y2="166.87286"
       x2="184.5"
       y1="35.965006"
       x1="184.5"
       gradientTransform="scale(0.77777778,1.2857143)"
       gradientUnits="userSpaceOnUse">
      <stop
         id="stop994"
         offset="0%"
         stop-color="#F7E2A8" />
      <stop
         id="stop996"
         offset="100%"
         stop-color="#F1DDAF" />
    </linearGradient>
    <linearGradient
       id="linearGradient-2"
       y2="178.8911"
       x2="90.915649"
       y1="40.125106"
       x1="90.915649"
       gradientTransform="scale(0.8359397,1.1962585)"
       gradientUnits="userSpaceOnUse">
      <stop
         id="stop999"
         offset="0%"
         stop-color="#F7E2A8" />
      <stop
         id="stop1001"
         offset="100%"
         stop-color="#F1DDAF" />
    </linearGradient>
    <linearGradient
       id="linearGradient-3"
       y2="170.14776"
       x2="91.120799"
       y1="55.047805"
       x1="91.120799"
       gradientTransform="scale(0.83405766,1.1989579)"
       gradientUnits="userSpaceOnUse">
      <stop
         id="stop1004"
         offset="0%"
         stop-color="#F3B011" />
      <stop
         id="stop1006"
         offset="100%"
         stop-color="#F5A711" />
    </linearGradient>
    <linearGradient
       inkscape:collect="always"
       xlink:href="#linearGradient-1"
       id="linearGradient3832"
       gradientUnits="userSpaceOnUse"
       gradientTransform="scale(0.77777778,1.2857143)"
       x1="184.5"
       y1="35.965006"
       x2="184.5"
       y2="166.87286" />
    <linearGradient
       inkscape:collect="always"
       xlink:href="#linearGradient-2"
       id="linearGradient3834"
       gradientUnits="userSpaceOnUse"
       gradientTransform="scale(0.8359397,1.1962585)"
       x1="90.915649"
       y1="40.125106"
       x2="90.915649"
       y2="178.8911" />
    <linearGradient
       inkscape:collect="always"
       xlink:href="#linearGradient-3"
       id="linearGradient3836"
       gradientUnits="userSpaceOnUse"
       gradientTransform="scale(0.83405766,1.1989579)"
       x1="91.120799"
       y1="55.047805"
       x2="91.120799"
       y2="170.14776" />
    <linearGradient
       inkscape:collect="always"
       xlink:href="#linearGradient-1"
       id="linearGradient3870"
       gradientUnits="userSpaceOnUse"
       gradientTransform="scale(0.77777778,1.2857143)"
       x1="184.5"
       y1="35.965006"
       x2="184.5"
       y2="166.87286" />
    <linearGradient
       inkscape:collect="always"
       xlink:href="#linearGradient-2"
       id="linearGradient3872"
       gradientUnits="userSpaceOnUse"
       gradientTransform="scale(0.8359397,1.1962585)"
       x1="90.915649"
       y1="40.125106"
       x2="90.915649"
       y2="178.8911" />
    <linearGradient
       inkscape:collect="always"
       xlink:href="#linearGradient-3"
       id="linearGradient3874"
       gradientUnits="userSpaceOnUse"
       gradientTransform="scale(0.83405766,1.1989579)"
       x1="91.120799"
       y1="55.047805"
       x2="91.120799"
       y2="170.14776" />
    <linearGradient
       id="linearGradient-1-8"
       y2="166.87286"
       x2="184.5"
       y1="35.965006"
       x1="184.5"
       gradientTransform="scale(0.77777778,1.2857143)"
       gradientUnits="userSpaceOnUse">
      <stop
         id="stop3920"
         offset="0%"
         stop-color="#F7E2A8" />
      <stop
         id="stop3922"
         offset="100%"
         stop-color="#F1DDAF" />
    </linearGradient>
    <linearGradient
       id="linearGradient-2-1"
       y2="178.8911"
       x2="90.915649"
       y1="40.125106"
       x1="90.915649"
       gradientTransform="scale(0.8359397,1.1962585)"
       gradientUnits="userSpaceOnUse">
      <stop
         id="stop3925"
         offset="0%"
         stop-color="#F7E2A8" />
      <stop
         id="stop3927"
         offset="100%"
         stop-color="#F1DDAF" />
    </linearGradient>
    <linearGradient
       id="linearGradient-3-1"
       y2="170.14776"
       x2="91.120799"
       y1="55.047805"
       x1="91.120799"
       gradientTransform="scale(0.83405766,1.1989579)"
       gradientUnits="userSpaceOnUse">
      <stop
         id="stop3930"
         offset="0%"
         stop-color="#F3B011" />
      <stop
         id="stop3932"
         offset="100%"
         stop-color="#F5A711" />
    </linearGradient>
  </defs>
  <sodipodi:namedview
     pagecolor="#ffffff"
     bordercolor="#666666"
     borderopacity="1"
     objecttolerance="10"
     gridtolerance="10"
     guidetolerance="10"
     inkscape:pageopacity="0"
     inkscape:pageshadow="2"
     inkscape:window-width="1920"
     inkscape:window-height="1017"
     id="namedview50"
     showgrid="false"
     inkscape:zoom="0.4021875"
     inkscape:cx="856.94169"
     inkscape:cy="1192.9851"
     inkscape:window-x="-8"
     inkscape:window-y="-8"
     inkscape:window-maximized="1"
     inkscape:current-layer="svg48" />
  <metadata
     id="metadata32">
Created by potrace 1.15, written by Peter Selinger 2001-2017
<rdf:RDF>
  <cc:Work
     rdf:about="">
    <dc:format>image/svg+xml</dc:format>
    <dc:type
       rdf:resource="http://purl.org/dc/dcmitype/StillImage" />
    <dc:title />
  </cc:Work>
</rdf:RDF>
</metadata>
  <g
     transform="translate(0.000000,1600.000000) scale(0.100000,-0.100000)"
     id="g46"
     stroke="none"
     fill="#000000">
    <path
       d="m 4735,13984 c -644,-116 -1119,-512 -1324,-1106 -89,-260 -111,-432 -111,-876 l 13.1861,-145.801 50.9178,-446.502 C 3378.3648,11284.643 3629,11340 3633,11340 c 4,0 7,224 7,498 v 497 c 79.4396,418.553 1748.8021,1049.714 2109,731 l 285,-369 286,-370 v -496 -496 l 166,165 165,165 -4,460 c -5,469 -10,551 -51,725 -100,426 -95.2772,698.372 -576.2772,822.372 L 5752.4891,13779.489 5568,13837 l -196.6753,123.442 -351.1861,51.744 C 4775.1386,14011.186 4793,13994 4735,13984 Z"
       id="path34"
       inkscape:connector-curvature="0"
       sodipodi:nodetypes="ccscssscccccccccccccccc" />
    <path
       d="M11235 12657 c-92 -31 -167 -94 -207 -176 -33 -69 -37 -197 -8 -274 30 -79 108 -157 187 -187 76 -29 204 -25 274 9 63 30 127 95 158 161 22 47 26 69 26 145 0 78 -4 97 -28 146 -32 67 -100 132 -165 162 -58 25 -180 33 -237 14z"
       id="path36" />
    <path
       d="M4279 9960 c-49 -51 -94 -145 -120 -250 -19 -75 -21 -103 -16 -235 8 -213 50 -344 137 -434 l41 -42 44 33 c233 175 603 464 602 470 -2 8 -637 498 -645 498 -3 0 -22 -18 -43 -40z"
       id="path38" />
    <path
       d="M5314 9754 c-181 -136 -331 -248 -332 -249 -2 -2 146 -116 330 -254 l333 -250 32 31 c80 77 139 246 152 435 9 130 1 213 -29 313 -27 92 -112 220 -145 220 -6 0 -159 -111 -341 -246z"
       id="path40" />
    <path
       d="m 9292,9792 3,-207 33,-67 c 36,-73 90.2812,-108.0227 159,-158 l 48,-24 h 1795 l 1915,-1 57,27 c 66,31 128,91 160,156 22,44 23,61 26,265 l 3,217 H 11330 9288 Z"
       id="path42"
       inkscape:connector-curvature="0"
       sodipodi:nodetypes="cccscccccccccc" />
    <path
       d="M 3885,9461 C 2995,9093 2429,8290 2340,7270 c -6,-71 -10,-782 -10,-1857 V 3670 l 500,-332 499,-333 1,-502 v -503 h 1835 1835 l 2,2478 3,2477 492,-477 492,-478 509,-303.2812 509,303.2812 664,1161 c 365,639 665,1165 667,1169 3,7 -120,92 -150,103 -25,9 -768,506 -806,538 -18,16 -38,29 -45,29 -7,0 -235,-371 -507,-825 -272,-454 -497,-825 -500,-824 -3,0 -75,91 -160,202 -380,495 -902,1134 -1072,1313 -122,128 -379,299 -673,447 -157,78 -427,189 -436,179 -3,-4 -383.2337,-700.0217 -651.2337,-1806.0217 C 5069.7663,6580.9783 5001,5437 4993,5402 c -9,-34 -17,-61 -18,-60 -2,2 -53.5802,1211.909 -323.5802,2349.909 C 4380.4198,8830.909 3984,9488 3981,9491 c -3,4 -46,-10 -96,-30 z"
       id="path44"
       inkscape:connector-curvature="0"
       sodipodi:nodetypes="ccscccccccccccccccccsscccccccsccc" />
  </g>
  <g
     transform="matrix(4.2519687,0,0,4.2519687,912.22735,-648.49597)"
     id="g3868"
     inkscape:label="Ebene 1">
    <path
       sodipodi:nodetypes="ccccccccc"
       inkscape:connector-curvature="0"
       id="path3838"
       d="m 24.220086,206.37473 v -1.05125 h 3.69708 l 3.568251,-0.13391 v 1.05833 1.05833 l -3.568251,0.11974 h -3.69708 z"
       style="fill:#803300;stroke-width:0.02362351" />
    <path
       sodipodi:nodetypes="ccccccccc"
       inkscape:connector-curvature="0"
       id="path3840"
       d="m 19.314583,206.2479 v -0.79375 l 2.517166,-0.13067 3.039084,0.13775 v 1.05125 1.05124 l -3.039084,-0.13775 -2.517166,-0.11974 z"
       style="fill:#552200;stroke-width:0.02362351" />
    <path
       sodipodi:nodetypes="cccssssssccccccsssccccccc"
       transform="matrix(0.26458333,0,0,0.26458333,0,191.16665)"
       inkscape:connector-curvature="0"
       id="path3842"
       d="m 56.950629,388.01918 c -1.099614,-0.62519 -2.690604,-2.12013 -3.535534,-3.3221 l -1.536235,-2.18539 -0.400862,-79.63267 c -0.220474,-43.79798 -0.29717,-82.81467 -0.170436,-86.70376 0.368438,-11.30621 2.508202,-19.38376 7.997743,-30.19125 3.60053,-7.08852 7.807884,-13.47303 17.382463,-26.37729 8.194122,-11.04373 10.208302,-14.09 12.557752,-18.99248 2.903981,-6.05959 2.968313,-7.16997 2.623273,-45.278475 L 91.556685,60.86431 H 105.43161 L 119,61.000001 l 0.31724,36.608608 0.0107,36.744301 1.18269,3.35046 c 1.70697,4.83567 5.00125,10.09846 13.269,21.19794 13.64403,18.31716 19.53462,28.28428 22.8045,38.58613 3.4585,10.8961 3.29653,5.39005 2.92609,99.47084 l -0.33399,84.82364 -1.12071,2.00433 c -0.61639,1.10239 -1.99406,2.70651 -3.06149,3.56472 l -1.94079,1.56038 -47.05161,0.12227 -47.051622,0.12227 z"
       style="fill:#aa4400;stroke-width:0.50507629" />
    <path
       sodipodi:nodetypes="ccscscscccccccccsccccccc"
       inkscape:connector-curvature="0"
       id="path3844"
       d="m 10.246405,293.94749 c -0.5097353,-0.22248 -1.3656023,-1.1648 -1.4973979,-1.64867 -0.055559,-0.20398 -0.1021868,-10.68413 -0.1036177,-23.28923 -0.00212,-18.59071 0.030879,-23.05715 0.1747047,-23.65335 0.8299984,-3.44062 2.2215029,-6.1904 5.1562059,-10.1893 3.00547,-4.09533 3.80414,-5.24466 4.328933,-6.22959 0.992037,-1.86186 1.007108,-1.4356 1.008291,-12.09928 l 0.0011,-9.53184 2.562215,-0.0359 h 2.610046 l -0.03758,9.72193 -0.03758,9.72193 -0.317604,0.80181 c -0.511739,1.2919 -1.39351,2.67569 -3.592019,5.63702 -1.135938,1.53008 -2.442701,3.35326 -2.903919,4.0515 -2.234843,3.38335 -3.480968,6.54117 -3.800635,9.63124 -0.08319,0.80417 -0.09645,9.26101 -0.03666,23.37654 l 0.09369,22.11656 0.294818,0.55114 c 0.138104,0.15123 0.702494,0.75199 0.931854,0.94498 l 0.726166,0.30795 -2.84462,-0.005 c -1.604798,-0.004 -2.438497,-0.0589 -2.716357,-0.18021 z"
       style="fill:#803300;stroke-width:0.13363476" />
    <path
       sodipodi:nodetypes="ccccccccccccccccccccccc"
       inkscape:connector-curvature="0"
       id="path3846"
       d="m 17.874811,204.76794 v -0.80124 l 0.513811,-0.17028 c 0.282597,-0.0936 0.522715,-0.17839 0.533596,-0.18829 0.01088,-0.01 -0.217675,-0.0972 -0.507905,-0.19391 l -0.52769,-0.17589 -0.0062,-0.80714 -0.0062,-0.80715 h 3.509981 3.509983 l -0.08275,0.10099 c -0.10543,0.12866 -0.218294,0.36682 -0.252946,0.53374 -0.03418,0.16463 -0.01597,0.54484 0.03355,0.70047 0.06097,0.19163 0.20865,0.41465 0.350249,0.52894 l 0.193127,0.11389 -0.233026,0.15778 c -0.180999,0.1794 -0.268447,0.33015 -0.329559,0.56814 -0.0424,0.16514 -0.04701,0.45449 -0.01005,0.63171 0.03534,0.16948 0.149953,0.40603 0.250802,0.51766 l 0.08294,0.0918 h -3.51084 -3.51084 z"
       style="fill:#803300;stroke-width:0.02362351" />
    <path
       sodipodi:nodetypes="cccccccccccccccscccccc"
       inkscape:connector-curvature="0"
       id="path3848"
       d="m 24.839139,205.52442 c -0.471813,-0.16297 -0.691431,-0.80255 -0.451121,-1.31379 0.117352,-0.24966 0.486039,-0.58158 0.747399,-0.60856 v 0 0 c 0.0066,-0.14767 0.0066,-0.14767 0,0 -0.375321,-0.0586 -0.691289,-0.40038 -0.797171,-0.74318 -0.148901,-0.48209 0.05972,-1.00381 0.467206,-1.16841 l 0.135149,-0.0546 3.99859,-0.006 3.99859,-0.006 -0.0062,0.80747 -0.0062,0.80748 -0.543341,0.18223 c -0.471654,0.15819 -0.535548,0.18529 -0.484283,0.20539 0.03248,0.0127 0.279644,0.0962 0.549246,0.18547 l 0.490189,0.16231 v 0.79772 0.79773 l -3.986467,-7.7e-4 c -3.799703,-7.4e-4 -3.992325,-0.003 -4.111553,-0.044 z"
       style="fill:#aa4400;stroke-width:0.02362351" />
    <ellipse
       ry="18.30225"
       rx="12.115264"
       cy="265.94492"
       cx="25.88377"
       id="ellipse3850"
       style="fill:#d38d5f;stroke:#000000;stroke-width:0.2473231;stroke-opacity:1" />
    <g
       transform="matrix(0.15,0,0,0.15,22.390673,223.83728)"
       id="g3866">
      <g
         transform="matrix(0.61818536,0,0,0.61818536,-26.792154,211.0104)"
         style="fill:none;fill-rule:evenodd;stroke:none;stroke-width:1"
         id="g3864">
        <g
           id="g3862">
          <path
             style="fill:#ffffff"
             inkscape:connector-curvature="0"
             d="m 90.802375,51 c 4.845123,3.760268 10.936685,6 17.553105,6 3.8412,0 7.5055,-0.75489 10.85171,-2.123943 C 121.78505,60.822885 127.86002,65 134.94352,65 144.36355,65 152,57.612698 152,48.5 152,39.969485 145.30813,32.950949 136.72561,32.088979 136.87381,30.913431 136.95017,29.715603 136.95017,28.5 136.95017,12.759885 124.14789,0 108.35548,0 99.83824,0 92.190743,3.711487 86.952263,9.6002847 84.65374,8.5783055 82.036298,8 79.259136,8 75.078031,8 71.258949,9.3108024 68.345159,11.472979 64.288066,4.5909983 56.988447,0 48.657807,0 38.310547,0 29.553888,7.0827388 26.625519,16.840923 24.209942,15.664564 21.466627,15 18.558139,15 8.8610468,15 1,22.387302 1,31.5 1,40.612698 8.8610468,48 18.558139,48 v 3 z"
             id="path3852" />
          <path
             style="fill:url(#linearGradient3870)"
             inkscape:connector-curvature="0"
             d="m 127,82 h 33 c 4.41828,0 8,3.581722 8,8 v 65 c 0,4.41828 -3.58172,8 -8,8 h -33 v 0 c -4.41828,0 -8,-3.58172 -8,-8 v -65 0 c 0,-4.418278 3.58172,-8 8,-8 z m -8,13 v 56 h 32 c 3.31371,0 6,-2.68629 6,-6 v -44 c 0,-3.313709 -2.68629,-6 -6,-6 z"
             id="path3854" />
          <path
             style="fill:url(#linearGradient3872)"
             inkscape:connector-curvature="0"
             d="m 18,48 h 116 v 150 0 c 0,8.83656 -7.16344,16 -16,16 H 34 v 0 c -8.836556,0 -16,-7.16344 -16,-16 z"
             id="path3856" />
          <path
             style="fill:url(#linearGradient3874)"
             inkscape:connector-curvature="0"
             d="m 28,66 h 96 v 130 0 c 0,4.41828 -3.58172,8 -8,8 H 36 v 0 c -4.418278,0 -8,-3.58172 -8,-8 z"
             id="path3858" />
          <path
             style="fill:#ffffff"
             inkscape:connector-curvature="0"
             d="m 51.5,37 v 0 c 4.69442,0 8.5,3.80558 8.5,8.5 v 61 0 c 0,4.69442 -3.80558,8.5 -8.5,8.5 v 0 c -4.69442,0 -8.5,-3.80558 -8.5,-8.5 v -61 0 C 43,40.80558 46.80558,37 51.5,37 Z m 0,99 c -4.69442,0 -8.5,-3.80558 -8.5,-8.5 0,-4.69442 3.80558,-8.5 8.5,-8.5 4.69442,0 8.5,3.80558 8.5,8.5 0,4.69442 -3.80558,8.5 -8.5,8.5 z m 30,-96 c 4.69442,0 8.5,3.80558 8.5,8.5 v 34 c 0,4.69442 -3.80558,8.5 -8.5,8.5 v 0 0 C 76.80558,91 73,87.19442 73,82.5 v -34 0 C 73,43.80558 76.80558,40 81.5,40 Z"
             id="path3860" />
        </g>
      </g>
    </g>
  </g>
  <g
     transform="matrix(4.2519687,0,0,4.2519687,1032.9369,-649.31696)"
     id="layer1"
     inkscape:label="Ebene 1">
    <path
       sodipodi:nodetypes="ccccccccc"
       inkscape:connector-curvature="0"
       id="path92"
       d="m 24.220086,206.37473 v -1.05125 h 3.69708 l 3.568251,-0.13391 v 1.05833 1.05833 l -3.568251,0.11974 h -3.69708 z"
       style="fill:#803300;stroke-width:0.02362351" />
    <path
       sodipodi:nodetypes="ccccccccc"
       inkscape:connector-curvature="0"
       id="path98"
       d="m 19.314583,206.2479 v -0.79375 l 2.517166,-0.13067 3.039084,0.13775 v 1.05125 1.05124 l -3.039084,-0.13775 -2.517166,-0.11974 z"
       style="fill:#552200;stroke-width:0.02362351" />
    <path
       sodipodi:nodetypes="cccssssssccccccsssccccccc"
       transform="matrix(0.26458333,0,0,0.26458333,0,191.16665)"
       inkscape:connector-curvature="0"
       id="path88"
       d="m 56.950629,388.01918 c -1.099614,-0.62519 -2.690604,-2.12013 -3.535534,-3.3221 l -1.536235,-2.18539 -0.400862,-79.63267 c -0.220474,-43.79798 -0.29717,-82.81467 -0.170436,-86.70376 0.368438,-11.30621 2.508202,-19.38376 7.997743,-30.19125 3.60053,-7.08852 7.807884,-13.47303 17.382463,-26.37729 8.194122,-11.04373 10.208302,-14.09 12.557752,-18.99248 2.903981,-6.05959 2.968313,-7.16997 2.623273,-45.278475 L 91.556685,60.86431 H 105.43161 L 119,61.000001 l 0.31724,36.608608 0.0107,36.744301 1.18269,3.35046 c 1.70697,4.83567 5.00125,10.09846 13.269,21.19794 13.64403,18.31716 19.53462,28.28428 22.8045,38.58613 3.4585,10.8961 3.29653,5.39005 2.92609,99.47084 l -0.33399,84.82364 -1.12071,2.00433 c -0.61639,1.10239 -1.99406,2.70651 -3.06149,3.56472 l -1.94079,1.56038 -47.05161,0.12227 -47.051622,0.12227 z"
       style="fill:#aa4400;stroke-width:0.50507629" />
    <path
       sodipodi:nodetypes="ccscscscccccccccsccccccc"
       inkscape:connector-curvature="0"
       id="path90"
       d="m 10.246405,293.94749 c -0.5097353,-0.22248 -1.3656023,-1.1648 -1.4973979,-1.64867 -0.055559,-0.20398 -0.1021868,-10.68413 -0.1036177,-23.28923 -0.00212,-18.59071 0.030879,-23.05715 0.1747047,-23.65335 0.8299984,-3.44062 2.2215029,-6.1904 5.1562059,-10.1893 3.00547,-4.09533 3.80414,-5.24466 4.328933,-6.22959 0.992037,-1.86186 1.007108,-1.4356 1.008291,-12.09928 l 0.0011,-9.53184 2.562215,-0.0359 h 2.610046 l -0.03758,9.72193 -0.03758,9.72193 -0.317604,0.80181 c -0.511739,1.2919 -1.39351,2.67569 -3.592019,5.63702 -1.135938,1.53008 -2.442701,3.35326 -2.903919,4.0515 -2.234843,3.38335 -3.480968,6.54117 -3.800635,9.63124 -0.08319,0.80417 -0.09645,9.26101 -0.03666,23.37654 l 0.09369,22.11656 0.294818,0.55114 c 0.138104,0.15123 0.702494,0.75199 0.931854,0.94498 l 0.726166,0.30795 -2.84462,-0.005 c -1.604798,-0.004 -2.438497,-0.0589 -2.716357,-0.18021 z"
       style="fill:#803300;stroke-width:0.13363476" />
    <path
       sodipodi:nodetypes="ccccccccccccccccccccccc"
       inkscape:connector-curvature="0"
       id="path94"
       d="m 17.874811,204.76794 v -0.80124 l 0.513811,-0.17028 c 0.282597,-0.0936 0.522715,-0.17839 0.533596,-0.18829 0.01088,-0.01 -0.217675,-0.0972 -0.507905,-0.19391 l -0.52769,-0.17589 -0.0062,-0.80714 -0.0062,-0.80715 h 3.509981 3.509983 l -0.08275,0.10099 c -0.10543,0.12866 -0.218294,0.36682 -0.252946,0.53374 -0.03418,0.16463 -0.01597,0.54484 0.03355,0.70047 0.06097,0.19163 0.20865,0.41465 0.350249,0.52894 l 0.193127,0.11389 -0.233026,0.15778 c -0.180999,0.1794 -0.268447,0.33015 -0.329559,0.56814 -0.0424,0.16514 -0.04701,0.45449 -0.01005,0.63171 0.03534,0.16948 0.149953,0.40603 0.250802,0.51766 l 0.08294,0.0918 h -3.51084 -3.51084 z"
       style="fill:#803300;stroke-width:0.02362351" />
    <path
       sodipodi:nodetypes="cccccccccccccccscccccc"
       inkscape:connector-curvature="0"
       id="path96"
       d="m 24.839139,205.52442 c -0.471813,-0.16297 -0.691431,-0.80255 -0.451121,-1.31379 0.117352,-0.24966 0.486039,-0.58158 0.747399,-0.60856 v 0 0 c 0.0066,-0.14767 0.0066,-0.14767 0,0 -0.375321,-0.0586 -0.691289,-0.40038 -0.797171,-0.74318 -0.148901,-0.48209 0.05972,-1.00381 0.467206,-1.16841 l 0.135149,-0.0546 3.99859,-0.006 3.99859,-0.006 -0.0062,0.80747 -0.0062,0.80748 -0.543341,0.18223 c -0.471654,0.15819 -0.535548,0.18529 -0.484283,0.20539 0.03248,0.0127 0.279644,0.0962 0.549246,0.18547 l 0.490189,0.16231 v 0.79772 0.79773 l -3.986467,-7.7e-4 c -3.799703,-7.4e-4 -3.992325,-0.003 -4.111553,-0.044 z"
       style="fill:#aa4400;stroke-width:0.02362351" />
    <ellipse
       ry="18.30225"
       rx="12.115264"
       cy="265.94492"
       cx="25.88377"
       id="path911"
       style="fill:#d38d5f;stroke:#000000;stroke-width:0.2473231;stroke-opacity:1" />
    <g
       transform="matrix(0.15,0,0,0.15,22.390673,223.83728)"
       id="g4781">
      <g
         transform="matrix(0.61818536,0,0,0.61818536,-26.792154,211.0104)"
         style="fill:none;fill-rule:evenodd;stroke:none;stroke-width:1"
         id="Symbols">
        <g
           id="Bier">
          <path
             style="fill:#ffffff"
             inkscape:connector-curvature="0"
             d="m 90.802375,51 c 4.845123,3.760268 10.936685,6 17.553105,6 3.8412,0 7.5055,-0.75489 10.85171,-2.123943 C 121.78505,60.822885 127.86002,65 134.94352,65 144.36355,65 152,57.612698 152,48.5 152,39.969485 145.30813,32.950949 136.72561,32.088979 136.87381,30.913431 136.95017,29.715603 136.95017,28.5 136.95017,12.759885 124.14789,0 108.35548,0 99.83824,0 92.190743,3.711487 86.952263,9.6002847 84.65374,8.5783055 82.036298,8 79.259136,8 75.078031,8 71.258949,9.3108024 68.345159,11.472979 64.288066,4.5909983 56.988447,0 48.657807,0 38.310547,0 29.553888,7.0827388 26.625519,16.840923 24.209942,15.664564 21.466627,15 18.558139,15 8.8610468,15 1,22.387302 1,31.5 1,40.612698 8.8610468,48 18.558139,48 v 3 z"
             id="Schaum" />
          <path
             style="fill:url(#linearGradient-1)"
             inkscape:connector-curvature="0"
             d="m 127,82 h 33 c 4.41828,0 8,3.581722 8,8 v 65 c 0,4.41828 -3.58172,8 -8,8 h -33 v 0 c -4.41828,0 -8,-3.58172 -8,-8 v -65 0 c 0,-4.418278 3.58172,-8 8,-8 z m -8,13 v 56 h 32 c 3.31371,0 6,-2.68629 6,-6 v -44 c 0,-3.313709 -2.68629,-6 -6,-6 z"
             id="Henkel" />
          <path
             style="fill:url(#linearGradient-2)"
             inkscape:connector-curvature="0"
             d="m 18,48 h 116 v 150 0 c 0,8.83656 -7.16344,16 -16,16 H 34 v 0 c -8.836556,0 -16,-7.16344 -16,-16 z"
             id="Glass" />
          <path
             style="fill:url(#linearGradient-3)"
             inkscape:connector-curvature="0"
             d="m 28,66 h 96 v 130 0 c 0,4.41828 -3.58172,8 -8,8 H 36 v 0 c -4.418278,0 -8,-3.58172 -8,-8 z"
             id="path1014" />
          <path
             style="fill:#ffffff"
             inkscape:connector-curvature="0"
             d="m 51.5,37 v 0 c 4.69442,0 8.5,3.80558 8.5,8.5 v 61 0 c 0,4.69442 -3.80558,8.5 -8.5,8.5 v 0 c -4.69442,0 -8.5,-3.80558 -8.5,-8.5 v -61 0 C 43,40.80558 46.80558,37 51.5,37 Z m 0,99 c -4.69442,0 -8.5,-3.80558 -8.5,-8.5 0,-4.69442 3.80558,-8.5 8.5,-8.5 4.69442,0 8.5,3.80558 8.5,8.5 0,4.69442 -3.80558,8.5 -8.5,8.5 z m 30,-96 c 4.69442,0 8.5,3.80558 8.5,8.5 v 34 c 0,4.69442 -3.80558,8.5 -8.5,8.5 v 0 0 C 76.80558,91 73,87.19442 73,82.5 v -34 0 C 73,43.80558 76.80558,40 81.5,40 Z"
             id="Schaum-2" />
        </g>
      </g>
    </g>
  </g>
  <g
     inkscape:label="Ebene 1"
     id="g3830"
     transform="matrix(4.2519687,0,0,4.2519687,1153.1009,-649.95084)">
    <path
       style="fill:#803300;stroke-width:0.02362351"
       d="m 24.220086,206.37473 v -1.05125 h 3.69708 l 3.568251,-0.13391 v 1.05833 1.05833 l -3.568251,0.11974 h -3.69708 z"
       id="path3800"
       inkscape:connector-curvature="0"
       sodipodi:nodetypes="ccccccccc" />
    <path
       style="fill:#552200;stroke-width:0.02362351"
       d="m 19.314583,206.2479 v -0.79375 l 2.517166,-0.13067 3.039084,0.13775 v 1.05125 1.05124 l -3.039084,-0.13775 -2.517166,-0.11974 z"
       id="path3802"
       inkscape:connector-curvature="0"
       sodipodi:nodetypes="ccccccccc" />
    <path
       style="fill:#aa4400;stroke-width:0.50507629"
       d="m 56.950629,388.01918 c -1.099614,-0.62519 -2.690604,-2.12013 -3.535534,-3.3221 l -1.536235,-2.18539 -0.400862,-79.63267 c -0.220474,-43.79798 -0.29717,-82.81467 -0.170436,-86.70376 0.368438,-11.30621 2.508202,-19.38376 7.997743,-30.19125 3.60053,-7.08852 7.807884,-13.47303 17.382463,-26.37729 8.194122,-11.04373 10.208302,-14.09 12.557752,-18.99248 2.903981,-6.05959 2.968313,-7.16997 2.623273,-45.278475 L 91.556685,60.86431 H 105.43161 L 119,61.000001 l 0.31724,36.608608 0.0107,36.744301 1.18269,3.35046 c 1.70697,4.83567 5.00125,10.09846 13.269,21.19794 13.64403,18.31716 19.53462,28.28428 22.8045,38.58613 3.4585,10.8961 3.29653,5.39005 2.92609,99.47084 l -0.33399,84.82364 -1.12071,2.00433 c -0.61639,1.10239 -1.99406,2.70651 -3.06149,3.56472 l -1.94079,1.56038 -47.05161,0.12227 -47.051622,0.12227 z"
       id="path3804"
       inkscape:connector-curvature="0"
       transform="matrix(0.26458333,0,0,0.26458333,0,191.16665)"
       sodipodi:nodetypes="cccssssssccccccsssccccccc" />
    <path
       style="fill:#803300;stroke-width:0.13363476"
       d="m 10.246405,293.94749 c -0.5097353,-0.22248 -1.3656023,-1.1648 -1.4973979,-1.64867 -0.055559,-0.20398 -0.1021868,-10.68413 -0.1036177,-23.28923 -0.00212,-18.59071 0.030879,-23.05715 0.1747047,-23.65335 0.8299984,-3.44062 2.2215029,-6.1904 5.1562059,-10.1893 3.00547,-4.09533 3.80414,-5.24466 4.328933,-6.22959 0.992037,-1.86186 1.007108,-1.4356 1.008291,-12.09928 l 0.0011,-9.53184 2.562215,-0.0359 h 2.610046 l -0.03758,9.72193 -0.03758,9.72193 -0.317604,0.80181 c -0.511739,1.2919 -1.39351,2.67569 -3.592019,5.63702 -1.135938,1.53008 -2.442701,3.35326 -2.903919,4.0515 -2.234843,3.38335 -3.480968,6.54117 -3.800635,9.63124 -0.08319,0.80417 -0.09645,9.26101 -0.03666,23.37654 l 0.09369,22.11656 0.294818,0.55114 c 0.138104,0.15123 0.702494,0.75199 0.931854,0.94498 l 0.726166,0.30795 -2.84462,-0.005 c -1.604798,-0.004 -2.438497,-0.0589 -2.716357,-0.18021 z"
       id="path3806"
       inkscape:connector-curvature="0"
       sodipodi:nodetypes="ccscscscccccccccsccccccc" />
    <path
       style="fill:#803300;stroke-width:0.02362351"
       d="m 17.874811,204.76794 v -0.80124 l 0.513811,-0.17028 c 0.282597,-0.0936 0.522715,-0.17839 0.533596,-0.18829 0.01088,-0.01 -0.217675,-0.0972 -0.507905,-0.19391 l -0.52769,-0.17589 -0.0062,-0.80714 -0.0062,-0.80715 h 3.509981 3.509983 l -0.08275,0.10099 c -0.10543,0.12866 -0.218294,0.36682 -0.252946,0.53374 -0.03418,0.16463 -0.01597,0.54484 0.03355,0.70047 0.06097,0.19163 0.20865,0.41465 0.350249,0.52894 l 0.193127,0.11389 -0.233026,0.15778 c -0.180999,0.1794 -0.268447,0.33015 -0.329559,0.56814 -0.0424,0.16514 -0.04701,0.45449 -0.01005,0.63171 0.03534,0.16948 0.149953,0.40603 0.250802,0.51766 l 0.08294,0.0918 h -3.51084 -3.51084 z"
       id="path3808"
       inkscape:connector-curvature="0"
       sodipodi:nodetypes="ccccccccccccccccccccccc" />
    <path
       style="fill:#aa4400;stroke-width:0.02362351"
       d="m 24.839139,205.52442 c -0.471813,-0.16297 -0.691431,-0.80255 -0.451121,-1.31379 0.117352,-0.24966 0.486039,-0.58158 0.747399,-0.60856 v 0 0 c 0.0066,-0.14767 0.0066,-0.14767 0,0 -0.375321,-0.0586 -0.691289,-0.40038 -0.797171,-0.74318 -0.148901,-0.48209 0.05972,-1.00381 0.467206,-1.16841 l 0.135149,-0.0546 3.99859,-0.006 3.99859,-0.006 -0.0062,0.80747 -0.0062,0.80748 -0.543341,0.18223 c -0.471654,0.15819 -0.535548,0.18529 -0.484283,0.20539 0.03248,0.0127 0.279644,0.0962 0.549246,0.18547 l 0.490189,0.16231 v 0.79772 0.79773 l -3.986467,-7.7e-4 c -3.799703,-7.4e-4 -3.992325,-0.003 -4.111553,-0.044 z"
       id="path3810"
       inkscape:connector-curvature="0"
       sodipodi:nodetypes="cccccccccccccccscccccc" />
    <ellipse
       style="fill:#d38d5f;stroke:#000000;stroke-width:0.2473231;stroke-opacity:1"
       id="ellipse3812"
       cx="25.88377"
       cy="265.94492"
       rx="12.115264"
       ry="18.30225" />
    <g
       id="g3828"
       transform="matrix(0.15,0,0,0.15,22.390673,223.83728)">
      <g
         id="g3826"
         style="fill:none;fill-rule:evenodd;stroke:none;stroke-width:1"
         transform="matrix(0.61818536,0,0,0.61818536,-26.792154,211.0104)">
        <g
           id="g3824">
          <path
             id="path3814"
             d="m 90.802375,51 c 4.845123,3.760268 10.936685,6 17.553105,6 3.8412,0 7.5055,-0.75489 10.85171,-2.123943 C 121.78505,60.822885 127.86002,65 134.94352,65 144.36355,65 152,57.612698 152,48.5 152,39.969485 145.30813,32.950949 136.72561,32.088979 136.87381,30.913431 136.95017,29.715603 136.95017,28.5 136.95017,12.759885 124.14789,0 108.35548,0 99.83824,0 92.190743,3.711487 86.952263,9.6002847 84.65374,8.5783055 82.036298,8 79.259136,8 75.078031,8 71.258949,9.3108024 68.345159,11.472979 64.288066,4.5909983 56.988447,0 48.657807,0 38.310547,0 29.553888,7.0827388 26.625519,16.840923 24.209942,15.664564 21.466627,15 18.558139,15 8.8610468,15 1,22.387302 1,31.5 1,40.612698 8.8610468,48 18.558139,48 v 3 z"
             inkscape:connector-curvature="0"
             style="fill:#ffffff" />
          <path
             id="path3816"
             d="m 127,82 h 33 c 4.41828,0 8,3.581722 8,8 v 65 c 0,4.41828 -3.58172,8 -8,8 h -33 v 0 c -4.41828,0 -8,-3.58172 -8,-8 v -65 0 c 0,-4.418278 3.58172,-8 8,-8 z m -8,13 v 56 h 32 c 3.31371,0 6,-2.68629 6,-6 v -44 c 0,-3.313709 -2.68629,-6 -6,-6 z"
             inkscape:connector-curvature="0"
             style="fill:url(#linearGradient3832)" />
          <path
             id="path3818"
             d="m 18,48 h 116 v 150 0 c 0,8.83656 -7.16344,16 -16,16 H 34 v 0 c -8.836556,0 -16,-7.16344 -16,-16 z"
             inkscape:connector-curvature="0"
             style="fill:url(#linearGradient3834)" />
          <path
             id="path3820"
             d="m 28,66 h 96 v 130 0 c 0,4.41828 -3.58172,8 -8,8 H 36 v 0 c -4.418278,0 -8,-3.58172 -8,-8 z"
             inkscape:connector-curvature="0"
             style="fill:url(#linearGradient3836)" />
          <path
             id="path3822"
             d="m 51.5,37 v 0 c 4.69442,0 8.5,3.80558 8.5,8.5 v 61 0 c 0,4.69442 -3.80558,8.5 -8.5,8.5 v 0 c -4.69442,0 -8.5,-3.80558 -8.5,-8.5 v -61 0 C 43,40.80558 46.80558,37 51.5,37 Z m 0,99 c -4.69442,0 -8.5,-3.80558 -8.5,-8.5 0,-4.69442 3.80558,-8.5 8.5,-8.5 4.69442,0 8.5,3.80558 8.5,8.5 0,4.69442 -3.80558,8.5 -8.5,8.5 z m 30,-96 c 4.69442,0 8.5,3.80558 8.5,8.5 v 34 c 0,4.69442 -3.80558,8.5 -8.5,8.5 v 0 0 C 76.80558,91 73,87.19442 73,82.5 v -34 0 C 73,43.80558 76.80558,40 81.5,40 Z"
             inkscape:connector-curvature="0"
             style="fill:#ffffff" />
        </g>
      </g>
    </g>
  </g>
  <path
     style="fill:none;stroke:#000000;stroke-width:0.74050832px;stroke-linecap:butt;stroke-linejoin:miter;stroke-opacity:1"
     d="m 329.99622,433.50049 c 14.94059,39.70759 29.88265,79.41909 66.57323,105.03394 36.69058,25.61486 95.12236,37.12796 136.15048,38.94376 41.02812,1.81579 64.64948,-6.0616 83.81085,-31.67684 19.16136,-25.61524 33.86868,-68.96247 48.573,-112.30086"
     id="path3880"
     inkscape:connector-curvature="0"
     inkscape:path-effect="#path-effect3882"
     inkscape:original-d="m 329.99622,433.50049 c 14.94957,39.70421 29.89163,79.41571 44.8262,119.13454 58.43928,11.5058 116.87106,23.0189 175.29534,34.53932 23.62885,-7.8847 47.25021,-15.76208 70.86406,-23.63216 14.71483,-43.35455 29.42214,-86.70178 44.12196,-130.0417" />
  <path
     style="fill:none;stroke:#000000;stroke-width:0.75000006px;stroke-linecap:butt;stroke-linejoin:miter;stroke-opacity:1"
     d="m 437.29605,604.19582 c 1.0884,-14.61562 2.1762,-29.22323 3.26341,-43.82284"
     id="path3884"
     inkscape:connector-curvature="0"
     inkscape:path-effect="#path-effect3886"
     inkscape:original-d="m 437.29605,604.19582 c 1.09531,-14.61511 2.18311,-29.22272 3.26341,-43.82284" />
  <circle
     id="path3888"
     style="fill:#000000;stroke:none"
     cx="551.98138"
     cy="577.15619"
     r="1.5" />
  <path
     style="fill:none;stroke:#000000;stroke-width:0.75000006px;stroke-linecap:butt;stroke-linejoin:miter;stroke-opacity:1"
     d="m 557.57578,608.39163 c 0,0 -5.5944,-31.70163 -5.5944,-31.70163"
     id="path3890"
     inkscape:connector-curvature="0"
     inkscape:path-effect="#path-effect3892"
     inkscape:original-d="M 557.57578,608.39163 551.98138,576.69" />
  <path
     style="fill:none;stroke:#000000;stroke-width:0.75000006px;stroke-linecap:butt;stroke-linejoin:miter;stroke-opacity:1"
     d="m 398.1,650.9 c -1.85426,-8.7361 -3.70733,-17.46655 -5.55919,-26.19135"
     id="path3894"
     inkscape:connector-curvature="0"
     inkscape:path-effect="#path-effect3896"
     inkscape:original-d="m 398.1,650.9 c -1.84556,-8.73795 -3.69862,-17.4684 -5.55919,-26.19135" />
  <path
     style="fill:none;stroke:#000000;stroke-width:0.75000006px;stroke-linecap:butt;stroke-linejoin:miter;stroke-opacity:1"
     d="m 392.54081,624.70865 c 7.77615,1.24419 15.54616,2.48739 23.31003,3.72961"
     id="path3898"
     inkscape:connector-curvature="0"
     inkscape:path-effect="#path-effect3900"
     inkscape:original-d="m 392.54081,624.70865 c 7.77751,1.23571 15.54752,2.47891 23.31003,3.72961" />
  <path
     style="fill:none;stroke:#000000;stroke-width:0.75000006px;stroke-linecap:butt;stroke-linejoin:miter;stroke-opacity:1"
     d="m 583.21681,638.69466 c 0,0 24.24242,-11.1888 24.24242,-11.1888"
     id="path3902"
     inkscape:connector-curvature="0"
     inkscape:path-effect="#path-effect3904"
     inkscape:original-d="m 583.21681,638.69466 24.24242,-11.1888" />
  <path
     style="fill:none;stroke:#000000;stroke-width:0.75000006px;stroke-linecap:butt;stroke-linejoin:miter;stroke-opacity:1"
     d="m 598.9,650.8 c 0,0 8.55923,-23.29414 8.55923,-23.29414"
     id="path3906"
     inkscape:connector-curvature="0"
     inkscape:path-effect="#path-effect3908"
     inkscape:original-d="m 598.9,650.8 8.55923,-23.29414" />
  <path
     style="fill:#ffe6d5;stroke-width:2.48640251"
     d="m 668.9032,764.2758 c -87.18237,-13.40384 -142.72234,-39.91842 -176.33059,-84.17956 -34.72484,-59.78747 -50.93293,-61.44832 -8.26694,-58.65058 0.97115,0 2.06372,-29.75596 2.42794,-66.12435 l 0.66221,-66.12435 c 2.44994,-65.96833 257.07431,-148.22502 279.13748,-97.99698 30.00888,18.81224 61.29589,51.68343 75.17487,99.38393 v 65.43087 c 0,35.98698 0.81286,65.43088 1.80632,65.43088 0.9935,0 10.06066,-8.11189 20.14926,-18.02642 20.86602,-20.50597 20.72486,-22.04883 2.55911,27.97203 -16.71079,46.01448 -36.51623,85.24919 -51.54253,102.10613 -13.78638,15.46594 -34.64528,27.75569 -53.78024,31.68649 -17.61944,3.61945 -65.63083,3.14555 -91.99689,-0.90809 z"
     id="path3910"
     inkscape:connector-curvature="0"
     transform="scale(0.75000003)"
     sodipodi:nodetypes="sccscccssssscs" />
  <path
     style="fill:#ffe6d5;stroke-width:2.48640251"
     d="m 625.65356,836.40637 c -19.68474,-15.51239 -36.87619,-29.29011 -38.20322,-30.61714 -1.48693,-1.48694 -1.73036,-12.85927 -0.63436,-29.63649 l 1.77843,-27.22371 14.36639,4.47133 c 31.99266,9.95723 74.78781,16.82328 108.63979,17.43015 25.80214,0.46256 24.30415,-0.91828 26.86841,24.76721 l 1.35486,13.57132 -37.44087,27.35043 c -20.59248,15.04274 -38.22795,27.51712 -39.18994,27.72085 -0.96198,0.20373 -17.85475,-12.32155 -37.53949,-27.83395 z"
     id="path3912"
     inkscape:connector-curvature="0"
     transform="scale(0.75000003)" />
  <ellipse
     style="fill:#000000;stroke-width:0.75000006"
     id="path3914"
     cx="468.99771"
     cy="406.52682"
     rx="15.850816"
     ry="13.053614" />
  <ellipse
     ry="13.053614"
     rx="15.850816"
     cy="408.39163"
     cx="551.04901"
     id="ellipse3916"
     style="fill:#000000;stroke-width:0.75000006" />
  <path
     style="fill:#ffe6d5;stroke:#000000;stroke-width:0.8301053px;stroke-linecap:butt;stroke-linejoin:miter;stroke-opacity:1"
     d="m 952.72278,716.28743 c 11.2471,-16.85299 22.48784,-33.69646 33.72222,-50.53039"
     id="path3991"
     inkscape:connector-curvature="0"
     inkscape:path-effect="#path-effect3993"
     inkscape:original-d="M 952.72278,716.28743 C 963.972,699.43585 975.21273,682.59238 986.445,665.75704" />
  <path
     style="fill:none;stroke:#000000;stroke-width:0.75000006px;stroke-linecap:butt;stroke-linejoin:miter;stroke-opacity:1"
     d="m 1006.993,749.65038 c 7.4641,-13.68418 14.9233,-27.35938 31.3977,-41.9652 16.4744,-14.60583 41.96,-30.14584 67.4368,-45.68049"
     id="path3999"
     inkscape:connector-curvature="0"
     inkscape:path-effect="#path-effect4001"
     inkscape:original-d="m 1006.993,749.65038 c 7.4668,-13.68272 14.926,-27.35793 22.3777,-41.02565 25.4931,-15.54751 50.9787,-31.08753 76.4568,-46.62004" />
  <path
     style="fill:none;stroke:#000000;stroke-width:0.75000006px;stroke-linecap:butt;stroke-linejoin:miter;stroke-opacity:1"
     d="m 251.74827,1241.9581 c 0,0 3.7296,91.3753 3.7296,91.3753"
     id="path4003"
     inkscape:connector-curvature="0"
     inkscape:path-effect="#path-effect4005"
     inkscape:original-d="m 251.74827,1241.9581 3.7296,91.3753" />
  <path
     style="fill:none;stroke:#000000;stroke-width:0.75000006px;stroke-linecap:butt;stroke-linejoin:miter;stroke-opacity:1"
     d="m 313.28673,1344.5222 c 0,0 -57.80886,-11.1888 -57.80886,-11.1888"
     id="path4007"
     inkscape:connector-curvature="0"
     inkscape:path-effect="#path-effect4009"
     inkscape:original-d="m 313.28673,1344.5222 -57.80886,-11.1888" />
  <path
     style="fill:#ffe6d5;stroke:#000000;stroke-width:0.75000006px;stroke-linecap:butt;stroke-linejoin:miter;stroke-opacity:1"
     d="m 332.9,1299.5 c 0,0 -19.61327,45.0222 -19.61327,45.0222"
     id="path4011"
     inkscape:connector-curvature="0"
     inkscape:path-effect="#path-effect4013"
     inkscape:original-d="m 332.9,1299.5 -19.61327,45.0222" />
  <path
     style="fill:#ffe6d5;stroke-width:2.48640251"
     d="m 375.46065,1783.1554 -32.72224,-6.4207 -1.48459,-31.2201 c -0.81653,-17.1711 -2.11483,-42.7546 -2.88511,-56.8522 l -1.4005,-25.6321 52.33273,34.9464 c 48.61049,32.4607 52.17355,35.3449 50.0947,40.5504 -13.18566,33.0178 -22.27155,50.3928 -26.51466,50.7042 -2.58395,0.1896 -19.4231,-2.5445 -37.42033,-6.0759 z"
     id="path4015"
     inkscape:connector-curvature="0"
     transform="scale(0.75000003)" />
  <path
     style="fill:#ffe6d5;stroke-width:0.439538"
     d="m 1314.9726,980.32287 c -14.9629,-9.95902 -30.4982,-20.35309 -34.5228,-23.09794 l -7.3174,-4.99062 21.1377,-31.64859 21.1378,-31.6486 73.6478,0.009 73.6477,0.009 -3.0017,1.85921 c -73.7536,45.68155 -91.7753,61.68564 -113.4576,100.75526 -1.8782,3.38444 -3.5615,6.3127 -3.7406,6.50723 -0.179,0.19454 -12.568,-7.79459 -27.5309,-17.75361 z"
     id="path4017"
     inkscape:connector-curvature="0"
     transform="scale(0.75000003)" />
</svg>
