<?xml version="1.0" encoding="UTF-8" standalone="no"?>
<svg
   xmlns:dc="http://purl.org/dc/elements/1.1/"
   xmlns:cc="http://creativecommons.org/ns#"
   xmlns:rdf="http://www.w3.org/1999/02/22-rdf-syntax-ns#"
   xmlns:svg="http://www.w3.org/2000/svg"
   xmlns="http://www.w3.org/2000/svg"
   id="svg48"
   preserveAspectRatio="xMidYMid meet"
   viewBox="0 0 100 100"
   height="100pt"
   width="100pt"
   version="1.0">
  <defs
     id="defs52">
    <linearGradient
       gradientUnits="userSpaceOnUse"
       gradientTransform="scale(0.77777778,1.2857143)"
       x1="184.5"
       y1="35.965008"
       x2="184.5"
       y2="166.87286"
       id="linearGradient-1">
      <stop
         stop-color="#F7E2A8"
         offset="0%"
         id="stop994" />
      <stop
         stop-color="#F1DDAF"
         offset="100%"
         id="stop996" />
    </linearGradient>
    <linearGradient
       gradientUnits="userSpaceOnUse"
       gradientTransform="scale(0.8359397,1.1962585)"
       x1="90.915649"
       y1="40.125107"
       x2="90.915649"
       y2="178.8911"
       id="linearGradient-2">
      <stop
         stop-color="#F7E2A8"
         offset="0%"
         id="stop999" />
      <stop
         stop-color="#F1DDAF"
         offset="100%"
         id="stop1001" />
    </linearGradient>
    <linearGradient
       gradientUnits="userSpaceOnUse"
       gradientTransform="scale(0.83405766,1.1989579)"
       x1="91.120796"
       y1="55.047806"
       x2="91.120796"
       y2="170.14777"
       id="linearGradient-3">
      <stop
         stop-color="#F3B011"
         offset="0%"
         id="stop1004" />
      <stop
         stop-color="#F5A711"
         offset="100%"
         id="stop1006" />
    </linearGradient>
    <linearGradient
       gradientUnits="userSpaceOnUse"
       gradientTransform="scale(0.77777778,1.2857143)"
       x1="184.5"
       y1="35.965008"
       x2="184.5"
       y2="166.87286"
       id="linearGradient-1-8">
      <stop
         stop-color="#F7E2A8"
         offset="0%"
         id="stop3920" />
      <stop
         stop-color="#F1DDAF"
         offset="100%"
         id="stop3922" />
    </linearGradient>
    <linearGradient
       gradientUnits="userSpaceOnUse"
       gradientTransform="scale(0.8359397,1.1962585)"
       x1="90.915649"
       y1="40.125107"
       x2="90.915649"
       y2="178.8911"
       id="linearGradient-2-1">
      <stop
         stop-color="#F7E2A8"
         offset="0%"
         id="stop3925" />
      <stop
         stop-color="#F1DDAF"
         offset="100%"
         id="stop3927" />
    </linearGradient>
    <linearGradient
       gradientUnits="userSpaceOnUse"
       gradientTransform="scale(0.83405766,1.1989579)"
       x1="91.120796"
       y1="55.047806"
       x2="91.120796"
       y2="170.14777"
       id="linearGradient-3-1">
      <stop
         stop-color="#F3B011"
         offset="0%"
         id="stop3930" />
      <stop
         stop-color="#F5A711"
         offset="100%"
         id="stop3932" />
    </linearGradient>
  </defs>
  <metadata
     id="metadata32">
Created by potrace 1.15, written by Peter Selinger 2001-2017
<rdf:RDF>
  <cc:Work
     rdf:about="">
    <dc:format>image/svg+xml</dc:format>
    <dc:type
       rdf:resource="http://purl.org/dc/dcmitype/StillImage" />
    <dc:title />
  </cc:Work>
</rdf:RDF>
</metadata>
  <g
     style="display:inline"
     id="layer3">
    <rect
       ry="8.9263535"
       y="78.606239"
       x="5.8744745"
       height="19.180584"
       width="88.673431"
       id="rect4743"
       style="fill-opacity:1;stroke-width:4.67716551;stroke-linecap:butt;stroke-linejoin:round;stroke-miterlimit:4;stroke-dasharray:none;stroke-opacity:1;paint-order:normal"
       class="border-color main-color" />
    <path
       id="path3800"
       d="m 78.331061,45.916994 0.0015,0.279785 0.0015,0.278321 0.183105,0.06152 c 0.100342,0.03344 0.17958,0.06388 0.175785,0.06738 -0.0038,0.0034 -0.08687,0.03209 -0.184575,0.06445 l -0.17724,0.05859 v 0.276856 0.276856 h 0.496582 v 0.23584 0.364746 3.295898 c -4.12e-4,3.686532 -0.0057,3.538467 -0.348637,4.182129 -0.181425,0.3405 -0.456585,0.738993 -1.495605,2.154786 -1.014555,1.382455 -1.495778,2.33203 -1.782713,3.521484 -0.04972,0.206112 -0.06079,1.751245 -0.06006,8.178223 4.88e-4,4.357698 0.01594,7.980258 0.03516,8.050781 0.04556,0.16728 0.340868,0.492915 0.517088,0.569827 0.09606,0.04194 0.384172,0.06158 0.938962,0.06298 l 0.984375,0.0015 -0.0044,-0.0015 4.234868,-0.01025 4.30371,-0.01172 0.177247,-0.142087 c 0.09764,-0.0785 0.224865,-0.225825 0.28125,-0.326663 l 0.102533,-0.183105 0.0293,-7.759274 c 0.03388,-8.605464 0.04974,-8.101492 -0.266602,-9.098146 -0.299093,-0.942298 -0.837938,-1.853359 -2.085938,-3.528808 -0.75624,-1.015257 -1.05822,-1.497141 -1.214355,-1.939453 l -0.108397,-0.306153 v -3.361816 l -0.0293,-3.348633 v -0.364746 -0.23584 h 0.502448 v -0.275391 -0.27539 l -0.169928,-0.05566 c -0.09319,-0.03086 -0.179197,-0.06005 -0.190425,-0.06445 -0.01772,-0.0069 0.0054,-0.01709 0.168458,-0.07178 l 0.1875,-0.06299 0.0015,-0.278321 0.0029,-0.279785 -1.382813,0.0029 -1.382812,0.0015 -0.0293,0.01172 0.01319,-0.01611 H 79.54403 Z"
       style="fill-opacity:1;stroke-width:4.67716551;stroke-miterlimit:4;stroke-dasharray:none;stroke-opacity:1"
       class="border-color main-color" />
    <path
       id="path3800-0"
       d="m 38.362795,45.916994 0.0029,0.279785 0.0015,0.278321 0.183106,0.06152 c 0.100336,0.03344 0.178116,0.06388 0.174316,0.06738 -0.0038,0.0034 -0.08541,0.03209 -0.183105,0.06445 l -0.178711,0.05859 v 0.276856 0.276856 h 0.498046 v 0.23584 0.364746 3.295898 c -4.08e-4,3.686532 -0.0057,3.538467 -0.348633,4.182129 -0.181425,0.3405 -0.458051,0.738993 -1.49707,2.154786 -1.014553,1.382455 -1.495777,2.33203 -1.782715,3.521484 -0.04973,0.206112 -0.06079,1.751245 -0.06006,8.178223 4.91e-4,4.357698 0.01741,7.980258 0.03662,8.050781 0.04556,0.16728 0.340871,0.492915 0.517091,0.569827 0.09606,0.04194 0.38417,0.06158 0.938965,0.06298 l 0.98291,0.0015 -0.0044,-0.0015 4.236329,-0.01025 4.303711,-0.01172 0.177246,-0.142087 c 0.09764,-0.0785 0.223405,-0.225825 0.279785,-0.326663 l 0.102539,-0.183105 0.03076,-7.759274 c 0.03388,-8.605464 0.04828,-8.101492 -0.268066,-9.098146 -0.299092,-0.942298 -0.837933,-1.853359 -2.085938,-3.528808 -0.756241,-1.015257 -1.056755,-1.497141 -1.21289,-1.939453 l -0.108398,-0.306153 -0.0015,-3.361816 -0.0293,-3.348633 v -0.364746 -0.23584 h 0.502441 v -0.275391 -0.27539 l -0.169921,-0.05566 c -0.09321,-0.03086 -0.177735,-0.06005 -0.188966,-0.06445 -0.01772,-0.0069 0.0039,-0.01709 0.166993,-0.07178 l 0.1875,-0.06299 0.0029,-0.278321 0.0015,-0.279785 -1.382812,0.0029 -1.381348,0.0015 -0.0293,0.01172 0.01318,-0.01611 h -1.21285 z"
       style="fill-opacity:1;stroke-width:4.67716551;stroke-miterlimit:4;stroke-dasharray:none;stroke-opacity:1"
       class="border-color main-color" />
    <path
       id="path3800-8"
       d="m 51.685549,45.916994 0.0015,0.279785 0.0029,0.278321 0.18164,0.06152 c 0.100337,0.03344 0.179581,0.06388 0.175781,0.06738 -0.0038,0.0034 -0.08687,0.03209 -0.18457,0.06445 l -0.177246,0.05859 v 0.276856 0.276856 h 0.498047 v 0.23584 0.364746 3.295898 c -4.09e-4,3.686532 -0.0057,3.538467 -0.348633,4.182129 -0.181426,0.3405 -0.458051,0.738993 -1.49707,2.154786 -1.014554,1.382455 -1.495778,2.33203 -1.782716,3.521484 -0.04973,0.206112 -0.06079,1.751245 -0.06006,8.178223 4.9e-4,4.357698 0.01595,7.980258 0.03516,8.050781 0.04556,0.16728 0.342335,0.492915 0.518555,0.569827 0.09606,0.04194 0.384171,0.06158 0.938965,0.06298 l 0.982911,0.0015 -0.0044,-0.0015 4.236328,-0.01025 4.303711,-0.01172 0.177246,-0.142087 c 0.09764,-0.0785 0.223406,-0.225825 0.279785,-0.326663 l 0.10254,-0.183105 0.03076,-7.759274 c 0.03388,-8.605464 0.04828,-8.101492 -0.268067,-9.098146 -0.299091,-0.942298 -0.837933,-1.853359 -2.085937,-3.528808 -0.756242,-1.015257 -1.056755,-1.497141 -1.21289,-1.939453 l -0.108399,-0.306153 -0.0015,-3.361816 -0.0293,-3.348633 v -0.364746 -0.23584 h 0.502442 v -0.275391 -0.27539 l -0.169922,-0.05566 c -0.0932,-0.03086 -0.177735,-0.06005 -0.188965,-0.06445 -0.01772,-0.0069 0.0039,-0.01709 0.166992,-0.07178 l 0.1875,-0.06299 0.0029,-0.278321 0.0015,-0.279785 -1.382813,0.0029 -1.381348,0.0015 -0.0293,0.01172 0.01318,-0.01611 H 52.89844 Z"
       style="fill-opacity:1;stroke-width:4.67716551;stroke-miterlimit:4;stroke-dasharray:none;stroke-opacity:1"
       class="border-color main-color" />
    <path
       id="path3800-3"
       d="m 65.008303,45.916994 0.0015,0.279785 0.0029,0.278321 0.18164,0.06152 c 0.100338,0.03344 0.179582,0.06388 0.175782,0.06738 -0.0038,0.0034 -0.08687,0.03209 -0.184571,0.06445 l -0.177246,0.05859 v 0.276856 0.276856 h 0.498047 v 0.23584 0.364746 l -0.0015,3.295898 c -4.1e-4,3.686532 -0.0057,3.538467 -0.348633,4.182129 -0.181426,0.3405 -0.456587,0.738993 -1.495606,2.154786 -1.014553,1.382455 -1.495777,2.33203 -1.782715,3.521484 -0.04973,0.206112 -0.06079,1.751245 -0.06006,8.178223 4.9e-4,4.357698 0.01595,7.980258 0.03516,8.050781 0.04556,0.16728 0.342334,0.492915 0.518554,0.569827 0.09606,0.04194 0.384171,0.06158 0.938965,0.06298 l 0.98291,0.0015 -0.0044,-0.0015 4.234863,-0.01025 4.303712,-0.01172 0.178711,-0.142087 c 0.09764,-0.0785 0.223404,-0.225825 0.279785,-0.326663 l 0.102538,-0.183105 0.03076,-7.759274 c 0.03388,-8.605464 0.04828,-8.101492 -0.268066,-9.098146 C 72.852241,59.423903 72.3134,58.512842 71.065395,56.837393 70.309154,55.822136 70.007175,55.340252 69.85104,54.89794 l -0.106933,-0.306153 -0.0015,-3.361816 -0.0293,-3.348633 v -0.364746 -0.23584 h 0.502441 v -0.275391 -0.27539 l -0.169922,-0.05566 c -0.09321,-0.03086 -0.1792,-0.06005 -0.190429,-0.06445 -0.01772,-0.0069 0.0054,-0.01709 0.168456,-0.07178 l 0.1875,-0.06299 0.0015,-0.278321 0.0029,-0.279785 -1.382812,0.0029 -1.382813,0.0015 -0.02783,0.01172 0.01318,-0.01611 h -1.214355 z"
       style="fill-opacity:1;stroke-width:4.67716551;stroke-miterlimit:4;stroke-dasharray:none;stroke-opacity:1"
       class="border-color main-color" />
    <rect
       y="13.845048"
       x="0.16724503"
       height="4.5289555"
       width="99.900703"
       id="rect5327"
       style="fill-opacity:1;stroke:none;stroke-width:4.67716551;stroke-linecap:butt;stroke-linejoin:round;stroke-miterlimit:4;stroke-dasharray:none;stroke-opacity:1;paint-order:normal"
       class="border-area" />
    <path
       id="path5331-4"
       d="M 19.359376,4.1095205 A 11.997508,12.246622 89.999996 0 0 13.519044,5.688622 11.997508,12.246622 89.999996 0 0 7.3491214,16.052388 l 13.7651376,0.05859 15.052734,7.095704 -15.033692,10.12793 c -0.77129,0.519569 -1.239637,1.330588 -1.378417,2.197265 -0.02592,0.114894 -0.05655,0.226003 -0.07471,0.347168 v 4.715332 l -3.27539,2.729004 0.01318,2.507813 4.410645,0.01611 v -1.309571 l -1.142578,-0.848145 v -1.555663 h 6.559571 v 1.555663 l -1.139649,0.848145 v 1.309571 l 4.129395,-0.01611 -0.02637,-2.507813 -2.947265,-2.729004 v -2.53271 L 44.163576,26.001608 c 0.88741,-0.263031 1.668966,-0.868705 2.109375,-1.759278 l 0.269532,-0.543457 c 0.828635,-1.675623 0.133741,-3.666318 -1.557129,-4.463379 L 31.356447,12.810689 A 11.997508,12.246622 89.999996 0 0 25.765138,5.7413564 11.997508,12.246622 89.999996 0 0 19.359376,4.1095205 Z"
       style="fill-opacity:1;stroke-width:4.67716551;stroke-linecap:butt;stroke-linejoin:round;stroke-miterlimit:4;stroke-dasharray:none;stroke-opacity:1;paint-order:normal"
       class="border-color main-color" />
    <path
       id="path3800-0-3"
       d="m 25.582032,41.11963 -1.381348,0.0029 -1.382812,0.0015 -0.02783,0.01172 0.01172,-0.01465 h -1.212891 -1.214355 l 0.0029,0.27832 0.0015,0.279786 0.183106,0.06006 c 0.100338,0.03344 0.179581,0.06388 0.175781,0.06738 -0.0038,0.0034 -0.08687,0.03209 -0.18457,0.06445 l -0.178711,0.05859 v 0.27832 0.276855 h 0.498046 v 0.234375 0.366212 3.294433 c -4.08e-4,3.686531 -0.0057,3.539932 -0.348633,4.183594 -0.181425,0.340499 -0.458052,0.737528 -1.497069,2.15332 -1.014555,1.382456 -1.495778,2.333497 -1.782715,3.52295 -0.04972,0.206112 -0.06079,1.74978 -0.06006,8.176758 4.91e-4,4.357698 0.01741,7.980265 0.03662,8.050785 0.04556,0.16727 0.34087,0.49291 0.51709,0.56982 0.09606,0.0419 0.384172,0.0616 0.938965,0.063 l 0.911133,0.002 4.303711,-0.0117 4.303711,-0.0117 0.177246,-0.14209 c 0.09764,-0.0785 0.223405,-0.22583 0.279785,-0.32666 l 0.102539,-0.18311 0.03076,-7.759273 c 0.03388,-8.605463 0.04828,-8.10149 -0.268065,-9.098144 -0.299093,-0.9423 -0.837934,-1.853359 -2.085938,-3.528809 -0.756242,-1.015257 -1.056756,-1.49714 -1.212891,-1.939454 l -0.108398,-0.306152 -0.0015,-3.360352 -0.02783,-3.348632 v -0.366243 -0.234375 h 0.500976 v -0.277405 -0.275391 l -0.168456,-0.05566 c -0.0932,-0.03086 -0.1792,-0.06005 -0.190431,-0.06445 -0.01772,-0.0069 0.0039,-0.01562 0.166993,-0.07031 l 0.1875,-0.06299 0.0029,-0.279786 z"
       style="fill-opacity:1;stroke-width:4.67716551;stroke-miterlimit:4;stroke-dasharray:none;stroke-opacity:1"
       class="border-color main-color" />
  </g>
</svg>
