<?xml version="1.0" encoding="UTF-8" standalone="no"?>
<svg
   xmlns:dc="http://purl.org/dc/elements/1.1/"
   xmlns:cc="http://creativecommons.org/ns#"
   xmlns:rdf="http://www.w3.org/1999/02/22-rdf-syntax-ns#"
   xmlns:svg="http://www.w3.org/2000/svg"
   xmlns="http://www.w3.org/2000/svg"
   enable-background="new"
   id="svg48"
   preserveAspectRatio="xMidYMid meet"
   viewBox="0 0 100 100"
   height="100pt"
   width="100pt"
   version="1.0">
  <defs
     id="defs52">
    <linearGradient
       gradientUnits="userSpaceOnUse"
       gradientTransform="scale(0.77777778,1.2857143)"
       x1="184.5"
       y1="35.965008"
       x2="184.5"
       y2="166.87286"
       id="linearGradient-1">
      <stop
         stop-color="#F7E2A8"
         offset="0%"
         id="stop994" />
      <stop
         stop-color="#F1DDAF"
         offset="100%"
         id="stop996" />
    </linearGradient>
    <linearGradient
       gradientUnits="userSpaceOnUse"
       gradientTransform="scale(0.8359397,1.1962585)"
       x1="90.915649"
       y1="40.125107"
       x2="90.915649"
       y2="178.8911"
       id="linearGradient-2">
      <stop
         stop-color="#F7E2A8"
         offset="0%"
         id="stop999" />
      <stop
         stop-color="#F1DDAF"
         offset="100%"
         id="stop1001" />
    </linearGradient>
    <linearGradient
       gradientUnits="userSpaceOnUse"
       gradientTransform="scale(0.83405766,1.1989579)"
       x1="91.120796"
       y1="55.047806"
       x2="91.120796"
       y2="170.14777"
       id="linearGradient-3">
      <stop
         stop-color="#F3B011"
         offset="0%"
         id="stop1004" />
      <stop
         stop-color="#F5A711"
         offset="100%"
         id="stop1006" />
    </linearGradient>
    <linearGradient
       gradientUnits="userSpaceOnUse"
       gradientTransform="scale(0.77777778,1.2857143)"
       x1="184.5"
       y1="35.965008"
       x2="184.5"
       y2="166.87286"
       id="linearGradient-1-8">
      <stop
         stop-color="#F7E2A8"
         offset="0%"
         id="stop3920" />
      <stop
         stop-color="#F1DDAF"
         offset="100%"
         id="stop3922" />
    </linearGradient>
    <linearGradient
       gradientUnits="userSpaceOnUse"
       gradientTransform="scale(0.8359397,1.1962585)"
       x1="90.915649"
       y1="40.125107"
       x2="90.915649"
       y2="178.8911"
       id="linearGradient-2-1">
      <stop
         stop-color="#F7E2A8"
         offset="0%"
         id="stop3925" />
      <stop
         stop-color="#F1DDAF"
         offset="100%"
         id="stop3927" />
    </linearGradient>
    <linearGradient
       gradientUnits="userSpaceOnUse"
       gradientTransform="scale(0.83405766,1.1989579)"
       x1="91.120796"
       y1="55.047806"
       x2="91.120796"
       y2="170.14777"
       id="linearGradient-3-1">
      <stop
         stop-color="#F3B011"
         offset="0%"
         id="stop3930" />
      <stop
         stop-color="#F5A711"
         offset="100%"
         id="stop3932" />
    </linearGradient>
  </defs>
  <metadata
     id="metadata32">
Created by potrace 1.15, written by Peter Selinger 2001-2017
<rdf:RDF>
  <cc:Work
     rdf:about="">
    <dc:format>image/svg+xml</dc:format>
    <dc:type
       rdf:resource="http://purl.org/dc/dcmitype/StillImage" />
    <dc:title />
  </cc:Work>
</rdf:RDF>
</metadata>
  <g
     id="layer5">
    <path
       id="path3816-3"
       class="border-color main-color"
       transform="scale(0.75000003)"
       d="M 12.644531 77.871094 L 12.644531 125.22656 C 12.644531 128.01623 14.907596 130.27734 17.697266 130.27734 L 44.214844 130.27734 C 47.004516 130.27734 49.265625 128.01623 49.265625 125.22656 L 49.265625 114.17773 L 57.474609 114.17773 C 58.869445 114.17773 60 113.04523 60 111.65039 L 60 91.130859 C 60 89.736025 58.869445 88.605469 57.474609 88.605469 L 49.265625 88.605469 L 49.265625 77.871094 L 12.644531 77.871094 z M 49.265625 92.708984 L 54.632812 92.708984 C 55.678939 92.708984 56.527344 93.55739 56.527344 94.603516 L 56.527344 108.49414 C 56.527344 109.54027 55.678939 110.38867 54.632812 110.38867 L 49.265625 110.38867 L 49.265625 92.708984 z "
       style="display:inline;fill-rule:evenodd;stroke-width:2.45669293;stroke-miterlimit:4;stroke-dasharray:none;stroke-opacity:1;fill-opacity:1" />
  </g>
  <g
     style="display:inline"
     id="layer3">
    <path
       transform="scale(0.75000003)"
       id="path3814-6"
       d="m 22.324219,62.71875 c -3.266595,0 -6.030602,2.235782 -6.955078,5.316406 -0.76259,-0.371372 -1.628676,-0.582031 -2.546875,-0.582031 -3.061338,0 -5.5429691,2.332138 -5.5429691,5.208984 0,2.876847 2.4816311,5.208985 5.5429691,5.208985 v 0.947265 h 7.714843 v 17.521485 c 0,1.482012 1.201582,2.683594 2.683594,2.683594 1.482012,0 2.683594,-1.201582 2.683594,-2.683594 V 78.818359 h 4.103515 v 9.945313 c 10e-7,1.482012 1.201582,2.683594 2.683594,2.683594 1.482012,0 2.683594,-1.201582 2.683594,-2.683594 v -9.945313 h 0.253906 c 1.529588,1.187103 3.452236,1.894532 5.541016,1.894532 1.212653,0 2.369394,-0.237717 3.425781,-0.669922 0.813821,1.877392 2.732514,3.195312 4.96875,3.195312 2.973869,0 5.384766,-2.332138 5.384766,-5.208984 0,-2.693053 -2.112794,-4.907566 -4.822266,-5.179688 0.04679,-0.371116 0.07031,-0.751004 0.07031,-1.134765 0,-4.969099 -4.041736,-8.996094 -9.027344,-8.996094 -2.688863,0 -5.10209,1.172177 -6.75586,3.03125 -0.725635,-0.322635 -1.552947,-0.505859 -2.429687,-0.505859 -1.31996,0 -2.525439,0.413112 -3.445313,1.095703 -1.280809,-2.172618 -3.58489,-3.621094 -6.214843,-3.621094 z m 0.896484,37.56836 c -1.482012,0 -2.683594,1.19963 -2.683594,2.68164 0,1.48201 1.201582,2.68359 2.683594,2.68359 1.482012,0 2.683594,-1.20158 2.683594,-2.68359 0,-1.48201 -1.201582,-2.68164 -2.683594,-2.68164 z"
       style="display:inline;fill:#ffffff;fill-rule:evenodd;stroke:#000000;stroke-width:2.45669293;stroke-miterlimit:4;stroke-dasharray:none;stroke-opacity:1" />
  </g>
  <g
     style="display:inline"
     id="layer6">
    <path
       class="border-color main-color"
       id="path3317"
       d="m 19.74776,27.480519 c 0,-5.71977 0.02344,-5.945778 0.77305,-7.468549 0.48201,-0.979093 1.711099,-2.320028 2.635548,-2.875374 0.973193,-0.58462 2.552514,-1.095004 3.875374,-1.252394 0.616339,-0.07331 3.058804,-0.133472 5.427712,-0.133666 l 4.307085,-3.5e-4 0.156371,-0.52918 c 0.273485,-0.925606 0.968844,-1.572165 2.030899,-1.888384 0.200648,-0.05969 0.217888,-0.335512 0.217888,-3.486141 V 6.4252446 L 35.443203,5.8701724 c -3.715133,-0.037336 -3.810053,0.4753604 -4.211059,0.189361 -0.57766,-0.4120236 -0.827227,-0.952812 -0.821305,-1.7797178 0.0058,-0.8252227 0.314763,-1.413996 0.939102,-1.7902088 0.403808,-0.2433345 0.557998,0.51125 9.986942,0.51125 9.428964,0 9.735207,-0.7545845 10.139014,-0.51125 0.630592,0.3799754 0.953016,0.9938736 0.947921,1.8048812 -0.0049,0.8110569 -0.263781,1.3610826 -0.830134,1.7650454 C 51.192551,6.3456316 51.213039,5.834362 47.496661,5.8701724 L 43.654142,6.4221433 V 9.844965 c 0,3.152117 0.01721,3.427965 0.217889,3.487716 0.52664,0.156796 1.311678,0.617873 1.534661,0.901365 0.133501,0.169699 0.339226,0.580275 0.457178,0.912373 l 0.214448,0.603814 h 4.889033 4.889034 V 12.99678 c 0,-2.592223 0.01567,-2.781515 0.269411,-3.23281 0.370671,-0.6594889 0.860228,-0.8618888 2.084755,-0.8618888 H 59.2197 l -0.0319,9.9921228 -0.0319,9.992114 h -1.080744 c -0.897088,0 -1.140433,-0.04385 -1.431907,-0.257881 -0.725229,-0.532612 -0.786515,-0.835063 -0.786738,-3.882159 l -1.27e-4,-2.770402 h -4.918291 c -4.656773,0 -4.918241,0.01196 -4.918241,0.224579 0,0.451431 -0.632616,1.491685 -1.107112,1.820516 -0.659285,0.456886 -1.479716,0.565515 -3.935646,0.521119 -1.532213,-0.02772 -2.237053,-0.08984 -2.552504,-0.224861 -0.617039,-0.264171 -1.342822,-1.116941 -1.522555,-1.788916 l -0.151287,-0.565642 -4.797264,0.03774 c -3.826894,0.03015 -4.866524,0.07331 -5.13967,0.213366 -0.18833,0.09656 -0.343621,0.236655 -0.345088,0.311271 -9.74e-4,0.07457 -3.51e-4,2.390894 0.0029,5.147274 l 0.0058,5.011623 h -3.364471 -3.364464 z"
       style="display:inline;fill-opacity:1;stroke-width:1.84251976;stroke-miterlimit:4;stroke-dasharray:none;stroke-opacity:1" />
    <path
       class="border-color main-color"
       id="path8598"
       d="m 22.901843,34.019444 c -0.909623,2.418955 -3.147773,4.488337 -3.147773,6.995054 0,2.34251 1.595287,4.317053 3.147773,4.317053 1.552484,0 3.14778,-1.974543 3.14778,-4.317053 0,-2.506717 -2.238149,-4.576099 -3.14778,-6.995054 z"
       style="display:inline;fill-opacity:1;stroke-width:1.84251975;stroke-linecap:butt;stroke-linejoin:miter;stroke-opacity:1;stroke-miterlimit:4;stroke-dasharray:none" />
    <path
       class="border-color main-color"
       id="path3584"
       d="m 59.711535,15.147186 v 7.424622 h 20.938171 c 1.287797,0 2.661519,1.373722 2.661519,2.661519 l 1e-6,72.777939 h 7.29204 V 22.571808 c -2e-6,-3.579729 -3.844895,-7.424622 -7.424624,-7.424622 z"
       style="stroke-width:1.84251975;stroke-linecap:butt;stroke-linejoin:miter;stroke-opacity:1;stroke-miterlimit:4;stroke-dasharray:none;fill-opacity:1" />
  </g>
</svg>
