<?xml version="1.0" encoding="UTF-8" standalone="no"?>
<svg
   xmlns:dc="http://purl.org/dc/elements/1.1/"
   xmlns:cc="http://creativecommons.org/ns#"
   xmlns:rdf="http://www.w3.org/1999/02/22-rdf-syntax-ns#"
   xmlns:svg="http://www.w3.org/2000/svg"
   xmlns="http://www.w3.org/2000/svg"
   xmlns:sodipodi="http://sodipodi.sourceforge.net/DTD/sodipodi-0.dtd"
   xmlns:inkscape="http://www.inkscape.org/namespaces/inkscape"
   version="1.0"
   width="100pt"
   height="100pt"
   viewBox="0 0 100 100"
   preserveAspectRatio="xMidYMid meet"
   id="svg48"
   sodipodi:docname="deliveryTruck1.svg"
   inkscape:version="0.92.2 (5c3e80d, 2017-08-06)"
   enable-background="new">
  <defs
     id="defs52">
    <inkscape:path-effect
       effect="bspline"
       id="path-effect4013"
       is_visible="true"
       weight="33.333333"
       steps="2"
       helper_size="0"
       apply_no_weight="true"
       apply_with_weight="true"
       only_selected="false" />
    <inkscape:path-effect
       effect="bspline"
       id="path-effect4009"
       is_visible="true"
       weight="33.333333"
       steps="2"
       helper_size="0"
       apply_no_weight="true"
       apply_with_weight="true"
       only_selected="false" />
    <inkscape:path-effect
       effect="bspline"
       id="path-effect4005"
       is_visible="true"
       weight="33.333333"
       steps="2"
       helper_size="0"
       apply_no_weight="true"
       apply_with_weight="true"
       only_selected="false" />
    <inkscape:path-effect
       effect="bspline"
       id="path-effect4001"
       is_visible="true"
       weight="33.333333"
       steps="2"
       helper_size="0"
       apply_no_weight="true"
       apply_with_weight="true"
       only_selected="false" />
    <inkscape:path-effect
       effect="bspline"
       id="path-effect3993"
       is_visible="true"
       weight="33.333333"
       steps="2"
       helper_size="0"
       apply_no_weight="true"
       apply_with_weight="true"
       only_selected="false" />
    <inkscape:path-effect
       effect="bspline"
       id="path-effect3908"
       is_visible="true"
       weight="33.333333"
       steps="2"
       helper_size="0"
       apply_no_weight="true"
       apply_with_weight="true"
       only_selected="false" />
    <inkscape:path-effect
       effect="bspline"
       id="path-effect3904"
       is_visible="true"
       weight="33.333333"
       steps="2"
       helper_size="0"
       apply_no_weight="true"
       apply_with_weight="true"
       only_selected="false" />
    <inkscape:path-effect
       effect="bspline"
       id="path-effect3900"
       is_visible="true"
       weight="33.333333"
       steps="2"
       helper_size="0"
       apply_no_weight="true"
       apply_with_weight="true"
       only_selected="false" />
    <inkscape:path-effect
       effect="bspline"
       id="path-effect3896"
       is_visible="true"
       weight="33.333333"
       steps="2"
       helper_size="0"
       apply_no_weight="true"
       apply_with_weight="true"
       only_selected="false" />
    <inkscape:path-effect
       effect="bspline"
       id="path-effect3892"
       is_visible="true"
       weight="33.333333"
       steps="2"
       helper_size="0"
       apply_no_weight="true"
       apply_with_weight="true"
       only_selected="false" />
    <inkscape:path-effect
       effect="bspline"
       id="path-effect3886"
       is_visible="true"
       weight="33.333333"
       steps="2"
       helper_size="0"
       apply_no_weight="true"
       apply_with_weight="true"
       only_selected="false" />
    <inkscape:path-effect
       effect="bspline"
       id="path-effect3882"
       is_visible="true"
       weight="33.333333"
       steps="2"
       helper_size="0"
       apply_no_weight="true"
       apply_with_weight="true"
       only_selected="false" />
    <linearGradient
       id="linearGradient-1"
       y2="166.87286"
       x2="184.5"
       y1="35.965008"
       x1="184.5"
       gradientTransform="scale(0.77777778,1.2857143)"
       gradientUnits="userSpaceOnUse">
      <stop
         id="stop994"
         offset="0%"
         stop-color="#F7E2A8" />
      <stop
         id="stop996"
         offset="100%"
         stop-color="#F1DDAF" />
    </linearGradient>
    <linearGradient
       id="linearGradient-2"
       y2="178.8911"
       x2="90.915649"
       y1="40.125107"
       x1="90.915649"
       gradientTransform="scale(0.8359397,1.1962585)"
       gradientUnits="userSpaceOnUse">
      <stop
         id="stop999"
         offset="0%"
         stop-color="#F7E2A8" />
      <stop
         id="stop1001"
         offset="100%"
         stop-color="#F1DDAF" />
    </linearGradient>
    <linearGradient
       id="linearGradient-3"
       y2="170.14777"
       x2="91.120796"
       y1="55.047806"
       x1="91.120796"
       gradientTransform="scale(0.83405766,1.1989579)"
       gradientUnits="userSpaceOnUse">
      <stop
         id="stop1004"
         offset="0%"
         stop-color="#F3B011" />
      <stop
         id="stop1006"
         offset="100%"
         stop-color="#F5A711" />
    </linearGradient>
    <linearGradient
       id="linearGradient-1-8"
       y2="166.87286"
       x2="184.5"
       y1="35.965008"
       x1="184.5"
       gradientTransform="scale(0.77777778,1.2857143)"
       gradientUnits="userSpaceOnUse">
      <stop
         id="stop3920"
         offset="0%"
         stop-color="#F7E2A8" />
      <stop
         id="stop3922"
         offset="100%"
         stop-color="#F1DDAF" />
    </linearGradient>
    <linearGradient
       id="linearGradient-2-1"
       y2="178.8911"
       x2="90.915649"
       y1="40.125107"
       x1="90.915649"
       gradientTransform="scale(0.8359397,1.1962585)"
       gradientUnits="userSpaceOnUse">
      <stop
         id="stop3925"
         offset="0%"
         stop-color="#F7E2A8" />
      <stop
         id="stop3927"
         offset="100%"
         stop-color="#F1DDAF" />
    </linearGradient>
    <linearGradient
       id="linearGradient-3-1"
       y2="170.14777"
       x2="91.120796"
       y1="55.047806"
       x1="91.120796"
       gradientTransform="scale(0.83405766,1.1989579)"
       gradientUnits="userSpaceOnUse">
      <stop
         id="stop3930"
         offset="0%"
         stop-color="#F3B011" />
      <stop
         id="stop3932"
         offset="100%"
         stop-color="#F5A711" />
    </linearGradient>
  </defs>
  <sodipodi:namedview
     pagecolor="#ffffff"
     bordercolor="#666666"
     borderopacity="1"
     objecttolerance="10"
     gridtolerance="10"
     guidetolerance="10"
     inkscape:pageopacity="0"
     inkscape:pageshadow="2"
     inkscape:window-width="1680"
     inkscape:window-height="987"
     id="namedview50"
     showgrid="false"
     inkscape:zoom="0.5"
     inkscape:cx="48.183981"
     inkscape:cy="73.39451"
     inkscape:window-x="1672"
     inkscape:window-y="-8"
     inkscape:window-maximized="1"
     inkscape:current-layer="layer2"
     inkscape:pagecheckerboard="true"
     showguides="true"
     inkscape:guide-bbox="true" />
  <metadata
     id="metadata32">
Created by potrace 1.15, written by Peter Selinger 2001-2017
<rdf:RDF>
  <cc:Work
     rdf:about="">
    <dc:format>image/svg+xml</dc:format>
    <dc:type
       rdf:resource="http://purl.org/dc/dcmitype/StillImage" />
    <dc:title></dc:title>
  </cc:Work>
</rdf:RDF>
</metadata>
  <g
     inkscape:groupmode="layer"
     id="layer3"
     inkscape:label="Alles andere"
     style="display:inline" />
  <g
     inkscape:groupmode="layer"
     id="layer2"
     inkscape:label="Truck neu"
     style="display:inline">
    <path
       class="border-color main-color"
       style="fill-opacity:1;stroke-width:4.67716551;stroke-linecap:butt;stroke-linejoin:miter;stroke-miterlimit:4;stroke-dasharray:none;stroke-opacity:1"
       d="M 3.7433544,80.994423 3.3477076,17.798838 c -0.033144,-2.347771 3.3201344,-5.70105 5.70105,-5.70105 H 56.877903 c 2.548012,0 5.70105,3.153038 5.70105,5.70105 l 0.119643,17.438574 h 21.160482 l 12.652718,24.055011 v 21.628478 z"
       id="path4995"
       inkscape:connector-curvature="0"
       sodipodi:nodetypes="cccccccccc" />
    <ellipse
       class="border-color main-color"
       style="display:inline;fill-opacity:1;stroke-width:4.67716551;stroke-linecap:butt;stroke-linejoin:miter;stroke-miterlimit:4;stroke-dasharray:none;stroke-opacity:1;paint-order:normal"
       id="path4605-5"
       cx="75.076035"
       cy="80.945168"
       rx="7.8922071"
       ry="8.0581093" />
    <ellipse
       class="border-color main-color"
       style="display:inline;fill-opacity:1;stroke-width:4.67716551;stroke-linecap:butt;stroke-linejoin:miter;stroke-miterlimit:4;stroke-dasharray:none;stroke-opacity:1;paint-order:normal"
       id="path4605"
       cx="18.649942"
       cy="80.945168"
       rx="7.8922071"
       ry="8.0581093" />
    <path
       class="border-color main-color"
       style="display:inline;fill-opacity:1;stroke-width:4.35361385;stroke-miterlimit:4;stroke-dasharray:none;stroke-opacity:1"
       d="m 19.58751,28.264989 0.0014,0.26043 0.0014,0.259067 0.170438,0.05727 c 0.09341,0.03113 0.167158,0.05946 0.163626,0.06271 -0.0035,0.0031 -0.08086,0.02988 -0.171807,0.05999 l -0.16498,0.05453 v 0.257704 0.257704 h 0.462231 v 0.219524 0.339515 3.067898 c -3.84e-4,3.43151 -0.0053,3.293688 -0.32452,3.892824 -0.168875,0.316945 -0.424999,0.687871 -1.392143,2.005724 -0.944372,1.286822 -1.392306,2.170708 -1.659391,3.277879 -0.04628,0.191853 -0.05658,1.6301 -0.0559,7.612481 4.55e-4,4.056245 0.01484,7.428209 0.03273,7.493852 0.04241,0.155709 0.317289,0.458817 0.481318,0.530409 0.08941,0.03904 0.357596,0.05732 0.874008,0.05862 l 0.916279,0.0014 -0.0041,-0.0014 3.941915,-0.0095 4.005992,-0.01091 0.164986,-0.132257 c 0.09088,-0.07307 0.209309,-0.210203 0.261794,-0.304066 l 0.09545,-0.170439 0.02727,-7.222512 c 0.03153,-8.010173 0.0463,-7.541064 -0.248159,-8.468772 -0.278403,-0.877113 -0.779973,-1.72515 -1.94164,-3.284696 -0.703926,-0.945026 -0.985016,-1.393574 -1.130351,-1.805289 l -0.100911,-0.285001 v -3.129256 l -0.02727,-3.116985 v -0.339515 -0.219524 h 0.46769 v -0.256341 -0.256339 l -0.158173,-0.05181 c -0.08674,-0.02873 -0.166801,-0.0559 -0.177253,-0.05999 -0.01649,-0.0064 0.005,-0.0159 0.156805,-0.06682 l 0.17453,-0.05864 0.0014,-0.259068 0.0027,-0.26043 c -0.8581,0.0023 -1.716203,0.0031 -2.574307,0.0041 l -0.02727,0.01091 c -0.711396,-0.02767 -1.592362,-0.015 -2.245747,-0.015 z"
       id="path3800"
       inkscape:connector-curvature="0"
       sodipodi:nodetypes="ccccccccccccccsccccccccccccccscccccccccccccccccc" />
    <path
       class="border-color main-color"
       style="display:inline;fill-opacity:1;stroke-width:4.35361385;stroke-miterlimit:4;stroke-dasharray:none;stroke-opacity:1"
       d="m 46.095745,28.263239 0.0014,0.26043 0.0014,0.259068 0.170439,0.05727 c 0.0934,0.03112 0.167157,0.05946 0.163624,0.06271 -0.0035,0.0031 -0.08086,0.02987 -0.171806,0.05999 l -0.164979,0.05453 v 0.257704 0.257704 h 0.46223 v 0.219524 0.339515 3.067899 c -3.83e-4,3.431509 -0.0053,3.293686 -0.324519,3.892822 -0.168875,0.316945 -0.425001,0.687871 -1.392145,2.005724 -0.944371,1.286822 -1.392304,2.170708 -1.65939,3.277879 -0.04628,0.191854 -0.05658,1.6301 -0.05591,7.612481 4.54e-4,4.056245 0.01484,7.428209 0.03273,7.493853 0.04241,0.155708 0.317287,0.458816 0.481317,0.530408 0.08941,0.03904 0.357596,0.05732 0.874007,0.05862 l 0.916279,0.0014 -0.0041,-0.0014 3.941913,-0.0095 4.005993,-0.01091 0.164986,-0.132256 c 0.09088,-0.07307 0.209308,-0.210204 0.261794,-0.304067 l 0.09544,-0.170439 0.02727,-7.222512 c 0.03153,-8.010171 0.0463,-7.541064 -0.24816,-8.468772 -0.278404,-0.877113 -0.779973,-1.725149 -1.941641,-3.284696 -0.703925,-0.945026 -0.985015,-1.393574 -1.130348,-1.805289 l -0.1009,-0.284975 v -3.129256 l -0.02727,-3.116977 v -0.339515 -0.219524 h 0.467691 v -0.256341 -0.256339 l -0.158174,-0.05181 c -0.08674,-0.02873 -0.1668,-0.0559 -0.177252,-0.05999 -0.0165,-0.0064 0.005,-0.0159 0.156806,-0.06682 l 0.174529,-0.05863 0.0014,-0.259067 0.0027,-0.260431 c -0.8581,0.0023 -1.716204,0.0031 -2.574307,0.0041 l -0.02727,0.01091 c -0.711396,-0.02767 -1.592362,-0.015 -2.245747,-0.015 z"
       id="path3800-0"
       inkscape:connector-curvature="0"
       sodipodi:nodetypes="ccccccccccccccsccccccccccccccscccccccccccccccccc" />
  </g>
  <g
     inkscape:groupmode="layer"
     id="layer1"
     inkscape:label="Alles andere 1" />
</svg>
