<?xml version="1.0" encoding="UTF-8" standalone="no"?>
<svg
   xmlns:dc="http://purl.org/dc/elements/1.1/"
   xmlns:cc="http://creativecommons.org/ns#"
   xmlns:rdf="http://www.w3.org/1999/02/22-rdf-syntax-ns#"
   xmlns:svg="http://www.w3.org/2000/svg"
   xmlns="http://www.w3.org/2000/svg"
   xmlns:xlink="http://www.w3.org/1999/xlink"
   id="svg1366"
   version="1.1"
   viewBox="0 0 200 100"
   height="100mm"
   width="200mm">
  <defs
     id="defs1360">
    <linearGradient
       id="linearGradient5958">
      <stop
         style="stop-color:#72c2df;stop-opacity:0.75483871"
         offset="0"
         id="stop5954" />
      <stop
         style="stop-color:#ffffff;stop-opacity:1"
         offset="1"
         id="stop5956" />
    </linearGradient>
    <linearGradient
       id="linearGradient5853">
      <stop
         id="stop5849"
         offset="0"
         style="stop-color:#535546;stop-opacity:1" />
      <stop
         id="stop5851"
         offset="1"
         style="stop-color:#cfcec2;stop-opacity:1" />
    </linearGradient>
    <linearGradient
       gradientTransform="matrix(1,0,0,1.1052634,0,-29.313659)"
       gradientUnits="userSpaceOnUse"
       y2="281.01719"
       x2="60.986458"
       y1="281.125"
       x1="51.329166"
       id="linearGradient5855"
       xlink:href="#linearGradient5853" />
    <linearGradient
       gradientTransform="matrix(0.98846873,0,0,0.99473678,2.5680764,1.5631751)"
       gradientUnits="userSpaceOnUse"
       y2="297"
       x2="95.25"
       y1="196.45833"
       x1="95.25"
       id="linearGradient5952"
       xlink:href="#linearGradient5958" />
    <linearGradient
       gradientTransform="matrix(1,0,0,1.1052634,73.818754,-70.324082)"
       gradientUnits="userSpaceOnUse"
       y2="281.01718"
       x2="60.986458"
       y1="281.125"
       x1="51.329166"
       id="linearGradient5855-4"
       xlink:href="#linearGradient5853" />
  </defs>
  <metadata
     id="metadata1363">
    <rdf:RDF>
      <cc:Work
         rdf:about="">
        <dc:format>image/svg+xml</dc:format>
        <dc:type
           rdf:resource="http://purl.org/dc/dcmitype/StillImage" />
        <dc:title></dc:title>
      </cc:Work>
    </rdf:RDF>
  </metadata>
  <g
     transform="translate(0,-197)"
     id="layer1">
    <rect
       y="196.9875"
       x="-0.04724694"
       height="100.0125"
       width="200.07224"
       id="rect5936"
       style="fill:url(#linearGradient5952);fill-opacity:1;stroke:none;stroke-width:0.79327828;stroke-linecap:butt;stroke-linejoin:miter;stroke-miterlimit:4;stroke-dasharray:none;stroke-dashoffset:0;stroke-opacity:1;paint-order:markers fill stroke" />
    <g class="unique-builds__progress unique-builds__progress-0">
      <path
         style="fill:#fabe8f;fill-opacity:1;stroke:none;stroke-width:0.2647585px;stroke-linecap:butt;stroke-linejoin:miter;stroke-opacity:1"
         d="m 0,279.80208 c 6.6233445,0 6.6233445,-5.29166 13.24669,-5.29166 6.623344,0 10.597351,5.29166 21.194702,5.29166 10.597351,0 6.623344,-6.61458 15.896027,-6.61458 9.272681,0 3.974006,3.96875 11.92202,3.96875 7.948012,0 7.948012,-2.64583 14.571358,-2.64583 6.623344,0 5.298675,2.64583 10.597351,1.32291 5.298676,-1.32291 6.623344,-3.96875 13.246692,-3.96875 6.62334,0 7.94801,7.9375 17.22069,7.9375 9.27269,0 5.29868,-5.29166 11.92202,-5.29166 6.62334,0 11.92202,3.96875 11.92202,3.96875 0,0 3.97401,-5.29167 14.57136,-5.29167 10.59735,0 13.24669,3.96875 21.1947,3.96875 7.94802,0 14.57136,-3.96875 19.87004,-3.96875 5.29867,0 2.64933,0 2.64933,0 V 297 L 0,291.70833 Z"
         id="path5630" />
      <path
         style="fill:#fad891;stroke:none;stroke-width:0.26458332px;stroke-linecap:butt;stroke-linejoin:miter;stroke-opacity:1;fill-opacity:1"
         d="m 0,279.80208 c 7.9374999,0 5.2916666,2.64584 15.875,2.64584 10.583333,0 10.583333,-6.61459 22.489583,-7.9375 11.90625,-1.32292 9.260416,6.61458 21.166666,6.61458 11.90625,0 17.197917,-6.61458 23.8125,-7.9375 6.614583,-1.32292 2.645833,2.64583 14.552083,2.64583 11.906248,0 25.135418,3.96875 31.749998,1.32292 6.61458,-2.64583 9.26042,-3.96875 18.52083,-1.32292 9.26042,2.64584 13.22917,-1.32291 23.8125,-1.32291 10.58334,0 26.45834,5.29166 26.45834,5.29166 v 10.58334 H 0 Z"
         id="path5628" />
      <path
         style="fill:#fbf3a8;stroke:none;stroke-width:0.26458332px;stroke-linecap:butt;stroke-linejoin:miter;stroke-opacity:1;fill-opacity:1"
         d="m 0,282.44792 c 7.9374999,0 14.552083,-1.32292 19.84375,-2.64584 5.291666,-1.32291 14.552083,1.32292 18.520833,1.32292 3.96875,0 10.583333,-5.29167 21.166666,-5.29167 10.583333,0 2.645834,2.64584 13.229167,2.64584 10.583333,0 10.583333,2.64583 18.520833,1.32291 7.9375,-1.32291 6.614583,-5.29166 13.229171,-5.29166 6.61458,0 10.58333,3.96875 14.55208,3.96875 3.96875,0 15.875,5.29166 22.48958,3.96875 6.61458,-1.32292 6.61458,-6.61459 15.875,-6.61459 9.26042,0 6.61458,3.96875 13.22917,3.96875 6.61458,0 7.9375,-2.64583 17.19791,-2.64583 9.26042,0 11.90625,1.32292 11.90625,1.32292 H 200.025 V 297 H 0 Z"
         id="path5602" />
    </g>
    <g class="unique-builds__progress unique-builds__progress-1">
      <path
         style="fill:#c0aa80;stroke:none;stroke-width:0.26458332px;stroke-linecap:butt;stroke-linejoin:miter;stroke-opacity:1;fill-opacity:1"
         d="m 178.59375,282.44792 1.32291,-29.10417 2.64584,-2.64583 2.64583,2.64583 1.32292,29.10417 z"
         id="path5637" />
      <path
         style="fill:#927948;stroke:none;stroke-width:0.26458332px;stroke-linecap:butt;stroke-linejoin:miter;stroke-opacity:1;fill-opacity:1"
         d="m 182.5625,250.69792 1.32291,2.64583 1.32292,29.10417 h 1.32292 l -1.32292,-29.10417 z"
         id="path5639" />
    </g>
    <g
       class="unique-builds__work unique-builds__work-1">
      <path
         id="path5833"
         d="m 178.59375,256.25417 h 1.32291"
         style="fill:none;stroke:#915215;stroke-width:0.26458332px;stroke-linecap:butt;stroke-linejoin:miter;stroke-opacity:1" />
      <path
         style="fill:#a99164;stroke:#531c1c;stroke-width:0.6;stroke-linecap:butt;stroke-linejoin:miter;stroke-opacity:1;fill-opacity:1;stroke-miterlimit:4;stroke-dasharray:none"
         d="m 132.29166,283.77083 v 2.64584"
         id="path5647" />
      <path
         style="fill:#a99164;fill-opacity:1;stroke:#531c1c;stroke-width:0.60000002;stroke-linecap:butt;stroke-linejoin:miter;stroke-miterlimit:4;stroke-dasharray:none;stroke-opacity:1"
         d="m 149.48958,285.09374 v 2.64584"
         id="path5647-6" />
      <path
         style="fill:none;stroke:#915215;stroke-width:0.6;stroke-linecap:butt;stroke-linejoin:miter;stroke-opacity:1;stroke-miterlimit:4;stroke-dasharray:none"
         d="M 186.53125,250.69792 190.5,283.77083"
         id="path5666" />
      <path
         style="fill:none;stroke:#915215;stroke-width:0.5;stroke-linecap:butt;stroke-linejoin:miter;stroke-opacity:1;stroke-miterlimit:4;stroke-dasharray:none"
         d="m 177.27083,281.125 1.32292,-30.42708"
         id="path5668" />
      <path
         style="fill:none;stroke:#000000;stroke-width:0.26458332px;stroke-linecap:butt;stroke-linejoin:miter;stroke-opacity:1"
         d="m 132.29166,285.09375 c 24.24796,-7.02858 33.07292,-17.19792 50.27084,-34.39583 -6.61458,13.22916 -11.90625,31.75 -33.07292,35.71875"
         id="path5645" />
      <path
         style="fill:#803300;stroke:#915215;stroke-width:0.6;stroke-linecap:butt;stroke-linejoin:miter;stroke-opacity:1;stroke-miterlimit:4;stroke-dasharray:none"
         d="m 174.625,283.77083 2.64583,-33.07291"
         id="path5664" />
      <path
         style="fill:none;stroke:#915215;stroke-width:0.5;stroke-linecap:butt;stroke-linejoin:miter;stroke-opacity:1;stroke-miterlimit:4;stroke-dasharray:none"
         d="m 189.17708,279.80208 -3.96875,-29.10416"
         id="path5670" />
      <path
         style="fill:none;stroke:#915215;stroke-width:0.26458332px;stroke-linecap:butt;stroke-linejoin:miter;stroke-opacity:1"
         d="m 177.53541,273.1875 -2.11666,1.5875 14.02291,-0.26458 -1.32291,-1.32292"
         id="path5672" />
      <path
         style="fill:none;stroke:#915215;stroke-width:0.26458332px;stroke-linecap:butt;stroke-linejoin:miter;stroke-opacity:1"
         d="m 177.8,267.89583 -1.85209,1.32292 12.7,-0.26458 -1.05833,-1.32292"
         id="path5674" />
      <path
         style="fill:none;stroke:#915215;stroke-width:0.26458332px;stroke-linecap:butt;stroke-linejoin:miter;stroke-opacity:1"
         d="m 178.06458,262.60417 -1.85208,1.32291 11.90625,-0.26458 -1.32292,-1.05833"
         id="path5676" />
      <path
         style="fill:none;stroke:#915215;stroke-width:0.26458332px;stroke-linecap:butt;stroke-linejoin:miter;stroke-opacity:1"
         d="m 178.32916,255.98958 -1.5875,1.32292 H 187.325 l -1.32292,-1.32292"
         id="path5678" />
      <path
         id="path5821"
         d="m 177.53541,273.1875 h 1.5875"
         style="fill:none;stroke:#915215;stroke-width:0.26458332px;stroke-linecap:butt;stroke-linejoin:miter;stroke-opacity:1" />
      <path
         id="path5823"
         d="m 186.26666,273.1875 2.11667,0.26458"
         style="fill:none;stroke:#915215;stroke-width:0.26458332px;stroke-linecap:butt;stroke-linejoin:miter;stroke-opacity:1" />
      <path
         id="path5825"
         d="m 177.8,268.16042 h 1.32291"
         style="fill:none;stroke:#915215;stroke-width:0.26458332px;stroke-linecap:butt;stroke-linejoin:miter;stroke-opacity:1" />
      <path
         id="path5827"
         d="m 186.00208,267.89583 h 1.5875"
         style="fill:none;stroke:#915215;stroke-width:0.26458332px;stroke-linecap:butt;stroke-linejoin:miter;stroke-opacity:1" />
      <path
         id="path5829"
         d="m 178.06458,262.86875 h 1.32292"
         style="fill:none;stroke:#915215;stroke-width:0.26458332px;stroke-linecap:butt;stroke-linejoin:miter;stroke-opacity:1" />
      <path
         id="path5831"
         d="m 185.7375,262.86875 h 1.32291"
         style="fill:none;stroke:#915215;stroke-width:0.26458332px;stroke-linecap:butt;stroke-linejoin:miter;stroke-opacity:1" />
      <path
         id="path5835"
         d="m 185.20833,255.98958 h 0.79375"
         style="fill:none;stroke:#915215;stroke-width:0.26458332px;stroke-linecap:butt;stroke-linejoin:miter;stroke-opacity:1" />
    </g>
    <g
       transform="translate(-0.396876,3.12982)"
       class="unique-builds__progress unique-builds__progress-2">
      <path
         style="fill:#a58d17;fill-opacity:1;stroke:none;stroke-width:0.33349603px;stroke-linecap:butt;stroke-linejoin:miter;stroke-opacity:1"
         d="m 30.427083,258.63542 c 0.984838,0.67759 6.565588,4.74314 7.550426,5.42074 0.984838,0.67758 0.656559,1.01638 -0.984838,2.37156 -1.641398,1.35518 -7.222146,6.43712 -7.222146,6.43712"
         id="path5792-8" />
      <path
         style="fill:#e6cc4a;fill-opacity:1;stroke:none;stroke-width:0.33349603px;stroke-linecap:butt;stroke-linejoin:miter;stroke-opacity:1"
         d="m 22.54838,258.63542 c -0.984838,0.67759 -6.565587,4.74314 -7.550425,5.42074 -0.984838,0.67758 -0.656559,1.01638 0.984838,2.37156 1.641397,1.35518 7.222145,6.43712 7.222145,6.43712"
         id="path5792" />
      <rect
         style="fill:#a58d17;fill-opacity:1;stroke:none;stroke-width:0.63022876;stroke-linecap:butt;stroke-linejoin:miter;stroke-miterlimit:4;stroke-dasharray:none;stroke-dashoffset:0;stroke-opacity:1;paint-order:markers fill stroke"
         id="rect5737-8"
         width="9.8483801"
         height="11.857848"
         x="26.487732"
         y="274.55881" />
      <path
         style="fill:#987315;fill-opacity:1;stroke:none;stroke-width:0.45194396px;stroke-linecap:butt;stroke-linejoin:miter;stroke-opacity:1"
         d="m 31.411923,286.41667 h 8.863542 v -3.6624 c 0,-2.3044 -0.830956,-3.18913 -3.046844,-3.18913 h -2.730286 c -2.215886,0 -3.02236,0.82315 -3.046843,3.12741 z"
         id="path5705-4" />
      <rect
         style="fill:#e6cc4a;fill-opacity:1;stroke:none;stroke-width:0.63022876;stroke-linecap:butt;stroke-linejoin:miter;stroke-miterlimit:4;stroke-dasharray:none;stroke-dashoffset:0;stroke-opacity:1;paint-order:markers fill stroke"
         id="rect5737"
         width="9.8483801"
         height="11.857848"
         x="16.639353"
         y="274.55881" />
      <path
         style="fill:#e0aa21;fill-opacity:1;stroke:none;stroke-width:0.45194396px;stroke-linecap:butt;stroke-linejoin:miter;stroke-opacity:1"
         d="m 12.7,286.41667 h 8.863542 v -3.6624 c 0,-2.3044 -0.830956,-3.18913 -3.046844,-3.18913 h -2.730286 c -2.215886,0 -3.02236,0.82315 -3.046842,3.12741 z"
         id="path5705-4-6" />
      <path
         style="fill:#cfc493;fill-opacity:1;stroke:none;stroke-width:0.33349603px;stroke-linecap:butt;stroke-linejoin:miter;stroke-opacity:1"
         d="m 16.639352,274.55882 4.92419,-8.46989 h 4.92419 v 8.46989 z"
         id="path5754" />
      <path
         style="fill:#a29148;fill-opacity:1;stroke:none;stroke-width:0.33349603px;stroke-linecap:butt;stroke-linejoin:miter;stroke-opacity:1"
         d="m 36.336113,274.55882 -4.92419,-8.46989 h -4.924191 v 8.46989 z"
         id="path5754-0" />
      <path
         style="fill:#e0aa21;fill-opacity:1;stroke:none;stroke-width:0.33349603px;stroke-linecap:butt;stroke-linejoin:miter;stroke-opacity:1"
         d="m 26.487732,257.61903 c 0,0 0,0 -1.641397,0 -1.641397,0 -3.282793,1.69398 -3.282793,3.38797 0,1.69397 0,0 0,5.08193 0,5.08194 4.92419,5.08194 4.92419,5.08194 z"
         id="path5775" />
      <path
         style="fill:#987315;fill-opacity:1;stroke:none;stroke-width:0.33349603px;stroke-linecap:butt;stroke-linejoin:miter;stroke-opacity:1"
         d="m 26.487732,257.61903 c 0,0 0,0 1.641398,0 1.641397,0 3.282793,1.69398 3.282793,3.38797 0,1.69397 0,0 0,5.08193 0,5.08194 -4.924191,5.08194 -4.924191,5.08194 z"
         id="path5775-8" />
    </g>
    <g
       transform="translate(-1.0583333,2.6458334)"
       class="unique-builds__work unique-builds__work-2">
      <path
         style="fill:#7e816d;fill-opacity:1;stroke:none;stroke-width:0.26458332px;stroke-linecap:butt;stroke-linejoin:miter;stroke-opacity:1"
         d="m 47.624999,283.77083 0.79375,-0.79375 h 2.645834 V 284.3 l -0.79375,0.79375 z"
         id="path5863" />
      <rect
         style="fill:#c3c5b9;fill-opacity:1;stroke:none;stroke-width:0.69999999;stroke-linecap:butt;stroke-linejoin:miter;stroke-miterlimit:4;stroke-dasharray:none;stroke-dashoffset:0;stroke-opacity:1;paint-order:markers fill stroke"
         id="rect5861"
         width="2.6458333"
         height="1.3229166"
         x="47.625"
         y="283.77084" />
      <path
         style="fill:none;stroke:#915215;stroke-width:1;stroke-linecap:butt;stroke-linejoin:miter;stroke-miterlimit:4;stroke-dasharray:none;stroke-opacity:1"
         d="m 11.90625,287.73958 2.645833,-21.16666"
         id="path5837" />
      <path
         style="fill:none;stroke:#915215;stroke-width:1;stroke-linecap:butt;stroke-linejoin:miter;stroke-miterlimit:4;stroke-dasharray:none;stroke-opacity:1"
         d="m 42.333333,287.73958 -3.96875,-21.16666"
         id="path5839" />
      <path
         style="fill:none;stroke:#915215;stroke-width:0.69999999;stroke-linecap:butt;stroke-linejoin:miter;stroke-miterlimit:4;stroke-dasharray:none;stroke-opacity:1"
         d="M 14.552083,269.21875 H 38.89375"
         id="path5841" />
      <path
         style="fill:none;stroke:#915215;stroke-width:0.69999999;stroke-linecap:butt;stroke-linejoin:miter;stroke-miterlimit:4;stroke-dasharray:none;stroke-opacity:1"
         d="m 13.229167,278.47917 5.291666,9.26041"
         id="path5843" />
      <path
         style="fill:none;stroke:#915215;stroke-width:0.69999999;stroke-linecap:butt;stroke-linejoin:miter;stroke-miterlimit:4;stroke-dasharray:none;stroke-opacity:1"
         d="m 34.395833,287.73958 6.614583,-7.9375"
         id="path5845" />
      <path
         style="fill:#a1a493;fill-opacity:1;stroke:none;stroke-width:0.26458332px;stroke-linecap:butt;stroke-linejoin:miter;stroke-opacity:1"
         d="M 48.947917,285.09375 49.741667,284.3 h 2.645834 v 1.32292 l -0.79375,0.79375 z"
         id="path5863-7" />
      <path
         style="fill:none;stroke:#915215;stroke-width:0.33666036px;stroke-linecap:butt;stroke-linejoin:miter;stroke-opacity:1"
         d="M 47.095833,287.21042 49.2125,282.7125"
         id="path5859" />
      <rect
         style="fill:#e0e1db;fill-opacity:1;stroke:none;stroke-width:0.69999999;stroke-linecap:butt;stroke-linejoin:miter;stroke-miterlimit:4;stroke-dasharray:none;stroke-dashoffset:0;stroke-opacity:1;paint-order:markers fill stroke"
         id="rect5861-2"
         width="2.6458333"
         height="1.3229166"
         x="48.947918"
         y="285.09375" />
      <path
         style="fill:url(#linearGradient5855);fill-opacity:1;stroke:none;stroke-width:0.27816042px;stroke-linecap:butt;stroke-linejoin:miter;stroke-opacity:1"
         d="m 48.947916,278.47917 c 2.645833,1.46216 2.645834,5.01316 7.408334,3.84341 10e-7,2.04705 -0.793749,2.92435 -1.852083,4.09409 -2.910417,0.58486 -3.704167,-2.56228 -5.55625,-3.43959 0.793751,-1.46217 -10e-7,-4.49791 -10e-7,-4.49791 z"
         id="path5847" />
      <path
         style="fill:none;stroke:#915215;stroke-width:0.26458332px;stroke-linecap:butt;stroke-linejoin:miter;stroke-opacity:1"
         d="m 48.947916,278.47917 -2.645833,5.29166"
         id="path5857" />
      <path
         style="fill:#a1a493;fill-opacity:1;stroke:none;stroke-width:0.26458332px;stroke-linecap:butt;stroke-linejoin:miter;stroke-opacity:1"
         d="m 5.8208333,287.21042 0.79375,-0.79375 h 2.645834 v 1.32292 l -0.79375,0.79375 z"
         id="path5863-7-7" />
      <rect
         style="fill:#e0e1db;fill-opacity:1;stroke:none;stroke-width:0.69999999;stroke-linecap:butt;stroke-linejoin:miter;stroke-miterlimit:4;stroke-dasharray:none;stroke-dashoffset:0;stroke-opacity:1;paint-order:markers fill stroke"
         id="rect5861-2-4"
         width="2.6458333"
         height="1.3229166"
         x="5.8208342"
         y="287.21042" />
      <path
         style="fill:none;stroke:#915215;stroke-width:0.69999999;stroke-linecap:butt;stroke-linejoin:miter;stroke-miterlimit:4;stroke-dasharray:none;stroke-opacity:1"
         d="M 13.229167,274.51042 H 39.6875"
         id="path5911" />
      <path
         style="fill:none;stroke:#714111;stroke-width:3;stroke-linecap:butt;stroke-linejoin:miter;stroke-miterlimit:4;stroke-dasharray:0.75, 0.75;stroke-dashoffset:0;stroke-opacity:1"
         d="m 21.166666,269.21875 3.96875,18.52083"
         id="path5913" />
      <path
         style="fill:none;stroke:#714111;stroke-width:0.80000001;stroke-linecap:butt;stroke-linejoin:miter;stroke-miterlimit:4;stroke-dasharray:none;stroke-opacity:1"
         d="m 21.166666,269.21875 3.96875,18.52083"
         id="path5915" />
    </g>
    <g
       class="unique-builds__progress unique-builds__progress-3">
      <path
         style="fill:#faf9e1;fill-opacity:1;stroke:none;stroke-width:0.34466639px;stroke-linecap:butt;stroke-linejoin:miter;stroke-opacity:1"
         d="m 60.325005,285.35833 86.396045,7.01251 -32.18675,-57.85334 -11.85831,-0.70124 z"
         id="path5960" />
      <path
         style="fill:#ececc3;fill-opacity:1;stroke:none;stroke-width:0.34466639px;stroke-linecap:butt;stroke-linejoin:miter;stroke-opacity:1"
         d="m 146.72105,292.37084 8.47019,-8.76564 -39.97932,-49.78894 -0.67762,0.70124 z"
         id="path7529" />
      <path
         style="fill:#ffffff;fill-opacity:1;stroke:none;stroke-width:0.34466639px;stroke-linecap:butt;stroke-linejoin:miter;stroke-opacity:1"
         d="m 102.67599,233.81626 1.01643,-0.70126 11.5195,0.70126 -0.67762,0.70124 z"
         id="path7531" />
    </g>
    <g
       class="unique-builds__progress unique-builds__progress-4">
      <path
         style="fill:#feff7b;fill-opacity:1;stroke:none;stroke-width:0.26458332px;stroke-linecap:butt;stroke-linejoin:miter;stroke-opacity:1"
         d="m 102.67599,233.81626 7.12609,-8.25376 4.7625,8.99583 z"
         id="path7796" />
      <path
         style="fill:#dadc00;stroke:none;stroke-width:0.26458332px;stroke-linecap:butt;stroke-linejoin:miter;stroke-opacity:1;fill-opacity:1"
         d="m 115.35833,234.02917 -5.55625,-8.46667 4.7625,8.99583 z"
         id="path7798" />
    </g>
    <g class="unique-builds__work unique-builds__work-4">
      <path
         style="fill:none;stroke:#915215;stroke-width:0.5;stroke-linecap:butt;stroke-linejoin:miter;stroke-opacity:1;stroke-miterlimit:4;stroke-dasharray:none"
         d="m 101.86458,234.82292 v -5.29167 l 13.22917,0.79375 v 5.29167"
         id="path7804" />
      <path
         style="fill:none;stroke:#915215;stroke-width:0.5;stroke-linecap:butt;stroke-linejoin:miter;stroke-opacity:1;stroke-miterlimit:4;stroke-dasharray:none"
         d="m 101.86458,229.53125 2.64584,-1.32292 v 3.43959"
         id="path7806" />
      <path
         style="fill:none;stroke:#915215;stroke-width:0.5;stroke-linecap:butt;stroke-linejoin:miter;stroke-opacity:1;stroke-miterlimit:4;stroke-dasharray:none"
         d="m 115.09375,230.58958 1.32292,-1.05833 v 5.82083"
         id="path7808" />
      <path
         style="fill:none;stroke:#915215;stroke-width:0.5;stroke-linecap:butt;stroke-linejoin:miter;stroke-miterlimit:4;stroke-dasharray:none;stroke-opacity:1"
         d="m 104.51042,228.20833 2.64583,0.26459"
         id="path7810" />
      <path
         style="fill:none;stroke:#915215;stroke-width:0.5;stroke-linecap:butt;stroke-linejoin:miter;stroke-opacity:1;stroke-miterlimit:4;stroke-dasharray:none"
         d="m 111.91875,228.7375 4.49792,0.52917"
         id="path7812" />
      <path
         style="fill:#552200;stroke:none;stroke-width:0.26458332px;stroke-linecap:butt;stroke-linejoin:miter;stroke-opacity:1;fill-opacity:1"
         d="m 109.27292,230.58958 3.70416,-2.38125 2.38125,0.26459 -3.43958,2.38125 z"
         id="path7814" />
      <path
         style="fill:#552200;fill-opacity:1;stroke:none;stroke-width:0.26458332px;stroke-linecap:butt;stroke-linejoin:miter;stroke-opacity:1"
         d="m 104.775,230.06042 0.26458,-2.11667 2.11667,0.26458 0.26458,2.11667 z"
         id="path7814-3" />
    </g>
    <g
       transform="translate(0.26458333,-0.22678257)"
       class="unique-builds__work unique-builds__work-3">
      <path
         style="fill:none;stroke:#915215;stroke-width:0.5;stroke-linecap:butt;stroke-linejoin:miter;stroke-miterlimit:4;stroke-dasharray:none;stroke-opacity:1"
         d="m 96.572915,233.5 2.645835,-1.32292 v 5.82084"
         id="path7655" />
      <path
         id="path5863-7-7-2"
         d="m 72.848406,290.45458 0.79375,-0.79375 h 2.645834 v 1.32292 l -0.79375,0.79375 z"
         style="fill:#a1a493;fill-opacity:1;stroke:none;stroke-width:0.26458332px;stroke-linecap:butt;stroke-linejoin:miter;stroke-opacity:1" />
      <rect
         y="290.45456"
         x="72.848404"
         height="1.3229166"
         width="2.6458333"
         id="rect5861-2-4-0"
         style="fill:#e0e1db;fill-opacity:1;stroke:none;stroke-width:0.69999999;stroke-linecap:butt;stroke-linejoin:miter;stroke-miterlimit:4;stroke-dasharray:none;stroke-dashoffset:0;stroke-opacity:1;paint-order:markers fill stroke" />
      <path
         id="path5863-7-7-7"
         d="m 76.287987,289.66083 0.79375,-0.79375 h 2.645834 V 290.19 l -0.79375,0.79375 z"
         style="fill:#a1a493;fill-opacity:1;stroke:none;stroke-width:0.26458332px;stroke-linecap:butt;stroke-linejoin:miter;stroke-opacity:1" />
      <rect
         y="289.66083"
         x="76.287987"
         height="1.3229166"
         width="2.6458333"
         id="rect5861-2-4-5"
         style="fill:#e0e1db;fill-opacity:1;stroke:none;stroke-width:0.69999999;stroke-linecap:butt;stroke-linejoin:miter;stroke-miterlimit:4;stroke-dasharray:none;stroke-dashoffset:0;stroke-opacity:1;paint-order:markers fill stroke" />
      <path
         id="path5863-7-7-3"
         d="m 73.642156,288.33791 0.79375,-0.79375 h 2.645834 v 1.32292 l -0.79375,0.79375 z"
         style="fill:#a1a493;fill-opacity:1;stroke:none;stroke-width:0.26458332px;stroke-linecap:butt;stroke-linejoin:miter;stroke-opacity:1" />
      <rect
         y="288.33792"
         x="73.642159"
         height="1.3229166"
         width="2.6458333"
         id="rect5861-2-4-3"
         style="fill:#e0e1db;fill-opacity:1;stroke:none;stroke-width:0.69999999;stroke-linecap:butt;stroke-linejoin:miter;stroke-miterlimit:4;stroke-dasharray:none;stroke-dashoffset:0;stroke-opacity:1;paint-order:markers fill stroke" />
      <path
         id="path5863-7-7-6"
         d="m 69.307085,288.9846 0.79375,-0.79375 h 2.645834 v 1.32292 l -0.79375,0.79375 z"
         style="fill:#a1a493;fill-opacity:1;stroke:none;stroke-width:0.26458332px;stroke-linecap:butt;stroke-linejoin:miter;stroke-opacity:1" />
      <rect
         y="288.98459"
         x="69.307083"
         height="1.3229166"
         width="2.6458333"
         id="rect5861-2-4-7"
         style="fill:#e0e1db;fill-opacity:1;stroke:none;stroke-width:0.69999999;stroke-linecap:butt;stroke-linejoin:miter;stroke-miterlimit:4;stroke-dasharray:none;stroke-dashoffset:0;stroke-opacity:1;paint-order:markers fill stroke" />
      <path
         id="path5863-7-7-8"
         d="m 149.02022,292.39229 0.79375,-0.79375 h 2.64583 v 1.32292 l -0.79375,0.79375 z"
         style="fill:#a1a493;fill-opacity:1;stroke:none;stroke-width:0.26458332px;stroke-linecap:butt;stroke-linejoin:miter;stroke-opacity:1" />
      <rect
         y="292.39227"
         x="149.02023"
         height="1.3229166"
         width="2.6458333"
         id="rect5861-2-4-8"
         style="fill:#e0e1db;fill-opacity:1;stroke:none;stroke-width:0.69999999;stroke-linecap:butt;stroke-linejoin:miter;stroke-miterlimit:4;stroke-dasharray:none;stroke-dashoffset:0;stroke-opacity:1;paint-order:markers fill stroke" />
      <path
         id="path5863-7-7-31"
         d="m 152.4598,292.92147 0.79375,-0.79375 h 2.64583 v 1.32292 l -0.79375,0.79375 z"
         style="fill:#a1a493;fill-opacity:1;stroke:none;stroke-width:0.26458332px;stroke-linecap:butt;stroke-linejoin:miter;stroke-opacity:1" />
      <rect
         y="292.92145"
         x="152.45979"
         height="1.3229166"
         width="2.6458333"
         id="rect5861-2-4-4"
         style="fill:#e0e1db;fill-opacity:1;stroke:none;stroke-width:0.69999999;stroke-linecap:butt;stroke-linejoin:miter;stroke-miterlimit:4;stroke-dasharray:none;stroke-dashoffset:0;stroke-opacity:1;paint-order:markers fill stroke" />
      <path
         style="fill:none;stroke:#915215;stroke-width:0.5;stroke-linecap:butt;stroke-linejoin:miter;stroke-miterlimit:4;stroke-dasharray:none;stroke-opacity:1"
         d="M 96.572915,241.4375 V 233.5 l 22.489585,1.32292 v 7.9375"
         id="path7651" />
      <path
         style="fill:none;stroke:#915215;stroke-width:0.5;stroke-linecap:butt;stroke-linejoin:miter;stroke-miterlimit:4;stroke-dasharray:none;stroke-opacity:1"
         d="M 119.0625,234.82292 120.38542,233.5 v 6.61458"
         id="path7653" />
      <path
         style="fill:none;stroke:#915215;stroke-width:0.92582005;stroke-linecap:butt;stroke-linejoin:miter;stroke-miterlimit:4;stroke-dasharray:none;stroke-opacity:1"
         d="m 83.343753,242.76042 5.29166,-2.26786 v 9.97858"
         id="path7655-8" />
      <path
         style="fill:none;stroke:#915215;stroke-width:0.92582005;stroke-linecap:butt;stroke-linejoin:miter;stroke-miterlimit:4;stroke-dasharray:none;stroke-opacity:1"
         d="m 83.343753,256.36756 v -13.60714 l 44.979157,2.26786 v 13.60714"
         id="path7651-8" />
      <path
         style="fill:none;stroke:#915215;stroke-width:0.92582005;stroke-linecap:butt;stroke-linejoin:miter;stroke-miterlimit:4;stroke-dasharray:none;stroke-opacity:1"
         d="m 128.32291,245.02828 2.64584,-2.26786 v 11.33928"
         id="path7653-0" />
      <path
         style="fill:none;stroke:#915215;stroke-width:0.69999999;stroke-linecap:butt;stroke-linejoin:miter;stroke-miterlimit:4;stroke-dasharray:none;stroke-opacity:1"
         d="M 83.343749,242.76042 96.572915,241.4375"
         id="path7678" />
      <path
         style="fill:none;stroke:#915215;stroke-width:0.5;stroke-linecap:butt;stroke-linejoin:miter;stroke-miterlimit:4;stroke-dasharray:none;stroke-opacity:1"
         d="m 88.635416,240.11458 7.937499,1.32292 22.489585,1.32292"
         id="path7680" />
      <path
         style="fill:none;stroke:#915215;stroke-width:0.5;stroke-linecap:butt;stroke-linejoin:miter;stroke-miterlimit:4;stroke-dasharray:none;stroke-opacity:1"
         d="m 120.38542,240.11458 10.58333,2.64584"
         id="path7682" />
      <path
         style="fill:none;stroke:#915215;stroke-width:0.26499999;stroke-linecap:butt;stroke-linejoin:miter;stroke-miterlimit:4;stroke-dasharray:none;stroke-opacity:1"
         d="m 88.635416,240.11458 10.583333,-2.64583"
         id="path7684" />
      <path
         style="fill:none;stroke:#915215;stroke-width:0.26458332px;stroke-linecap:butt;stroke-linejoin:miter;stroke-opacity:1"
         d="m 119.0625,242.76042 h 11.90625"
         id="path7686" />
      <path
         style="fill:none;stroke:#915215;stroke-width:0.5;stroke-linecap:butt;stroke-linejoin:miter;stroke-miterlimit:4;stroke-dasharray:none;stroke-opacity:1"
         d="m 119.0625,242.76042 9.26042,2.64583"
         id="path7688" />
      <path
         style="fill:none;stroke:#915215;stroke-width:0.5;stroke-linecap:butt;stroke-linejoin:miter;stroke-miterlimit:4;stroke-dasharray:none;stroke-opacity:1"
         d="M 99.218749,232.17708 120.38542,233.5"
         id="path7690" />
      <path
         id="path5847-8"
         d="m 120.38542,233.5 c 0,2.64583 2.64583,7.9375 10.58333,9.26042 -1.32292,1.32291 -1.58749,1.47609 -2.64583,2.64583 -9.26042,-1.32292 -9.26042,-7.9375 -9.26042,-10.58333 0.79376,-1.46217 1.32292,-1.32292 1.32292,-1.32292 z"
         style="fill:url(#linearGradient5855-4);fill-opacity:1;stroke:none;stroke-width:0.27816042px;stroke-linecap:butt;stroke-linejoin:miter;stroke-opacity:1" />
      <path
         style="fill:none;stroke:#000000;stroke-width:0;stroke-linecap:butt;stroke-linejoin:miter;stroke-miterlimit:4;stroke-dasharray:none;stroke-opacity:1"
         d="M 95.249999,244.08333 112.44792,241.4375"
         id="path7740" />
      <path
         style="fill:#552200;fill-opacity:1;stroke:none;stroke-width:0.29908189px;stroke-linecap:butt;stroke-linejoin:miter;stroke-opacity:1"
         d="M 88.635417,244.08333 111.125,241.4375 h 7.9375 l -21.166667,2.64583 z"
         id="path7744" />
      <path
         id="path5863-7-7-7-1"
         d="m 108.47917,240.90833 0.79375,-0.79375 h 2.64583 v 1.32292 l -0.79375,0.79375 z"
         style="fill:#a1a493;fill-opacity:1;stroke:none;stroke-width:0.26458332px;stroke-linecap:butt;stroke-linejoin:miter;stroke-opacity:1" />
      <rect
         y="240.90834"
         x="108.47916"
         height="1.3229166"
         width="2.6458333"
         id="rect5861-2-4-5-4"
         style="fill:#e0e1db;fill-opacity:1;stroke:none;stroke-width:0.69999999;stroke-linecap:butt;stroke-linejoin:miter;stroke-miterlimit:4;stroke-dasharray:none;stroke-dashoffset:0;stroke-opacity:1;paint-order:markers fill stroke" />
    </g>
  </g>
</svg>
