<?xml version="1.0" encoding="UTF-8" standalone="no"?>
<!-- Created with Inkscape (http://www.inkscape.org/) -->

<svg
   xmlns:dc="http://purl.org/dc/elements/1.1/"
   xmlns:cc="http://creativecommons.org/ns#"
   xmlns:rdf="http://www.w3.org/1999/02/22-rdf-syntax-ns#"
   xmlns:svg="http://www.w3.org/2000/svg"
   xmlns="http://www.w3.org/2000/svg"
   xmlns:sodipodi="http://sodipodi.sourceforge.net/DTD/sodipodi-0.dtd"
   xmlns:inkscape="http://www.inkscape.org/namespaces/inkscape"
   width="40mm"
   height="40mm"
   viewBox="0 0 40 40"
   version="1.1"
   id="svg3150"
   inkscape:version="0.92.2 (5c3e80d, 2017-08-06)"
   sodipodi:docname="holy-upgrade-bb.svg">
  <sodipodi:namedview
     id="base"
     pagecolor="#ffffff"
     bordercolor="#666666"
     borderopacity="1.0"
     inkscape:pageopacity="0.0"
     inkscape:pageshadow="2"
     inkscape:zoom="3.959798"
     inkscape:cx="80.474426"
     inkscape:cy="62.441731"
     inkscape:document-units="mm"
     inkscape:current-layer="layer1"
     showgrid="true"
     inkscape:window-width="1641"
     inkscape:window-height="854"
     inkscape:window-x="110"
     inkscape:window-y="75"
     inkscape:window-maximized="0"
     showguides="false">
    <inkscape:grid
       type="xygrid"
       id="grid4510" />
  </sodipodi:namedview>
  <metadata
     id="metadata3147">
    <rdf:RDF>
      <cc:Work
         rdf:about="">
        <dc:format>image/svg+xml</dc:format>
        <dc:type
           rdf:resource="http://purl.org/dc/dcmitype/StillImage" />
        <dc:title></dc:title>
      </cc:Work>
    </rdf:RDF>
  </metadata>
  <g
     inkscape:label="Layer 1"
     inkscape:groupmode="layer"
     id="layer1"
     transform="translate(0,-257)">
    <g
       id="bb"
       class="holy-upgrade-item"
       inkscape:label="#g4556">
      <g
         inkscape:label="#g4595-1-1-9"
         id="g4595-1-1-9-1-3"
         transform="matrix(0.3783058,0,0,0.3783058,-89.797344,125.08657)">
        <circle
           id="path3771-7-6-7-8-5"
           style="fill:#e6e6e6;fill-opacity:1;stroke:#000000;stroke-width:5;stroke-miterlimit:4;stroke-dasharray:none;stroke-opacity:1"
           r="48.061165"
           cy="401.30939"
           cx="290.28085" />
        <circle
           id="path3771-4-2-4-03-1-2"
           class="holy-upgrade-identifier"
           style="fill:none;stroke-width:5.5;stroke-miterlimit:4;stroke-dasharray:none;stroke-opacity:1"
           cy="401.5625"
           cx="290.23438"
           r="52.867283" />
      </g>
      <path
         sodipodi:nodetypes="cssc"
         inkscape:connector-curvature="0"
         id="path4523"
         d="m 13.242399,270.54167 c 0,8.29614 1.321593,19.91071 2.643186,19.91071 h 7.929562 c 1.321592,0 2.643186,-11.61457 2.643186,-19.91071"
         style="fill:#999999;stroke:none;stroke-width:0.29616365px;stroke-linecap:butt;stroke-linejoin:miter;stroke-opacity:1" />
      <path
         sodipodi:nodetypes="ccccccccccsccccccccc"
         inkscape:connector-curvature="0"
         id="path4546"
         d="m 13.247817,269.78183 c 0.04859,-0.66027 0.243379,-1.17243 0.603981,-1.58804 0.203334,-0.23435 0.414519,-0.40388 0.706861,-0.56744 0.255446,-0.14292 0.447608,-0.22415 0.898613,-0.3798 0.395815,-0.13662 0.56266,-0.20786 0.767472,-0.32773 0.590302,-0.34547 0.848997,-0.90102 0.947399,-1.67466 0.01475,-0.11597 0.01264,-0.25362 0.01848,-0.28716 l 0.0084,-0.048 2.649938,5e-5 2.649446,0.007 v 0.0961 c 0,0.15689 0.04992,0.45705 0.113152,0.68043 0.109516,0.38685 0.215707,0.70069 0.480501,0.949 0.275604,0.25847 0.504025,0.37976 1.121266,0.59545 0.615632,0.21513 0.918655,0.35833 1.218164,0.57566 0.624932,0.45348 0.936391,1.06872 1.017247,2.00945 l 0.0107,0.12443 h -6.611826 -6.611828 z"
         style="fill:#999999;fill-opacity:1;stroke:none;stroke-width:0.01842703" />
      <path
         sodipodi:nodetypes="csc"
         inkscape:connector-curvature="0"
         id="path4548"
         d="m 17.204532,264.28995 c 1e-6,-2.55703 0,-2.55703 2.645834,-2.55703 2.645833,0 2.645833,0 2.645833,2.55703"
         style="fill:#999999;stroke:none;stroke-width:0.33579493px;stroke-linecap:butt;stroke-linejoin:miter;stroke-opacity:1" />
    </g>
  </g>
</svg>
