<?xml version="1.0" encoding="UTF-8" standalone="no"?>
<!-- Created with Inkscape (http://www.inkscape.org/) -->

<svg
   xmlns:dc="http://purl.org/dc/elements/1.1/"
   xmlns:cc="http://creativecommons.org/ns#"
   xmlns:rdf="http://www.w3.org/1999/02/22-rdf-syntax-ns#"
   xmlns:svg="http://www.w3.org/2000/svg"
   xmlns="http://www.w3.org/2000/svg"
   xmlns:xlink="http://www.w3.org/1999/xlink"
   xmlns:sodipodi="http://sodipodi.sourceforge.net/DTD/sodipodi-0.dtd"
   xmlns:inkscape="http://www.inkscape.org/namespaces/inkscape"
   width="40mm"
   height="40mm"
   viewBox="0 0 40 40"
   version="1.1"
   id="svg3150"
   inkscape:version="0.92.2 (5c3e80d, 2017-08-06)"
   sodipodi:docname="holy-upgrade-declaration.svg">
  <defs
     id="defs3144">
    <linearGradient
       gradientUnits="userSpaceOnUse"
       gradientTransform="scale(0.77777778,1.2857143)"
       x1="184.5"
       y1="35.965008"
       x2="184.5"
       y2="166.87286"
       id="linearGradient-1">
      <stop
         stop-color="#F7E2A8"
         offset="0%"
         id="stop994" />
      <stop
         stop-color="#F1DDAF"
         offset="100%"
         id="stop996" />
    </linearGradient>
    <linearGradient
       gradientUnits="userSpaceOnUse"
       gradientTransform="scale(0.8359397,1.1962585)"
       x1="90.915649"
       y1="40.125107"
       x2="90.915649"
       y2="178.8911"
       id="linearGradient-2">
      <stop
         stop-color="#F7E2A8"
         offset="0%"
         id="stop999" />
      <stop
         stop-color="#F1DDAF"
         offset="100%"
         id="stop1001" />
    </linearGradient>
    <linearGradient
       gradientUnits="userSpaceOnUse"
       gradientTransform="scale(0.83405766,1.1989579)"
       x1="91.120796"
       y1="55.047806"
       x2="91.120796"
       y2="170.14777"
       id="linearGradient-3">
      <stop
         stop-color="#F3B011"
         offset="0%"
         id="stop1004" />
      <stop
         stop-color="#F5A711"
         offset="100%"
         id="stop1006" />
    </linearGradient>
    <linearGradient
       inkscape:collect="always"
       xlink:href="#linearGradient-3"
       id="linearGradient7503-2"
       gradientUnits="userSpaceOnUse"
       gradientTransform="matrix(0.18914636,0,0,0.27237333,657.15313,341.97361)"
       x1="91.120796"
       y1="55.047806"
       x2="91.120796"
       y2="170.14777" />
  </defs>
  <sodipodi:namedview
     id="base"
     pagecolor="#ffffff"
     bordercolor="#666666"
     borderopacity="1.0"
     inkscape:pageopacity="0.0"
     inkscape:pageshadow="2"
     inkscape:zoom="3.959798"
     inkscape:cx="61.885927"
     inkscape:cy="70.632543"
     inkscape:document-units="mm"
     inkscape:current-layer="delegation"
     showgrid="false"
     inkscape:window-width="1920"
     inkscape:window-height="1017"
     inkscape:window-x="-8"
     inkscape:window-y="-8"
     inkscape:window-maximized="1" />
  <metadata
     id="metadata3147">
    <rdf:RDF>
      <cc:Work
         rdf:about="">
        <dc:format>image/svg+xml</dc:format>
        <dc:type
           rdf:resource="http://purl.org/dc/dcmitype/StillImage" />
        <dc:title></dc:title>
      </cc:Work>
    </rdf:RDF>
  </metadata>
  <g
     inkscape:label="Layer 1"
     inkscape:groupmode="layer"
     id="layer1"
     transform="translate(0,-257)">
    <g
       transform="matrix(0.3783058,0,0,0.3783058,-312.8271,255.76587)"
       inkscape:label="#g7367">
      <g
         transform="translate(204.70731,-323.39889)"
         inkscape:label="#g7589">
            <g
               id="declaration"
               class="holy-upgrade-item"
               inkscape:label="#g1005">
              <g
                 transform="translate(384.84154,-22.03408)"
                 id="g4595-1-1-3-5-8">
                <circle
                   cx="290.28085"
                   cy="401.30939"
                   r="48.061165"
                   style="fill:#e6e6e6;stroke:#000000;stroke-width:5;stroke-miterlimit:4;stroke-dasharray:none;stroke-opacity:1;fill-opacity:1"
                   id="path3771-7-6-1-3-3" />
                <circle
                   r="52.867283"
                   cx="290.23438"
                   cy="401.5625"
                   style="fill:none;stroke-width:5.5;stroke-miterlimit:4;stroke-dasharray:none;stroke-opacity:1"
                   class="holy-upgrade-identifier"
                   id="path3771-4-2-4-2-5-6" />
              </g>
              <path
                 style="fill:#ffffff;fill-rule:evenodd;stroke:none;stroke-width:0.22697671"
                 inkscape:connector-curvature="0"
                 d="m 677.74516,353.55954 c 1.09876,0.85424 2.4802,1.36306 3.98066,1.36306 0.87111,0 1.70208,-0.1715 2.46094,-0.48251 0.5846,1.35097 1.96228,2.29989 3.56866,2.29989 2.13626,0 3.86804,-1.6782 3.86804,-3.74837 0,-1.93793 -1.51757,-3.53236 -3.4639,-3.72818 0.0337,-0.26706 0.051,-0.53917 0.051,-0.81533 0,-3.57576 -2.90328,-6.47449 -6.48466,-6.47449 -1.93153,0 -3.66582,0.84316 -4.85379,2.18094 -0.52125,-0.23216 -1.11483,-0.36354 -1.74464,-0.36354 -0.94818,0 -1.81426,0.29778 -2.47505,0.78898 -0.92007,-1.56342 -2.57546,-2.60638 -4.46467,-2.60638 -2.34653,0 -4.33236,1.60903 -4.99644,3.82584 -0.54781,-0.26724 -1.16993,-0.41821 -1.82952,-0.41821 -2.19908,0 -3.9818,1.67821 -3.9818,3.74839 0,2.07018 1.78272,3.74839 3.9818,3.74839 v 0.68152 z"
                 id="Schaum-7-5" />
              <path
                 style="fill:#f7e2a8;fill-opacity:1;fill-rule:evenodd;stroke:none;stroke-width:0.22697671"
                 inkscape:connector-curvature="0"
                 d="m 685.95399,360.60196 h 7.48371 c 1.00196,0 1.81421,0.81369 1.81421,1.81741 v 14.76637 c 0,1.00373 -0.81225,1.8174 -1.81421,1.8174 h -7.48371 v 0 c -1.00196,0 -1.81422,-0.81367 -1.81422,-1.8174 v -14.76637 0 c 0,-1.00372 0.81226,-1.81741 1.81422,-1.81741 z m -1.81422,2.95329 v 12.7218 h 7.25691 c 0.75148,0 1.36068,-0.61025 1.36068,-1.36305 v -9.99571 c 0,-0.75279 -0.6092,-1.36304 -1.36068,-1.36304 z"
                 id="Henkel-5-5" />
              <path
                 style="fill:#f7e2a8;fill-opacity:1;fill-rule:evenodd;stroke:none;stroke-width:0.22697671"
                 inkscape:connector-curvature="0"
                 d="m 661.23514,352.87802 h 26.3063 v 34.07626 0 c 0,2.00745 -1.6245,3.6348 -3.62845,3.6348 h -19.0494 v 0 c -2.00393,0 -3.62845,-1.62735 -3.62845,-3.6348 z"
                 id="Glass-9-7" />
              <path
                 style="fill:url(#linearGradient7503-2);fill-rule:evenodd;stroke:none;stroke-width:0.22697671"
                 inkscape:connector-curvature="0"
                 d="m 663.50293,356.96716 h 21.77073 v 29.53276 0 c 0,1.00372 -0.81225,1.81741 -1.81423,1.81741 h -18.14228 v 0 c -1.00196,0 -1.81422,-0.81369 -1.81422,-1.81741 z"
                 id="path1014-1-5" />
              <path
                 style="fill:#ffffff;fill-rule:evenodd;stroke:none;stroke-width:0.22697671"
                 inkscape:connector-curvature="0"
                 d="m 668.83222,350.37909 v 0 c 1.0646,0 1.92762,0.86453 1.92762,1.93098 v 13.85769 0 c 0,1.06645 -0.86302,1.93099 -1.92762,1.93099 v 0 c -1.06459,0 -1.92762,-0.86454 -1.92762,-1.93099 v -13.85769 0 c 0,-1.06645 0.86303,-1.93098 1.92762,-1.93098 z m 0,22.49033 c -1.06459,0 -1.92762,-0.86453 -1.92762,-1.93099 0,-1.06645 0.86303,-1.93099 1.92762,-1.93099 1.0646,0 1.92762,0.86454 1.92762,1.93099 0,1.06646 -0.86302,1.93099 -1.92762,1.93099 z m 6.80336,-21.8088 c 1.06459,0 1.92761,0.86452 1.92761,1.93099 v 7.72394 c 0,1.06646 -0.86302,1.931 -1.92761,1.931 v 0 0 c -1.0646,0 -1.92762,-0.86454 -1.92762,-1.931 v -7.72394 0 c 0,-1.06647 0.86302,-1.93099 1.92762,-1.93099 z"
                 id="Schaum-2-5-3" />
              <g
                 id="g11"
                 transform="matrix(0.12544013,0,0,0.11506234,634.0276,358.18663)">
                <title
                   id="title4">Layer 1</title>
                <g
                   transform="rotate(-89.977501,319.909,351.14774)"
                   id="layer1-3">
                  <path
                     id="path2389"
                     d="m 304.63458,345.68265 c -38.98855,-36.25635 -39.64773,-54.82199 -30.47793,-68.3739 12.96508,20.34069 33.19964,43.11956 63.04376,68.09619 l 0.22104,0.0207 c -28.94299,-26.91452 -48.10321,-51.1182 -59.96478,-72.38495 6.08807,-6.99707 14.24581,-12.86734 19.61593,-19.78131 69.38303,-57.86682 32.73691,-91.84039 12.57843,-87.77841 -32.4165,-4.48978 -82.31128,36.46664 -36.59244,110.06415 -11.6026,13.72085 -13.92352,34.20114 31.46567,70.13742 l -0.48395,-0.77619 z m -27.34344,-73.25507 c -37.35712,-68.4077 1.13675,-106.05888 31.23959,-105.71629 -0.1008,0.0335 -0.20447,0.0681 -0.30432,0.10344 0.1341,-0.0347 0.27292,-0.0513 0.40796,-0.0828 2.70175,0.0388 5.3277,0.36754 7.8313,1.02404 -1.73486,-0.62215 -3.55444,-1.08794 -5.4393,-1.39417 19.42422,-1.3923 47.96954,30.73657 -13.46311,87.67381 z m 39.17453,-104.67164 c 0.19488,0.0704 0.38788,0.13455 0.58084,0.20805 l 0.22104,2.1e-4 c -0.2638,-0.0767 -0.53473,-0.13778 -0.80188,-0.20826 z m -8.23926,-0.94121 c -0.13791,0.0359 -0.27814,0.0637 -0.41461,0.1033 l 0.10361,9e-5 c 0.10177,-0.039 0.20831,-0.0669 0.311,-0.10339 z"
                     inkscape:connector-curvature="0"
                     style="fill:#21314d;fill-rule:evenodd;stroke:#303072;stroke-width:1px" />
                  <path
                     id="path2401"
                     d="m 338.97897,347.28918 c 43.40665,37.80924 44.1413,57.16855 33.93332,71.29941 -14.43463,-21.21155 -36.962,-44.96536 -70.18765,-71.0122 l -0.24622,-0.0219 c 32.22284,28.06754 53.55399,53.30777 66.76038,75.48432 -6.77728,7.2962 -15.85901,13.41693 -21.83722,20.62625 -77.23975,60.33572 -36.44141,95.76514 -13.99951,91.53101 36.08865,4.68359 91.63354,-38.02018 40.73276,-114.76844 12.91616,-14.30652 14.83749,-34.04324 -35.03275,-73.1383 z m 31.1055,77.1991 c 41.5918,71.33487 -1.26111,110.59339 -34.77356,110.23401 0.11209,-0.0346 0.22782,-0.0709 0.33863,-0.10767 -0.14902,0.036 -0.30341,0.0537 -0.45408,0.0859 -3.00793,-0.0404 -5.93109,-0.383 -8.7185,-1.06836 1.93182,0.64917 3.9574,1.13538 6.0556,1.45496 -21.6243,1.45025 -53.40436,-32.0549 14.98447,-91.42194 5.72037,-6.57034 15.06177,-12.33252 22.56744,-19.17688 z m -43.60751,109.14386 c -0.21701,-0.0729 -0.43176,-0.13983 -0.64624,-0.21686 l -0.24631,-2.4e-4 c 0.29389,0.0806 0.59525,0.14404 0.89255,0.2171 z m 9.17258,0.98248 c 0.15393,-0.0373 0.30969,-0.0664 0.46182,-0.10766 l -0.11545,-1.8e-4 c -0.11328,0.0405 -0.23175,0.0696 -0.34637,0.10784 z"
                     inkscape:connector-curvature="0"
                     style="fill:#21314d;fill-rule:evenodd;stroke:#303072;stroke-width:1px" />
                  <path
                     id="path2423"
                     d="m 337.1795,353.48825 c 44.68485,-64.36572 45.47181,-97.38321 35.00116,-121.51323 -14.8739,36.13774 -38.07129,76.58943 -72.27053,120.9218 l -0.25315,0.0367 c 33.17166,-47.78179 55.14185,-90.772 68.75458,-128.55926 -6.95517,-12.46344 -16.28119,-22.92841 -22.41507,-35.24129 C 266.69223,86.007326 308.69177,25.69301 331.75528,32.9778 c 37.10724,-7.887146 94.13794,65.104393 41.68512,195.86389 13.25458,24.43736 15.19714,58.1057 -36.13431,124.64671 z M 369.28323,221.9044 C 412.15735,100.35184 368.16861,33.272217 333.71677,33.791184 c 0.11517,0.05933 0.2341,0.121536 0.34799,0.184723 -0.15317,-0.06193 -0.31183,-0.09241 -0.46671,-0.147995 -3.09219,0.06059 -6.09787,0.636765 -8.96451,1.797852 1.98703,-1.101746 4.07019,-1.925446 6.22764,-2.464523 -22.22764,-2.534195 -54.95304,54.523033 15.25399,155.971879 5.86985,11.22217 15.46341,21.07623 23.16806,32.77128 z M 324.63354,35.625763 c -0.2232,0.12381 -0.44397,0.237122 -0.6647,0.368057 l -0.25311,-2.59e-4 c 0.30221,-0.136444 0.61212,-0.24408 0.91781,-0.367798 z m 9.43122,-1.649857 c 0.15817,0.06399 0.31826,0.113968 0.47455,0.184784 l -0.11869,-1.22e-4 c -0.11636,-0.06926 -0.23807,-0.119492 -0.35586,-0.184662 z"
                     inkscape:connector-curvature="0"
                     style="fill:#21314d;fill-rule:evenodd;stroke:#303072;stroke-width:1px" />
                  <path
                     id="path2425"
                     d="m 302.6384,348.80731 c -44.68479,64.36575 -45.47177,97.38318 -35.00107,121.51322 14.87381,-36.13785 38.07129,-76.58942 72.27048,-120.92191 l 0.25314,-0.0366 c -33.1716,47.7818 -55.14182,90.77197 -68.75452,128.55908 6.95511,12.46341 16.28116,22.92841 22.41498,35.2414 79.30429,103.12567 37.30478,163.43988 14.24127,156.15509 -37.10724,7.8872 -94.13794,-65.10425 -41.68509,-195.86374 -13.25454,-24.43741 -15.19719,-58.10578 36.13419,-124.6467 l 0.12662,1.2e-4 z m -32.10373,131.58383 c -42.87407,121.55246 1.11468,188.63212 35.56653,188.11326 -0.11521,-0.0593 -0.23413,-0.12171 -0.348,-0.18476 0.15317,0.062 0.3118,0.0924 0.46665,0.14795 3.09225,-0.0605 6.09793,-0.63666 8.96451,-1.79779 -1.98703,1.10175 -4.07013,1.92548 -6.2276,2.46436 22.22763,2.53436 54.953,-54.52295 -15.254,-155.97175 -5.86981,-11.22219 -15.46341,-21.07632 -23.16809,-32.77127 z m 44.64969,186.27866 c 0.2232,-0.12378 0.44406,-0.23718 0.66476,-0.36804 l 0.25318,2.4e-4 c -0.30231,0.13642 -0.61222,0.24402 -0.91794,0.3678 z m -9.43115,1.64984 c -0.15821,-0.064 -0.31827,-0.11395 -0.47461,-0.18487 l 0.11871,1.2e-4 c 0.11633,0.0693 0.23807,0.11944 0.3559,0.18475 z"
                     inkscape:connector-curvature="0"
                     style="fill:#21314d;fill-rule:evenodd;stroke:#303072;stroke-width:1px" />
                </g>
              </g>
            </g>
          </g>
        </g>
  </g>
</svg>
