<?xml version="1.0" encoding="UTF-8" standalone="no"?>
<svg
   xmlns:dc="http://purl.org/dc/elements/1.1/"
   xmlns:cc="http://creativecommons.org/ns#"
   xmlns:rdf="http://www.w3.org/1999/02/22-rdf-syntax-ns#"
   xmlns:svg="http://www.w3.org/2000/svg"
   xmlns="http://www.w3.org/2000/svg"
   id="svg3150"
   version="1.1"
   viewBox="0 0 40 40"
   height="40mm"
   width="40mm">
  <defs
     id="defs3144" />
  <metadata
     id="metadata3147">
    <rdf:RDF>
      <cc:Work
         rdf:about="">
        <dc:format>image/svg+xml</dc:format>
        <dc:type
           rdf:resource="http://purl.org/dc/dcmitype/StillImage" />
        <dc:title></dc:title>
      </cc:Work>
    </rdf:RDF>
  </metadata>
  <g
     transform="translate(0,-257)"
     id="layer1">
    <g
       id="sorter"
       class="holy-upgrade-item">
      <g
         id="g4595-1-1-9-1-3"
         transform="matrix(0.3783058,0,0,0.3783058,-89.797344,125.08658)">
        <circle
           id="path3771-7-6-7-8-5"
           style="fill:#e6e6e6;fill-opacity:1;stroke:#000000;stroke-width:5;stroke-miterlimit:4;stroke-dasharray:none;stroke-opacity:1"
           r="48.061165"
           cy="401.30939"
           cx="290.28085" />
        <circle
           id="path3771-4-2-4-03-1-2"
           class="holy-upgrade-identifier"
           style="fill:none;stroke-width:5.5;stroke-miterlimit:4;stroke-dasharray:none;stroke-opacity:1"
           cy="401.5625"
           cx="290.23438"
           r="52.867283" />
      </g>
      <g
         id="g841"
         transform="matrix(0.61977047,0,0,0.50798951,2.6248246,262.73107)" />
      <g
         id="g843"
         transform="matrix(0.61977047,0,0,0.50798951,2.6248246,262.73107)" />
      <g
         id="g845"
         transform="matrix(0.61977047,0,0,0.50798951,2.6248246,262.73107)" />
      <g
         id="g847"
         transform="matrix(0.61977047,0,0,0.50798951,2.6248246,262.73107)" />
      <g
         id="g849"
         transform="matrix(0.61977047,0,0,0.50798951,2.6248246,262.73107)" />
      <g
         id="g851"
         transform="matrix(0.61977047,0,0,0.50798951,2.6248246,262.73107)" />
      <g
         id="g853"
         transform="matrix(0.61977047,0,0,0.50798951,2.6248246,262.73107)" />
      <g
         id="g855"
         transform="matrix(0.61977047,0,0,0.50798951,2.6248246,262.73107)" />
      <g
         id="g857"
         transform="matrix(0.61977047,0,0,0.50798951,2.6248246,262.73107)" />
      <g
         id="g859"
         transform="matrix(0.61977047,0,0,0.50798951,2.6248246,262.73107)" />
      <g
         id="g861"
         transform="matrix(0.61977047,0,0,0.50798951,2.6248246,262.73107)" />
      <g
         id="g863"
         transform="matrix(0.61977047,0,0,0.50798951,2.6248246,262.73107)" />
      <g
         id="g865"
         transform="matrix(0.61977047,0,0,0.50798951,2.6248246,262.73107)" />
      <g
         id="g867"
         transform="matrix(0.61977047,0,0,0.50798951,2.6248246,262.73107)" />
      <g
         id="g869"
         transform="matrix(0.61977047,0,0,0.50798951,2.6248246,262.73107)" />
      <path
         style="fill:#7cbaf0;fill-opacity:1;stroke:#2b31f2;stroke-width:0.61678153;stroke-linecap:butt;stroke-linejoin:miter;stroke-miterlimit:4;stroke-dasharray:none;stroke-opacity:1"
         d="m 7.326924,270.42141 v 10.22253 l 4.070512,4.08902 4.070512,-4.08902 v -10.22253 l -4.070512,-4.08901 z"
         id="path6461" />
      <ellipse
         style="fill:#70330d;fill-opacity:1;stroke:#d34e0d;stroke-width:0.61678153;stroke-linecap:round;stroke-linejoin:miter;stroke-miterlimit:4;stroke-dasharray:none;stroke-dashoffset:0;stroke-opacity:1;paint-order:fill markers stroke"
         id="path6463"
         cx="10.583335"
         cy="271.6481"
         rx="1.2211537"
         ry="1.2267044" />
      <path
         style="fill:#f0857c;fill-opacity:1;stroke:#e91111;stroke-width:0.61678153;stroke-linecap:butt;stroke-linejoin:miter;stroke-miterlimit:4;stroke-dasharray:none;stroke-opacity:1"
         d="m 15.875,274.51042 v 10.22253 l 4.070512,4.08903 4.070512,-4.08903 v -10.22253 l -4.070512,-4.08901 z"
         id="path6461-0" />
      <circle
         style="fill:#70330d;fill-opacity:1;stroke:#d34e0d;stroke-width:0.40000001;stroke-linecap:round;stroke-linejoin:miter;stroke-miterlimit:4;stroke-dasharray:none;stroke-dashoffset:0;stroke-opacity:1;paint-order:fill markers stroke"
         id="path6463-3"
         cx="27.252085"
         cy="276.62711"
         r="0" />
      <path
         style="fill:#92e497;fill-opacity:1;stroke:#12cd0c;stroke-width:0.61678153;stroke-linecap:butt;stroke-linejoin:miter;stroke-miterlimit:4;stroke-dasharray:none;stroke-opacity:1"
         d="m 24.423078,272.05703 v 10.22253 l 4.070512,4.08902 4.070512,-4.08902 v -10.22253 l -4.070512,-4.08902 z"
         id="path6461-4" />
      <circle
         style="fill:#70330d;fill-opacity:1;stroke:#d34e0d;stroke-width:0.40000001;stroke-linecap:round;stroke-linejoin:miter;stroke-miterlimit:4;stroke-dasharray:none;stroke-dashoffset:0;stroke-opacity:1;paint-order:fill markers stroke"
         id="path6463-1"
         cx="24.870836"
         cy="275.3042"
         r="0" />
      <ellipse
         style="fill:#70330d;fill-opacity:1;stroke:#d34e0d;stroke-width:0.61678153;stroke-linecap:round;stroke-linejoin:miter;stroke-miterlimit:4;stroke-dasharray:none;stroke-dashoffset:0;stroke-opacity:1;paint-order:fill markers stroke"
         id="path6463-8"
         cx="21.050365"
         cy="282.81985"
         rx="1.2211537"
         ry="1.2267044" />
      <ellipse
         style="fill:#70330d;fill-opacity:1;stroke:#d34e0d;stroke-width:0.61678153;stroke-linecap:round;stroke-linejoin:miter;stroke-miterlimit:4;stroke-dasharray:none;stroke-dashoffset:0;stroke-opacity:1;paint-order:fill markers stroke"
         id="path6463-7"
         cx="26.720009"
         cy="276.97842"
         rx="1.2211537"
         ry="1.2267044" />
    </g>
  </g>
</svg>
