<?xml version="1.0" encoding="UTF-8" standalone="no"?>
<!-- Created with Inkscape (http://www.inkscape.org/) -->

<svg
   xmlns:dc="http://purl.org/dc/elements/1.1/"
   xmlns:cc="http://creativecommons.org/ns#"
   xmlns:rdf="http://www.w3.org/1999/02/22-rdf-syntax-ns#"
   xmlns:svg="http://www.w3.org/2000/svg"
   xmlns="http://www.w3.org/2000/svg"
   xmlns:sodipodi="http://sodipodi.sourceforge.net/DTD/sodipodi-0.dtd"
   xmlns:inkscape="http://www.inkscape.org/namespaces/inkscape"
   width="40mm"
   height="40mm"
   viewBox="0 0 40 40"
   version="1.1"
   id="svg3150"
   inkscape:version="0.92.2 (5c3e80d, 2017-08-06)"
   sodipodi:docname="holy-upgrade-beerBank.svg">
  <defs
     id="defs3144" />
  <sodipodi:namedview
     id="base"
     pagecolor="#ffffff"
     bordercolor="#666666"
     borderopacity="1.0"
     inkscape:pageopacity="0.0"
     inkscape:pageshadow="2"
     inkscape:zoom="2.8"
     inkscape:cx="66.00748"
     inkscape:cy="88.217736"
     inkscape:document-units="mm"
     inkscape:current-layer="scrooge"
     showgrid="false"
     inkscape:window-width="1097"
     inkscape:window-height="661"
     inkscape:window-x="2260"
     inkscape:window-y="210"
     inkscape:window-maximized="0" />
  <metadata
     id="metadata3147">
    <rdf:RDF>
      <cc:Work
         rdf:about="">
        <dc:format>image/svg+xml</dc:format>
        <dc:type
           rdf:resource="http://purl.org/dc/dcmitype/StillImage" />
        <dc:title></dc:title>
      </cc:Work>
    </rdf:RDF>
  </metadata>
  <g
     inkscape:label="Layer 1"
     inkscape:groupmode="layer"
     id="layer1"
     transform="translate(0,-257)">
    <g
       id="beerBank"
       class="holy-upgrade-item"
       inkscape:label="#g4549">
      <g
         transform="matrix(0.3783058,0,0,0.3783058,-89.797344,125.08657)"
         id="g4595-1-1-9-1-3"
         inkscape:label="#g4595-1-1-9">
        <circle
           cx="290.28085"
           cy="401.30939"
           r="48.061165"
           style="fill:#e6e6e6;fill-opacity:1;stroke:#000000;stroke-width:5;stroke-miterlimit:4;stroke-dasharray:none;stroke-opacity:1"
           id="path3771-7-6-7-8-5" />
        <circle
           r="52.867283"
           cx="290.23438"
           cy="401.5625"
           style="fill:none;stroke-width:5.5;stroke-miterlimit:4;stroke-dasharray:none;stroke-opacity:1"
           class="holy-upgrade-identifier"
           id="path3771-4-2-4-03-1-2" />
      </g>
      <path
         inkscape:connector-curvature="0"
         id="path4531"
         d="M 16.303476,290.22562 C 12.164542,289.74423 9.7948997,288.33566 9.3027274,286.0642 9.1252847,285.24527 9.2451129,284.07697 9.6764073,282.4209 10.370631,279.75526 11.025957,278.06282 11.791396,276.95878 12.374976,276.11704 13.130883,275.44825 15.498664,273.67877 17.777966,271.9754 18.173318,271.62017 18.466454,271.0121 18.91989,270.07152 18.49108,267.88595 17.580142,266.49472 17.040501,265.67057 16.360364,265.13903 14.132957,263.80075 13.942718,263.68643 13.938579,263.67025 14.075086,263.57433 14.461383,263.3029 17.074026,263.05209 19.530127,263.05067 L 20.917704,263.04987 20.863691,266.7263 C 20.833984,268.74835 20.767854,274.80838 20.716737,280.19305 20.66562,285.57773 20.606961,290.06562 20.586382,290.16617 20.549022,290.34871 20.546624,290.34897 18.88074,290.34016 17.963214,290.33532 16.803445,290.28378 16.303476,290.22562 Z"
         style="fill:#ffe000;fill-opacity:1;stroke:#ff6b00;stroke-width:0.31325355;stroke-miterlimit:4;stroke-dasharray:none;stroke-dashoffset:0;stroke-opacity:0.04568529" />
      <path
         inkscape:connector-curvature="0"
         id="path4533"
         d="M 20.008017,288.3081 C 20.033762,287.17393 20.091709,282.4436 20.136788,277.79626 20.181868,273.14891 20.243044,267.92978 20.272736,266.1982 L 20.32672,263.04987 21.605401,263.05006 C 24.126241,263.05045 26.731053,263.34308 26.731053,263.6259 26.731053,263.66767 26.512283,263.83524 26.244897,263.99827 23.983055,265.3773 23.400602,265.8855 22.849347,266.96088 22.386565,267.86369 22.066762,269.06852 22.054379,269.95588 22.036987,271.20222 22.309149,271.53218 24.997802,273.5244 28.057354,275.79145 28.549555,276.25411 29.273079,277.54309 29.918412,278.69279 30.537718,280.46709 31.176406,282.99609 31.476079,284.18271 31.546544,285.57184 31.341447,286.2498 30.907685,287.68363 29.798077,288.73219 27.984089,289.42245 26.447554,290.00714 24.737008,290.26766 22.056762,290.32521 L 19.96121,290.37021 Z"
         style="fill:#ffcf00;fill-opacity:1;stroke:#ff6b00;stroke-width:0.31325355;stroke-miterlimit:4;stroke-dasharray:none;stroke-dashoffset:0;stroke-opacity:0.04568529" />
      <ellipse
         ry="0.73840779"
         rx="2.9015868"
         cy="268.76306"
         cx="20.237253"
         id="path4535"
         style="fill:#06cf00;fill-opacity:1;stroke:#ff6b00;stroke-width:1.96926391;stroke-miterlimit:4;stroke-dasharray:none;stroke-dashoffset:0;stroke-opacity:0.04568529" />
      <text
         transform="scale(1.0201151,0.98028153)"
         id="text4539"
         y="290.27222"
         x="15.571879"
         style="font-style:normal;font-weight:normal;font-size:13.12778568px;line-height:1.25;font-family:sans-serif;letter-spacing:0px;word-spacing:0px;fill:#00c500;fill-opacity:1;stroke:none;stroke-width:0.32819462"
         xml:space="preserve"><tspan
           style="fill:#00c500;fill-opacity:1;stroke-width:0.32819462"
           y="290.27222"
           x="15.571879"
           id="tspan4537"
           sodipodi:role="line">$</tspan></text>
    </g>
  </g>
</svg>
