<?xml version="1.0" encoding="UTF-8" standalone="no"?>
<!-- Created with Inkscape (http://www.inkscape.org/) -->

<svg
   xmlns:dc="http://purl.org/dc/elements/1.1/"
   xmlns:cc="http://creativecommons.org/ns#"
   xmlns:rdf="http://www.w3.org/1999/02/22-rdf-syntax-ns#"
   xmlns:svg="http://www.w3.org/2000/svg"
   xmlns="http://www.w3.org/2000/svg"
   xmlns:sodipodi="http://sodipodi.sourceforge.net/DTD/sodipodi-0.dtd"
   xmlns:inkscape="http://www.inkscape.org/namespaces/inkscape"
   width="40mm"
   height="40mm"
   viewBox="0 0 40 40"
   version="1.1"
   id="svg3150"
   inkscape:version="0.92.2 (5c3e80d, 2017-08-06)"
   sodipodi:docname="holy-upgrade-time.svg">
  <defs
     id="defs3144">
    <linearGradient
       gradientUnits="userSpaceOnUse"
       gradientTransform="scale(0.77777778,1.2857143)"
       x1="184.5"
       y1="35.965008"
       x2="184.5"
       y2="166.87286"
       id="linearGradient-1">
      <stop
         stop-color="#F7E2A8"
         offset="0%"
         id="stop994" />
      <stop
         stop-color="#F1DDAF"
         offset="100%"
         id="stop996" />
    </linearGradient>
    <linearGradient
       gradientUnits="userSpaceOnUse"
       gradientTransform="scale(0.8359397,1.1962585)"
       x1="90.915649"
       y1="40.125107"
       x2="90.915649"
       y2="178.8911"
       id="linearGradient-2">
      <stop
         stop-color="#F7E2A8"
         offset="0%"
         id="stop999" />
      <stop
         stop-color="#F1DDAF"
         offset="100%"
         id="stop1001" />
    </linearGradient>
    <linearGradient
       gradientUnits="userSpaceOnUse"
       gradientTransform="scale(0.83405766,1.1989579)"
       x1="91.120796"
       y1="55.047806"
       x2="91.120796"
       y2="170.14777"
       id="linearGradient-3">
      <stop
         stop-color="#F3B011"
         offset="0%"
         id="stop1004" />
      <stop
         stop-color="#F5A711"
         offset="100%"
         id="stop1006" />
    </linearGradient>
  </defs>
  <sodipodi:namedview
     id="base"
     pagecolor="#ffffff"
     bordercolor="#666666"
     borderopacity="1.0"
     inkscape:pageopacity="0.0"
     inkscape:pageshadow="2"
     inkscape:zoom="3.959798"
     inkscape:cx="103.06431"
     inkscape:cy="96.471141"
     inkscape:document-units="mm"
     inkscape:current-layer="g923"
     showgrid="false"
     inkscape:window-width="1920"
     inkscape:window-height="1017"
     inkscape:window-x="3832"
     inkscape:window-y="-8"
     inkscape:window-maximized="1"
     inkscape:snap-text-baseline="true" />
  <metadata
     id="metadata3147">
    <rdf:RDF>
      <cc:Work
         rdf:about="">
        <dc:format>image/svg+xml</dc:format>
        <dc:type
           rdf:resource="http://purl.org/dc/dcmitype/StillImage" />
        <dc:title></dc:title>
      </cc:Work>
    </rdf:RDF>
  </metadata>
  <g
     inkscape:label="Layer 1"
     inkscape:groupmode="layer"
     id="layer1"
     transform="translate(0,-257)">
    <g
       id="time"
       class="holy-upgrade-item"
       inkscape:label="#g848">
      <g
         id="g945">
        <g
           transform="matrix(0.37827167,0.00508149,-0.00508149,0.37827167,-87.746903,123.62545)"
           id="g4595-1-1-9-1-3"
           inkscape:label="#g4595-1-1-9">
          <circle
             cx="290.28085"
             cy="401.30939"
             r="48.061165"
             style="fill:#e6e6e6;fill-opacity:1;stroke:#000000;stroke-width:5;stroke-miterlimit:4;stroke-dasharray:none;stroke-opacity:1"
             id="path3771-7-6-7-8-5" />
          <circle
             r="52.867283"
             cx="290.23438"
             cy="401.5625"
             style="fill:none;stroke-width:5.5;stroke-miterlimit:4;stroke-dasharray:none;stroke-opacity:1"
             class="holy-upgrade-identifier"
             id="path3771-4-2-4-03-1-2" />
        </g>
        <path
           sodipodi:nodetypes="ccccccccc"
           inkscape:connector-curvature="0"
           id="path92"
           d="M 19.945043,265.48315 V 265.19906 H 20.944156 L 21.908455,265.16286 V 265.44887 265.73488 L 20.944156,265.76724 H 19.945043 Z"
           style="fill:#803300;stroke-width:0.00638411" />
        <path
           sodipodi:nodetypes="ccccccccc"
           inkscape:connector-curvature="0"
           id="path98"
           d="M 18.619361,265.44887 V 265.23437 L 19.29961,265.19906 20.120903,265.23628 V 265.52037 265.80446 L 19.29961,265.76724 18.619361,265.73488 Z"
           style="fill:#552200;stroke-width:0.00638411" />
        <path
           sodipodi:nodetypes="cccssssssccccccsssccccccc"
           inkscape:connector-curvature="0"
           id="path88"
           d="M 17.4718,289.11741 C 17.393175,289.07271 17.279416,288.96581 17.219001,288.87987 L 17.109157,288.72361 17.080495,283.02972 C 17.064731,279.89807 17.059247,277.1083 17.068308,276.83022 17.094652,276.02181 17.24765,275.44425 17.640163,274.67149 17.897608,274.16465 18.198442,273.70813 18.883045,272.78546 19.468941,271.99581 19.612958,271.778 19.780948,271.42746 19.98859,270.99419 19.99319,270.9148 19.968518,268.18996 L 19.946202,265.72517 H 20.938287 L 21.908453,265.73488 21.931137,268.35247 21.931902,270.97976 22.016467,271.21932 C 22.138518,271.56508 22.374066,271.94139 22.965227,272.73502 23.940803,274.04473 24.361992,274.7574 24.595795,275.49401 24.843085,276.2731 24.831503,275.87941 24.805016,282.60637 L 24.781136,288.67143 24.701002,288.81475 C 24.65693,288.89357 24.558423,289.00827 24.4821,289.06963 L 24.34333,289.1812 20.979045,289.18995 17.614758,289.19869 Z"
           style="fill:#aa4400;stroke-width:0.03611397" />
        <path
           sodipodi:nodetypes="ccscscscccccccccsccccccc"
           inkscape:connector-curvature="0"
           id="path90"
           d="M 16.168742,289.14915 C 16.03099,289.08902 15.799696,288.83436 15.76408,288.7036 15.749065,288.64848 15.736465,285.81628 15.736077,282.40983 15.735505,277.38581 15.744422,276.17878 15.783291,276.01766 16.007592,275.08786 16.383638,274.34475 17.176723,273.26406 17.988933,272.15732 18.204768,271.84672 18.346591,271.58056 18.614682,271.0774 18.618756,271.1926 18.619075,268.3108 L 18.619372,265.73488 19.311796,265.72517 H 20.017145 L 20.006988,268.35247 19.996832,270.97976 19.911002,271.19645 C 19.772707,271.54557 19.534415,271.91953 18.940281,272.71981 18.633301,273.13331 18.280156,273.62601 18.155515,273.81471 17.551562,274.72903 17.214805,275.58242 17.128417,276.4175 17.105935,276.63481 17.102352,278.92022 17.11851,282.73486 L 17.143828,288.71172 17.223501,288.86066 C 17.260823,288.90153 17.413346,289.06388 17.47533,289.11603 L 17.671571,289.19926 16.90283,289.19791 C 16.469143,289.19682 16.243841,289.182 16.168751,289.14921 Z"
           style="fill:#803300;stroke-width:0.03611397" />
        <path
           sodipodi:nodetypes="ccccccccccccccccccccccc"
           inkscape:connector-curvature="0"
           id="path94"
           d="M 18.230272,265.04892 V 264.8324 L 18.369126,264.78637 C 18.445496,264.76109 18.510387,264.73817 18.513327,264.7355 18.516267,264.73279 18.454502,264.70922 18.376068,264.68308 L 18.233465,264.63556 18.231788,264.41744 18.230113,264.1993 H 19.178663 20.127215 L 20.104852,264.2266 C 20.076361,264.26136 20.04586,264.32572 20.036495,264.37083 20.027258,264.41532 20.03218,264.51807 20.045562,264.56013 20.062038,264.61192 20.101948,264.67219 20.140215,264.70307 L 20.192406,264.73385 20.129432,264.7765 C 20.080518,264.82497 20.056886,264.86571 20.040371,264.93004 20.028912,264.97466 20.027667,265.05285 20.037655,265.10075 20.047205,265.14655 20.078178,265.21047 20.105432,265.24063 L 20.127846,265.26545 H 19.179063 18.230281 Z"
           style="fill:#803300;stroke-width:0.00638411" />
        <path
           sodipodi:nodetypes="cccccccccccccccscccccc"
           inkscape:connector-curvature="0"
           id="path96"
           d="M 20.112338,265.25336 C 19.984835,265.20931 19.925483,265.03647 19.990426,264.89831 20.02214,264.83085 20.121775,264.74115 20.192406,264.73385 V 264.73385 264.73385 C 20.19419,264.69395 20.19419,264.69395 20.192406,264.73385 20.090977,264.71802 20.00559,264.62565 19.976976,264.53301 19.936736,264.40273 19.993115,264.26173 20.103235,264.21726 L 20.139758,264.2025 21.220352,264.20089 22.300947,264.19926 22.299271,264.41747 22.297596,264.63569 22.150761,264.68494 C 22.0233,264.72768 22.006032,264.73501 22.019887,264.74045 22.028665,264.74387 22.095458,264.76644 22.168317,264.79056 L 22.300787,264.83442 V 265.05001 265.26559 L 21.22347,265.26539 C 20.196623,265.26519 20.144568,265.26457 20.112347,265.25349 Z"
           style="fill:#aa4400;stroke-width:0.00638411" />
        <ellipse
           ry="4.9460702"
           rx="3.2740753"
           cy="281.58163"
           cx="20.394646"
           id="path911"
           style="fill:#d38d5f;stroke:#000000;stroke-width:0.06683753;stroke-opacity:1" />
        <g
           transform="matrix(0.04053657,0,0,0.04053657,19.450656,270.2023)"
           id="g4781">
          <g
             transform="matrix(0.61818536,0,0,0.61818536,-26.792154,211.0104)"
             style="fill:none;fill-rule:evenodd;stroke:none;stroke-width:1"
             id="Symbols">
            <g
               id="Bier">
              <path
                 style="fill:#ffffff"
                 inkscape:connector-curvature="0"
                 d="M 90.802375,51 C 95.647498,54.760268 101.73906,57 108.35548,57 112.19668,57 115.86098,56.24511 119.20719,54.876057 121.78505,60.822885 127.86002,65 134.94352,65 144.36355,65 152,57.612698 152,48.5 152,39.969485 145.30813,32.950949 136.72561,32.088979 136.87381,30.913431 136.95017,29.715603 136.95017,28.5 136.95017,12.759885 124.14789,0 108.35548,0 99.83824,0 92.190743,3.711487 86.952263,9.6002847 84.65374,8.5783055 82.036298,8 79.259136,8 75.078031,8 71.258949,9.3108024 68.345159,11.472979 64.288066,4.5909983 56.988447,0 48.657807,0 38.310547,0 29.553888,7.0827388 26.625519,16.840923 24.209942,15.664564 21.466627,15 18.558139,15 8.8610468,15 1,22.387302 1,31.5 1,40.612698 8.8610468,48 18.558139,48 V 51 Z"
                 id="Schaum" />
              <path
                 style="fill:url(#linearGradient-1)"
                 inkscape:connector-curvature="0"
                 d="M 127,82 H 160 C 164.41828,82 168,85.581722 168,90 V 155 C 168,159.41828 164.41828,163 160,163 H 127 V 163 C 122.58172,163 119,159.41828 119,155 V 90 90 C 119,85.581722 122.58172,82 127,82 Z M 119,95 V 151 H 151 C 154.31371,151 157,148.31371 157,145 V 101 C 157,97.686291 154.31371,95 151,95 Z"
                 id="Henkel" />
              <path
                 style="fill:url(#linearGradient-2)"
                 inkscape:connector-curvature="0"
                 d="M 18,48 H 134 V 198 198 C 134,206.83656 126.83656,214 118,214 H 34 V 214 C 25.163444,214 18,206.83656 18,198 Z"
                 id="Glass" />
              <path
                 style="fill:url(#linearGradient-3)"
                 inkscape:connector-curvature="0"
                 d="M 28,66 H 124 V 196 196 C 124,200.41828 120.41828,204 116,204 H 36 V 204 C 31.581722,204 28,200.41828 28,196 Z"
                 id="path1014" />
              <path
                 style="fill:#ffffff"
                 inkscape:connector-curvature="0"
                 d="M 51.5,37 V 37 C 56.19442,37 60,40.80558 60,45.5 V 106.5 106.5 C 60,111.19442 56.19442,115 51.5,115 V 115 C 46.80558,115 43,111.19442 43,106.5 V 45.5 45.5 C 43,40.80558 46.80558,37 51.5,37 Z M 51.5,136 C 46.80558,136 43,132.19442 43,127.5 43,122.80558 46.80558,119 51.5,119 56.19442,119 60,122.80558 60,127.5 60,132.19442 56.19442,136 51.5,136 Z M 81.5,40 C 86.19442,40 90,43.80558 90,48.5 V 82.5 C 90,87.19442 86.19442,91 81.5,91 V 91 91 C 76.80558,91 73,87.19442 73,82.5 V 48.5 48.5 C 73,43.80558 76.80558,40 81.5,40 Z"
                 id="Schaum-2" />
            </g>
          </g>
        </g>
        <text
           id="text879"
           y="286.64331"
           x="11.759858"
           style="font-style:normal;font-weight:normal;font-size:25.39999962px;line-height:1.25;font-family:sans-serif;letter-spacing:0px;word-spacing:0px;fill:#006cff;fill-opacity:1;stroke:none;stroke-width:0.26458332;"
           xml:space="preserve"><tspan
             style="font-size:25.39999962px;fill:#006cff;stroke-width:0.26458332;fill-opacity:1;"
             y="286.64331"
             x="11.759858"
             id="tspan877"
             sodipodi:role="line">X</tspan></text>
      </g>
    </g>
  </g>
</svg>
