<?xml version="1.0" encoding="UTF-8" standalone="no"?>
<!-- Created with Inkscape (http://www.inkscape.org/) -->

<svg
   xmlns:dc="http://purl.org/dc/elements/1.1/"
   xmlns:cc="http://creativecommons.org/ns#"
   xmlns:rdf="http://www.w3.org/1999/02/22-rdf-syntax-ns#"
   xmlns:svg="http://www.w3.org/2000/svg"
   xmlns="http://www.w3.org/2000/svg"
   xmlns:xlink="http://www.w3.org/1999/xlink"
   xmlns:sodipodi="http://sodipodi.sourceforge.net/DTD/sodipodi-0.dtd"
   xmlns:inkscape="http://www.inkscape.org/namespaces/inkscape"
   width="40mm"
   height="40mm"
   viewBox="0 0 40 40"
   version="1.1"
   id="svg3150"
   inkscape:version="0.92.2 (5c3e80d, 2017-08-06)"
   sodipodi:docname="holy-upgrade-boardGame.svg">
  <defs
     id="defs3144">
    <linearGradient
       inkscape:collect="always"
       xlink:href="#linearGradient4787"
       id="linearGradient5410"
       gradientUnits="userSpaceOnUse"
       gradientTransform="matrix(0.73938329,-0.07265977,0.07265977,0.73938329,466.52278,165.5862)"
       x1="-255.2195"
       y1="120.97678"
       x2="-74.987389"
       y2="753.09509" />
    <linearGradient
       id="linearGradient4787"
       inkscape:collect="always">
      <stop
         id="stop4789"
         offset="0"
         style="stop-color:#9f9f9f;stop-opacity:1" />
      <stop
         id="stop4791"
         offset="1"
         style="stop-color:#6d6f6d;stop-opacity:1" />
    </linearGradient>
    <linearGradient
       inkscape:collect="always"
       xlink:href="#linearGradient4078"
       id="linearGradient5412"
       gradientUnits="userSpaceOnUse"
       x1="543.0777"
       y1="414.34341"
       x2="767.47192"
       y2="788.31476" />
    <linearGradient
       inkscape:collect="always"
       id="linearGradient4078">
      <stop
         style="stop-color:#999999;stop-opacity:1"
         offset="0"
         id="stop4080" />
      <stop
         style="stop-color:#666666;stop-opacity:1"
         offset="1"
         id="stop4082" />
    </linearGradient>
    <linearGradient
       inkscape:collect="always"
       xlink:href="#linearGradient4054"
       id="linearGradient5414"
       gradientUnits="userSpaceOnUse"
       x1="477.64603"
       y1="348.70233"
       x2="745.08118"
       y2="583.5094" />
    <linearGradient
       inkscape:collect="always"
       id="linearGradient4054">
      <stop
         style="stop-color:#e6e6e6;stop-opacity:1"
         offset="0"
         id="stop4056" />
      <stop
         style="stop-color:#747474;stop-opacity:1"
         offset="1"
         id="stop4058" />
    </linearGradient>
    <filter
       inkscape:collect="always"
       id="filter4200">
      <feGaussianBlur
         inkscape:collect="always"
         stdDeviation="1.9799396"
         id="feGaussianBlur4202" />
    </filter>
    <linearGradient
       inkscape:collect="always"
       xlink:href="#linearGradient4114"
       id="linearGradient5138"
       gradientUnits="userSpaceOnUse"
       x1="526.03015"
       y1="434.45288"
       x2="770.15265"
       y2="779.23846" />
    <linearGradient
       inkscape:collect="always"
       id="linearGradient4114">
      <stop
         style="stop-color:#cccccc;stop-opacity:1"
         offset="0"
         id="stop4116" />
      <stop
         style="stop-color:#b3b3b3;stop-opacity:1"
         offset="1"
         id="stop4118" />
    </linearGradient>
    <filter
       inkscape:collect="always"
       id="filter4170">
      <feGaussianBlur
         inkscape:collect="always"
         stdDeviation="4.4547726"
         id="feGaussianBlur4172" />
    </filter>
    <linearGradient
       inkscape:collect="always"
       xlink:href="#linearGradient3845"
       id="linearGradient5418"
       gradientUnits="userSpaceOnUse"
       x1="421.89865"
       y1="601.3291"
       x2="896.35034"
       y2="601.3291" />
    <linearGradient
       inkscape:collect="always"
       id="linearGradient3845">
      <stop
         style="stop-color:#fdfdfd;stop-opacity:1"
         offset="0"
         id="stop3847" />
      <stop
         style="stop-color:#3f3f3f;stop-opacity:1"
         offset="1"
         id="stop3849" />
    </linearGradient>
    <filter
       inkscape:collect="always"
       id="filter4150">
      <feGaussianBlur
         inkscape:collect="always"
         stdDeviation="2.2273881"
         id="feGaussianBlur4152" />
    </filter>
    <filter
       inkscape:collect="always"
       id="filter4966">
      <feGaussianBlur
         inkscape:collect="always"
         stdDeviation="2.2273863"
         id="feGaussianBlur4968" />
    </filter>
    <filter
       inkscape:collect="always"
       id="filter5331">
      <feGaussianBlur
         inkscape:collect="always"
         stdDeviation="2.4177887"
         id="feGaussianBlur5333" />
    </filter>
    <linearGradient
       inkscape:collect="always"
       xlink:href="#linearGradient4114"
       id="linearGradient4109"
       gradientUnits="userSpaceOnUse"
       x1="526.03015"
       y1="434.45288"
       x2="770.15265"
       y2="779.23846" />
  </defs>
  <sodipodi:namedview
     id="base"
     pagecolor="#ffffff"
     bordercolor="#666666"
     borderopacity="1.0"
     inkscape:pageopacity="0.0"
     inkscape:pageshadow="2"
     inkscape:zoom="1.979899"
     inkscape:cx="12.496255"
     inkscape:cy="62.347583"
     inkscape:document-units="mm"
     inkscape:current-layer="bottleCapShip"
     showgrid="false"
     inkscape:window-width="1464"
     inkscape:window-height="815"
     inkscape:window-x="2122"
     inkscape:window-y="96"
     inkscape:window-maximized="0" />
  <metadata
     id="metadata3147">
    <rdf:RDF>
      <cc:Work
         rdf:about="">
        <dc:format>image/svg+xml</dc:format>
        <dc:type
           rdf:resource="http://purl.org/dc/dcmitype/StillImage" />
        <dc:title></dc:title>
      </cc:Work>
    </rdf:RDF>
  </metadata>
  <g
     inkscape:label="Layer 1"
     inkscape:groupmode="layer"
     id="layer1"
     transform="translate(0,-257)">
    <g
       transform="matrix(0.3783058,0,0,0.3783058,-72.009251,126.42993)"
       id="boardGame"
       class="holy-upgrade-item"
       inkscape:label="#g5389">
      <g
         id="g4595-1-1"
         transform="translate(-47.02042,-3.55097)">
        <circle
           id="path3771-7-6"
           style="fill:#e6e6e6;stroke:#000000;stroke-width:5;stroke-miterlimit:4;stroke-dasharray:none;stroke-opacity:1;fill-opacity:1"
           r="48.061165"
           cy="401.30939"
           cx="290.28085" />
        <circle
           id="path3771-4-2-4"
           class="holy-upgrade-identifier"
           style="fill:none;stroke-width:5.5;stroke-miterlimit:4;stroke-dasharray:none;stroke-opacity:1"
           cy="401.5625"
           cx="290.23438"
           r="52.867283" />
      </g>
      <path
         style="fill:#ff2b00;stroke:#000000;stroke-width:0.69939011px;stroke-linecap:butt;stroke-linejoin:miter;stroke-opacity:1;fill-opacity:1"
         d="M 223.81748,433.89363 228.81313,398.92412 255.7896,398.17478 263.03328,434.64298 242.80093,411.66302 Z"
         id="path4545"
         inkscape:connector-curvature="0"
         sodipodi:nodetypes="cccccc" />
      <g
         transform="matrix(0.11180656,0,0,0.10862339,200.07272,328.15052)"
         id="g4897">
        <path
           style="fill:url(#linearGradient5410);fill-opacity:1;stroke:none"
           d="M 377.3125,282.03125 C 366.97196,282.03125 356.80121,282.76569 346.84375,284.15625 340.88416,298.14579 335.2603,311.14571 334.0625,311.40625 332.91106,311.6567 323.31594,302.04076 313,291.65625 302.08134,295.01778 291.52024,299.20226 281.40625,304.15625 280.0613,319.30337 278.74621,333.4133 277.6875,334.03125 276.67143,334.62431 264.58997,328.48849 251.59375,321.8125 242.30099,328.36934 233.55111,335.66936 225.40625,343.5625 228.79316,358.32193 231.87546,372.05722 231.0625,372.96875 230.28209,373.84378 216.96017,371.76106 202.59375,369.4375 195.777,378.52168 189.63603,388.14611 184.28125,398.25 192.0511,411.22039 199.24083,423.28962 198.75,424.40625 198.27872,425.47839 184.98738,427.61689 170.625,429.84375 166.97665,440.54426 164.14798,451.62441 162.1875,463 173.53816,472.89423 184.02757,482.10316 183.90625,483.3125 183.78992,484.47215 171.92903,490.54281 159.03125,497.0625 159.01525,498.15158 159.00005,499.25086 159.00005,500.34375 159.00005,510.88279 159.74403,521.23483 161.18755,531.375 174.99294,537.25773 187.71123,542.75333 187.9688,543.9375 188.21616,545.07472 178.85962,554.48687 168.62505,564.65625 172.03747,575.73958 176.32292,586.43447 181.37505,596.6875 196.2659,598.01163 209.9849,599.26929 210.5938,600.3125 211.17825,601.31381 205.21767,613.0662 198.6563,625.84375 205.31266,635.30195 212.71197,644.19766 220.75005,652.46875 235.26942,649.13889 248.63258,646.16721 249.5313,646.96875 250.39414,647.73828 248.37755,660.67956 246.0938,674.8125 255.29439,681.74294 265.06222,687.97901 275.31255,693.40625 288.08581,685.7566 299.86686,678.79688 300.9688,679.28125 302.02755,679.74664 304.11641,692.69138 306.31255,706.84375 317.14984,710.56867 328.37371,713.4464 339.9063,715.4375 349.67121,704.23763 358.71065,694.00506 359.9063,694.125 361.05538,694.24027 367.0177,705.86594 373.4688,718.625 374.75084,718.6472 376.02522,718.6562 377.31255,718.6562 387.76149,718.6562 398.03651,717.88806 408.0938,716.4687 413.91944,702.8004 419.32592,690.28659 420.50005,690.0312 421.63,689.78542 430.9376,699.03041 441.0313,709.18745 452.16991,705.79288 462.94554,701.54913 473.25005,696.49995 474.57024,681.65797 475.86602,668.01339 476.9063,667.4062 477.90564,666.8229 489.627,672.73532 502.37505,679.2812 511.84646,672.64911 520.77492,665.29654 529.06255,657.2812 525.73039,642.75217 522.72931,629.36793 523.5313,628.4687 524.30316,627.60326 537.31696,629.64513 551.50005,631.93745 558.43001,622.77841 564.65607,613.04895 570.0938,602.8437 562.40679,590.00922 555.35743,578.13768 555.8438,577.0312 556.31214,575.96574 569.42958,573.86776 583.68755,571.6562 587.39866,560.91703 590.30437,549.80008 592.31255,538.37495 580.99066,528.50542 570.56649,519.33167 570.68755,518.12495 570.80396,516.96454 582.68619,510.89951 595.5938,504.37495 595.6182,503.03066 595.625,501.69382 595.625,500.3437 595.625,490.08963 594.89904,480.00271 593.53125,470.12495 579.67553,464.22123 566.85213,458.68783 566.59375,457.49995 566.34466,456.35476 575.83732,446.81426 586.15625,436.56245 582.80829,425.58348 578.61289,414.98187 573.65625,404.81245 558.59406,403.47443 544.58369,402.17849 543.96875,401.12495 543.37722,400.11151 549.50052,388.08249 556.15625,375.12495 549.60787,365.78791 542.36322,356.99814 534.46875,348.81245 519.70434,352.20054 505.94304,355.2819 505.03125,354.4687 504.15303,353.68545 506.2599,340.30196 508.59375,325.87495 499.56586,319.07035 489.97833,312.98332 479.9375,307.62495 466.89787,315.43696 454.71558,322.64932 453.59375,322.1562 452.51463,321.68186 450.39903,308.25187 448.15625,293.7812 437.53275,290.13891 426.54193,287.29055 415.25,285.31245 405.25667,296.77849 395.90745,307.43483 394.6875,307.31245 393.51576,307.1949 387.34735,295.11702 380.75,282.06245 379.60294,282.04465 378.46378,282.03125 377.3125,282.03125 Z"
           id="path4777"
           inkscape:connector-curvature="0" />
        <circle
           transform="matrix(0.92746114,0,0,0.92746114,-234.0204,-57.395522)"
           id="path4015"
           style="fill:url(#linearGradient5412);fill-opacity:1;stroke:none"
           cx="659.12451"
           cy="601.3291"
           r="222.73863" />
        <path
           transform="matrix(1.0615429,0.18004465,-0.18004465,1.0615429,-198.86798,-115.63206)"
           d="M 772.76667,604.86461 C 770.64907,607.2941 702.60307,564.34112 700.13149,566.40944 697.6599,568.47776 727.9463,643.02942 725.18159,644.68563 722.41688,646.34185 670.97449,584.46377 667.98472,585.66709 664.99496,586.87042 670.76131,667.13227 667.62011,667.85308 664.47892,668.57389 634.67568,593.82777 631.4604,594.04831 628.24511,594.26885 608.92696,672.38431 605.71676,672.09916 602.50657,671.814 597.25982,591.51651 594.13376,590.73268 591.00769,589.94885 548.49603,658.27143 545.53107,657.00823 542.56611,655.74503 562.38945,577.75624 559.6586,576.04477 556.92775,574.33329 495.38392,626.1751 492.95442,624.0575 490.52493,621.9399 533.47791,553.89391 531.40959,551.42232 529.34127,548.95073 454.78961,579.23714 453.1334,576.47242 451.47719,573.70771 513.35527,522.26532 512.15194,519.27556 510.94861,516.28579 430.68676,522.05214 429.96595,518.91095 429.24514,515.76975 503.99127,485.96651 503.77072,482.75123 503.55018,479.53595 425.43472,460.21779 425.71987,457.0076 426.00503,453.7974 506.30252,448.55066 507.08635,445.42459 507.87018,442.29852 439.5476,399.78686 440.8108,396.8219 442.074,393.85694 520.06279,413.68028 521.77426,410.94943 523.48574,408.21858 471.64393,346.67475 473.76153,344.24526 475.87913,341.81576 543.92513,384.76874 546.39671,382.70042 548.8683,380.6321 518.5819,306.08044 521.34661,304.42423 524.11132,302.76802 575.55371,364.6461 578.54347,363.44277 581.53324,362.23945 575.76689,281.97759 578.90808,281.25678 582.04928,280.53597 611.85252,355.2821 615.0678,355.06156 618.28309,354.84101 637.60124,276.72555 640.81143,277.01071 644.02163,277.29586 649.26838,357.59335 652.39444,358.37718 655.52051,359.16101 698.03217,290.83843 700.99713,292.10163 703.96209,293.36484 684.13875,371.35362 686.8696,373.0651 689.60045,374.77657 751.14428,322.93476 753.57377,325.05236 756.00327,327.16996 713.05029,395.21596 715.11861,397.68754 717.18693,400.15913 791.73859,369.87273 793.3948,372.63744 795.05101,375.40215 733.17293,426.84454 734.37626,429.83431 735.57958,432.82407 815.84144,427.05772 816.56225,430.19892 817.28306,433.34011 742.53693,463.14335 742.75748,466.35864 742.97802,469.57392 821.09348,488.89207 820.80833,492.10227 820.52317,495.31246 740.22568,500.55921 739.44185,503.68527 738.65802,506.81134 806.9806,549.323 805.7174,552.28796 804.4542,555.25292 726.46541,535.42958 724.75393,538.16043 723.04246,540.89128 774.88427,602.43511 772.76667,604.86461 Z"
           inkscape:randomized="0"
           inkscape:rounded="0.039213567"
           inkscape:flatsided="false"
           sodipodi:arg2="0.87399301"
           sodipodi:arg1="0.71691338"
           sodipodi:r2="119.77415"
           sodipodi:r1="198.32204"
           sodipodi:cy="474.55493"
           sodipodi:cx="623.2641"
           sodipodi:sides="20"
           id="path4017"
           style="fill:url(#linearGradient5414);fill-opacity:1;stroke:none;filter:url(#filter4200)"
           sodipodi:type="star" />
        <circle
           transform="matrix(0.84600157,0,0,0.84600157,-182.32841,-10.41152)"
           id="path4208"
           style="fill:url(#linearGradient4109);fill-opacity:1;stroke:none;filter:url(#filter4170)"
           cx="659.12451"
           cy="601.3291"
           r="222.73863" />
        <circle
           transform="matrix(0.54392321,0.56174008,-0.56174008,0.54392321,356.5695,-197.01966)"
           id="path4023"
           style="fill:none;stroke:url(#linearGradient5418);stroke-width:28.97445107;stroke-miterlimit:4;stroke-dasharray:none;stroke-opacity:1;filter:url(#filter4150)"
           cx="659.12451"
           cy="601.3291"
           r="222.73863" />
        <circle
           style="fill:url(#linearGradient5138);fill-opacity:1;stroke:none;filter:url(#filter4170)"
           id="path4028"
           transform="matrix(0.75512553,0,0,0.75512553,-120.42978,46.234892)"
           cx="659.12451"
           cy="601.3291"
           r="222.73863" />
      </g>
      <path
         id="path4241"
         d="M 881.86314,601.3291 C 881.86314,724.34425 782.13966,824.06773 659.12451,824.06773 536.10936,824.06773 436.38588,724.34425 436.38588,601.3291 436.38588,478.31395 536.10936,378.59047 659.12451,378.59047 782.13966,378.59047 881.86314,478.31395 881.86314,601.3291 Z"
         style="fill:#ff2b00;fill-opacity:1;stroke:none;filter:url(#filter4966)"
         transform="matrix(0.08539567,0,0,0.08296441,185.82168,332.30798)"
         inkscape:connector-curvature="0" />
      <path
         transform="matrix(0.11180656,0,0,0.10862339,200.07272,328.15052)"
         sodipodi:nodetypes="ssssss"
         inkscape:connector-curvature="0"
         id="path5212"
         d="M 519.37575,424.04728 C 437.34761,396.1668 413.78367,372.92938 388.05592,386.67164 353.82231,404.95723 334.38935,438.5153 296.73016,435.26898 249.70159,431.21501 205.21832,520.15847 205.21832,478.59552 205.21832,395.46964 284.25831,326.06249 383.00516,326.06249 481.75202,326.06249 545.19822,432.82406 519.37575,424.04728 Z"
         style="opacity:0.41484716;fill:#ffffff;fill-opacity:1;stroke:none;filter:url(#filter5331)" />
    </g>
  </g>
</svg>
