<?xml version="1.0" encoding="UTF-8" standalone="no"?>
<!-- Created with Inkscape (http://www.inkscape.org/) -->

<svg
   xmlns:dc="http://purl.org/dc/elements/1.1/"
   xmlns:cc="http://creativecommons.org/ns#"
   xmlns:rdf="http://www.w3.org/1999/02/22-rdf-syntax-ns#"
   xmlns:svg="http://www.w3.org/2000/svg"
   xmlns="http://www.w3.org/2000/svg"
   xmlns:xlink="http://www.w3.org/1999/xlink"
   xmlns:sodipodi="http://sodipodi.sourceforge.net/DTD/sodipodi-0.dtd"
   xmlns:inkscape="http://www.inkscape.org/namespaces/inkscape"
   width="40mm"
   height="40mm"
   viewBox="0 0 40 40"
   version="1.1"
   id="svg3150"
   inkscape:version="0.92.2 (5c3e80d, 2017-08-06)"
   sodipodi:docname="holy-upgrade-delegation.svg">
  <defs
     id="defs3144">
    <linearGradient
       gradientUnits="userSpaceOnUse"
       gradientTransform="scale(0.77777778,1.2857143)"
       x1="184.5"
       y1="35.965008"
       x2="184.5"
       y2="166.87286"
       id="linearGradient-1">
      <stop
         stop-color="#F7E2A8"
         offset="0%"
         id="stop994" />
      <stop
         stop-color="#F1DDAF"
         offset="100%"
         id="stop996" />
    </linearGradient>
    <linearGradient
       gradientUnits="userSpaceOnUse"
       gradientTransform="scale(0.8359397,1.1962585)"
       x1="90.915649"
       y1="40.125107"
       x2="90.915649"
       y2="178.8911"
       id="linearGradient-2">
      <stop
         stop-color="#F7E2A8"
         offset="0%"
         id="stop999" />
      <stop
         stop-color="#F1DDAF"
         offset="100%"
         id="stop1001" />
    </linearGradient>
    <linearGradient
       gradientUnits="userSpaceOnUse"
       gradientTransform="scale(0.83405766,1.1989579)"
       x1="91.120796"
       y1="55.047806"
       x2="91.120796"
       y2="170.14777"
       id="linearGradient-3">
      <stop
         stop-color="#F3B011"
         offset="0%"
         id="stop1004" />
      <stop
         stop-color="#F5A711"
         offset="100%"
         id="stop1006" />
    </linearGradient>
    <linearGradient
       inkscape:collect="always"
       xlink:href="#linearGradient-3"
       id="linearGradient7503-2"
       gradientUnits="userSpaceOnUse"
       gradientTransform="matrix(0.18914636,0,0,0.27237333,657.15313,341.97361)"
       x1="91.120796"
       y1="55.047806"
       x2="91.120796"
       y2="170.14777" />
  </defs>
  <sodipodi:namedview
     id="base"
     pagecolor="#ffffff"
     bordercolor="#666666"
     borderopacity="1.0"
     inkscape:pageopacity="0.0"
     inkscape:pageshadow="2"
     inkscape:zoom="3.959798"
     inkscape:cx="56.853278"
     inkscape:cy="86.271096"
     inkscape:document-units="mm"
     inkscape:current-layer="beerLeader"
     showgrid="false"
     inkscape:window-width="1920"
     inkscape:window-height="1017"
     inkscape:window-x="-8"
     inkscape:window-y="-8"
     inkscape:window-maximized="1" />
  <metadata
     id="metadata3147">
    <rdf:RDF>
      <cc:Work
         rdf:about="">
        <dc:format>image/svg+xml</dc:format>
        <dc:type
           rdf:resource="http://purl.org/dc/dcmitype/StillImage" />
        <dc:title></dc:title>
      </cc:Work>
    </rdf:RDF>
  </metadata>
  <g
     inkscape:label="Layer 1"
     inkscape:groupmode="layer"
     id="layer1"
     transform="translate(0,-257)">
    <g
       transform="matrix(0.3783058,0,0,0.3783058,-312.8271,255.76587)"
       inkscape:label="#g7367">
      <g
         transform="translate(204.70731,-323.39889)"
         inkscape:label="#g7589">
          <g
             id="delegation"
             class="holy-upgrade-item"
             inkscape:label="#g959">
            <g
               id="g4595-1-1-3-5-8"
               transform="translate(384.84154,-22.03408)">
              <circle
                 id="path3771-7-6-1-3-3"
                 style="fill:#e6e6e6;stroke:#000000;stroke-width:5;stroke-miterlimit:4;stroke-dasharray:none;stroke-opacity:1;fill-opacity:1"
                 r="48.061165"
                 cy="401.30939"
                 cx="290.28085" />
              <circle
                 id="path3771-4-2-4-2-5-6"
                 class="holy-upgrade-identifier"
                 style="fill:none;stroke-width:5.5;stroke-miterlimit:4;stroke-dasharray:none;stroke-opacity:1"
                 cy="401.5625"
                 cx="290.23438"
                 r="52.867283" />
            </g>
            <path
               id="Schaum-7-5"
               d="m 677.74516,353.55954 c 1.09876,0.85424 2.4802,1.36306 3.98066,1.36306 0.87111,0 1.70208,-0.1715 2.46094,-0.48251 0.5846,1.35097 1.96228,2.29989 3.56866,2.29989 2.13626,0 3.86804,-1.6782 3.86804,-3.74837 0,-1.93793 -1.51757,-3.53236 -3.4639,-3.72818 0.0337,-0.26706 0.051,-0.53917 0.051,-0.81533 0,-3.57576 -2.90328,-6.47449 -6.48466,-6.47449 -1.93153,0 -3.66582,0.84316 -4.85379,2.18094 -0.52125,-0.23216 -1.11483,-0.36354 -1.74464,-0.36354 -0.94818,0 -1.81426,0.29778 -2.47505,0.78898 -0.92007,-1.56342 -2.57546,-2.60638 -4.46467,-2.60638 -2.34653,0 -4.33236,1.60903 -4.99644,3.82584 -0.54781,-0.26724 -1.16993,-0.41821 -1.82952,-0.41821 -2.19908,0 -3.9818,1.67821 -3.9818,3.74839 0,2.07018 1.78272,3.74839 3.9818,3.74839 v 0.68152 z"
               inkscape:connector-curvature="0"
               style="fill:#ffffff;fill-rule:evenodd;stroke:none;stroke-width:0.22697671" />
            <path
               id="Henkel-5-5"
               d="m 685.95399,360.60196 h 7.48371 c 1.00196,0 1.81421,0.81369 1.81421,1.81741 v 14.76637 c 0,1.00373 -0.81225,1.8174 -1.81421,1.8174 h -7.48371 v 0 c -1.00196,0 -1.81422,-0.81367 -1.81422,-1.8174 v -14.76637 0 c 0,-1.00372 0.81226,-1.81741 1.81422,-1.81741 z m -1.81422,2.95329 v 12.7218 h 7.25691 c 0.75148,0 1.36068,-0.61025 1.36068,-1.36305 v -9.99571 c 0,-0.75279 -0.6092,-1.36304 -1.36068,-1.36304 z"
               inkscape:connector-curvature="0"
               style="fill:#f7e2a8;fill-opacity:1;fill-rule:evenodd;stroke:none;stroke-width:0.22697671" />
            <path
               id="Glass-9-7"
               d="m 661.23514,352.87802 h 26.3063 v 34.07626 0 c 0,2.00745 -1.6245,3.6348 -3.62845,3.6348 h -19.0494 v 0 c -2.00393,0 -3.62845,-1.62735 -3.62845,-3.6348 z"
               inkscape:connector-curvature="0"
               style="fill:#f7e2a8;fill-opacity:1;fill-rule:evenodd;stroke:none;stroke-width:0.22697671" />
            <path
               id="path1014-1-5"
               d="m 663.50293,356.96716 h 21.77073 v 29.53276 0 c 0,1.00372 -0.81225,1.81741 -1.81423,1.81741 h -18.14228 v 0 c -1.00196,0 -1.81422,-0.81369 -1.81422,-1.81741 z"
               inkscape:connector-curvature="0"
               style="fill:url(#linearGradient7503-2);fill-rule:evenodd;stroke:none;stroke-width:0.22697671" />
            <path
               id="Schaum-2-5-3"
               d="m 668.83222,350.37909 v 0 c 1.0646,0 1.92762,0.86453 1.92762,1.93098 v 13.85769 0 c 0,1.06645 -0.86302,1.93099 -1.92762,1.93099 v 0 c -1.06459,0 -1.92762,-0.86454 -1.92762,-1.93099 v -13.85769 0 c 0,-1.06645 0.86303,-1.93098 1.92762,-1.93098 z m 0,22.49033 c -1.06459,0 -1.92762,-0.86453 -1.92762,-1.93099 0,-1.06645 0.86303,-1.93099 1.92762,-1.93099 1.0646,0 1.92762,0.86454 1.92762,1.93099 0,1.06646 -0.86302,1.93099 -1.92762,1.93099 z m 6.80336,-21.8088 c 1.06459,0 1.92761,0.86452 1.92761,1.93099 v 7.72394 c 0,1.06646 -0.86302,1.931 -1.92761,1.931 v 0 0 c -1.0646,0 -1.92762,-0.86454 -1.92762,-1.931 v -7.72394 0 c 0,-1.06647 0.86302,-1.93099 1.92762,-1.93099 z"
               inkscape:connector-curvature="0"
               style="fill:#ffffff;fill-rule:evenodd;stroke:none;stroke-width:0.22697671" />
            <path
               transform="matrix(0.66168624,0,0,0.66719699,222.36882,148.1824)"
               sodipodi:type="star"
               style="fill:#ffcc00;fill-opacity:1;stroke:#000000;stroke-width:0.69939011;stroke-opacity:1"
               id="path834"
               sodipodi:sides="5"
               sodipodi:cx="649.89661"
               sodipodi:cy="375.02209"
               sodipodi:r1="15.607452"
               sodipodi:r2="7.8037257"
               sodipodi:arg1="0.9445004"
               sodipodi:arg2="1.5728189"
               inkscape:flatsided="false"
               inkscape:rounded="0"
               inkscape:randomized="0"
               d="m 659.04488,387.66732 -9.16406,-4.84152 -9.18356,4.80441 1.7727,-10.21165 -7.40714,-7.24945 10.25965,-1.46963 4.6057,-9.28481 4.56811,9.30337 10.25362,1.51112 -7.4364,7.21942 z"
               inkscape:transform-center-x="-0.0024390354"
               inkscape:transform-center-y="-0.37383483" />
            <path
               transform="matrix(0.66168624,0,0,0.66719699,244.55965,153.6309)"
               sodipodi:type="star"
               style="fill:#ffcc00;fill-opacity:1;stroke:#000000;stroke-width:0.69939011;stroke-opacity:1"
               id="path834-9"
               sodipodi:sides="5"
               sodipodi:cx="649.89661"
               sodipodi:cy="375.02209"
               sodipodi:r1="15.607452"
               sodipodi:r2="7.8037257"
               sodipodi:arg1="0.9445004"
               sodipodi:arg2="1.5728189"
               inkscape:flatsided="false"
               inkscape:rounded="0"
               inkscape:randomized="0"
               d="m 659.04488,387.66732 -9.16406,-4.84152 -9.18356,4.80441 1.7727,-10.21165 -7.40714,-7.24945 10.25965,-1.46963 4.6057,-9.28481 4.56811,9.30337 10.25362,1.51112 -7.4364,7.21942 z"
               inkscape:transform-center-x="-0.0024418161"
               inkscape:transform-center-y="-0.3738365" />
            <path
               transform="matrix(0.66168624,0,0,0.66719699,266.50869,146.33772)"
               sodipodi:type="star"
               style="fill:#ffcc00;fill-opacity:1;stroke:#000000;stroke-width:0.69939011;stroke-opacity:1"
               id="path834-7"
               sodipodi:sides="5"
               sodipodi:cx="649.89661"
               sodipodi:cy="375.02209"
               sodipodi:r1="15.607452"
               sodipodi:r2="7.8037257"
               sodipodi:arg1="0.9445004"
               sodipodi:arg2="1.5728189"
               inkscape:flatsided="false"
               inkscape:rounded="0"
               inkscape:randomized="0"
               d="m 659.04488,387.66732 -9.16406,-4.84152 -9.18356,4.80441 1.7727,-10.21165 -7.40714,-7.24945 10.25965,-1.46963 4.6057,-9.28481 4.56811,9.30337 10.25362,1.51112 -7.4364,7.21942 z"
               inkscape:transform-center-x="-0.0024416722"
               inkscape:transform-center-y="-0.37383646" />
          </g>
        </g>
      </g>
  </g>
</svg>
