<?xml version="1.0" encoding="UTF-8" standalone="no"?>
<svg
   xmlns:dc="http://purl.org/dc/elements/1.1/"
   xmlns:cc="http://creativecommons.org/ns#"
   xmlns:rdf="http://www.w3.org/1999/02/22-rdf-syntax-ns#"
   xmlns:svg="http://www.w3.org/2000/svg"
   xmlns="http://www.w3.org/2000/svg"
   id="svg3150"
   version="1.1"
   viewBox="0 0 40 40"
   height="40mm"
   width="40mm">
  <defs
     id="defs3144" />
  <metadata
     id="metadata3147">
    <rdf:RDF>
      <cc:Work
         rdf:about="">
        <dc:format>image/svg+xml</dc:format>
        <dc:type
           rdf:resource="http://purl.org/dc/dcmitype/StillImage" />
        <dc:title></dc:title>
      </cc:Work>
    </rdf:RDF>
  </metadata>
  <path
     style="fill:#f5e90f;fill-opacity:1;stroke:none;stroke-width:0.18194343px;stroke-linecap:butt;stroke-linejoin:miter;stroke-opacity:1"
     d="m 13.229166,2.9198508 c 0,0 13.61399,0 14.975389,0 1.361399,0 1.361399,0.6078933 1.361399,0.6078933 0,0 0,0.6078933 -1.361399,0.6078933 -1.361399,0 -13.61399,0 -14.975389,0 -1.361399,0 -1.361399,-0.6078933 -1.361399,-0.6078933 0,0 0,-0.6078933 1.361399,-0.6078933 z"
     id="path9216" />
  <rect
     style="fill:#255cbe;fill-opacity:1;stroke:#f5e90f;stroke-width:0.44788641;stroke-linecap:butt;stroke-linejoin:miter;stroke-miterlimit:4;stroke-dasharray:none;stroke-dashoffset:0;stroke-opacity:1;paint-order:markers fill stroke"
     id="rect9218"
     width="11.90625"
     height="2.1230402"
     x="14.552083"
     y="4.0122495" />
  <path
     style="fill:#f5e90f;fill-opacity:1;stroke:none;stroke-width:0.18194343px;stroke-linecap:butt;stroke-linejoin:miter;stroke-opacity:1"
     d="m 13.229165,6.1044109 c 0,0 13.61399,0 14.975389,0 1.361399,0 1.361399,0.6078933 1.361399,0.6078933 0,0 0,0.6078934 -1.361399,0.6078934 -1.361399,0 -13.613991,0 -14.975389,0 -1.361399,0 -1.361399,-0.6078934 -1.361399,-0.6078934 0,0 0,-0.6078933 1.361399,-0.6078933 z"
     id="path9216-9" />
  <rect
     style="fill:#255cbe;fill-opacity:1;stroke:#f5e90f;stroke-width:0.44788641;stroke-linecap:butt;stroke-linejoin:miter;stroke-miterlimit:4;stroke-dasharray:none;stroke-dashoffset:0;stroke-opacity:1;paint-order:markers fill stroke"
     id="rect9218-6"
     width="11.90625"
     height="2.1230402"
     x="14.552082"
     y="7.1968093" />
  <path
     style="fill:#f5e90f;fill-opacity:1;stroke:none;stroke-width:0.18194343px;stroke-linecap:butt;stroke-linejoin:miter;stroke-opacity:1"
     d="m 13.229166,9.2889722 c 0,0 13.61399,0 14.975389,0 1.361399,0 1.361399,0.6078927 1.361399,0.6078927 0,0 0,0.6078941 -1.361399,0.6078941 -1.361399,0 -13.61399,0 -14.975389,0 -1.361399,0 -1.361399,-0.6078941 -1.361399,-0.6078941 0,0 0,-0.6078927 1.361399,-0.6078927 z"
     id="path9216-2" />
  <rect
     style="fill:#255cbe;fill-opacity:1;stroke:#f5e90f;stroke-width:0.44788641;stroke-linecap:butt;stroke-linejoin:miter;stroke-miterlimit:4;stroke-dasharray:none;stroke-dashoffset:0;stroke-opacity:1;paint-order:markers fill stroke"
     id="rect9218-4"
     width="11.90625"
     height="2.1230402"
     x="14.552083"
     y="10.38137" />
  <path
     style="fill:#f5e90f;fill-opacity:1;stroke:none;stroke-width:0.18194343px;stroke-linecap:butt;stroke-linejoin:miter;stroke-opacity:1"
     d="m 13.229167,12.473531 c 0,0 13.61399,0 14.975389,0 1.361399,0 1.361399,0.607894 1.361399,0.607894 0,0 0,0.607893 -1.361399,0.607893 -1.361399,0 -13.613991,0 -14.975389,0 -1.361399,0 -1.361399,-0.607893 -1.361399,-0.607893 0,0 0,-0.607894 1.361399,-0.607894 z"
     id="path9216-8" />
  <path
     style="fill:#255cbe;fill-opacity:1;stroke:#f5e90f;stroke-width:0.55074847;stroke-linecap:butt;stroke-linejoin:miter;stroke-miterlimit:4;stroke-dasharray:none;stroke-opacity:1"
     d="m 14.552083,13.56593 c 0.434066,1.263929 0.922989,2.516825 1.322917,3.78762 -0.02681,0.993001 0.05392,2.000114 -0.04084,2.984198 l -3.92791,17.016418 c 3.175,0 15.874999,0 17.197916,0 -1.308791,-5.49343 -2.761345,-11.740457 -3.968752,-17.258066 0.0139,-0.952555 -0.02764,-1.916263 0.02046,-2.861937 l 1.302453,-3.668233 h -11.90625 z"
     id="path9254" />
  <path
     style="fill:none;stroke:#f5e90f;stroke-width:1.10149693;stroke-linecap:butt;stroke-linejoin:miter;stroke-miterlimit:4;stroke-dasharray:none;stroke-opacity:1"
     d="M 15.875,17.35355 25.135416,17.2918"
     id="path9257" />
  <path
     style="fill:none;stroke:#f5e90f;stroke-width:1.10149693;stroke-linecap:butt;stroke-linejoin:miter;stroke-miterlimit:4;stroke-dasharray:none;stroke-opacity:1"
     d="M 15.874998,20.157855 25.135414,20.0961"
     id="path9257-7" />
  <path
     style="fill:none;stroke:#f5e90f;stroke-width:1.10149693;stroke-linecap:butt;stroke-linejoin:miter;stroke-miterlimit:4;stroke-dasharray:none;stroke-opacity:1"
     d="m 15.875,18.78658 9.260416,-0.06176"
     id="path9257-3" />
  <path
     style="fill:none;stroke:#f5e90f;stroke-width:1.21739674;stroke-linecap:butt;stroke-linejoin:miter;stroke-miterlimit:4;stroke-dasharray:none;stroke-opacity:1"
     d="m 14.817608,24.743589 11.291566,-0.06186"
     id="path9257-1" />
  <path
     style="fill:none;stroke:#f5e90f;stroke-width:1.29345572;stroke-linecap:butt;stroke-linejoin:miter;stroke-miterlimit:4;stroke-dasharray:none;stroke-opacity:1"
     d="m 14.015,28.755579 12.949449,-0.0609"
     id="path9257-35" />
  <path
     style="fill:none;stroke:#f5e90f;stroke-width:1.40527916;stroke-linecap:butt;stroke-linejoin:miter;stroke-miterlimit:4;stroke-dasharray:none;stroke-opacity:1"
     d="m 12.965551,33.116891 15.049105,-0.06185"
     id="path9257-36" />
</svg>
