<?xml version="1.0" encoding="UTF-8" standalone="no"?>
<!-- Created with Inkscape (http://www.inkscape.org/) -->

<svg
   xmlns:dc="http://purl.org/dc/elements/1.1/"
   xmlns:cc="http://creativecommons.org/ns#"
   xmlns:rdf="http://www.w3.org/1999/02/22-rdf-syntax-ns#"
   xmlns:svg="http://www.w3.org/2000/svg"
   xmlns="http://www.w3.org/2000/svg"
   xmlns:xlink="http://www.w3.org/1999/xlink"
   xmlns:sodipodi="http://sodipodi.sourceforge.net/DTD/sodipodi-0.dtd"
   xmlns:inkscape="http://www.inkscape.org/namespaces/inkscape"
   width="100"
   height="100"
   viewBox="0 0 26.458332 26.458334"
   version="1.1"
   id="svg9958"
   inkscape:version="0.92.2 (5c3e80d, 2017-08-06)"
   sodipodi:docname="achievement1.svg">
  <defs
     id="defs9952">
    <linearGradient
       inkscape:collect="always"
       xlink:href="#linearGradient-1"
       id="linearGradient2479"
       gradientUnits="userSpaceOnUse"
       gradientTransform="scale(0.77777778,1.2857143)"
       x1="184.5"
       y1="35.965008"
       x2="184.5"
       y2="166.87286" />
    <linearGradient
       id="linearGradient-1"
       y2="166.87286"
       x2="184.5"
       y1="35.965008"
       x1="184.5"
       gradientTransform="scale(0.77777778,1.2857143)"
       gradientUnits="userSpaceOnUse">
      <stop
         id="stop994"
         offset="0%"
         stop-color="#F7E2A8" />
      <stop
         id="stop996"
         offset="100%"
         stop-color="#F1DDAF" />
    </linearGradient>
    <linearGradient
       inkscape:collect="always"
       xlink:href="#linearGradient-2"
       id="linearGradient2481"
       gradientUnits="userSpaceOnUse"
       gradientTransform="scale(0.8359397,1.1962585)"
       x1="90.915649"
       y1="40.125107"
       x2="90.915649"
       y2="178.8911" />
    <linearGradient
       id="linearGradient-2"
       y2="178.8911"
       x2="90.915649"
       y1="40.125107"
       x1="90.915649"
       gradientTransform="scale(0.8359397,1.1962585)"
       gradientUnits="userSpaceOnUse">
      <stop
         id="stop999"
         offset="0%"
         stop-color="#F7E2A8" />
      <stop
         id="stop1001"
         offset="100%"
         stop-color="#F1DDAF" />
    </linearGradient>
    <linearGradient
       inkscape:collect="always"
       xlink:href="#linearGradient-3"
       id="linearGradient2483"
       gradientUnits="userSpaceOnUse"
       gradientTransform="scale(0.83405766,1.1989579)"
       x1="91.120796"
       y1="55.047806"
       x2="91.120796"
       y2="170.14777" />
    <linearGradient
       id="linearGradient-3"
       y2="170.14777"
       x2="91.120796"
       y1="55.047806"
       x1="91.120796"
       gradientTransform="scale(0.83405766,1.1989579)"
       gradientUnits="userSpaceOnUse">
      <stop
         id="stop1004"
         offset="0%"
         stop-color="#F3B011" />
      <stop
         id="stop1006"
         offset="100%"
         stop-color="#F5A711" />
    </linearGradient>
  </defs>
  <sodipodi:namedview
     id="base"
     pagecolor="#ffffff"
     bordercolor="#666666"
     borderopacity="1.0"
     inkscape:pageopacity="0.0"
     inkscape:pageshadow="2"
     inkscape:zoom="1"
     inkscape:cx="-2.1328469"
     inkscape:cy="44.859797"
     inkscape:document-units="mm"
     inkscape:current-layer="layer1"
     showgrid="false"
     borderlayer="true"
     inkscape:pagecheckerboard="true"
     units="px"
     inkscape:window-width="1920"
     inkscape:window-height="1017"
     inkscape:window-x="-8"
     inkscape:window-y="-8"
     inkscape:window-maximized="1" />
  <metadata
     id="metadata9955">
    <rdf:RDF>
      <cc:Work
         rdf:about="">
        <dc:format>image/svg+xml</dc:format>
        <dc:type
           rdf:resource="http://purl.org/dc/dcmitype/StillImage" />
        <dc:title></dc:title>
      </cc:Work>
    </rdf:RDF>
  </metadata>
  <g
     inkscape:label="Ebene 1"
     inkscape:groupmode="layer"
     id="layer1"
     transform="translate(0,-270.54167)">
    <g
       id="g2654"
       transform="matrix(0.49001565,0,0,0.49001565,-38.111457,201.98824)">
      <path
         style="fill:#803300;stroke-width:0.01046094"
         d="m 116.90104,154.26722 v -0.46552 h 1.63714 l 1.58009,-0.0593 v 0.46865 0.46865 l -1.58009,0.053 h -1.63714 z"
         id="path3800"
         inkscape:connector-curvature="0"
         sodipodi:nodetypes="ccccccccc" />
      <path
         style="fill:#552200;stroke-width:0.01046094"
         d="m 114.72879,154.21105 v -0.35148 l 1.11465,-0.0579 1.34577,0.061 v 0.46551 0.46551 l -1.34577,-0.061 -1.11465,-0.053 z"
         id="path3802"
         inkscape:connector-curvature="0"
         sodipodi:nodetypes="ccccccccc" />
      <path
         style="fill:#aa4400;stroke-width:0.05917602"
         d="m 112.84841,192.9941 c -0.12883,-0.0733 -0.31524,-0.2484 -0.41423,-0.38923 l -0.17999,-0.25604 -0.047,-9.32997 c -0.0258,-5.13148 -0.0348,-9.70277 -0.02,-10.15843 0.0432,-1.32466 0.29387,-2.27105 0.93704,-3.53728 0.42185,-0.83051 0.91479,-1.57854 2.03657,-3.09043 0.96005,-1.29391 1.19603,-1.65082 1.4713,-2.22521 0.34024,-0.70996 0.34778,-0.84005 0.30735,-5.30494 l -0.0366,-4.03876 h 1.62562 l 1.58971,0.0159 0.0372,4.28916 0.001,4.30506 0.13857,0.39255 c 0.19999,0.56655 0.58596,1.18316 1.55463,2.4836 1.59857,2.14608 2.28873,3.31386 2.67183,4.52085 0.40521,1.27661 0.38623,0.63151 0.34283,11.65425 l -0.0391,9.93816 -0.13131,0.23483 c -0.0722,0.12916 -0.23362,0.3171 -0.35869,0.41765 l -0.22739,0.18282 -5.51268,0.0143 -5.51269,0.0143 z"
         id="path3804"
         inkscape:connector-curvature="0"
         sodipodi:nodetypes="cccssssssccccccsssccccccc" />
      <path
         style="fill:#803300;stroke-width:0.05917601"
         d="m 110.71323,193.0461 c -0.22572,-0.0985 -0.60471,-0.5158 -0.66307,-0.73006 -0.0246,-0.0903 -0.0453,-4.73114 -0.0459,-10.31292 -9.4e-4,-8.23232 0.0137,-10.21014 0.0774,-10.47415 0.36753,-1.52357 0.98372,-2.74123 2.28326,-4.51202 1.33088,-1.81349 1.68455,-2.32243 1.91694,-2.75858 0.43929,-0.82446 0.44596,-0.63571 0.44649,-5.35779 l 4.8e-4,-4.22088 1.1346,-0.0159 h 1.15578 l -0.0166,4.30506 -0.0166,4.30506 -0.14064,0.35505 c -0.22661,0.57208 -0.61708,1.18485 -1.59062,2.49618 -0.50301,0.67755 -1.08167,1.48489 -1.28591,1.79408 -0.98963,1.49821 -1.54144,2.89656 -1.68299,4.2649 -0.0368,0.3561 -0.0427,4.10095 -0.0162,10.35158 l 0.0415,9.79363 0.13055,0.24405 c 0.0612,0.067 0.31108,0.333 0.41264,0.41846 l 0.32156,0.13637 -1.25965,-0.002 c -0.71063,-0.002 -1.07981,-0.0261 -1.20285,-0.0798 z"
         id="path3806"
         inkscape:connector-curvature="0"
         sodipodi:nodetypes="ccscscscccccccccsccccccc" />
      <path
         style="fill:#803300;stroke-width:0.01046094"
         d="m 114.09124,153.5557 v -0.35481 l 0.22752,-0.0754 c 0.12514,-0.0415 0.23147,-0.079 0.23629,-0.0834 0.005,-0.004 -0.0964,-0.043 -0.22491,-0.0859 l -0.23367,-0.0779 -0.003,-0.35742 -0.003,-0.35742 h 1.55428 1.55429 l -0.0366,0.0447 c -0.0467,0.057 -0.0967,0.16243 -0.11201,0.23635 -0.0151,0.0729 -0.007,0.24127 0.0148,0.31018 0.027,0.0849 0.0924,0.18362 0.1551,0.23423 l 0.0855,0.0504 -0.10319,0.0699 c -0.0802,0.0794 -0.11887,0.14619 -0.14593,0.25158 -0.0188,0.0731 -0.0208,0.20126 -0.004,0.27973 0.0156,0.0751 0.0664,0.1798 0.11106,0.22923 l 0.0367,0.0406 h -1.55466 -1.55467 z"
         id="path3808"
         inkscape:connector-curvature="0"
         sodipodi:nodetypes="ccccccccccccccccccccccc" />
      <path
         style="fill:#aa4400;stroke-width:0.01046094"
         d="m 117.17517,153.89068 c -0.20892,-0.0722 -0.30618,-0.35538 -0.19976,-0.58177 0.052,-0.11055 0.21523,-0.25753 0.33096,-0.26948 v 0 0 c 0.003,-0.0654 0.003,-0.0654 0,0 -0.1662,-0.026 -0.30612,-0.1773 -0.353,-0.3291 -0.0659,-0.21347 0.0264,-0.4445 0.20689,-0.51739 l 0.0598,-0.0242 1.77065,-0.003 1.77066,-0.003 -0.003,0.35756 -0.003,0.35757 -0.2406,0.0807 c -0.20885,0.0701 -0.23715,0.0821 -0.21445,0.091 0.0144,0.006 0.12384,0.0426 0.24322,0.0821 l 0.21707,0.0719 v 0.35324 0.35325 l -1.76529,-3.4e-4 c -1.68258,-3.2e-4 -1.76788,-0.001 -1.82067,-0.0195 z"
         id="path3810"
         inkscape:connector-curvature="0"
         sodipodi:nodetypes="cccccccccccccccscccccc" />
      <ellipse
         style="fill:#d38d5f;stroke:#000000;stroke-width:0.10951937;stroke-opacity:1"
         id="ellipse3812"
         cx="117.63776"
         cy="180.64603"
         rx="5.3648691"
         ry="8.1045847" />
      <g
         id="g3828"
         transform="matrix(0.06642285,0,0,0.06642285,116.09095,161.99996)">
        <g
           id="g3826"
           style="fill:none;fill-rule:evenodd;stroke:none;stroke-width:1"
           transform="matrix(0.61818536,0,0,0.61818536,-26.792154,211.0104)">
          <g
             id="g3824">
            <path
               id="path3814"
               d="m 90.802375,51 c 4.845123,3.760268 10.936685,6 17.553105,6 3.8412,0 7.5055,-0.75489 10.85171,-2.123943 C 121.78505,60.822885 127.86002,65 134.94352,65 144.36355,65 152,57.612698 152,48.5 152,39.969485 145.30813,32.950949 136.72561,32.088979 136.87381,30.913431 136.95017,29.715603 136.95017,28.5 136.95017,12.759885 124.14789,0 108.35548,0 99.83824,0 92.190743,3.711487 86.952263,9.6002847 84.65374,8.5783055 82.036298,8 79.259136,8 75.078031,8 71.258949,9.3108024 68.345159,11.472979 64.288066,4.5909983 56.988447,0 48.657807,0 38.310547,0 29.553888,7.0827388 26.625519,16.840923 24.209942,15.664564 21.466627,15 18.558139,15 8.8610468,15 1,22.387302 1,31.5 1,40.612698 8.8610468,48 18.558139,48 v 3 z"
               inkscape:connector-curvature="0"
               style="fill:#ffffff" />
            <path
               id="path3816"
               d="m 127,82 h 33 c 4.41828,0 8,3.581722 8,8 v 65 c 0,4.41828 -3.58172,8 -8,8 h -33 v 0 c -4.41828,0 -8,-3.58172 -8,-8 v -65 0 c 0,-4.418278 3.58172,-8 8,-8 z m -8,13 v 56 h 32 c 3.31371,0 6,-2.68629 6,-6 v -44 c 0,-3.313709 -2.68629,-6 -6,-6 z"
               inkscape:connector-curvature="0"
               style="fill:url(#linearGradient2479)" />
            <path
               id="path3818"
               d="m 18,48 h 116 v 150 0 c 0,8.83656 -7.16344,16 -16,16 H 34 v 0 c -8.836556,0 -16,-7.16344 -16,-16 z"
               inkscape:connector-curvature="0"
               style="fill:url(#linearGradient2481)" />
            <path
               id="path3820"
               d="m 28,66 h 96 v 130 0 c 0,4.41828 -3.58172,8 -8,8 H 36 v 0 c -4.418278,0 -8,-3.58172 -8,-8 z"
               inkscape:connector-curvature="0"
               style="fill:url(#linearGradient2483)" />
            <path
               id="path3822"
               d="m 51.5,37 v 0 c 4.69442,0 8.5,3.80558 8.5,8.5 v 61 0 c 0,4.69442 -3.80558,8.5 -8.5,8.5 v 0 c -4.69442,0 -8.5,-3.80558 -8.5,-8.5 v -61 0 C 43,40.80558 46.80558,37 51.5,37 Z m 0,99 c -4.69442,0 -8.5,-3.80558 -8.5,-8.5 0,-4.69442 3.80558,-8.5 8.5,-8.5 4.69442,0 8.5,3.80558 8.5,8.5 0,4.69442 -3.80558,8.5 -8.5,8.5 z m 30,-96 c 4.69442,0 8.5,3.80558 8.5,8.5 v 34 c 0,4.69442 -3.80558,8.5 -8.5,8.5 v 0 0 C 76.80558,91 73,87.19442 73,82.5 v -34 0 C 73,43.80558 76.80558,40 81.5,40 Z"
               inkscape:connector-curvature="0"
               style="fill:#ffffff" />
          </g>
        </g>
      </g>
    </g>
    <path
       class="main-color border-color"
       style="fill-opacity:1;stroke-width:0.43814012;stroke-miterlimit:4;stroke-dasharray:none;stroke-opacity:1"
       d="m 1.532069,294.44377 c -0.76475735,-0.8722 -1.1315448,-1.56984 -1.1315448,-2.15225 0,-0.6314 0.2183632,-0.99333 1.1506958,-1.90726 1.5087902,-1.47902 2.5939762,-2.44658 3.6988033,-3.29787 0.5763657,-0.44411 1.2685267,-0.98236 1.5381342,-1.1961 0.6906682,-0.54757 2.0343695,-1.83004 2.5472708,-2.43117 1.7742207,-2.07944 2.9111547,-4.38144 3.6851647,-7.46151 0.500469,-1.99154 0.935062,-3.05383 1.588104,-3.88183 0.831946,-1.05485 1.960822,-1.30853 3.190382,-0.71696 0.691751,0.33283 0.534794,0.19127 4.013152,3.6196 3.798157,3.74354 3.814343,3.76199 4.161189,4.7406 0.269839,0.76132 0.200408,1.44381 -0.210759,2.07173 -0.222071,0.33914 -0.425792,0.54001 -0.84513,0.83329 -0.89802,0.6281 -1.727891,0.94737 -3.830329,1.47358 -2.802927,0.70154 -4.901742,1.67964 -6.910965,3.2207 -0.388316,0.29783 -0.746009,0.62381 -1.447144,1.31887 -1.004526,0.99581 -1.16221,1.17859 -2.561088,2.96863 -0.9777178,1.25112 -1.8466435,2.21819 -3.3716112,3.75247 -0.8887129,0.89415 -1.0836864,1.03976 -1.5913598,1.18853 -0.5861932,0.17179 -1.2543677,-0.0374 -2.0750382,-0.64968 -0.287774,-0.2147 -1.3344835,-1.19291 -1.5979268,-1.49337 z m 2.24419,-0.71911 c 0.1805537,0.10136 0.5265116,0.13632 0.7257709,0.0733 0.7571595,-0.23932 0.8799343,-1.2613 0.2011645,-1.67451 -0.6078479,-0.37004 -1.4226215,0.0855 -1.4115515,0.78919 0.00562,0.35687 0.1727544,0.63691 0.4846161,0.81198 z m 15.449098,-11.48585 c 1.375569,-0.10228 2.737545,-0.40504 3.560468,-0.79147 0.329081,-0.15454 0.451175,-0.23788 0.696585,-0.4755 0.246858,-0.23902 0.307791,-0.32216 0.357567,-0.48791 0.07029,-0.23407 0.06826,-0.55567 -0.0049,-0.77575 -0.143595,-0.43202 -0.221674,-0.51722 -3.033334,-3.31026 -1.861436,-1.84912 -2.730211,-2.68999 -2.876062,-2.78367 -0.683087,-0.43875 -1.249323,-0.40628 -1.751416,0.10045 -0.601661,0.60723 -1.061464,2.09739 -1.252048,4.05779 l -0.05606,0.57658 1.973941,1.96016 1.973942,1.96017 z"
       id="path3745"
       inkscape:connector-curvature="0" />
    <path
       style="fill:#b3b3b3;stroke:#000000;stroke-width:0.317;stroke-miterlimit:4;stroke-dasharray:none;stroke-opacity:1"
       d="m 15.518821,278.77045 0.441732,-0.14609 1.292605,1.28358 1.292605,1.28358 c -0.0964,0.28905 -0.194031,0.57768 -0.294713,0.86527 0,0 -0.718655,-0.70207 -1.589891,-1.56723 l -1.584068,-1.57301 z"
       id="path3751"
       inkscape:connector-curvature="0"
       sodipodi:nodetypes="cccccccc" />
  </g>
</svg>
