<?xml version="1.0" encoding="UTF-8" standalone="no"?>
<svg
   xmlns:dc="http://purl.org/dc/elements/1.1/"
   xmlns:cc="http://creativecommons.org/ns#"
   xmlns:rdf="http://www.w3.org/1999/02/22-rdf-syntax-ns#"
   xmlns:svg="http://www.w3.org/2000/svg"
   xmlns="http://www.w3.org/2000/svg"
   id="svg974"
   version="1.1"
   viewBox="0 0 200 200"
   height="200mm"
   width="200mm">
  <defs
     id="defs968">
    <linearGradient
       gradientUnits="userSpaceOnUse"
       gradientTransform="scale(0.77777778,1.2857143)"
       x1="184.5"
       y1="35.965008"
       x2="184.5"
       y2="166.87286"
       id="linearGradient-1">
      <stop
         stop-color="#F7E2A8"
         offset="0%"
         id="stop994" />
      <stop
         stop-color="#F1DDAF"
         offset="100%"
         id="stop996" />
    </linearGradient>
    <linearGradient
       gradientUnits="userSpaceOnUse"
       gradientTransform="scale(0.8359397,1.1962585)"
       x1="90.915649"
       y1="40.125107"
       x2="90.915649"
       y2="178.8911"
       id="linearGradient-2">
      <stop
         stop-color="#F7E2A8"
         offset="0%"
         id="stop999" />
      <stop
         stop-color="#F1DDAF"
         offset="100%"
         id="stop1001" />
    </linearGradient>
    <linearGradient
       gradientUnits="userSpaceOnUse"
       gradientTransform="scale(0.83405766,1.1989579)"
       x1="91.120796"
       y1="55.047806"
       x2="91.120796"
       y2="170.14777"
       id="linearGradient-3">
      <stop
         stop-color="#F3B011"
         offset="0%"
         id="stop1004" />
      <stop
         stop-color="#F5A711"
         offset="100%"
         id="stop1006" />
    </linearGradient>
  </defs>
  <metadata
     id="metadata971">
    <rdf:RDF>
      <cc:Work
         rdf:about="">
        <dc:format>image/svg+xml</dc:format>
        <dc:type
           rdf:resource="http://purl.org/dc/dcmitype/StillImage" />
        <dc:title />
      </cc:Work>
    </rdf:RDF>
  </metadata>
  <g
     id="layer5">
    <path
       id="path969-7"
       d="m 49.13886,192.241 c -5.084285,-1.10596 -9.336,-4.92193 -11.121945,-9.98206 -0.550249,-1.55901 -0.734653,-2.73707 -0.736785,-4.70745 -0.0062,-4.39979 0.375543,-5.31743 6.791712,-16.38634 1.232082,-2.12559 3.846334,-6.64734 5.809394,-10.04823 1.963059,-3.40095 4.814288,-8.34006 6.336074,-10.97581 1.521755,-2.63572 4.608509,-7.99223 6.859419,-11.9033 2.250941,-3.91108 6.670938,-11.57172 9.82228,-17.02361 3.151342,-5.45183 6.093475,-10.92095 6.538116,-12.153592 L 80.24554,96.819459 V 69.821635 42.823781 L 78.915943,42.48898 c -3.155667,-0.794608 -5.267609,-3.531271 -5.264582,-6.821859 0.0017,-2.656971 1.454171,-4.993658 3.876574,-6.23964 1.096852,-0.56421 2.103047,-0.590064 22.971745,-0.590064 23.88686,0 22.62784,-0.09267 24.68214,1.813065 3.99695,3.707552 2.21604,10.498769 -3.10448,11.838498 l -1.32963,0.334801 c -0.0185,19.708219 0,34.742632 0,53.768956 l 0.76981,2.293165 c 0.43293,1.289598 2.28081,4.899078 4.22249,8.247708 4.9763,8.58217 6.19016,10.6854 10.84126,18.78536 2.29459,3.99612 6.50216,11.30042 9.35015,16.23175 2.84795,4.93142 6.30129,10.91394 7.6741,13.29464 1.37275,2.38065 3.42669,5.92844 4.56419,7.884 5.10065,8.76882 5.54807,9.91676 5.54341,14.22213 -0.006,5.77554 -6.59853,14.6753 -14.33133,14.6753 -34.34265,0 -69.49953,0 -100.24293,0.0124 z"
       style="fill:#f4dfac;fill-opacity:1;stroke:#f3dfad;stroke-width:0.30917692;stroke-opacity:1" />
    <path
       id="path967-1"
       d="m 150.90818,187.68837 c 3.86515,-1.01317 6.77303,-5.23978 6.73577,-9.53921 -0.0247,-2.78677 2.35674,1.58442 -24.06026,-44.17368 -9.20914,-15.95165 -16.96664,-29.51673 -17.23889,-30.14479 -0.27244,-0.62805 -0.77929,-2.1158 -1.12666,-3.30609 -0.57957,-1.985916 -0.76258,-14.934394 -0.76258,-14.934394 -0.0612,-15.788247 -0.0828,-31.576432 -0.0828,-47.364772 h 2.80292 c 1.54161,0 3.07202,-0.143941 3.40095,-0.320067 0.66846,-0.357751 0.79501,-1.523516 0.22703,-2.091494 -0.53641,-0.536442 -41.078797,-0.536442 -41.615208,0 -0.568009,0.567978 -0.441459,1.733743 0.227031,2.091494 0.328932,0.176065 1.864556,0.320067 3.412505,0.320067 h 2.814502 l -0.104094,30.067465 c -0.101624,29.444413 -0.117377,30.112316 -0.750067,32.231701 -0.355342,1.19029 -0.869543,2.67974 -1.14266,3.30983 -0.273055,0.63007 -9.311568,16.42131 -20.085399,35.09159 -10.773863,18.67027 -19.920672,34.57203 -20.3263,35.33726 -1.023152,1.93023 -1.056821,5.95596 -0.06796,8.10652 0.929344,2.02073 4.455179,5.2092 5.852484,5.31857 z"
       style="fill:#ffffff;fill-opacity:1;stroke-width:0.30917692" />
    <path
       id="path967-7-2"
       d="m 150.90818,187.68837 c 3.86515,-1.01317 6.77303,-5.23978 6.73577,-9.53921 -0.0247,-2.78677 2.35674,1.58442 -24.06026,-44.17368 -9.20914,-15.95165 -16.96664,-29.51673 -17.23889,-30.14479 -0.27244,-0.62805 -0.77929,-2.1158 -1.12666,-3.30609 -0.57957,-1.985916 -0.84536,-22.6089 -0.84536,-22.6089 -0.0612,-15.788247 0,-40.035507 0,-40.035507 H 85.642448 V 77.9157 c 0,0 0,16.344087 -0.854006,22.6089 -0.355373,1.19029 -0.869544,2.67974 -1.14266,3.30983 -0.273055,0.63007 -9.311537,16.42131 -20.085431,35.09159 -10.773831,18.67027 -19.920671,34.57203 -20.326299,35.33726 -1.023152,1.93023 -1.05679,5.95596 -0.06765,8.10652 0.929313,2.02073 4.455147,5.2092 5.852452,5.31857 z"
       style="fill:#f4a911;fill-opacity:1;stroke-width:0.30917692" />
    <path
       id="path3814-1-1-2"
       d="m 111.76563,37.305388 c 2.39544,2.199789 5.40713,3.51002 8.67829,3.51002 1.89912,0 3.71074,-0.441614 5.36516,-1.242492 1.27449,3.478946 4.278,5.9226 7.78008,5.9226 4.65731,0 8.43282,-4.321647 8.43282,-9.652639 0,-4.990446 -3.3085,-9.096337 -7.55172,-9.600592 0.0732,-0.687703 0.11119,-1.38844 0.11119,-2.099587 0,-9.208123 -6.32952,-16.6727409 -14.13728,-16.6727409 -4.21097,0 -7.99195,2.1712484 -10.58183,5.6162479 -1.13642,-0.597879 -2.4305,-0.936201 -3.80355,-0.936201 -2.06716,0 -3.95531,0.766839 -5.39589,2.031756 -2.005809,-4.026044 -5.614739,-6.7118029 -9.733445,-6.7118029 -5.11573,0 -9.445037,4.1434509 -10.892845,9.8520869 -1.194275,-0.688197 -2.550591,-1.07696 -3.988545,-1.07696 -4.794273,0 -8.680824,4.321647 -8.680824,9.652639 0,5.330992 3.886551,9.65264 8.680824,9.65264 l 2.302247,1.877807 z"
       style="fill:#ffffff;fill-rule:evenodd;stroke:none;stroke-width:0.53780156" />
    <path
       id="path3822-3-7-4"
       d="m 92.481666,31.076929 v 0 c 2.435095,0 4.409155,2.487207 4.409155,5.555305 v 39.86735 0 c 0,3.068128 -1.97406,5.555305 -4.409155,5.555305 v 0 c -2.435129,0 -4.409185,-2.487177 -4.409185,-5.555305 v -39.86735 0 c 0,-3.068098 1.974056,-5.555305 4.409185,-5.555305 z m 0,64.702821 c -2.435129,0 -4.409185,-2.487207 -4.409185,-5.555304 0,-3.068098 1.974056,-5.555274 4.409185,-5.555274 2.435095,0 4.409155,2.487176 4.409155,5.555274 0,3.068097 -1.97406,5.555304 -4.409155,5.555304 z M 108.04341,33.037641 c 2.4351,0 4.40912,2.487146 4.40912,5.555274 v 22.221157 c 0,3.068098 -1.97402,5.555305 -4.40912,5.555305 v 0 0 c -2.43513,0 -4.40919,-2.487207 -4.40919,-5.555305 v -22.221157 0 c 0,-3.068128 1.97406,-5.555274 4.40919,-5.555274 z"
       style="fill:#ffffff;fill-rule:evenodd;stroke:none;stroke-width:0.58225369" />
    <circle
       r="8.7166443"
       cy="168.36328"
       cx="71.927658"
       id="path10531-4"
       style="fill:#f4e0ab;fill-opacity:0.4672897;stroke:none;stroke-width:0.78506756;stroke-linecap:butt;stroke-linejoin:round;stroke-miterlimit:4;stroke-dasharray:none;stroke-opacity:0.4859813;paint-order:normal" />
    <circle
       r="3.7633042"
       cy="162.37807"
       cx="91.947426"
       id="path10531-44"
       style="fill:#f4e0ab;fill-opacity:0.4672897;stroke:none;stroke-width:0.33894324;stroke-linecap:butt;stroke-linejoin:round;stroke-miterlimit:4;stroke-dasharray:none;stroke-opacity:0.4859813;paint-order:normal" />
    <circle
       r="6.0335851"
       cy="158.04388"
       cx="111.76075"
       id="path10531-8"
       style="fill:#f4e0ab;fill-opacity:0.4672897;stroke:none;stroke-width:0.54341692;stroke-linecap:butt;stroke-linejoin:round;stroke-miterlimit:4;stroke-dasharray:none;stroke-opacity:0.4859813;paint-order:normal" />
    <circle
       r="8.4070606"
       cy="172.80069"
       cx="134.56679"
       id="path10531-31"
       style="fill:#f4e0ab;fill-opacity:0.4672897;stroke:none;stroke-width:0.75718468;stroke-linecap:butt;stroke-linejoin:round;stroke-miterlimit:4;stroke-dasharray:none;stroke-opacity:0.4859813;paint-order:normal" />
    <circle
       r="4.6920552"
       cy="126.98232"
       cx="89.986725"
       id="path10531-6"
       style="fill:#f4e0ab;fill-opacity:0.4672897;stroke:none;stroke-width:0.42259154;stroke-linecap:butt;stroke-linejoin:round;stroke-miterlimit:4;stroke-dasharray:none;stroke-opacity:0.4859813;paint-order:normal" />
    <circle
       r="5.4144173"
       cy="141.73912"
       cx="81.628021"
       id="path10531-03"
       style="fill:#f4e0ab;fill-opacity:0.4672897;stroke:none;stroke-width:0.48765135;stroke-linecap:butt;stroke-linejoin:round;stroke-miterlimit:4;stroke-dasharray:none;stroke-opacity:0.4859813;paint-order:normal" />
    <circle
       r="7.9942818"
       cy="133.17398"
       cx="107.94258"
       id="path10531-64"
       style="fill:#f4e0ab;fill-opacity:0.4672897;stroke:none;stroke-width:0.72000766;stroke-linecap:butt;stroke-linejoin:round;stroke-miterlimit:4;stroke-dasharray:none;stroke-opacity:0.4859813;paint-order:normal" />
    <circle
       r="4.4856663"
       cy="176.10286"
       cx="105.8787"
       id="path10531-4-0"
       style="fill:#f4e0ab;fill-opacity:0.4672897;stroke:none;stroke-width:0.40400305;stroke-linecap:butt;stroke-linejoin:round;stroke-miterlimit:4;stroke-dasharray:none;stroke-opacity:0.4859813;paint-order:normal" />
    <circle
       r="3.3505256"
       cy="150.30431"
       cx="127.54957"
       id="path10531-4-0-1"
       style="fill:#f4e0ab;fill-opacity:0.4672897;stroke:none;stroke-width:0.30176622;stroke-linecap:butt;stroke-linejoin:round;stroke-miterlimit:4;stroke-dasharray:none;stroke-opacity:0.4859813;paint-order:normal" />
    <circle
       r="4.4856663"
       cy="108.59382"
       cx="104.76965"
       id="path10531-4-0-14"
       style="fill:#f4e0ab;fill-opacity:0.4672897;stroke:none;stroke-width:0.40400305;stroke-linecap:butt;stroke-linejoin:round;stroke-miterlimit:4;stroke-dasharray:none;stroke-opacity:0.4859813;paint-order:normal" />
  </g>
  <g
     transform="translate(0,-97)"
     id="layer1" />
  <g
     id="layer2" />
  <g
     id="layer3" />
  <g
     id="layer4" />
</svg>
